  0
SECTION
  2
HEADER
  9
$ACADVER
  1
AC1015
  9
$ACADMAINTVER
 70
     6
  9
$DWGCODEPAGE
  3
ANSI_1252
  9
$INSBASE
 10
0.0
 20
0.0
 30
0.0
  9
$EXTMIN
 10
-59.1559592792
 20
-34.097593609
 30
0.0
  9
$EXTMAX
 10
52.5024658397
 20
74.8589510829
 30
0.0
  9
$LIMMIN
 10
0.0
 20
0.0
  9
$LIMMAX
 10
420.0
 20
297.0
  9
$ORTHOMODE
 70
     0
  9
$REGENMODE
 70
     1
  9
$FILLMODE
 70
     1
  9
$QTEXTMODE
 70
     0
  9
$MIRRTEXT
 70
     1
  9
$LTSCALE
 40
1.0
  9
$ATTMODE
 70
     1
  9
$TEXTSIZE
 40
3.5
  9
$TRACEWID
 40
1.0
  9
$TEXTSTYLE
  7
Standard
  9
$CLAYER
  8
0
  9
$CELTYPE
  6
ByLayer
  9
$CECOLOR
 62
   256
  9
$CELTSCALE
 40
1.0
  9
$DISPSILH
 70
     0
  9
$DIMSCALE
 40
1.0
  9
$DIMASZ
 40
3.302
  9
$DIMEXO
 40
1.0
  9
$DIMDLI
 40
3.75
  9
$DIMRND
 40
0.0
  9
$DIMDLE
 40
0.0
  9
$DIMEXE
 40
1.0
  9
$DIMTP
 40
0.0
  9
$DIMTM
 40
0.0
  9
$DIMTXT
 40
3.5
  9
$DIMCEN
 40
2.5
  9
$DIMTSZ
 40
0.0
  9
$DIMTOL
 70
     0
  9
$DIMLIM
 70
     0
  9
$DIMTIH
 70
     1
  9
$DIMTOH
 70
     1
  9
$DIMSE1
 70
     0
  9
$DIMSE2
 70
     0
  9
$DIMTAD
 70
     1
  9
$DIMZIN
 70
     0
  9
$DIMBLK
  1

  9
$DIMASO
 70
     1
  9
$DIMSHO
 70
     1
  9
$DIMPOST
  1

  9
$DIMAPOST
  1

  9
$DIMALT
 70
     0
  9
$DIMALTD
 70
     3
  9
$DIMALTF
 40
0.0393700787
  9
$DIMLFAC
 40
1.0
  9
$DIMTOFL
 70
     1
  9
$DIMTVP
 40
0.0
  9
$DIMTIX
 70
     0
  9
$DIMSOXD
 70
     0
  9
$DIMSAH
 70
     0
  9
$DIMBLK1
  1

  9
$DIMBLK2
  1

  9
$DIMSTYLE
  2
ISO-25
  9
$DIMCLRD
 70
     0
  9
$DIMCLRE
 70
     0
  9
$DIMCLRT
 70
     0
  9
$DIMTFAC
 40
1.0
  9
$DIMGAP
 40
1.524
  9
$DIMJUST
 70
     0
  9
$DIMSD1
 70
     0
  9
$DIMSD2
 70
     0
  9
$DIMTOLJ
 70
     0
  9
$DIMTZIN
 70
     0
  9
$DIMALTZ
 70
     0
  9
$DIMALTTZ
 70
     0
  9
$DIMUPT
 70
     0
  9
$DIMDEC
 70
     2
  9
$DIMTDEC
 70
     2
  9
$DIMALTU
 70
     2
  9
$DIMALTTD
 70
     3
  9
$DIMTXSTY
  7
Standard
  9
$DIMAUNIT
 70
     0
  9
$DIMADEC
 70
     2
  9
$DIMALTRND
 40
0.0
  9
$DIMAZIN
 70
     0
  9
$DIMDSEP
 70
    44
  9
$DIMATFIT
 70
     3
  9
$DIMFRAC
 70
     0
  9
$DIMLDRBLK
  1

  9
$DIMLUNIT
 70
     2
  9
$DIMLWD
 70
    -2
  9
$DIMLWE
 70
    -2
  9
$DIMTMOVE
 70
     0
  9
$LUNITS
 70
     2
  9
$LUPREC
 70
     2
  9
$SKETCHINC
 40
1.0
  9
$FILLETRAD
 40
10.0
  9
$AUNITS
 70
     0
  9
$AUPREC
 70
     2
  9
$MENU
  1
.
  9
$ELEVATION
 40
0.0
  9
$PELEVATION
 40
0.0
  9
$THICKNESS
 40
0.0
  9
$LIMCHECK
 70
     0
  9
$CHAMFERA
 40
0.0
  9
$CHAMFERB
 40
0.0
  9
$CHAMFERC
 40
0.0
  9
$CHAMFERD
 40
0.0
  9
$SKPOLY
 70
     0
  9
$TDCREATE
 40
2458916.551047234
  9
$TDUCREATE
 40
2458916.801047234
  9
$TDUPDATE
 40
2458916.551261505
  9
$TDUUPDATE
 40
2458916.801261505
  9
$TDINDWG
 40
0.0000000116
  9
$TDUSRTIMER
 40
0.0000000116
  9
$USRTIMER
 70
     1
  9
$ANGBASE
 50
0.0
  9
$ANGDIR
 70
     0
  9
$PDMODE
 70
     0
  9
$PDSIZE
 40
-1.0
  9
$PLINEWID
 40
0.0
  9
$SPLFRAME
 70
     0
  9
$SPLINETYPE
 70
     6
  9
$SPLINESEGS
 70
     8
  9
$HANDSEED
  5
36D
  9
$SURFTAB1
 70
     6
  9
$SURFTAB2
 70
     6
  9
$SURFTYPE
 70
     6
  9
$SURFU
 70
     6
  9
$SURFV
 70
     6
  9
$UCSBASE
  2

  9
$UCSNAME
  2

  9
$UCSORG
 10
0.0
 20
0.0
 30
0.0
  9
$UCSXDIR
 10
1.0
 20
0.0
 30
0.0
  9
$UCSYDIR
 10
0.0
 20
1.0
 30
0.0
  9
$UCSORTHOREF
  2

  9
$UCSORTHOVIEW
 70
     0
  9
$UCSORGTOP
 10
0.0
 20
0.0
 30
0.0
  9
$UCSORGBOTTOM
 10
0.0
 20
0.0
 30
0.0
  9
$UCSORGLEFT
 10
0.0
 20
0.0
 30
0.0
  9
$UCSORGRIGHT
 10
0.0
 20
0.0
 30
0.0
  9
$UCSORGFRONT
 10
0.0
 20
0.0
 30
0.0
  9
$UCSORGBACK
 10
0.0
 20
0.0
 30
0.0
  9
$PUCSBASE
  2

  9
$PUCSNAME
  2

  9
$PUCSORG
 10
0.0
 20
0.0
 30
0.0
  9
$PUCSXDIR
 10
1.0
 20
0.0
 30
0.0
  9
$PUCSYDIR
 10
0.0
 20
1.0
 30
0.0
  9
$PUCSORTHOREF
  2

  9
$PUCSORTHOVIEW
 70
     0
  9
$PUCSORGTOP
 10
0.0
 20
0.0
 30
0.0
  9
$PUCSORGBOTTOM
 10
0.0
 20
0.0
 30
0.0
  9
$PUCSORGLEFT
 10
0.0
 20
0.0
 30
0.0
  9
$PUCSORGRIGHT
 10
0.0
 20
0.0
 30
0.0
  9
$PUCSORGFRONT
 10
0.0
 20
0.0
 30
0.0
  9
$PUCSORGBACK
 10
0.0
 20
0.0
 30
0.0
  9
$USERI1
 70
     0
  9
$USERI2
 70
     0
  9
$USERI3
 70
     0
  9
$USERI4
 70
     0
  9
$USERI5
 70
     0
  9
$USERR1
 40
0.0
  9
$USERR2
 40
0.0
  9
$USERR3
 40
0.0
  9
$USERR4
 40
0.0
  9
$USERR5
 40
0.0
  9
$WORLDVIEW
 70
     1
  9
$SHADEDGE
 70
     3
  9
$SHADEDIF
 70
    70
  9
$TILEMODE
 70
     1
  9
$MAXACTVP
 70
    64
  9
$PINSBASE
 10
0.0
 20
0.0
 30
0.0
  9
$PLIMCHECK
 70
     0
  9
$PEXTMIN
 10
1.0000000000E+20
 20
1.0000000000E+20
 30
1.0000000000E+20
  9
$PEXTMAX
 10
-1.0000000000E+20
 20
-1.0000000000E+20
 30
-1.0000000000E+20
  9
$PLIMMIN
 10
0.0
 20
0.0
  9
$PLIMMAX
 10
420.0
 20
297.0
  9
$UNITMODE
 70
     0
  9
$VISRETAIN
 70
     1
  9
$PLINEGEN
 70
     0
  9
$PSLTSCALE
 70
     1
  9
$TREEDEPTH
 70
  3020
  9
$CMLSTYLE
  2
Standard
  9
$CMLJUST
 70
     0
  9
$CMLSCALE
 40
20.0
  9
$PROXYGRAPHICS
 70
     1
  9
$MEASUREMENT
 70
     1
  9
$CELWEIGHT
370
    -1
  9
$ENDCAPS
280
     0
  9
$JOINSTYLE
280
     0
  9
$LWDISPLAY
290
     1
  9
$INSUNITS
 70
     4
  9
$HYPERLINKBASE
  1

  9
$STYLESHEET
  1

  9
$XEDIT
290
     1
  9
$CEPSNTYPE
380
     0
  9
$PSTYLEMODE
290
     1
  9
$FINGERPRINTGUID
  2
{370B2576-6EA1-44FF-AFD7-D7EB241F88D4}
  9
$VERSIONGUID
  2
{FAEB1C32-E019-11D5-929B-00C0DF256EC4}
  9
$EXTNAMES
290
     1
  9
$PSVPSCALE
 40
0.0
  9
$OLESTARTUP
290
     0
  0
ENDSEC
  0
SECTION
  2
CLASSES
  0
CLASS
  1
ACDBDICTIONARYWDFLT
  2
AcDbDictionaryWithDefault
  3
ObjectDBX Classes
 90
        0
280
     0
281
     0
  0
CLASS
  1
VISUALSTYLE
  2
AcDbVisualStyle
  3
ObjectDBX Classes
 90
     4095
280
     0
281
     0
  0
CLASS
  1
MATERIAL
  2
AcDbMaterial
  3
ObjectDBX Classes
 90
     1153
280
     0
281
     0
  0
CLASS
  1
SCALE
  2
AcDbScale
  3
ObjectDBX Classes
 90
     1153
280
     0
281
     0
  0
CLASS
  1
TABLESTYLE
  2
AcDbTableStyle
  3
ObjectDBX Classes
 90
     4095
280
     0
281
     0
  0
CLASS
  1
MLEADERSTYLE
  2
AcDbMLeaderStyle
  3
ACDB_MLEADERSTYLE_CLASS
 90
     4095
280
     0
281
     0
  0
CLASS
  1
SUN
  2
AcDbSun
  3
SCENEOE
 90
     1153
280
     0
281
     0
  0
CLASS
  1
ACDBPLACEHOLDER
  2
AcDbPlaceHolder
  3
ObjectDBX Classes
 90
        0
280
     0
281
     0
  0
CLASS
  1
LAYOUT
  2
AcDbLayout
  3
ObjectDBX Classes
 90
        0
280
     0
281
     0
  0
ENDSEC
  0
SECTION
  2
TABLES
  0
TABLE
  2
VPORT
  5
8
330
0
100
AcDbSymbolTable
 70
     1
  0
VPORT
  5
29
330
8
100
AcDbSymbolTableRecord
100
AcDbViewportTableRecord
  2
*Active
 70
     0
 10
0.0
 20
0.0
 11
1.0
 21
1.0
 12
-3.3267467197
 22
20.3806787369
 13
0.0
 23
0.0
 14
10.0
 24
10.0
 15
10.0
 25
10.0
 16
0.0
 26
0.0
 36
1.0
 17
0.0
 27
0.0
 37
0.0
 40
111.1356755857
 41
1.02479778
 42
50.0
 43
0.0
 44
0.0
 50
0.0
 51
0.0
 71
     0
 72
   100
 73
     1
 74
     3
 75
     0
 76
     0
 77
     0
 78
     0
281
     0
 65
     1
110
0.0
120
0.0
130
0.0
111
1.0
121
0.0
131
0.0
112
0.0
122
1.0
132
0.0
 79
     0
146
0.0
  0
ENDTAB
  0
TABLE
  2
LTYPE
  5
5
330
0
100
AcDbSymbolTable
 70
     6
  0
LTYPE
  5
14
330
5
100
AcDbSymbolTableRecord
100
AcDbLinetypeTableRecord
  2
ByBlock
 70
     0
  3

 72
    65
 73
     0
 40
0.0
  0
LTYPE
  5
15
330
5
100
AcDbSymbolTableRecord
100
AcDbLinetypeTableRecord
  2
ByLayer
 70
     0
  3

 72
    65
 73
     0
 40
0.0
  0
LTYPE
  5
16
330
5
100
AcDbSymbolTableRecord
100
AcDbLinetypeTableRecord
  2
Continuous
 70
     0
  3
Solid line
 72
    65
 73
     0
 40
0.0
  0
LTYPE
  5
6E
330
5
100
AcDbSymbolTableRecord
100
AcDbLinetypeTableRecord
  2
HIDDEN
 70
     0
  3
Hidden __ __ __ __ __ __ __ __ __ __ __ __ __ __
 72
    65
 73
     2
 40
1.905
 49
1.27
 74
     0
 49
-0.635
 74
     0
  0
LTYPE
  5
6F
330
5
100
AcDbSymbolTableRecord
100
AcDbLinetypeTableRecord
  2
PHANTOM
 70
     0
  3
Phantom ______  __  __  ______  __  __  ______
 72
    65
 73
     6
 40
12.7
 49
6.35
 74
     0
 49
-1.27
 74
     0
 49
1.27
 74
     0
 49
-1.27
 74
     0
 49
1.27
 74
     0
 49
-1.27
 74
     0
  0
LTYPE
  5
70
330
5
100
AcDbSymbolTableRecord
100
AcDbLinetypeTableRecord
  2
CENTER
 70
     0
  3
Center ____ _ ____ _ ____ _ ____ _ ____ _ ____
 72
    65
 73
     4
 40
10.16
 49
6.35
 74
     0
 49
-1.27
 74
     0
 49
1.27
 74
     0
 49
-1.27
 74
     0
  0
LTYPE
  5
71
330
5
100
AcDbSymbolTableRecord
100
AcDbLinetypeTableRecord
  2
CENTERX2
 70
     0
  3
Center (2x) ________  __  ________  __  _____
 72
    65
 73
     4
 40
20.32
 49
12.7
 74
     0
 49
-2.54
 74
     0
 49
2.54
 74
     0
 49
-2.54
 74
     0
  0
LTYPE
  5
72
330
5
100
AcDbSymbolTableRecord
100
AcDbLinetypeTableRecord
  2
DOT2
 70
     0
  3
Dot (.5x) ........................................
 72
    65
 73
     2
 40
0.635
 49
0.0
 74
     0
 49
-0.635
 74
     0
  0
ENDTAB
  0
TABLE
  2
LAYER
  5
2
330
0
100
AcDbSymbolTable
 70
     1
  0
LAYER
  5
10
330
2
100
AcDbSymbolTableRecord
100
AcDbLayerTableRecord
  2
0
 70
     0
 62
     7
  6
Continuous
370
    -3
390
F
  0
ENDTAB
  0
TABLE
  2
STYLE
  5
3
330
0
100
AcDbSymbolTable
 70
     2
  0
STYLE
  5
11
330
3
100
AcDbSymbolTableRecord
100
AcDbTextStyleTableRecord
  2
Standard
 70
     0
 40
0.0
 41
1.0
 50
0.0
 71
     0
 42
3.5
  3
txt
  4

  0
STYLE
  5
36A
330
3
100
AcDbSymbolTableRecord
100
AcDbTextStyleTableRecord
  2
SLDTEXTSTYLE0
 70
     0
 40
0.0
 41
0.7
 50
0.0
 71
     0
 42
3.5
  3
TXT
  4

  0
ENDTAB
  0
TABLE
  2
VIEW
  5
6
330
0
100
AcDbSymbolTable
 70
     0
  0
ENDTAB
  0
TABLE
  2
UCS
  5
7
330
0
100
AcDbSymbolTable
 70
     0
  0
ENDTAB
  0
TABLE
  2
APPID
  5
9
330
0
100
AcDbSymbolTable
 70
     1
  0
APPID
  5
12
330
9
100
AcDbSymbolTableRecord
100
AcDbRegAppTableRecord
  2
ACAD
 70
     0
  0
ENDTAB
  0
TABLE
  2
DIMSTYLE
  5
A
330
0
100
AcDbSymbolTable
 70
     1
100
AcDbDimStyleTable
  0
DIMSTYLE
105
27
330
A
100
AcDbSymbolTableRecord
100
AcDbDimStyleTableRecord
  2
ISO-25
 70
     0
 41
2.5
 42
0.625
 43
3.75
 44
1.25
 73
     0
 74
     0
 77
     1
 78
     8
140
2.5
141
2.5
143
0.0393700787
147
0.625
171
     3
172
     1
178
     0
271
     2
272
     2
274
     3
278
    44
283
     0
284
     8
340
11
  0
ENDTAB
  0
TABLE
  2
BLOCK_RECORD
  5
1
330
0
100
AcDbSymbolTable
 70
     1
  0
BLOCK_RECORD
  5
1F
330
1
100
AcDbSymbolTableRecord
100
AcDbBlockTableRecord
  2
*Model_Space
340
22
  0
BLOCK_RECORD
  5
1B
330
1
100
AcDbSymbolTableRecord
100
AcDbBlockTableRecord
  2
*Paper_Space
340
1E
  0
BLOCK_RECORD
  5
23
330
1
100
AcDbSymbolTableRecord
100
AcDbBlockTableRecord
  2
*Paper_Space0
340
26
  0
ENDTAB
  0
ENDSEC
  0
SECTION
  2
BLOCKS
  0
BLOCK
  5
20
330
1F
100
AcDbEntity
  8
0
100
AcDbBlockBegin
  2
*Model_Space
 70
     0
 10
0.0
 20
0.0
 30
0.0
  3
*Model_Space
  1

  0
ENDBLK
  5
21
330
1F
100
AcDbEntity
  8
0
100
AcDbBlockEnd
  0
BLOCK
  5
1C
330
1B
100
AcDbEntity
 67
     1
  8
0
100
AcDbBlockBegin
  2
*Paper_Space
 70
     0
 10
0.0
 20
0.0
 30
0.0
  3
*Paper_Space
  1

  0
ENDBLK
  5
1D
330
1B
100
AcDbEntity
 67
     1
  8
0
100
AcDbBlockEnd
  0
BLOCK
  5
24
330
23
100
AcDbEntity
  8
0
100
AcDbBlockBegin
  2
*Paper_Space0
 70
     0
 10
0.0
 20
0.0
 30
0.0
  3
*Paper_Space0
  1

  0
ENDBLK
  5
25
330
23
100
AcDbEntity
  8
0
100
AcDbBlockEnd
  0
ENDSEC
  0
SECTION
  2
ENTITIES
  0
LWPOLYLINE
  5
73
330
1F
100
AcDbEntity
  8
0
  6
CENTERX2
 62
     7
100
AcDbPolyline
 90
       20
 70
   128
 43
0.0
 10
-27.9378556485
 20
42.016632148
 10
-26.4238688685
 20
37.6977727471
 10
-22.929928263
 20
34.1513161327
 10
-17.834656511
 20
31.7615759079
 10
-11.6902053679
 20
30.7875175067
 10
-5.1624214561
 20
31.334695271
 10
1.0413085486
 20
33.3438139995
 10
6.2487142393
 20
36.5971545035
 10
9.8954924083
 20
40.7421668586
 10
11.5864580553
 20
45.3296746594
 10
11.1383688144
 20
49.8625502535
 10
8.5997821078
 20
53.8495862352
 10
4.2457931953
 20
56.8587253907
 10
-1.4517756653
 20
58.563880801
 10
-7.8755044811
 20
58.7802724191
 10
-14.3292825605
 20
57.4844508556
 10
-20.1137429078
 20
54.8168384835
 10
-24.6020494894
 20
51.0665124957
 10
-27.3078246437
 20
46.6398789053
 10
-27.9378556485
 20
42.016632148
  0
LWPOLYLINE
  5
74
330
1F
100
AcDbEntity
  8
0
  6
CENTERX2
 62
     7
100
AcDbPolyline
 90
       25
 70
   128
 43
0.0
 10
-37.8303835124
 20
40.6121846543
 10
-36.2906912702
 20
35.4099135209
 10
-32.8334482325
 20
30.8493008953
 10
-27.6942597991
 20
27.2411449911
 10
-21.2233531687
 20
24.8313356706
 10
-13.8617099347
 20
23.7840974564
 10
-6.1110139175
 20
24.1707979022
 10
1.5005377577
 20
25.9650840117
 10
8.454230423
 20
29.0446781518
 10
14.2761814148
 20
33.199711071
 10
18.5696343942
 20
38.1470241424
 10
21.041997636
 20
43.5494661561
 10
21.524783671
 20
49.0388696167
 10
19.9850914287
 20
54.2411407501
 10
16.527848391
 20
58.8017533757
 10
11.3886599576
 20
62.4099092798
 10
4.9177533273
 20
64.8197186004
 10
-2.4438899068
 20
65.8669568146
 10
-10.1945859239
 20
65.4802563688
 10
-17.8061375991
 20
63.6859702592
 10
-24.7598302644
 20
60.6063761192
 10
-30.5817812562
 20
56.4513432
 10
-34.8752342357
 20
51.5040301285
 10
-37.3475974775
 20
46.1015881149
 10
-37.8303835124
 20
40.6121846543
  0
LWPOLYLINE
  5
75
330
1F
100
AcDbEntity
  8
0
  6
CENTERX2
 62
     7
100
AcDbPolyline
 90
       17
 70
   128
 43
0.0
 10
-18.0453277846
 20
43.4210796417
 10
-17.0318513804
 20
40.893245949
 10
-14.6666198802
 20
38.9640664207
 10
-11.3097183391
 20
37.9272411519
 10
-7.4722045863
 20
37.9406173911
 10
-3.7383053036
 20
39.0021587269
 10
-0.6764728089
 20
40.950255114
 10
1.2471566561
 20
43.4883265369
 10
1.7397279432
 20
46.2299746292
 10
0.7262515389
 20
48.757808322
 10
-1.6389799613
 20
50.6869878503
 10
-4.9958815024
 20
51.723813119
 10
-8.8333952551
 20
51.7104368799
 10
-12.5672945378
 20
50.6488955441
 10
-15.6291270326
 20
48.700799157
 10
-17.5527564976
 20
46.1627277341
 10
-18.0453277846
 20
43.4210796417
  0
LINE
  5
76
330
1F
100
AcDbEntity
  8
0
  6
Continuous
 62
     7
100
AcDbLine
 10
-12.6356772816
 20
30.8361418537
 30
0.0
 11
-10.3942386011
 21
37.8308344946
 31
0.0
  0
LINE
  5
77
330
1F
100
AcDbEntity
  8
0
  6
Continuous
 62
     7
100
AcDbLine
 10
11.1657166051
 20
43.4857811733
 30
0.0
 11
1.5064583422
 21
44.1556541544
 31
0.0
  0
LINE
  5
78
330
1F
100
AcDbEntity
  8
0
  6
Continuous
 62
     7
100
AcDbLine
 10
17.0923906077
 20
58.2424957492
 30
0.0
 11
8.6773270982
 21
53.770172878
 31
0.0
  0
LINE
  5
79
330
1F
100
AcDbEntity
  8
0
  6
Continuous
 62
     7
100
AcDbLine
 10
-23.8883715059
 20
61.0845261139
 30
0.0
 11
-18.6431809775
 21
55.6648597878
 31
0.0
  0
LINE
  5
7A
330
1F
100
AcDbEntity
  8
0
  6
Continuous
 62
     7
100
AcDbLine
 10
2.337581136
 20
33.9861944832
 30
0.0
 11
7.5827716644
 21
28.566528157
 31
0.0
  0
LINE
  5
7B
330
1F
100
AcDbEntity
  8
0
  6
Continuous
 62
     7
100
AcDbLine
 10
-24.9829269397
 20
35.880881393
 30
0.0
 11
-33.3979904491
 21
31.4085585217
 31
0.0
  0
LINE
  5
7C
330
1F
100
AcDbEntity
  8
0
  6
Continuous
 62
     7
100
AcDbLine
 10
-5.9113612403
 20
51.8202197764
 30
0.0
 11
-3.6699225599
 21
58.8149124173
 31
0.0
  0
LINE
  5
7D
330
1F
100
AcDbEntity
  8
0
  6
Continuous
 62
     7
100
AcDbLine
 10
-17.8120581836
 20
45.4954001166
 30
0.0
 11
-27.4713164465
 21
46.1652730976
 31
0.0
  0
LWPOLYLINE
  5
7E
330
1F
100
AcDbEntity
  8
0
  6
Continuous
 62
     7
100
AcDbPolyline
 90
       12
 70
   128
 43
0.0
 10
-8.799640629
 20
55.1320931008
 10
-8.5508941892
 20
55.9083472573
 10
-8.5508941892
 20
55.9083472573
 10
-4.6871908841
 20
55.6403980649
 10
-4.6871908841
 20
55.6403980649
 10
-4.8481146868
 20
55.1382150035
 10
-4.8481146868
 20
55.1382150035
 10
-8.0678674411
 20
55.3615059972
 10
-8.0678674411
 20
55.3615059972
 10
-8.2517803584
 20
54.7875824984
 10
-8.2517803584
 20
54.7875824984
 10
-8.7996435941
 20
55.1320933064
  0
LWPOLYLINE
  5
7F
330
1F
100
AcDbEntity
  8
0
  6
Continuous
 62
     7
100
AcDbPolyline
 90
      122
 70
   128
 43
0.0
 10
-22.3650656515
 20
48.6712076796
 10
-20.6058147145
 20
48.5492030042
 10
-20.6058147145
 20
48.5492030042
 10
-20.7552439598
 20
48.0828901614
 10
-20.7552439598
 20
48.0828901614
 10
-21.9649731798
 20
48.1667853112
 10
-21.9649731798
 20
48.1667853112
 10
-22.2854438108
 20
47.6481663511
 10
-22.2854438108
 20
47.6481663511
 10
-22.219753837
 20
47.6556422091
 10
-22.1551414779
 20
47.659755234
 10
-22.0947026497
 20
47.6607201288
 10
-22.0376633733
 20
47.6584832178
 10
-22.0376633733
 20
47.6584832178
 10
-21.9158579252
 20
47.6460254732
 10
-21.801390388
 20
47.6254827004
 10
-21.6956291176
 20
47.5975227231
 10
-21.5972057581
 20
47.5614777175
 10
-21.5068942887
 20
47.5174013595
 10
-21.424515107
 20
47.4658541212
 10
-21.3500682128
 20
47.4068360027
 10
-21.2837332087
 20
47.3397865316
 10
-21.227113622
 20
47.2671086239
 10
-21.1821721847
 20
47.1900842511
 10
-21.149323671
 20
47.1098880331
 10
-21.1289272858
 20
47.0253990258
 10
-21.1200294476
 20
46.9371240255
 10
-21.1226301565
 20
46.8450630321
 10
-21.1375033914
 20
46.7492697216
 10
-21.1638751734
 20
46.649690418
 10
-21.1638751734
 20
46.649690418
 10
-21.2022158456
 20
46.5497953059
 10
-21.2503146095
 20
46.4540144869
 10
-21.3093602182
 20
46.3635762567
 10
-21.3795322741
 20
46.2779201433
 10
-21.4591032167
 20
46.1974992672
 10
-21.54920623
 20
46.1212463599
 10
-21.6502560881
 20
46.0503360415
 10
-21.7616584143
 20
45.984154164
 10
-21.8795988829
 20
45.9247279133
 10
-21.9993095862
 20
45.8745912716
 10
-22.1217441059
 20
45.8332374424
 10
-22.2465432369
 20
45.80178737
 10
-22.3732922053
 20
45.7790664345
 10
-22.50276499
 20
45.7651283116
 10
-22.633828407
 20
45.7610402697
 10
-22.7676156404
 20
45.7657350405
 10
-22.7676156404
 20
45.7657350405
 10
-22.8849568168
 20
45.7773102586
 10
-22.9966320736
 20
45.7942218197
 10
-23.1013286242
 20
45.8180974648
 10
-23.2003592551
 20
45.8473094529
 10
-23.2925907823
 20
45.8829250526
 10
-23.3791563898
 20
45.9238769955
 10
-23.4587432912
 20
45.9717930222
 10
-23.5326642728
 20
46.0250453919
 10
-23.5985973977
 20
46.0834730776
 10
-23.6561278916
 20
46.1459014592
 10
-23.7043021732
 20
46.212837333
 10
-23.7434794472
 20
46.2831597548
 10
-23.7731209064
 20
46.3585501411
 10
-23.7945393372
 20
46.437380751
 10
-23.8066015555
 20
46.5207188533
 10
-23.8102611429
 20
46.6080576514
 10
-23.8102611429
 20
46.6080576514
 10
-23.0177066188
 20
46.5530937145
 10
-23.0177066188
 20
46.5530937145
 10
-22.9907205118
 20
46.4916377417
 10
-22.9542541592
 20
46.4375452978
 10
-22.9084871634
 20
46.3902559105
 10
-22.8532399219
 20
46.3503300521
 10
-22.7910139743
 20
46.3173682776
 10
-22.7231776762
 20
46.2920384105
 10
-22.648003467
 20
46.2747935716
 10
-22.5672189073
 20
46.2651806402
 10
-22.5672189073
 20
46.2651806402
 10
-22.5092260494
 20
46.2634505256
 10
-22.4524775139
 20
46.2652442712
 10
-22.3966140958
 20
46.2716828212
 10
-22.3418153975
 20
46.2822057036
 10
-22.2873074401
 20
46.2967592426
 10
-22.2338642026
 20
46.3153971139
 10
-22.181485685
 20
46.3381193176
 10
-22.1301718872
 20
46.3649258536
 10
-22.0816503698
 20
46.3953636011
 10
-22.0370543167
 20
46.4283652917
 10
-21.9973373095
 20
46.4634241288
 10
-21.9621401431
 20
46.5016610568
 10
-21.9308684411
 20
46.5424619277
 10
-21.9035222035
 20
46.5858267417
 10
-21.8808754091
 20
46.6318091743
 10
-21.8629280582
 20
46.6804092256
 10
-21.8629280582
 20
46.6804092256
 10
-21.8499837863
 20
46.728210387
 10
-21.8433553799
 20
46.7735849175
 10
-21.841135676
 20
46.8175464101
 10
-21.8450522352
 20
46.8596417441
 10
-21.8543310783
 20
46.8998172438
 10
-21.8697461845
 20
46.9381265848
 10
-21.8895699932
 20
46.975022888
 10
-21.9157096673
 20
47.0094925603
 10
-21.9458432699
 20
47.0413745747
 10
-21.9795560267
 20
47.069494311
 10
-22.0168479379
 20
47.0938517694
 10
-22.0569450243
 20
47.114393274
 10
-22.1004416625
 20
47.1317329728
 10
-22.1476970575
 20
47.1447499214
 10
-22.1975780253
 20
47.1545113884
 10
-22.2512177499
 20
47.1599501053
 10
-22.2512177499
 20
47.1599501053
 10
-22.3109381683
 20
47.1612270992
 10
-22.3716806322
 20
47.1568456957
 10
-22.4332655392
 20
47.1473663669
 10
-22.4968260733
 20
47.1317218443
 10
-22.5614086529
 20
47.1104189244
 10
-22.6277872572
 20
47.0835112827
 10
-22.6951879069
 20
47.0509452437
 10
-22.7643845813
 20
47.012774483
 10
-22.7643845813
 20
47.012774483
 10
-23.3168935427
 20
47.1502076605
 10
-23.3168935427
 20
47.1502076605
 10
-22.3650690439
 20
48.6712079149
  0
LWPOLYLINE
  5
80
330
1F
100
AcDbEntity
  8
0
  6
Continuous
 62
     7
100
AcDbPolyline
 90
       12
 70
   128
 43
0.0
 10
-15.8687933904
 20
33.0719086179
 10
-15.6200469506
 20
33.8481627745
 10
-15.6200469506
 20
33.8481627745
 10
-11.7563436454
 20
33.580213582
 10
-11.7563436454
 20
33.580213582
 10
-11.9172674481
 20
33.0780305206
 10
-11.9172674481
 20
33.0780305206
 10
-15.1370202024
 20
33.3013215143
 10
-15.1370202024
 20
33.3013215143
 10
-15.3209331198
 20
32.7273980156
 10
-15.3209331198
 20
32.7273980156
 10
-15.8687963554
 20
33.0719088235
  0
LWPOLYLINE
  5
81
330
1F
100
AcDbEntity
  8
0
  6
Continuous
 62
     7
100
AcDbPolyline
 90
       93
 70
   128
 43
0.0
 10
-15.129838205
 20
35.6939422795
 10
-15.1033963645
 20
35.7665891244
 10
-15.0708843298
 20
35.8359503609
 10
-15.0328988728
 20
35.902640303
 10
-14.9896195958
 20
35.9660984785
 10
-14.9400929174
 20
36.0268316838
 10
-14.8852724191
 20
36.0843331225
 10
-14.8242045194
 20
36.1391095911
 10
-14.7578427998
 20
36.1906542931
 10
-14.6861872602
 20
36.2389672285
 10
-14.6078695451
 20
36.2833805738
 10
-14.52425801
 20
36.3245621524
 10
-14.4345786761
 20
36.3624582887
 10
-14.3390111456
 20
36.3965085105
 10
-14.2373758161
 20
36.4272732901
 10
-14.1306262692
 20
36.4542458308
 10
-14.0170349443
 20
36.4778792536
 10
-13.8960074649
 20
36.4975594104
 10
-13.7661754753
 20
36.5126184777
 10
-13.6265853941
 20
36.5235632519
 10
-13.4781908027
 20
36.5298869366
 10
-13.3200381197
 20
36.5320963282
 10
-13.1523069475
 20
36.5296309546
 10
-12.9755916627
 20
36.5231049637
 10
-12.7900718678
 20
36.5119578832
 10
-12.7900718678
 20
36.5119578832
 10
-12.6033077505
 20
36.4972869425
 10
-12.4286365568
 20
36.4794441568
 10
-12.2660582867
 20
36.4584295259
 10
-12.1146193587
 20
36.4347498464
 10
-11.9760473334
 20
36.4079519976
 10
-11.8486146501
 20
36.3784891001
 10
-11.7325009114
 20
36.3458006818
 10
-11.6292540754
 20
36.3099940941
 10
-11.5354190209
 20
36.2719755785
 10
-11.450221769
 20
36.2316914593
 10
-11.3719347591
 20
36.1895948571
 10
-11.3022855519
 20
36.1452326513
 10
-11.2405001681
 20
36.0985511662
 10
-11.1863990055
 20
36.0501108738
 10
-11.1407560429
 20
35.99996545
 10
-11.1022029248
 20
35.9474470712
 10
-11.0715136303
 20
35.8926094129
 10
-11.0482733853
 20
35.8342778553
 10
-11.0328969637
 20
35.7736270183
 10
-11.0240160101
 20
35.7099890783
 10
-11.0231784825
 20
35.6434713868
 10
-11.0288364229
 20
35.5739665924
 10
-11.0423581868
 20
35.5021425185
 10
-11.0633290001
 20
35.4268245453
 10
-11.0633290001
 20
35.4268245453
 10
-11.0904916456
 20
35.3519359779
 10
-11.1227685086
 20
35.2808396491
 10
-11.1609335681
 20
35.2135892349
 10
-11.203798071
 20
35.1489564394
 10
-11.2523711678
 20
35.0887300305
 10
-11.3064176871
 20
35.0311749161
 10
-11.3655784239
 20
34.9774120404
 10
-11.4298533781
 20
34.9274414034
 10
-11.5001961313
 20
34.8807562088
 10
-11.5758327044
 20
34.8373027807
 10
-11.6577166789
 20
34.7965743228
 10
-11.7447148709
 20
34.7596381037
 10
-11.8370068828
 20
34.7259336512
 10
-11.9353666937
 20
34.6955146409
 10
-12.0397943035
 20
34.668381073
 10
-12.1495157333
 20
34.6444792716
 10
-12.2674472966
 20
34.6245844119
 10
-12.3943629725
 20
34.6087501696
 10
-12.5316311167
 20
34.5976443682
 10
-12.6786573525
 20
34.5906528599
 10
-12.835082475
 20
34.588896589
 10
-13.0014452915
 20
34.590694139
 10
-13.1773865973
 20
34.5971664543
 10
-13.3629063922
 20
34.6083135348
 10
-13.3629063922
 20
34.6083135348
 10
-13.6187898146
 20
34.6294967067
 10
-13.8535833059
 20
34.6572382717
 10
-14.0684200501
 20
34.6904709611
 10
-14.2625260681
 20
34.7291410993
 10
-14.435542155
 20
34.7743696305
 10
-14.5884218923
 20
34.8256497583
 10
-14.7205709035
 20
34.8823673349
 10
-14.8325835651
 20
34.9451365081
 10
-14.8325835651
 20
34.9451365081
 10
-14.9340939355
 20
35.0209276075
 10
-15.0173751192
 20
35.1017567107
 10
-15.0824271163
 20
35.1876238175
 10
-15.1284759478
 20
35.2784752524
 10
-15.1568899693
 20
35.3749788389
 10
-15.1664804275
 20
35.4759062812
 10
-15.1568881176
 20
35.5823785237
 10
-15.1298406002
 20
35.6939424456
  0
LWPOLYLINE
  5
82
330
1F
100
AcDbEntity
  8
0
  6
Continuous
 62
     7
100
AcDbPolyline
 90
       73
 70
   128
 43
0.0
 10
-14.432403151
 20
35.6581793201
 10
-14.4456778348
 20
35.5920673878
 10
-14.442809111
 20
35.5294193258
 10
-14.4241571709
 20
35.469114258
 10
-14.388768433
 20
35.4116589811
 10
-14.3643434245
 20
35.3841833534
 10
-14.3341413579
 20
35.3574529399
 10
-14.2978030282
 20
35.3325886851
 10
-14.2556876404
 20
35.3084696446
 10
-14.2076155921
 20
35.2856562906
 10
-14.1545404647
 20
35.2636418266
 10
-14.0945550952
 20
35.2434398454
 10
-14.0287926676
 20
35.2239830786
 10
-13.9562996004
 20
35.2057783225
 10
-13.8739799775
 20
35.1886108743
 10
-13.783381757
 20
35.1725880854
 10
-13.6837309598
 20
35.1576562801
 10
-13.5748479835
 20
35.1443759305
 10
-13.4570920329
 20
35.1316260924
 10
-13.3301039032
 20
35.12052771
 10
-13.1942427993
 20
35.109959839
 10
-13.1942427993
 20
35.109959839
 10
-13.0170571712
 20
35.0999636636
 10
-12.8534995299
 20
35.0943501598
 10
-12.7024366914
 20
35.0941865964
 10
-12.5650018396
 20
35.0984057046
 10
-12.4392878117
 20
35.1080210774
 10
-12.3270221681
 20
35.122579594
 10
-12.2276105322
 20
35.1414671066
 10
-12.1414676782
 20
35.1658582352
 10
-12.0652625183
 20
35.1938031847
 10
-11.9976266969
 20
35.2246341315
 10
-11.9376066324
 20
35.2588578721
 10
-11.88556153
 20
35.295353462
 10
-11.8419061635
 20
35.3352955215
 10
-11.8060461565
 20
35.3780699025
 10
-11.7778019066
 20
35.4242370773
 10
-11.7575326185
 20
35.4726761014
 10
-11.7575326185
 20
35.4726761014
 10
-11.7463159072
 20
35.5200241421
 10
-11.7445109774
 20
35.5651602547
 10
-11.7519382267
 20
35.6086449117
 10
-11.7685976552
 20
35.6504781129
 10
-11.7938948863
 20
35.6900457104
 10
-11.8284242965
 20
35.7279618522
 10
-11.8723654883
 20
35.7636660661
 10
-11.9247648802
 20
35.7976651485
 10
-11.9247648802
 20
35.7976651485
 10
-12.0010335887
 20
35.8361842148
 10
-12.0918967603
 20
35.8711319909
 10
-12.1981283741
 20
35.9025621527
 10
-12.318954451
 20
35.9304210244
 10
-12.4549693677
 20
35.9553227539
 10
-12.605399145
 20
35.9772136654
 10
-12.7706029879
 20
35.9949728147
 10
-12.9509956705
 20
36.0097748218
 10
-12.9509956705
 20
36.0097748218
 10
-13.1341935283
 20
36.0207608751
 10
-13.3048965833
 20
36.0262969881
 10
-13.4611976726
 20
36.0273967538
 10
-13.6040503775
 20
36.0235533756
 10
-13.7334546981
 20
36.0147668536
 10
-13.8494106344
 20
36.0010371877
 10
-13.9519181864
 20
35.982364378
 10
-14.040977354
 20
35.9587484245
 10
-14.1185508696
 20
35.9314712986
 10
-14.1885086281
 20
35.9008013789
 10
-14.2497174456
 20
35.8678059341
 10
-14.3033105062
 20
35.8314176956
 10
-14.3481546257
 20
35.7927039319
 10
-14.3846090093
 20
35.7505436988
 10
-14.4123144519
 20
35.7060579405
 10
-14.4324041375
 20
35.6581793885
  0
LWPOLYLINE
  5
83
330
1F
100
AcDbEntity
  8
0
  6
Continuous
 62
     7
100
AcDbPolyline
 90
      122
 70
   128
 43
0.0
 10
8.0987441755
 20
46.5585316803
 10
9.857999807
 20
46.4365266792
 10
9.857999807
 20
46.4365266792
 10
9.7085705616
 20
45.9702138365
 10
9.7085705616
 20
45.9702138365
 10
8.4988413417
 20
46.0541089863
 10
8.4988413417
 20
46.0541089863
 10
8.1783707106
 20
45.5354900262
 10
8.1783707106
 20
45.5354900262
 10
8.2440606844
 20
45.5429658841
 10
8.3086730435
 20
45.5470789091
 10
8.3691118717
 20
45.5480438039
 10
8.4261511481
 20
45.5458068928
 10
8.4261511481
 20
45.5458068928
 10
8.5479565963
 20
45.5333491483
 10
8.6624241334
 20
45.5128063755
 10
8.7681854039
 20
45.4848463981
 10
8.8666087633
 20
45.4488013926
 10
8.9569202327
 20
45.4047250346
 10
9.0392994144
 20
45.3531777963
 10
9.1137463086
 20
45.2941596777
 10
9.1800813127
 20
45.2271102067
 10
9.2367008995
 20
45.154432299
 10
9.2816423367
 20
45.0774079261
 10
9.3144908504
 20
44.9972117082
 10
9.3348872356
 20
44.9127227008
 10
9.3437850738
 20
44.8244477005
 10
9.3411843649
 20
44.7323867072
 10
9.32631113
 20
44.6365933966
 10
9.2999393481
 20
44.5370140931
 10
9.2999393481
 20
44.5370140931
 10
9.2615986758
 20
44.437118981
 10
9.2134999119
 20
44.341338162
 10
9.1544543032
 20
44.2508999318
 10
9.0842822473
 20
44.1652438183
 10
9.0047113047
 20
44.0848229423
 10
8.9146082914
 20
44.008570035
 10
8.8135584334
 20
43.9376597165
 10
8.7021561071
 20
43.8714778391
 10
8.5842156386
 20
43.8120515883
 10
8.4645049352
 20
43.7619149466
 10
8.3420704156
 20
43.7205611174
 10
8.2172712845
 20
43.6891110451
 10
8.0905223161
 20
43.6663901096
 10
7.9610495314
 20
43.6524519866
 10
7.8299861144
 20
43.6483639448
 10
7.696198881
 20
43.6530587155
 10
7.696198881
 20
43.6530587155
 10
7.5788577046
 20
43.6646339336
 10
7.4671824478
 20
43.6815454948
 10
7.3624858972
 20
43.7054211398
 10
7.2634552664
 20
43.7346331279
 10
7.1712237391
 20
43.7702487277
 10
7.0846581316
 20
43.8112006705
 10
7.0050712302
 20
43.8591166972
 10
6.9311502486
 20
43.912369067
 10
6.8652171237
 20
43.9707967527
 10
6.8076866298
 20
44.0332251342
 10
6.7595123483
 20
44.1001610081
 10
6.7203350742
 20
44.1704834299
 10
6.690693615
 20
44.2458738161
 10
6.6692751843
 20
44.3247044261
 10
6.6572129659
 20
44.4080425284
 10
6.6535533785
 20
44.4953813265
 10
6.6535533785
 20
44.4953813265
 10
7.4461079026
 20
44.4404173896
 10
7.4461079026
 20
44.4404173896
 10
7.4730940096
 20
44.3789614168
 10
7.5095603622
 20
44.3248689729
 10
7.555327358
 20
44.2775795856
 10
7.6105745995
 20
44.2376537272
 10
7.6728005471
 20
44.2046919527
 10
7.7406368453
 20
44.1793620856
 10
7.8158110544
 20
44.1621172467
 10
7.8965956141
 20
44.1525043152
 10
7.8965956141
 20
44.1525043152
 10
7.954588472
 20
44.1507742006
 10
8.0113370075
 20
44.1525679462
 10
8.0672004257
 20
44.1590064963
 10
8.1219991239
 20
44.1695293787
 10
8.1765070813
 20
44.1840829177
 10
8.2299503188
 20
44.202720789
 10
8.2823288365
 20
44.2254429926
 10
8.3336426342
 20
44.2522495286
 10
8.3821641516
 20
44.2826872762
 10
8.4267602047
 20
44.3156889668
 10
8.4664772119
 20
44.3507478039
 10
8.5016743783
 20
44.3889847318
 10
8.5329460803
 20
44.4297856028
 10
8.560292318
 20
44.4731504167
 10
8.5829391123
 20
44.5191328494
 10
8.6008864632
 20
44.5677329007
 10
8.6008864632
 20
44.5677329007
 10
8.6138307351
 20
44.615534062
 10
8.6204591415
 20
44.6609085926
 10
8.6226788454
 20
44.7048700852
 10
8.6187622863
 20
44.7469654192
 10
8.6094834431
 20
44.7871409189
 10
8.5940683369
 20
44.8254502599
 10
8.5742445283
 20
44.862346563
 10
8.5481048541
 20
44.8968162353
 10
8.5179712515
 20
44.9286982497
 10
8.4842584947
 20
44.9568179861
 10
8.4469665835
 20
44.9811754444
 10
8.4068694971
 20
45.0017169491
 10
8.3633728589
 20
45.0190566478
 10
8.3161174639
 20
45.0320735965
 10
8.2662364961
 20
45.0418350635
 10
8.2125967715
 20
45.0472737804
 10
8.2125967715
 20
45.0472737804
 10
8.1528763532
 20
45.0485507742
 10
8.0921338892
 20
45.0441693707
 10
8.0305489822
 20
45.034690042
 10
7.9669884481
 20
45.0190455194
 10
7.9024058685
 20
44.9977425994
 10
7.8360272643
 20
44.9708349578
 10
7.7686266145
 20
44.9382689188
 10
7.6994299401
 20
44.9000981581
 10
7.6994299401
 20
44.9000981581
 10
7.1469209787
 20
45.0375313355
 10
7.1469209787
 20
45.0375313355
 10
8.0987454775
 20
46.55853159
  0
LWPOLYLINE
  5
84
330
1F
100
AcDbEntity
  8
0
  6
Continuous
 62
     7
100
AcDbPolyline
 90
       12
 70
   128
 43
0.0
 10
5.1204728394
 20
46.7650758521
 10
6.1924351328
 20
46.6907348874
 10
6.1924351328
 20
46.6907348874
 10
5.2958596607
 20
43.8928578311
 10
5.2958596607
 20
43.8928578311
 10
4.6023744521
 20
43.9409512759
 10
4.6023744521
 20
43.9409512759
 10
5.3495206789
 20
46.2725154895
 10
5.3495206789
 20
46.2725154895
 10
4.5569661547
 20
46.3274794264
 10
4.5569661547
 20
46.3274794264
 10
5.1204741798
 20
46.7650757591
  0
LWPOLYLINE
  5
85
330
1F
100
AcDbEntity
  8
0
  6
Continuous
 62
     7
100
AcDbPolyline
 90
      179
 70
   128
 43
0.0
 10
-19.0136853119
 20
59.9749024775
 10
-19.3935048377
 20
60.3673438714
 10
-19.3935048377
 20
60.3673438714
 10
-19.2941785505
 20
60.4057168434
 10
-19.1966482879
 20
60.4384850938
 10
-19.1003196732
 20
60.4650344746
 10
-19.0050131041
 20
60.485925458
 10
-18.9107285806
 20
60.501158044
 10
-18.8174661027
 20
60.5107322326
 10
-18.7254052727
 20
60.5140875517
 10
-18.6351404673
 20
60.5118381491
 10
-18.6351404673
 20
60.5118381491
 10
-18.5129758143
 20
60.5005013489
 10
-18.3975546956
 20
60.4804653725
 10
-18.2894714881
 20
60.452344368
 10
-18.1871782335
 20
60.4160309839
 10
-18.0924024924
 20
60.3710720994
 10
-18.0034167043
 20
60.3179208353
 10
-17.9217688273
 20
60.256684543
 10
-17.8468644847
 20
60.1867490747
 10
-17.8468644847
 20
60.1867490747
 10
-17.7884488733
 20
60.1196758886
 10
-17.7406337967
 20
60.0516190705
 10
-17.7030044807
 20
59.9814040001
 10
-17.6771088834
 20
59.909138029
 10
-17.6610398418
 20
59.83583475
 10
-17.6565249164
 20
59.7610410424
 10
-17.6621957516
 20
59.6840890826
 10
-17.678646724
 20
59.6055930185
 10
-17.7049798213
 20
59.528355211
 10
-17.7397026547
 20
59.4545638729
 10
-17.7824560191
 20
59.3853399486
 10
-17.8343730987
 20
59.3196161694
 10
-17.8943207093
 20
59.2584598041
 10
-17.962658056
 20
59.2007499083
 10
-18.0390259338
 20
59.1476074263
 10
-18.1245575267
 20
59.0979650894
 10
-18.1245575267
 20
59.0979650894
 10
-18.2380208286
 20
59.0451034775
 10
-18.3562262483
 20
59.0046022141
 10
-18.4783998065
 20
58.9764076233
 10
-18.6053154825
 20
58.960573381
 10
-18.7344717365
 20
58.9574989321
 10
-18.8639614058
 20
58.9681978695
 10
-18.9924161346
 20
58.9920023696
 10
-19.1212042786
 20
59.029580256
 10
-19.1212042786
 20
59.029580256
 10
-19.1002304014
 20
58.9691141611
 10
-19.0856279589
 20
58.9085169998
 10
-19.0778117251
 20
58.8489633922
 10
-19.0771409051
 20
58.7893323939
 10
-19.0832562939
 20
58.7307449492
 10
-19.0957431173
 20
58.6720264381
 10
-19.115195752
 20
58.6137910085
 10
-19.141614198
 20
58.5560386603
 10
-19.1740448737
 20
58.4992761901
 10
-19.2127229508
 20
58.44523869
 10
-19.2572336552
 20
58.39275154
 10
-19.307217782
 20
58.3429356845
 10
-19.3630345362
 20
58.294670179
 10
-19.4243247127
 20
58.2490759679
 10
-19.4922214955
 20
58.2050857827
 10
-19.5655917007
 20
58.1637668919
 10
-19.5655917007
 20
58.1637668919
 10
-19.6789994334
 20
58.1086097156
 10
-19.7943570035
 20
58.0621816762
 10
-19.9122587874
 20
58.0250969214
 10
-20.0321104086
 20
57.9967413035
 10
-20.153911867
 20
57.9771148224
 10
-20.2774835603
 20
57.9667779503
 10
-20.4037790699
 20
57.9652238907
 10
-20.5318448144
 20
57.9729594401
 10
-20.657990501
 20
57.9891557478
 10
-20.7781666322
 20
58.0141049072
 10
-20.8921936054
 20
58.0483673905
 10
-21.0004306257
 20
58.0908222535
 10
-21.101744509
 20
58.1425367648
 10
-21.1970888369
 20
58.2030041278
 10
-21.2864636094
 20
58.2722243426
 10
-21.3690948474
 20
58.3501437335
 10
-21.3690948474
 20
58.3501437335
 10
-21.4380296345
 20
58.4288320536
 10
-21.4948159288
 20
58.5083966545
 10
-21.5383205465
 20
58.5899048047
 10
-21.5696766713
 20
58.6722892355
 10
-21.5887047009
 20
58.7561104193
 10
-21.5948102587
 20
58.840754208
 10
-21.5876341397
 20
58.9273415461
 10
-21.568309528
 20
59.0148051648
 10
-21.5364216493
 20
59.1019704442
 10
-21.4932832902
 20
59.1872096435
 10
-21.4373464925
 20
59.2704154112
 10
-21.3695648377
 20
59.3510809509
 10
-21.289579121
 20
59.430327207
 10
-21.1985225262
 20
59.5070869107
 10
-21.0944878905
 20
59.582373655
 10
-20.9786083976
 20
59.6551201713
 10
-20.9786083976
 20
59.6551201713
 10
-20.5875086151
 20
59.2510108621
 10
-20.5875086151
 20
59.2510108621
 10
-20.6425384953
 20
59.2101388462
 10
-20.6919709199
 20
59.1694515725
 10
-20.7348523073
 20
59.1294558373
 10
-20.7715418625
 20
59.0890306964
 10
-20.8024543596
 20
59.0493507698
 10
-20.826995422
 20
59.0098019096
 10
-20.8459390288
 20
58.9704377915
 10
-20.8585112009
 20
58.9312047398
 10
-20.8674575547
 20
58.8539070108
 10
-20.8548436341
 20
58.7796974903
 10
-20.820254665
 20
58.7074015585
 10
-20.765059003
 20
58.6376870388
 10
-20.765059003
 20
58.6376870388
 10
-20.7292723756
 20
58.6036942021
 10
-20.6897269914
 20
58.5740241157
 10
-20.647376432
 20
58.5481699829
 10
-20.6031742788
 20
58.5256250075
 10
-20.5542597874
 20
58.5079095787
 10
-20.5034937022
 20
58.4935033071
 10
-20.4499224417
 20
58.4829129893
 10
-20.3925924245
 20
58.4766454217
 10
-20.3349587715
 20
58.4737943628
 10
-20.277436257
 20
58.4755344326
 10
-20.2219320438
 20
58.4808520383
 10
-20.1667185714
 20
58.4902003007
 10
-20.1117958399
 20
58.5035792196
 10
-20.0579378283
 20
58.5210424709
 10
-20.0053241389
 20
58.5420295823
 10
-19.9535955671
 20
58.5676614983
 10
-19.9535955671
 20
58.5676614983
 10
-19.9000709706
 20
58.5988981358
 10
-19.8526141731
 20
58.6334202157
 10
-19.8106307979
 20
58.6706135901
 10
-19.7758484057
 20
58.7100251381
 10
-19.746180231
 20
58.7532289249
 10
-19.722165081
 20
58.7985435339
 10
-19.7051713116
 20
58.8466367888
 10
-19.693471362
 20
58.8979618103
 10
-19.6891519978
 20
58.9509445333
 10
-19.6931668005
 20
59.0050781614
 10
-19.7049213934
 20
59.0597485467
 10
-19.7257841322
 20
59.1156235128
 10
-19.7534330798
 20
59.1725420326
 10
-19.7901901733
 20
59.2306651331
 10
-19.8345074545
 20
59.289885463
 10
-19.8873385051
 20
59.3496962259
 10
-19.8873385051
 20
59.3496962259
 10
-19.3437970582
 20
59.6385702007
 10
-19.3437970582
 20
59.6385702007
 10
-19.2659635071
 20
59.5753067226
 10
-19.1920980946
 20
59.5243499173
 10
-19.1233340047
 20
59.484632516
 10
-19.0593120326
 20
59.4572754631
 10
-18.9972398977
 20
59.438647547
 10
-18.9347400938
 20
59.4262921762
 10
-18.8699054579
 20
59.4212229436
 10
-18.8046431531
 20
59.4224262563
 10
-18.7406807398
 20
59.4294489935
 10
-18.6801605526
 20
59.4430126546
 10
-18.6226678175
 20
59.4619426195
 10
-18.568796911
 20
59.4868530361
 10
-18.568796911
 20
59.4868530361
 10
-18.5075196294
 20
59.5250000818
 10
-18.459690732
 20
59.5680902713
 10
-18.4247158425
 20
59.6155094569
 10
-18.4031893372
 20
59.6678717862
 10
-18.396188831
 20
59.7218144264
 10
-18.4046123362
 20
59.7745350166
 10
-18.4286394552
 20
59.8254730846
 10
-18.4686849621
 20
59.8758032506
 10
-18.4686849621
 20
59.8758032506
 10
-18.5152388318
 20
59.9156991482
 10
-18.5704989682
 20
59.9481778413
 10
-18.6336913922
 20
59.9731856541
 10
-18.7055900828
 20
59.9907762623
 10
-18.7817307683
 20
60.0000671394
 10
-18.8584231561
 20
60.0002294347
 10
-18.9362616227
 20
59.9918772961
 10
-19.0136982101
 20
59.974903372
  0
LWPOLYLINE
  5
86
330
1F
100
AcDbEntity
  8
0
  6
Continuous
 62
     7
100
AcDbPolyline
 90
       96
 70
   128
 43
0.0
 10
-31.0025221811
 20
34.4422279701
 10
-31.0613669388
 20
34.3351609087
 10
-31.10013528
 20
34.2289932513
 10
-31.1201485221
 20
34.1220978488
 10
-31.1208678578
 20
34.0161561178
 10
-31.1025284586
 20
33.9129031503
 10
-31.0659598728
 20
33.8146881866
 10
-31.0103881213
 20
33.7214575508
 10
-30.9373611623
 20
33.6333185945
 10
-30.9373611623
 20
33.6333185945
 10
-30.8400372176
 20
33.5469321997
 10
-30.7289354632
 20
33.4739135003
 10
-30.6026875434
 20
33.4135946729
 10
-30.4618878348
 20
33.3665898653
 10
-30.3123689647
 20
33.3344494276
 10
-30.1593691838
 20
33.318109562
 10
-30.0042568477
 20
33.3182380921
 10
-29.8462579774
 20
33.3347813422
 10
-29.7656699047
 20
33.349244999
 10
-29.6826914308
 20
33.3686992295
 10
-29.5980965349
 20
33.3931977095
 10
-29.5120648193
 20
33.4221799669
 10
-29.424596284
 20
33.4556460016
 10
-29.33491695
 20
33.4935421379
 10
-29.2436211939
 20
33.5364825237
 10
-29.1499350366
 20
33.5844134833
 10
-29.1499350366
 20
33.5844134833
 10
-29.0529048967
 20
33.6378418132
 10
-28.963973752
 20
33.6906859558
 10
-28.881414042
 20
33.7433990321
 10
-28.8069533271
 20
33.7955279213
 10
-28.740412005
 20
33.8476330954
 10
-28.6811956991
 20
33.8991004067
 10
-28.6291248068
 20
33.9504903274
 10
-28.5843789307
 20
34.0012423851
 10
-28.5132830728
 20
34.1045951901
 10
-28.4631402178
 20
34.2116928039
 10
-28.4349039472
 20
34.3220284301
 10
-28.427800282
 20
34.4355483929
 10
-28.4429068369
 20
34.5488898593
 10
-28.4808864527
 20
34.6575153764
 10
-28.5415595267
 20
34.7619854162
 10
-28.6249260591
 20
34.8622999788
 10
-28.6249260591
 20
34.8622999788
 10
-28.7120215688
 20
34.9411018961
 10
-28.8098545413
 20
35.0086169795
 10
-28.9184249768
 20
35.0648452288
 10
-29.0377328751
 20
35.1097866441
 10
-29.1677782363
 20
35.1434412253
 10
-29.3077870813
 20
35.1657552969
 10
-29.4593073682
 20
35.1768362101
 10
-29.620791139
 20
35.1765766135
 10
-29.620791139
 20
35.1765766135
 10
-29.5993241926
 20
35.263318733
 10
-29.5876282328
 20
35.3467279802
 10
-29.5872512175
 20
35.4269117065
 10
-29.5974191677
 20
35.5038162364
 10
-29.6181320835
 20
35.5774415697
 10
-29.6503435463
 20
35.64728091
 10
-29.6930999747
 20
35.7138410538
 10
-29.746580971
 20
35.7765615289
 10
-29.746580971
 20
35.7765615289
 10
-29.8340356856
 20
35.8542425019
 10
-29.9331814446
 20
35.9201298445
 10
-30.0441978504
 20
35.9736630844
 10
-30.1676792795
 20
36.0154563696
 10
-30.2993410628
 20
36.0440667014
 10
-30.4372204681
 20
36.0582121082
 10
-30.5797695373
 20
36.0577852388
 10
-30.7277622494
 20
36.0428397687
 10
-30.8777434835
 20
36.0142819394
 10
-31.0269765283
 20
35.9707761038
 10
-31.1758761579
 20
35.9134968819
 10
-31.3246219748
 20
35.8418838015
 10
-31.3246219748
 20
35.8418838015
 10
-31.4619506037
 20
35.7614579478
 10
-31.5810073716
 20
35.6763273681
 10
-31.681971881
 20
35.5859315902
 10
-31.7646645295
 20
35.4908310863
 10
-31.8277725306
 20
35.3926535973
 10
-31.871890261
 20
35.2920132709
 10
-31.8966585157
 20
35.1900310515
 10
-31.9016625206
 20
35.0855323191
 10
-31.8877873931
 20
34.9831618781
 10
-31.8553238741
 20
34.8869503852
 10
-31.8036775869
 20
34.7962836925
 10
-31.7342168873
 20
34.7118296235
 10
-31.7342168873
 20
34.7118296235
 10
-31.674945938
 20
34.657301528
 10
-31.6094702615
 20
34.6097911921
 10
-31.5381490629
 20
34.5681776714
 10
-31.4598491582
 20
34.5335282346
 10
-31.3702858781
 20
34.504399883
 10
-31.2644005744
 20
34.4792959422
 10
-31.1412396655
 20
34.4587232087
 10
-31.002530712
 20
34.4422285617
  0
LWPOLYLINE
  5
87
330
1F
100
AcDbEntity
  8
0
  6
Continuous
 62
     7
100
AcDbPolyline
 90
       36
 70
   128
 43
0.0
 10
-30.9230064943
 20
35.4582435483
 10
-30.8442874119
 20
35.4940351436
 10
-30.7648751975
 20
35.5171742615
 10
-30.6836371791
 20
35.528728206
 10
-30.6023009171
 20
35.5282438563
 10
-30.5237827253
 20
35.5164963877
 10
-30.4529060802
 20
35.4932473821
 10
-30.39121894
 20
35.458604191
 10
-30.3371733465
 20
35.4124594631
 10
-30.3371733465
 20
35.4124594631
 10
-30.2957039148
 20
35.3591659092
 10
-30.2717452599
 20
35.3030762402
 10
-30.2647030052
 20
35.2435763083
 10
-30.2757659039
 20
35.1818944092
 10
-30.3023083831
 20
35.1212860245
 10
-30.3436676022
 20
35.0662886072
 10
-30.3990695822
 20
35.0168484817
 10
-30.4702418836
 20
34.9725125272
 10
-30.4702418836
 20
34.9725125272
 10
-30.5506890385
 20
34.9362678466
 10
-30.6327823949
 20
34.9121688116
 10
-30.7157479738
 20
34.9001617464
 10
-30.8001801519
 20
34.9008607989
 10
-30.8808406783
 20
34.9133297669
 10
-30.9535004531
 20
34.9384212161
 10
-31.0185186811
 20
34.9750142023
 10
-31.0757157599
 20
35.0236691975
 10
-31.0757157599
 20
35.0236691975
 10
-31.117364794
 20
35.0764022792
 10
-31.1407290724
 20
35.1318778003
 10
-31.1463474023
 20
35.1884143443
 10
-31.1344549554
 20
35.2477470032
 10
-31.1055349699
 20
35.3058987964
 10
-31.0603058557
 20
35.3606278351
 10
-30.9997211941
 20
35.4114273228
 10
-30.9230070063
 20
35.4582435838
  0
LWPOLYLINE
  5
88
330
1F
100
AcDbEntity
  8
0
  6
Continuous
 62
     7
100
AcDbPolyline
 90
       60
 70
   128
 43
0.0
 10
-30.1150643844
 20
34.5846447049
 10
-30.0000672916
 20
34.6373999478
 10
-29.8821655077
 20
34.6744847025
 10
-29.7640543419
 20
34.6949400344
 10
-29.6430526522
 20
34.6997258606
 10
-29.5840506437
 20
34.6962069781
 10
-29.5294017684
 20
34.6889794932
 10
-29.478152445
 20
34.6785502026
 10
-29.4306618784
 20
34.6637981618
 10
-29.3873448426
 20
34.6458979908
 10
-29.3477865636
 20
34.6236750697
 10
-29.3116278364
 20
34.5982503427
 10
-29.2798222425
 20
34.5691170134
 10
-29.2798222425
 20
34.5691170134
 10
-29.2515958029
 20
34.5362214062
 10
-29.2285520448
 20
34.5019664367
 10
-29.2122389264
 20
34.4664594565
 10
-29.200928887
 20
34.4301535863
 10
-29.1957551106
 20
34.3919815575
 10
-29.1963583924
 20
34.3530643144
 10
-29.2029183347
 20
34.3128413848
 10
-29.2154349376
 20
34.2713127687
 10
-29.2333693937
 20
34.2301598827
 10
-29.2565421005
 20
34.1899431989
 10
-29.2855474346
 20
34.1512768651
 10
-29.3205649985
 20
34.1136004093
 10
-29.3606412107
 20
34.0774206279
 10
-29.4067296526
 20
34.0422307244
 10
-29.4586507218
 20
34.008591171
 10
-29.5158100418
 20
33.9758878198
 10
-29.5158100418
 20
33.9758878198
 10
-29.6357688116
 20
33.9200391049
 10
-29.7534354239
 20
33.881219258
 10
-29.86976346
 20
33.8589214824
 10
-29.983619736
 20
33.854213047
 10
-30.0385722469
 20
33.8580240231
 10
-30.0899456036
 20
33.8655972772
 10
-30.1383341825
 20
33.8775469572
 10
-30.1839175862
 20
33.8933125909
 10
-30.2268754171
 20
33.9123337062
 10
-30.2668484702
 20
33.9357312474
 10
-30.3030627666
 20
33.9634515387
 10
-30.3366514902
 20
33.9944273116
 10
-30.3366514902
 20
33.9944273116
 10
-30.3654723064
 20
34.0279370668
 10
-30.389110441
 20
34.0628061841
 10
-30.406017936
 20
34.0989273122
 10
-30.4169687705
 20
34.1363541267
 10
-30.4221425468
 20
34.1745261556
 10
-30.4213596626
 20
34.2140038709
 10
-30.4146201178
 20
34.2547872726
 10
-30.4021035149
 20
34.2963158887
 10
-30.3839894564
 20
34.3380292469
 10
-30.360222373
 20
34.3776317828
 10
-30.3319910179
 20
34.4163517923
 10
-30.298880617
 20
34.4530146552
 10
-30.2607115678
 20
34.4881808437
 10
-30.2167098913
 20
34.5217966821
 10
-30.1684235456
 20
34.5539695219
 10
-30.1150785516
 20
34.5846456874
  0
LWPOLYLINE
  5
89
330
1F
100
AcDbEntity
  8
0
  6
Continuous
 62
     7
100
AcDbPolyline
 90
       12
 70
   128
 43
0.0
 10
7.1535794875
 20
34.2233799285
 10
7.7455856519
 20
33.6116881412
 10
7.7455856519
 20
33.6116881412
 10
4.4137719404
 20
31.840941355
 10
4.4137719404
 20
31.840941355
 10
4.0208890282
 20
32.2468931079
 10
4.0208890282
 20
32.2468931079
 10
6.7567143111
 20
33.7008921146
 10
6.7567143111
 20
33.7008921146
 10
6.3293575579
 20
34.1424644449
 10
6.3293575579
 20
34.1424644449
 10
7.1535865891
 20
34.223379436
  0
LWPOLYLINE
  5
8A
330
1F
100
AcDbEntity
  8
0
  6
Continuous
 62
     7
100
AcDbPolyline
 90
      179
 70
   128
 43
0.0
 10
8.0191987
 20
32.042777485
 10
7.6394001932
 20
32.4352174213
 10
7.6394001932
 20
32.4352174213
 10
7.7387264804
 20
32.4735903933
 10
7.836256743
 20
32.5063586436
 10
7.9325853577
 20
32.5329080244
 10
8.0278919268
 20
32.5537990078
 10
8.1221764503
 20
32.5690315938
 10
8.2154389282
 20
32.5786057824
 10
8.3074997582
 20
32.5819611015
 10
8.3977645636
 20
32.5797116989
 10
8.3977645636
 20
32.5797116989
 10
8.5199292166
 20
32.5683748987
 10
8.6353503352
 20
32.5483389224
 10
8.7434335428
 20
32.5202179178
 10
8.8457267974
 20
32.4839045337
 10
8.9405025385
 20
32.4389456492
 10
9.0294883266
 20
32.3857943851
 10
9.1111362036
 20
32.3245580928
 10
9.1860405462
 20
32.2546226245
 10
9.1860405462
 20
32.2546226245
 10
9.2444561576
 20
32.1875494385
 10
9.2922712342
 20
32.1194926203
 10
9.3299005502
 20
32.0492775499
 10
9.3557961475
 20
31.9770115788
 10
9.3718651891
 20
31.9037082998
 10
9.3763801145
 20
31.8289145922
 10
9.3707092793
 20
31.7519626324
 10
9.3542583069
 20
31.6734665683
 10
9.3279252096
 20
31.5962287608
 10
9.2932023762
 20
31.5224374227
 10
9.2504490118
 20
31.4532134984
 10
9.1985319322
 20
31.3874897193
 10
9.1385843216
 20
31.326333354
 10
9.0702469749
 20
31.2686234581
 10
8.9938790971
 20
31.2154809761
 10
8.9083475042
 20
31.1658386392
 10
8.9083475042
 20
31.1658386392
 10
8.7948842023
 20
31.1129770274
 10
8.6766787826
 20
31.0724757639
 10
8.5545052244
 20
31.0442811731
 10
8.4275895484
 20
31.0284469308
 10
8.2984332944
 20
31.0253724819
 10
8.1689436251
 20
31.0360714193
 10
8.0404888963
 20
31.0598759194
 10
7.9117007523
 20
31.0974538058
 10
7.9117007523
 20
31.0974538058
 10
7.9326746295
 20
31.0369877109
 10
7.947277072
 20
30.9763905497
 10
7.9550933058
 20
30.916836942
 10
7.9557641258
 20
30.8572059437
 10
7.949648737
 20
30.798618499
 10
7.9371619136
 20
30.7398999879
 10
7.9177092789
 20
30.6816645583
 10
7.8912908329
 20
30.6239122101
 10
7.8588601572
 20
30.5671497399
 10
7.8201820801
 20
30.5131122398
 10
7.7756713757
 20
30.4606250898
 10
7.7256872489
 20
30.4108092343
 10
7.6698704947
 20
30.3625437288
 10
7.6085803182
 20
30.3169495178
 10
7.5406835354
 20
30.2729593325
 10
7.4673133302
 20
30.2316404417
 10
7.4673133302
 20
30.2316404417
 10
7.3539055975
 20
30.1764832654
 10
7.2385480274
 20
30.130055226
 10
7.1206462435
 20
30.0929704713
 10
7.0007946223
 20
30.0646148533
 10
6.8789931639
 20
30.0449883722
 10
6.7554214706
 20
30.0346515001
 10
6.629125961
 20
30.0330974405
 10
6.5010602165
 20
30.0408329899
 10
6.3749145299
 20
30.0570292976
 10
6.2547383987
 20
30.081978457
 10
6.1407114255
 20
30.1162409404
 10
6.0324744052
 20
30.1586958034
 10
5.9311605219
 20
30.2104103146
 10
5.835816194
 20
30.2708776776
 10
5.7464414215
 20
30.3400978924
 10
5.6638101835
 20
30.4180172833
 10
5.6638101835
 20
30.4180172833
 10
5.5948753964
 20
30.4967056034
 10
5.538089102
 20
30.5762702043
 10
5.4945844844
 20
30.6577783545
 10
5.4632283596
 20
30.7401627853
 10
5.44420033
 20
30.8239839691
 10
5.4380947722
 20
30.9086277578
 10
5.4452708912
 20
30.9952150959
 10
5.4645955029
 20
31.0826787146
 10
5.4964833816
 20
31.1698439941
 10
5.5396217407
 20
31.2550831933
 10
5.5955585384
 20
31.3382889611
 10
5.6633401932
 20
31.4189545008
 10
5.7433259099
 20
31.4982007568
 10
5.8343825047
 20
31.5749604605
 10
5.9384171404
 20
31.6502472048
 10
6.0542966333
 20
31.7229937212
 10
6.0542966333
 20
31.7229937212
 10
6.4453964158
 20
31.3188844119
 10
6.4453964158
 20
31.3188844119
 10
6.3903665355
 20
31.2780123961
 10
6.340934111
 20
31.2373251223
 10
6.2980527236
 20
31.1973293872
 10
6.2613631684
 20
31.1569042462
 10
6.2304506713
 20
31.1172243196
 10
6.2059096089
 20
31.0776754594
 10
6.1869660021
 20
31.0383113413
 10
6.17439383
 20
30.9990782897
 10
6.1654474762
 20
30.9217805606
 10
6.1780613968
 20
30.8475710401
 10
6.2126503659
 20
30.7752751083
 10
6.2678460279
 20
30.7055605886
 10
6.2678460279
 20
30.7055605886
 10
6.3036326553
 20
30.6715677519
 10
6.3431780395
 20
30.6418976655
 10
6.3855285989
 20
30.6160435328
 10
6.4297307521
 20
30.5934985573
 10
6.4786452435
 20
30.5757831285
 10
6.5294113287
 20
30.5613768569
 10
6.5829825892
 20
30.5507865391
 10
6.6403126064
 20
30.5445189715
 10
6.6979462594
 20
30.5416679126
 10
6.7554687739
 20
30.5434079824
 10
6.8109729871
 20
30.5487255882
 10
6.8661864595
 20
30.5580738505
 10
6.921109191
 20
30.5714527694
 10
6.9749672026
 20
30.5889160207
 10
7.027580892
 20
30.6099031321
 10
7.0793094638
 20
30.6355350481
 10
7.0793094638
 20
30.6355350481
 10
7.1328340603
 20
30.6667716857
 10
7.1802908578
 20
30.7012937656
 10
7.222274233
 20
30.7384871399
 10
7.2570566252
 20
30.7778986879
 10
7.2867247999
 20
30.8211024747
 10
7.3107399499
 20
30.8664170837
 10
7.3277337193
 20
30.9145103386
 10
7.3394336689
 20
30.9658353601
 10
7.3437530331
 20
31.0188180831
 10
7.3397382304
 20
31.0729517112
 10
7.3279836375
 20
31.1276220965
 10
7.3071208987
 20
31.1834970626
 10
7.2794719511
 20
31.2404155824
 10
7.2427148576
 20
31.2985386829
 10
7.1983975764
 20
31.3577590129
 10
7.1455665258
 20
31.4175697757
 10
7.1455665258
 20
31.4175697757
 10
7.6891079727
 20
31.7064437505
 10
7.6891079727
 20
31.7064437505
 10
7.7669415238
 20
31.6431802725
 10
7.8408069363
 20
31.5922234671
 10
7.9095710261
 20
31.5525060658
 10
7.9735929983
 20
31.5251490129
 10
8.0356651332
 20
31.5065210968
 10
8.0981649371
 20
31.4941657261
 10
8.162999573
 20
31.4890964934
 10
8.2282618778
 20
31.4902998061
 10
8.2922242911
 20
31.4973225433
 10
8.3527444783
 20
31.5108862044
 10
8.4102372134
 20
31.5298161693
 10
8.4641081199
 20
31.5547265859
 10
8.4641081199
 20
31.5547265859
 10
8.5253854015
 20
31.5928736316
 10
8.5732142989
 20
31.6359638212
 10
8.6081891884
 20
31.6833830067
 10
8.6297156937
 20
31.735745336
 10
8.6367161999
 20
31.7896879762
 10
8.6282926947
 20
31.8424085664
 10
8.6042655757
 20
31.8933466345
 10
8.5642200688
 20
31.9436768004
 10
8.5642200688
 20
31.9436768004
 10
8.5176661991
 20
31.983572698
 10
8.4624060627
 20
32.0160513911
 10
8.3992136387
 20
32.0410592039
 10
8.3273149481
 20
32.0586498121
 10
8.2511742626
 20
32.0679406892
 10
8.1744818748
 20
32.0681029845
 10
8.0966434082
 20
32.0597508459
 10
8.0192068208
 20
32.0427769219
  0
LWPOLYLINE
  5
8B
330
1F
100
AcDbEntity
  8
0
  6
Continuous
 62
     7
100
AcDbPolyline
 90
       96
 70
   128
 43
0.0
 10
13.7412413116
 20
58.222039628
 10
13.8969659427
 20
58.2290008271
 10
14.0450995727
 20
58.2221652734
 10
14.1881487646
 20
58.2019320634
 10
14.3237915815
 20
58.1684622243
 10
14.4498856886
 20
58.1224772553
 10
14.5636943747
 20
58.0653128038
 10
14.6650380375
 20
57.9964083975
 10
14.7542758818
 20
57.9168849809
 10
14.7542758818
 20
57.9168849809
 10
14.8334817782
 20
57.8208694535
 10
14.8911829694
 20
57.7194701531
 10
14.9277942296
 20
57.6115124596
 10
14.9427211821
 20
57.497610521
 10
14.9358526885
 20
57.382355466
 10
14.9076719871
 20
57.2697242755
 10
14.8577643037
 20
57.1608915694
 10
14.785950036
 20
57.0552968758
 10
14.741618934
 20
57.003370198
 10
14.6901424183
 20
56.9513661295
 10
14.6317000914
 20
56.8998451424
 10
14.5670659323
 20
56.8487535612
 10
14.4962399409
 20
56.7980913856
 10
14.4190425149
 20
56.7472981437
 10
14.3348792776
 20
56.6969879833
 10
14.2435706266
 20
56.6466004321
 10
14.2435706266
 20
56.6466004321
 10
14.1441629804
 20
56.5956286938
 10
14.0480993169
 20
56.5501543258
 10
13.954246452
 20
56.5091100594
 10
13.8637375698
 20
56.4735631632
 10
13.7757986912
 20
56.4435673129
 10
13.6910241928
 20
56.4185083607
 10
13.6086400956
 20
56.3984399823
 10
13.5294203785
 20
56.3833085019
 10
13.3745174243
 20
56.3665505489
 10
13.2215474228
 20
56.3657005195
 10
13.0714639555
 20
56.38126521
 10
12.92408742
 20
56.4126841484
 10
12.7840616904
 20
56.4596352803
 10
12.6573989965
 20
56.5211287278
 10
12.5433253593
 20
56.5972181665
 10
12.4418407787
 20
56.6879035966
 10
12.4418407787
 20
56.6879035966
 10
12.3690489913
 20
56.7743074607
 10
12.3141271856
 20
56.8646283842
 10
12.2770753616
 20
56.958866367
 10
12.2578935193
 20
57.0570214092
 10
12.2565816587
 20
57.1590935109
 10
12.2729601773
 20
57.2645221997
 10
12.3073882801
 20
57.3744284201
 10
12.3595067622
 20
57.4876912277
 10
12.3595067622
 20
57.4876912277
 10
12.2417508116
 20
57.5004410659
 10
12.1313883413
 20
57.5189803679
 10
12.0287785561
 20
57.5444300779
 10
11.9337418536
 20
57.576229724
 10
11.8462782338
 20
57.614379306
 10
11.7673412782
 20
57.6593856204
 10
11.6959774053
 20
57.7107418708
 10
11.6329605941
 20
57.7683943814
 10
11.6329605941
 20
57.7683943814
 10
11.5617167648
 20
57.8546908941
 10
11.5092964986
 20
57.9454112625
 10
11.4764737747
 20
58.0405018111
 10
11.4626542164
 20
58.1405766877
 10
11.468308167
 20
58.2421657078
 10
11.4944447773
 20
58.3434801036
 10
11.5407048423
 20
58.4433989307
 10
11.6072679645
 20
58.5424826612
 10
11.6918677759
 20
58.6385967579
 10
11.7953338249
 20
58.7293919808
 10
11.9162977558
 20
58.8155361534
 10
12.0555335476
 20
58.8969756
 10
12.0555335476
 20
58.8969756
 10
12.2023722015
 20
58.9675750875
 10
12.3493646682
 20
59.0238407166
 10
12.4972849266
 20
59.0657188114
 10
12.6453589976
 20
59.0932630478
 10
12.7910853419
 20
59.1060739806
 10
12.9338695827
 20
59.1047657579
 10
13.0721637621
 20
59.0894457309
 10
13.2073362357
 20
59.0594460762
 10
13.3337339785
 20
59.016877616
 10
13.4462983423
 20
58.9632370247
 10
13.5456237037
 20
58.8979101543
 10
13.6312952886
 20
58.8220716249
 10
13.6312952886
 20
58.8220716249
 10
13.6819840046
 20
58.7629823614
 10
13.7217129809
 20
58.7017885214
 10
13.7520301756
 20
58.6383827535
 10
13.7712080282
 20
58.572311937
 10
13.779716882
 20
58.5001058873
 10
13.7778474779
 20
58.417733948
 10
13.7646462343
 20
58.3246893226
 10
13.7412463352
 20
58.2220392796
  0
LWPOLYLINE
  5
8C
330
1F
100
AcDbEntity
  8
0
  6
Continuous
 62
     7
100
AcDbPolyline
 90
       36
 70
   128
 43
0.0
 10
12.4170856948
 20
58.4920507914
 10
12.3461053948
 20
58.4482744492
 10
12.2910626197
 20
58.399955268
 10
12.250242208
 20
58.3466392673
 10
12.2247773435
 20
58.2893937156
 10
12.2146124571
 20
58.2305141773
 10
12.2215991427
 20
58.1733098098
 10
12.2460966049
 20
58.1189015573
 10
12.2877456391
 20
58.0661684755
 10
12.2877456391
 20
58.0661684755
 10
12.3425652116
 20
58.0199700719
 10
12.4065742889
 20
57.9851658537
 10
12.4803672476
 20
57.961141673
 10
12.5627553346
 20
57.9491258258
 10
12.6487354707
 20
57.9483194218
 10
12.7322954262
 20
57.9597123391
 10
12.8132555987
 20
57.9827441055
 10
12.892749172
 20
58.0184819897
 10
12.892749172
 20
58.0184819897
 10
12.9648750549
 20
58.0633247406
 10
13.0220045954
 20
58.1132179869
 10
13.0639581911
 20
58.1676012563
 10
13.0901414654
 20
58.2270886966
 10
13.1000711801
 20
58.2877033271
 10
13.0913013649
 20
58.3467501383
 10
13.0653799779
 20
58.4041217788
 10
13.0215330399
 20
58.4598719242
 10
13.0215330399
 20
58.4598719242
 10
12.9674874464
 20
58.5060166522
 10
12.9040727457
 20
58.5402067225
 10
12.8336108747
 20
58.562281108
 10
12.753959499
 20
58.5729613081
 10
12.6703568691
 20
58.5713111205
 10
12.5858989013
 20
58.5571158423
 10
12.501539177
 20
58.5308822701
 10
12.4170980937
 20
58.4920499316
  0
LWPOLYLINE
  5
8D
330
1F
100
AcDbEntity
  8
0
  6
Continuous
 62
     7
100
AcDbPolyline
 90
       60
 70
   128
 43
0.0
 10
13.274611125
 20
57.6448055655
 10
13.1703003039
 20
57.580996528
 10
13.0850892314
 20
57.5101336395
 10
13.0210663334
 20
57.43379085
 10
12.9761448445
 20
57.3503940943
 10
12.9617210786
 20
57.3078518854
 10
12.9534335758
 20
57.2671758351
 10
12.9503287545
 20
57.2278591469
 10
12.9539545728
 20
57.1897944695
 10
12.9629426751
 20
57.1536496265
 10
12.978661417
 20
57.1187567942
 10
12.9995628404
 20
57.085223324
 10
13.0266005269
 20
57.0535560125
 10
13.0266005269
 20
57.0535560125
 10
13.0595948739
 20
57.0231943875
 10
13.0959887728
 20
56.9960345683
 10
13.1361414284
 20
56.9731974993
 10
13.1789196568
 20
56.9536159119
 10
13.2260510185
 20
56.9377429267
 10
13.2759875555
 20
56.9256858953
 10
13.3295032468
 20
56.9173911418
 10
13.3865980924
 20
56.9128586664
 10
13.4449501551
 20
56.9122494962
 10
13.5037854561
 20
56.9156173068
 10
13.5625096187
 20
56.9235762462
 10
13.6218966219
 20
56.9360726387
 10
13.6809928843
 20
56.9525996877
 10
13.7407519873
 20
56.9736641898
 10
13.8003999519
 20
56.9993198207
 10
13.8605311547
 20
57.0289524325
 10
13.8605311547
 20
57.0289524325
 10
13.9703855229
 20
57.0952416614
 10
14.0577389301
 20
57.1653830506
 10
14.1235449578
 20
57.2398833965
 10
14.1660760455
 20
57.3182895783
 10
14.1788278201
 20
57.3580831021
 10
14.185622934
 20
57.3965709395
 10
14.1858670109
 20
57.4343672383
 10
14.1803340296
 20
57.4714183228
 10
14.1697979693
 20
57.5076705173
 10
14.1527108718
 20
57.5432311732
 10
14.1288931347
 20
57.5775398184
 10
14.1000723185
 20
57.6110495735
 10
14.1000723185
 20
57.6110495735
 10
14.0664835949
 20
57.6420253465
 10
14.0294953195
 20
57.6697993135
 10
13.9887482873
 20
57.6932505304
 10
13.9444221009
 20
57.7129394693
 10
13.8972907391
 20
57.7288124545
 10
13.8465802231
 20
57.7409231617
 10
13.7922905528
 20
57.7492715908
 10
13.7351957072
 20
57.7538040662
 10
13.6760696654
 20
57.7544669122
 10
13.617828741
 20
57.7504849537
 10
13.5592841809
 20
57.7430864864
 10
13.5018043407
 20
57.7316036869
 10
13.4446152413
 20
57.7160902307
 10
13.3875372803
 20
57.6959856457
 10
13.3309296626
 20
57.6724108764
 10
13.2746127857
 20
57.6448054504
  0
LWPOLYLINE
  5
8E
330
1F
100
AcDbEntity
  8
0
  6
Continuous
 62
     7
100
AcDbPolyline
 90
       12
 70
   128
 43
0.0
 10
8.9817166226
 20
57.1815052141
 10
9.9314891584
 20
57.6862741026
 10
9.9314891584
 20
57.6862741026
 10
12.0082408909
 20
55.5404413876
 10
12.0082408909
 20
55.5404413876
 10
11.3779235288
 20
55.2054489361
 10
11.3779235288
 20
55.2054489361
 10
9.672657152
 20
56.9674392221
 10
9.672657152
 20
56.9674392221
 10
8.9870320637
 20
56.6030525766
 10
8.9870320637
 20
56.6030525766
 10
8.9817219985
 20
57.1815048413
  0
LWPOLYLINE
  5
92
330
1F
100
AcDbEntity
  8
0
  6
Continuous
 62
     7
370
    25
100
AcDbPolyline
 90
      131
 70
   128
 43
0.0
 10
2.5821828095
 20
72.575410567
 10
0.4582347491
 20
72.6370066932
 10
-1.6800663436
 20
72.631384926
 10
-3.8285529711
 20
72.5587163629
 10
-5.983061475
 20
72.4192739116
 10
-8.1394348553
 20
72.2134310104
 10
-10.2935254553
 20
71.9416605202
 10
-12.4411975488
 20
71.6045337906
 10
-14.57832987
 20
71.2027198991
 10
-16.7008181224
 20
70.7369850592
 10
-18.8045775067
 20
70.2081921947
 10
-20.8855453047
 20
69.6173006694
 10
-22.9396835559
 20
68.9653661664
 10
-24.9629818653
 20
68.2535407032
 10
-26.9514603761
 20
67.4830727693
 10
-28.9011729445
 20
66.6553075716
 10
-30.8082105486
 20
65.7716873696
 10
-32.6687049647
 20
64.8337518807
 10
-34.4788327423
 20
63.843138733
 10
-36.2348195063
 20
62.8015839445
 10
-37.9329446142
 20
61.7109224001
 10
-39.5695461927
 20
60.5730883013
 10
-41.1410265764
 20
59.3901155576
 10
-42.6438581687
 20
58.1641380894
 10
-44.0745897396
 20
56.8973900091
 10
-45.4298531752
 20
55.592205646
 10
-46.7063706856
 20
54.2510193786
 10
-47.9009624778
 20
52.8763652376
 10
-49.0105548915
 20
51.470876241
 10
-50.032188994
 20
50.0372834212
 10
-50.9630296219
 20
48.5784145058
 10
-51.8003748537
 20
47.0971922101
 10
-52.5416658902
 20
45.5966321017
 10
-53.1844973124
 20
44.0798399986
 10
-53.726627679
 20
42.5500088602
 10
-54.1659904221
 20
41.0104151348
 10
-54.5007049859
 20
39.4644145275
 10
-54.7290881508
 20
37.9154371565
 10
-54.8496654755
 20
36.3669820664
 10
-54.8611827802
 20
34.8226110734
 10
-54.7626175896
 20
33.2859419199
 10
-54.5531904441
 20
31.7606407225
 10
-54.2323759818
 20
30.2504137016
 10
-53.7999136871
 20
28.7589981887
 10
-53.2558181941
 20
27.2901529138
 10
-52.6003890321
 20
25.847647583
 10
-51.8342196893
 20
24.4352517647
 10
-50.9582058757
 20
23.0567231128
 10
-49.9735528577
 20
21.7157949615
 10
-48.8817817403
 20
20.41616334
 10
-47.6847345726
 20
19.1614734613
 10
-46.3845781571
 20
17.9553057506
 10
-44.9838064438
 20
16.8011614901
 10
-43.4852414031
 20
15.7024481624
 10
-41.8920322735
 20
14.6624645886
 10
-40.2076530966
 20
13.684385961
 10
-38.43589846
 20
12.7712488807
 10
-36.580877386
 20
11.9259365168
 10
-34.6470053187
 20
11.151164007
 10
-32.638994181
 20
10.4494642267
 10
-30.561840491
 20
9.8231740536
 10
-28.4208115497
 20
9.2744212567
 10
-26.2214297309
 20
8.8051121385
 10
-23.9694549277
 20
8.4169200541
 10
-21.6708652324
 20
8.1112749302
 10
-19.3318359468
 20
7.889353896
 10
-16.9587170431
 20
7.7520731344
 10
-14.5580092151
 20
7.7000810465
 10
-12.1363386792
 20
7.7337528171
 10
-9.7004309012
 20
7.8531864491
 10
-7.2570834412
 20
8.0582003249
 10
-4.8131381207
 20
8.3483323357
 10
-2.3754527284
 20
8.7228406009
 10
0.0491275152
 20
9.1807057881
 10
2.4537985053
 20
9.72063502
 10
4.8318255867
 20
10.341067343
 10
7.1765714469
 20
11.0401807128
 10
9.4815233493
 20
11.8159004348
 10
11.7403194933
 20
12.6659089849
 10
13.9467743012
 20
13.5876571189
 10
16.0949024457
 20
14.5783761683
 10
18.1789414458
 20
15.6350914072
 10
20.1933726805
 20
16.7546363672
 10
22.1329406882
 20
17.9336679685
 10
23.9926706404
 20
19.1686823309
 10
25.7678839027
 20
20.4560311248
 10
27.4542116168
 20
21.7919383191
 10
29.0476062625
 20
23.1725171871
 10
30.5443511784
 20
24.5937874302
 10
31.9410680449
 20
26.0516922855
 10
33.2347223535
 20
27.5421154888
 10
34.422626903
 20
29.0608979717
 10
35.5024433871
 20
30.6038541796
 10
36.4721821491
 20
32.1667879079
 10
37.3302001967
 20
33.7455075626
 10
38.0751975812
 20
35.3358407647
 10
38.7062122573
 20
36.9336482262
 10
39.2226135459
 20
38.5348368394
 10
39.6240943295
 20
40.1353719325
 10
39.9106621151
 20
41.7312886542
 10
40.0826290986
 20
43.3187024625
 10
40.1406013691
 20
44.8938187039
 10
40.0854673861
 20
46.4529412765
 10
39.9183858631
 20
47.9924803837
 10
39.6407731848
 20
49.5089593893
 10
39.2542904803
 20
50.9990207964
 10
38.7608304687
 20
52.4594313765
 10
38.1625041864
 20
53.8870864823
 10
37.4616276956
 20
55.2790135828
 10
36.6607088693
 20
56.6323750631
 10
35.7624343345
 20
57.9444703348
 10
34.7696566502
 20
59.2127373054
 10
33.6853817868
 20
60.434753257
 10
32.5127569642
 20
61.608235186
 10
31.2550588981
 20
62.7310396551
 10
29.9156824946
 20
63.80116221
 10
28.4981300276
 20
64.8167364114
 10
27.006000822
 20
65.7760325336
 10
25.4429814627
 20
66.6774559762
 10
23.8128365395
 20
67.519545439
 10
22.1193999333
 20
68.3009709023
 10
20.3665666434
 20
69.0205314565
 10
18.5582851485
 20
69.677153021
 10
16.6985502933
 20
70.2698859907
 10
14.7913966824
 20
70.7979028434
 10
12.8408925652
 20
71.2604957424
 10
10.8511341884
 20
71.6570741624
 10
8.8262405909
 20
71.9871625655
 10
6.7703488136
 20
72.2503981526
 10
4.6876094933
 20
72.4465287094
 10
2.5821828095
 20
72.575410567
  0
LWPOLYLINE
  5
97
330
1F
100
AcDbEntity
  8
0
  6
Continuous
 62
     7
370
    25
100
AcDbPolyline
 90
       45
 70
   128
 43
0.0
 10
-55.3502360318
 20
27.7467963011
 10
-54.7624745584
 20
26.2525867044
 10
-54.062659461
 20
24.7857698772
 10
-53.251422617
 20
23.3500968909
 10
-52.3296947759
 20
21.9493067173
 10
-51.2987128314
 20
20.5871140004
 10
-50.1600260566
 20
19.2671962549
 10
-48.9155011831
 20
17.9931805459
 10
-47.5673262045
 20
16.768629716
 10
-46.1180127914
 20
15.5970282301
 10
-44.5703972103
 20
14.481767724
 10
-42.9276396469
 20
13.4261323466
 10
-41.1932218477
 20
12.4332839956
 10
-39.3709430009
 20
11.5062475543
 10
-37.4649137962
 20
10.6478962419
 10
-35.4795486176
 20
9.8609371977
 10
-33.4195558378
 20
9.1478974202
 10
-31.2899262072
 20
8.5111101872
 10
-29.0959193437
 20
7.9527020829
 10
-26.8430483574
 20
7.4745807572
 10
-24.5370626577
 20
7.0784235402
 10
-22.1839290201
 20
6.7656670304
 10
-19.7898110043
 20
6.537497769
 10
-17.361046841
 20
6.394844104
 10
-14.9041259219
 20
6.3383693401
 10
-12.4256640481
 20
6.3684662564
 10
-9.9323776073
 20
6.4852530631
 10
-7.4310568675
 20
6.6885708539
 10
-4.9285385852
 20
6.9779825951
 10
-2.431678139
 20
7.3527736756
 10
0.0526785958
 20
7.8119540291
 10
2.5177234088
 20
8.3542618179
 10
4.9567137307
 20
8.9781686536
 10
7.3630002018
 20
9.6818863145
 10
9.7300536172
 20
10.4633749005
 10
12.0514910404
 20
11.3203523532
 10
14.3211008859
 20
12.2503052548
 10
16.532866788
 20
13.2505008057
 10
18.680990085
 20
14.3179998709
 10
20.759910769
 20
15.4496709747
 10
22.7643267675
 20
16.6422051167
 10
24.6892114474
 20
17.892131275
 10
26.5298292499
 20
19.1958324616
 10
28.2817493908
 20
20.5495621896
 10
29.9408575791
 20
21.9494612149
  0
LWPOLYLINE
  5
A1
330
1F
100
AcDbEntity
  8
0
  6
Continuous
 62
     7
370
    25
100
AcDbPolyline
 90
       40
 70
   128
 43
0.0
 10
29.7714156881
 20
71.9361869236
 10
30.4336312309
 20
71.8708894239
 10
31.0592425256
 20
71.7367537116
 10
31.6322033594
 20
71.5371042496
 10
32.1377437443
 20
71.2769323115
 10
32.5627451041
 20
70.9627849445
 10
32.8960822968
 20
70.602614921
 10
33.1289234623
 20
70.2055935963
 10
33.2549788167
 20
69.7818895942
 10
33.2706899767
 20
69.3424173668
 10
33.1753522511
 20
68.8985608717
 10
32.9711636545
 20
68.4618788101
 10
32.6631961812
 20
68.0437989916
 10
32.259287116
 20
67.6553103344
 10
31.7698507703
 20
67.3066616901
 10
31.2076139084
 20
67.007076999
 10
30.5872811056
 20
66.7644961821
 10
29.9251391797
 20
66.5853506145
 10
29.2386124595
 20
66.474381003
 10
28.5457828161
 20
66.4345040433
 10
27.8648899246
 20
66.4667324387
 10
27.2138280331
 20
66.5701508192
 10
26.6096555362
 20
66.7419479467
 10
26.0681328934
 20
66.9775034503
 10
25.6033029654
 20
67.2705253532
 10
25.2271257882
 20
67.6132329281
 10
24.949177332
 20
67.9965780461
 10
24.7764190758
 20
68.4104972235
 10
24.71304246
 20
68.8441860183
 10
24.7603896223
 20
69.2863872879
 10
24.9169494157
 20
69.725685029
 10
25.1784256515
 20
70.1507960155
 10
25.5378728544
 20
70.5508521521
 10
25.9858935753
 20
70.9156672832
 10
26.5108904527
 20
71.2359830688
 10
27.0993656885
 20
71.5036893848
 10
27.73626033
 20
71.7120154932
 10
28.4053256505
 20
71.8556889154
 10
29.0895188993
 20
71.9310595311
 10
29.7714156881
 20
71.9361869236
  0
LWPOLYLINE
  5
A2
330
1F
100
AcDbEntity
  8
0
  6
Continuous
 62
     7
370
    25
100
AcDbPolyline
 90
       40
 70
   128
 43
0.0
 10
-23.5527028791
 20
74.3223941223
 10
-22.9267063558
 20
74.2596014079
 10
-22.343051963
 20
74.1299759098
 10
-21.8167254787
 20
73.9367334391
 10
-21.3613125092
 20
73.6847090376
 10
-20.9886515731
 20
73.3802490058
 10
-20.7085233417
 20
73.0310650104
 10
-20.5283844361
 20
72.6460521822
 10
-20.4531539145
 20
72.2350740949
 10
-20.4850599994
 20
71.8087185972
 10
-20.6235536245
 20
71.378029621
 10
-20.8652939857
 20
70.9542212371
 10
-21.2042094497
 20
70.5483812992
 10
-21.6316349445
 20
70.1711729129
 10
-22.1365244031
 20
69.8325426059
 10
-22.7057340811
 20
69.5414443714
 10
-23.3243697628
 20
69.3055886477
 10
-23.9761881987
 20
69.1312247544
 10
-24.6440407545
 20
69.0229643146
 10
-25.3103453675
 20
68.9836518087
 10
-25.9575716428
 20
69.0142866773
 10
-26.5687233755
 20
69.1139994384
 10
-27.1278029887
 20
69.2800822127
 10
-27.6202433099
 20
69.508072002
 10
-28.0332936991
 20
69.7918831546
 10
-28.3563496496
 20
70.1239837915
 10
-28.5812174581
 20
70.4956096439
 10
-28.7023082261
 20
70.8970078075
 10
-28.7167581269
 20
71.3177023807
 10
-28.6244744106
 20
71.7467737939
 10
-28.4281088827
 20
72.1731438213
 10
-28.1329625094
 20
72.5858587238
 10
-27.7468263169
 20
72.9743636304
 10
-27.2797648721
 20
73.3287620439
 10
-26.7438493825
 20
73.640055187
 10
-26.152847892
 20
73.9003567178
 10
-25.5218802571
 20
74.1030791031
 10
-24.8670456395
 20
74.2430886094
 10
-24.2050302287
 20
74.3168264498
 10
-23.5527028791
 20
74.3223941223
  0
LWPOLYLINE
  5
A3
330
1F
100
AcDbEntity
  8
0
  6
Continuous
 62
     7
370
    25
100
AcDbPolyline
 90
       45
 70
   128
 43
0.0
 10
-40.4799840428
 20
13.87502598
 10
-40.3916658537
 20
14.0107530753
 10
-39.4128335188
 20
15.4286723611
 10
-38.3517413978
 20
16.8161922632
 10
-37.211167284
 20
18.1706076833
 10
-35.9940002268
 20
19.4893125528
 10
-34.7032326786
 20
20.7698009634
 10
-33.3419530241
 20
22.0096680074
 10
-31.9133384997
 20
23.2066103667
 10
-30.4206485032
 20
24.358426684
 10
-28.86721829
 20
25.4630177543
 10
-27.2564530505
 20
26.5183865663
 10
-25.5918223564
 20
27.5226382297
 10
-23.8768549633
 20
28.4739798165
 10
-22.1151339522
 20
29.3707201463
 10
-20.3102921912
 20
30.2112695439
 10
-18.4660080948
 20
30.9941395926
 10
-16.5860016573
 20
31.7179429088
 10
-14.6740307347
 20
32.3813929589
 10
-12.7338875475
 20
32.9833039382
 10
-10.7693953754
 20
33.5225907296
 10
-8.7844054136
 20
33.9982689591
 10
-6.7827937602
 20
34.4094551599
 10
-4.7684585021
 20
34.7553670586
 10
-2.7453168657
 20
35.0353239928
 10
-0.717302401
 20
35.2487474664
 10
1.3116378365
 20
35.3951618507
 10
3.3375461396
 20
35.474195232
 10
5.3564570731
 20
35.4855804082
 10
7.3644005016
 20
35.4291560335
 10
9.3574047548
 20
35.3048679074
 10
11.3314999657
 20
35.1127704018
 10
13.2827216115
 20
34.8530280204
 10
15.2071142932
 20
34.5259170771
 10
17.1007357813
 20
34.1318274829
 10
18.9596613611
 20
33.6712646253
 10
20.7799885029
 20
33.1448513226
 10
22.5578418862
 20
32.5533298316
 10
24.2893788013
 20
31.8975638883
 10
25.9707949511
 20
31.1785407536
 10
27.5983306722
 20
30.3973732378
 10
29.1682775926
 20
29.5553016723
 10
30.6769857386
 20
28.6536957964
 10
32.1208711
 20
27.6940565224
 10
32.8792584876
 20
27.1471850621
  0
LWPOLYLINE
  5
CE
330
1F
100
AcDbEntity
  8
0
  6
Continuous
 62
     7
370
    25
100
AcDbPolyline
 90
       48
 70
   128
 43
0.0
 10
-48.2697833752
 20
1.4292509835
 10
-47.5574449686
 20
-0.6152813382
 10
-46.7573741571
 20
-2.6174010746
 10
-45.870730357
 20
-4.5729465391
 10
-44.8988567555
 20
-6.4778086047
 10
-43.8432810586
 20
-8.327940343
 10
-42.7057157919
 20
-10.1193668669
 10
-41.4880581241
 20
-11.8481953463
 10
-40.192389186
 20
-13.5106251664
 10
-38.8209728579
 20
-15.1029581936
 10
-37.376254
 20
-16.6216091112
 10
-35.8608561045
 20
-18.0631157832
 10
-34.2775783468
 20
-19.4241496043
 10
-32.6293920201
 20
-20.7015257879
 10
-30.919436337
 20
-21.8922135443
 10
-29.1510135881
 20
-22.9933460987
 10
-27.3275836496
 20
-24.0022304958
 10
-25.4527578356
 20
-24.9163571373
 10
-23.5302920963
 20
-25.7334089977
 10
-21.5640795667
 20
-26.4512704629
 10
-19.558142475
 20
-27.0680357352
 10
-17.5166234246
 20
-27.5820167512
 10
-15.4437760699
 20
-27.9917505565
 10
-13.3439552071
 20
-28.2960060856
 10
-11.2216063111
 20
-28.4937902954
 10
-9.0812545507
 20
-28.584353604
 10
-6.9274933191
 20
-28.567194589
 10
-4.7649723235
 20
-28.4420639041
 10
-2.5983852805
 20
-28.2089673745
 10
-0.432457266
 20
-27.8681682389
 10
1.7280682232
 20
-27.4201885085
 10
3.8784424419
 20
-26.8658094194
 10
6.01392474
 20
-26.2060709614
 10
8.1297960157
 20
-25.4422704696
 10
10.2213722139
 20
-24.5759602744
 10
12.2840178039
 20
-23.6089444088
 10
14.3131591696
 20
-22.543274381
 10
16.3042978458
 20
-21.3812440239
 10
18.2530235345
 20
-20.1253834417
 10
20.1550268361
 20
-18.7784520788
 10
22.0061116312
 20
-17.3434309427
 10
23.8022070523
 20
-15.8235140179
 10
25.5393789875
 20
-14.2220989141
 10
27.2138410587
 20
-12.5427767955
 10
28.8219650244
 20
-10.7893216446
 10
30.3602905594
 20
-8.9656789167
 10
31.8255343678
 20
-7.0759536451
 10
33.2145985913
 20
-5.1243980602
  0
LWPOLYLINE
  5
DA
330
1F
100
AcDbEntity
  8
0
  6
Continuous
 62
     7
370
    25
100
AcDbPolyline
 90
       49
 70
   128
 43
0.0
 10
-50.6056074341
 20
0.2219370663
 10
-49.8756506335
 20
-1.8893233984
 10
-49.0569611165
 20
-3.9582004776
 10
-48.1506494482
 20
-5.9805646016
 10
-47.1580047444
 20
-7.9523338693
 10
-46.0804956421
 20
-9.8694832493
 10
-44.9197708535
 20
-11.7280539952
 10
-43.6776592766
 20
-13.5241632467
 10
-42.3561696336
 20
-15.2540137889
 10
-40.9574896108
 20
-16.9139039392
 10
-39.4839844755
 20
-18.5002375247
 10
-37.938195146
 20
-20.0095339141
 10
-36.3228356942
 20
-21.438438063
 10
-34.6407902616
 20
-22.7837305303
 10
-32.8951093732
 20
-24.0423374186
 10
-31.0890056365
 20
-25.2113401927
 10
-29.2258488157
 20
-26.2879853264
 10
-27.3091602749
 20
-27.2696937253
 10
-25.3426067892
 20
-28.1540698758
 10
-23.3299937245
 20
-28.9389106648
 10
-21.2752575925
 20
-29.6222138187
 10
-19.1824579916
 20
-30.2021859078
 10
-17.0557689492
 20
-30.6772498628
 10
-14.8994696834
 20
-31.0460519528
 10
-12.7179348105
 20
-31.3074681735
 10
-10.515624025
 20
-31.4606099985
 10
-8.2970712869
 20
-31.5048294467
 10
-6.0668735534
 20
-31.4397234246
 10
-3.8296790967
 20
-31.2651373027
 10
-1.5901754536
 20
-30.9811676918
 10
0.6469229428
 20
-30.5881643881
 10
2.8768873969
 20
-30.0867314596
 10
5.094987795
 20
-29.4777274546
 10
7.2965056001
 20
-28.762264715
 10
9.476746938
 20
-27.9417077848
 10
11.6310557116
 20
-27.0176709093
 10
13.7548266813
 20
-25.9920146272
 10
15.8435184469
 20
-24.8668414627
 10
17.8926662667
 20
-23.6444907313
 10
19.8978946522
 20
-22.3275324802
 10
21.8549296746
 20
-20.9187605872
 10
23.7596109234
 20
-19.4211850507
 10
25.6079030587
 20
-17.8380235079
 10
27.3959069012
 20
-16.1726920209
 10
29.1198700084
 20
-14.4287951797
 10
30.7761966864
 20
-12.6101155722
 10
32.3614573947
 20
-10.7206026751
 10
33.8723975017
 20
-8.7643612251
 10
35.3059453559
 20
-6.7456391302
  0
LWPOLYLINE
  5
E0
330
1F
100
AcDbEntity
  8
0
  6
Continuous
 62
     7
370
    25
100
AcDbPolyline
 90
       46
 70
   128
 43
0.0
 10
36.6491386594
 20
-18.188094571
 10
35.067846217
 20
-19.6136597222
 10
33.3985631113
 20
-20.991387002
 10
31.645024693
 20
-22.3175238104
 10
29.8112511397
 20
-23.5884299226
 10
27.9015374273
 20
-24.8005930075
 10
25.9204416187
 20
-25.9506438748
 10
23.8727715023
 20
-27.0353713283
 10
21.7635696369
 20
-28.0517365048
 10
19.5980968706
 20
-28.9968865767
 10
17.3818144247
 20
-29.8681677031
 10
15.1203646462
 20
-30.6631371146
 10
12.8195505518
 20
-31.3795742292
 10
10.4853142973
 20
-32.0154906986
 10
8.1237147227
 20
-32.5691392991
 10
5.7409041318
 20
-33.0390215876
 10
3.3431044765
 20
-33.4238942587
 10
0.9365831216
 20
-33.7227741495
 10
-1.4723716287
 20
-33.934941853
 10
-3.8774750597
 20
-34.0599439157
 10
-6.2724704454
 20
-34.097593609
 10
-8.6511531396
 20
-34.0479702775
 10
-11.0073941803
 20
-33.9114172853
 10
-13.3351632399
 20
-33.6885385892
 10
-15.6285507608
 20
-33.3801939884
 10
-17.8817891274
 20
-32.9874931059
 10
-20.0892727394
 20
-32.5117881735
 10
-22.2455768632
 20
-31.9546656989
 10
-24.3454751562
 20
-31.3179371052
 10
-26.3839557742
 20
-30.6036284384
 10
-28.3562359872
 20
-29.8139692459
 10
-30.2577752496
 20
-28.9513807329
 10
-32.0842866851
 20
-28.0184633074
 10
-33.8317469643
 20
-27.0179836246
 10
-35.4964045709
 20
-25.9528612433
 10
-37.0747864672
 20
-24.8261550032
 10
-38.5637031825
 20
-23.641049233
 10
-39.9602523667
 20
-22.4008398906
 10
-41.2618208577
 20
-21.1089207362
 10
-42.4660853289
 20
-19.7687696306
 10
-43.5710115864
 20
-18.3839350458
 10
-44.5748525986
 20
-16.9580228665
 10
-45.4761453465
 20
-15.4946835557
 10
-46.2737065861
 20
-13.9975997466
 10
-46.9666276206
 20
-12.4704743178
 10
-47.5542681829
 20
-10.9170189979
  0
LWPOLYLINE
  5
F6
330
1F
100
AcDbEntity
  8
0
  6
Continuous
 62
     7
370
    25
100
AcDbPolyline
 90
       17
 70
   128
 43
0.0
 10
29.6906337835
 20
70.7415371848
 10
29.0810317605
 20
70.7336046338
 10
28.4710998026
 20
70.6557369329
 10
27.880179066
 20
70.5104173276
 10
27.327016469
 20
70.302239494
 10
26.8291931683
 20
70.0377695904
 10
26.4025845317
 20
69.7253509298
 10
26.060865827
 20
69.3748556044
 10
25.8150774871
 20
68.9973885879
 10
25.673263263
 20
68.60495115
 10
25.640193702
 20
68.2100718367
 10
25.7171860289
 20
67.8254147378
 10
25.902029548
 20
67.4633761972
 10
26.1890230263
 20
67.1356823904
 10
26.5691271555
 20
66.8530011446
 10
27.0302311716
 20
66.6245818674
 10
27.1322559522
 20
66.5856137837
  0
LWPOLYLINE
  5
F7
330
1F
100
AcDbEntity
  8
0
  6
Continuous
 62
     7
370
    25
100
AcDbPolyline
 90
       14
 70
   128
 43
0.0
 10
31.4212966226
 20
67.1128593787
 10
31.5427926674
 20
67.1987575586
 10
31.9282529488
 20
67.535063872
 10
32.2210162718
 20
67.9036033632
 10
32.4117797395
 20
68.2923825165
 10
32.4945976674
 20
68.6887972581
 10
32.4670486581
 20
69.0800517915
 10
32.3302825148
 20
69.4535766497
 10
32.0889494988
 20
69.7974317166
 10
31.7510185311
 20
70.1006814543
 10
31.3274942731
 20
70.3537314257
 10
30.8320455142
 20
70.5486172387
 10
30.2805589949
 20
70.6792391066
 10
29.6906337835
 20
70.7415371848
  0
LWPOLYLINE
  5
106
330
1F
100
AcDbEntity
  8
0
  6
Continuous
 62
     7
370
    25
100
AcDbPolyline
 90
       17
 70
   128
 43
0.0
 10
-23.6305162779
 20
73.157301839
 10
-24.2140677709
 20
73.1490697406
 10
-24.8053750972
 20
73.0729715486
 10
-25.3856799327
 20
72.9314344558
 10
-25.9365678862
 20
72.7289344861
 10
-26.4405304256
 20
72.4718618372
 10
-26.8815026358
 20
72.1683303917
 10
-27.2453626522
 20
71.8279356719
 10
-27.520378865
 20
71.4614666891
 10
-27.6975914082
 20
71.080578415
 10
-27.7711151872
 20
70.6974329732
 10
-27.738352877
 20
70.3243190644
 10
-27.600108091
 20
69.9732605027
 10
-27.3605913468
 20
69.6556259419
 10
-27.0273145877
 20
69.3817527614
 10
-26.6108737968
 20
69.1605985197
 10
-26.4663264529
 20
69.1037188853
  0
LWPOLYLINE
  5
107
330
1F
100
AcDbEntity
  8
0
  6
Continuous
 62
     7
370
    25
100
AcDbPolyline
 90
       13
 70
   128
 43
0.0
 10
-21.9693403436
 20
69.9264941378
 10
-21.8330032521
 20
70.0482596694
 10
-21.5139834235
 20
70.4060387591
 10
-21.2902810014
 20
70.7833729002
 10
-21.1689242668
 20
71.1680318663
 10
-21.153595346
 20
71.5476008333
 10
-21.2445399591
 20
71.909885802
 10
-21.4385911094
 20
72.2433045839
 10
-21.7293018981
 20
72.5372509667
 10
-22.1071792648
 20
72.7824214403
 10
-22.5600078266
 20
72.9710958238
 10
-23.0732511111
 20
73.0973651212
 10
-23.6305162779
 20
73.157301839
  0
LWPOLYLINE
  5
118
330
1F
100
AcDbEntity
  8
0
  6
HIDDEN
 62
     7
370
    18
100
AcDbPolyline
 90
       28
 70
   128
 43
0.0
 10
-30.1807201965
 20
-23.7663983879
 10
-31.8152711796
 20
-22.8018042051
 10
-33.3677070476
 20
-21.7745767995
 10
-34.8345556015
 20
-20.6878155837
 10
-36.2126372359
 20
-19.5447493744
 10
-37.4990687747
 20
-18.3487219749
 10
-38.6912657409
 20
-17.1031777826
 10
-39.7869431285
 20
-15.8116475227
 10
-40.7841147517
 20
-14.4777341997
 10
-41.6810912602
 20
-13.1050993507
 10
-42.4764769131
 20
-11.6974496773
 10
-43.1691652105
 20
-10.2585241227
 10
-43.7583334867
 20
-8.7920814542
 10
-44.2434365716
 20
-7.3018883985
 10
-44.6241996257
 20
-5.7917083739
 10
-44.9006102574
 20
-4.2652908486
 10
-45.0729100274
 20
-2.726361351
 10
-45.1415854431
 20
-1.1786121484
 10
-45.1073585431
 20
0.3743063993
 10
-44.9711771667
 20
1.9287938071
 10
-44.7342049988
 20
3.4813067604
 10
-44.3978114757
 20
5.0283657469
 10
-43.9635616293
 20
6.5665610438
 10
-43.4332059435
 20
8.0925580779
 10
-42.808670288
 20
9.6031021847
 10
-42.0920459894
 20
11.0950227951
 10
-41.2855800919
 20
12.565237078
 10
-40.4799840428
 20
13.87502598
  0
LWPOLYLINE
  5
119
330
1F
100
AcDbEntity
  8
0
  6
HIDDEN
 62
     7
370
    18
100
AcDbPolyline
 90
       43
 70
   128
 43
0.0
 10
32.8792584876
 20
27.1471850621
 10
33.4964236587
 20
26.6780175433
 10
34.8002158823
 20
25.6073467409
 10
36.0289116761
 20
24.4839473549
 10
37.1792757851
 20
23.309858867
 10
38.2481836291
 20
22.0872575568
 10
39.2326315491
 20
20.8184566828
 10
40.1297474367
 20
19.5059062402
 10
40.93680171
 20
18.1521922508
 10
41.6512185939
 20
16.7600355348
 10
42.2705876549
 20
15.33228992
 10
42.7926755313
 20
13.8719398421
 10
43.2154377962
 20
12.3820972929
 10
43.5370308779
 20
10.8659980744
 10
43.7558239595
 20
9.3269973229
 10
43.8704107703
 20
7.7685642669
 10
43.8796211748
 20
6.194276192
 10
43.7825324595
 20
4.6078115871
 10
43.5784802128
 20
3.0129424563
 10
43.2670686874
 20
1.413525784
 10
42.8481805318
 20
-0.1865058461
 10
42.3219857748
 20
-1.7831544765
 10
41.6889499458
 20
-3.372367827
 10
40.9498412129
 20
-4.9500511508
 10
40.105736424
 20
-6.5120798579
 10
39.1580259384
 20
-8.0543128643
 10
38.1084171403
 20
-9.5726066103
 10
36.9589365351
 20
-11.0628296835
 10
35.7119303346
 20
-12.5208779706
 10
34.3700634504
 20
-13.9426902534
 10
32.9363168231
 20
-15.3242641539
 10
31.4139830332
 20
-16.6616723253
 10
29.8066601489
 20
-17.9510787784
 10
28.1182437881
 20
-19.1887552255
 10
26.3529173846
 20
-20.3710973193
 10
24.5151406703
 20
-21.4946406598
 10
22.6096364013
 20
-22.5560764396
 10
20.6413753783
 20
-23.5522665985
 10
18.6155598288
 20
-24.480258358
 10
16.5376052379
 20
-25.3372980089
 10
14.4131207344
 20
-26.1208438314
 10
12.2478881556
 20
-26.8285780321
 10
10.0478399291
 20
-27.4584175896
  0
LWPOLYLINE
  5
1CA
330
1F
100
AcDbEntity
  8
0
  6
HIDDEN
 62
     7
370
    18
100
AcDbPolyline
 90
       23
 70
   128
 43
0.0
 10
25.8814424926
 20
67.4677912624
 10
25.8297468188
 20
67.2863477365
 10
25.7968724127
 20
66.8912764216
 10
25.8738255921
 20
66.5063803562
 10
26.058395786
 20
66.1440633856
 10
26.3448894958
 20
65.816060373
 10
26.7242826438
 20
65.5330487734
 10
27.1844868112
 20
65.3042882924
 10
27.7107239402
 20
65.1373023766
 10
28.2859993209
 20
65.0376144493
 10
28.8916580031
 20
65.0085502165
 10
29.5080054898
 20
65.0511150302
 10
30.1149700586
 20
65.163952328
 10
30.6927816174
 20
65.3433857096
 10
31.2226408746
 20
65.5835435105
 10
31.6873529103
 20
65.876561029
 10
32.0719009618
 20
66.2128521366
 10
32.363939259
 20
66.5814390705
 10
32.5541877937
 20
66.9703269811
 10
32.6367166698
 20
67.3669083841
 10
32.6091127701
 20
67.7583820963
 10
32.4725265343
 20
68.1321714646
 10
32.3758622583
 20
68.2925015644
  0
LWPOLYLINE
  5
1F2
330
1F
100
AcDbEntity
  8
0
  6
HIDDEN
 62
     7
370
    18
100
AcDbPolyline
 90
       23
 70
   128
 43
0.0
 10
-21.2213898706
 20
70.9928532326
 10
-21.1870025533
 20
70.9498162959
 10
-20.9931658424
 20
70.6161031859
 10
-20.902214015
 20
70.2535584455
 10
-20.9173132659
 20
69.8737728279
 10
-21.0382242382
 20
69.4889474283
 10
-21.2612782606
 20
69.111502451
 10
-21.5794672787
 20
68.7536716098
 10
-21.9826482282
 20
68.4270959622
 10
-22.4578580356
 20
68.1424318619
 10
-22.9897306173
 20
67.9089879201
 10
-23.5610024913
 20
67.7344053012
 10
-24.1530892723
 20
67.624394304
 10
-24.7467117261
 20
67.58253803
 10
-25.3225475215
 20
67.6101711279
 10
-25.8618835405
 20
67.7063383063
 10
-26.3472437063
 20
67.8678337549
 10
-26.7629687298
 20
68.0893190492
 10
-27.0957268351
 20
68.3635137946
 10
-27.3349381456
 20
68.6814503895
 10
-27.4730996968
 20
69.0327820315
 10
-27.5060026425
 20
69.4061315306
 10
-27.4380198132
 20
69.7733352652
  0
LINE
  5
20E
330
1F
100
AcDbEntity
  8
0
  6
Continuous
 62
     7
370
    25
100
AcDbLine
 10
47.8093545477
 20
32.2099293968
 30
0.0
 11
46.5470001738
 21
46.601067314
 31
0.0
  0
LINE
  5
20F
330
1F
100
AcDbEntity
  8
0
  6
Continuous
 62
     7
370
    25
100
AcDbLine
 10
-58.7748791538
 20
37.5483717233
 30
0.0
 11
-52.9234482175
 21
15.9080767502
 31
0.0
  0
LINE
  5
210
330
1F
100
AcDbEntity
  8
0
  6
Continuous
 62
     7
370
    25
100
AcDbLine
 10
-55.2208778106
 20
14.6589024767
 30
0.0
 11
-50.8980652264
 21
-1.0536900134
 31
0.0
  0
LINE
  5
211
330
1F
100
AcDbEntity
  8
0
  6
Continuous
 62
     7
370
    25
100
AcDbLine
 10
46.2403741031
 20
42.6261416792
 30
0.0
 11
45.5194888607
 21
39.6202304273
 31
0.0
  0
LINE
  5
212
330
1F
100
AcDbEntity
  8
0
  6
Continuous
 62
     7
370
    25
100
AcDbLine
 10
29.9408575791
 20
21.9494612149
 30
0.0
 11
39.6168150527
 21
30.4861004104
 31
0.0
  0
LINE
  5
213
330
1F
100
AcDbEntity
  8
0
  6
Continuous
 62
     7
370
    25
100
AcDbLine
 10
-58.5231238459
 20
36.7394087685
 30
0.0
 11
-55.3502360318
 21
27.7467963011
 31
0.0
  0
LINE
  5
214
330
1F
100
AcDbEntity
  8
0
  6
Continuous
 62
     7
370
    25
100
AcDbLine
 10
-56.7899725337
 20
48.5942129524
 30
0.0
 11
-58.0187986135
 21
45.7632864323
 31
0.0
  0
LINE
  5
215
330
1F
100
AcDbEntity
  8
0
  6
Continuous
 62
     7
370
    25
100
AcDbLine
 10
-49.9112041418
 20
56.8671624752
 30
0.0
 11
-27.2275576441
 21
74.0601133649
 31
0.0
  0
LINE
  5
216
330
1F
100
AcDbEntity
  8
0
  6
Continuous
 62
     7
370
    25
100
AcDbLine
 10
-24.5058537242
 20
74.8589510829
 30
0.0
 11
-27.2275576441
 21
74.0601133649
 31
0.0
  0
LINE
  5
217
330
1F
100
AcDbEntity
  8
0
  6
Continuous
 62
     7
370
    25
100
AcDbLine
 10
31.1173861118
 20
72.3829562454
 30
0.0
 11
-24.5058537242
 21
74.8589510829
 31
0.0
  0
LINE
  5
218
330
1F
100
AcDbEntity
  8
0
  6
Continuous
 62
     7
370
    25
100
AcDbLine
 10
33.3518301938
 20
71.3369003057
 30
0.0
 11
31.1173861118
 21
72.3829562454
 31
0.0
  0
LINE
  5
219
330
1F
100
AcDbEntity
  8
0
  6
Continuous
 62
     7
370
    25
100
AcDbLine
 10
44.8642487432
 20
51.7738262117
 30
0.0
 11
33.3518301938
 21
71.3369003057
 31
0.0
  0
LINE
  5
21A
330
1F
100
AcDbEntity
  8
0
  6
Continuous
 62
     7
370
    25
100
AcDbLine
 10
-53.3184763976
 20
33.3710912123
 30
0.0
 11
-53.9859917293
 21
35.9102101043
 31
0.0
  0
LINE
  5
21B
330
1F
100
AcDbEntity
  8
0
  6
Continuous
 62
     7
370
    25
100
AcDbLine
 10
-54.1821338724
 20
33.5350800226
 30
0.0
 11
-53.5106973617
 21
30.9947899427
 31
0.0
  0
LINE
  5
21C
330
1F
100
AcDbEntity
  8
0
  6
Continuous
 62
     7
370
    25
100
AcDbLine
 10
-49.5010631935
 20
43.7806147846
 30
0.0
 11
-50.1393507784
 21
46.3162225679
 31
0.0
  0
LINE
  5
21D
330
1F
100
AcDbEntity
  8
0
  6
Continuous
 62
     7
370
    25
100
AcDbLine
 10
-51.4051542309
 20
44.0430047229
 30
0.0
 11
-50.7587983258
 21
41.5068713987
 31
0.0
  0
LINE
  5
21E
330
1F
100
AcDbEntity
  8
0
  6
Continuous
 62
     7
370
    25
100
AcDbLine
 10
-41.3876992299
 20
53.1257025284
 30
0.0
 11
-41.9814405186
 21
55.6610717198
 31
0.0
  0
LINE
  5
21F
330
1F
100
AcDbEntity
  8
0
  6
Continuous
 62
     7
370
    25
100
AcDbLine
 10
-44.1379934807
 20
53.706023656
 30
0.0
 11
-43.5332133116
 21
51.1709191039
 31
0.0
  0
LINE
  5
220
330
1F
100
AcDbEntity
  8
0
  6
Continuous
 62
     7
370
    25
100
AcDbLine
 10
-29.9410068762
 20
60.5674750972
 30
0.0
 11
-30.4801485064
 21
63.1064840567
 31
0.0
  0
LINE
  5
221
330
1F
100
AcDbEntity
  8
0
  6
Continuous
 62
     7
370
    25
100
AcDbLine
 10
-33.2903357831
 20
61.6387940352
 30
0.0
 11
-32.7383481094
 21
59.1009611588
 31
0.0
  0
LINE
  5
222
330
1F
100
AcDbEntity
  8
0
  6
Continuous
 62
     7
370
    25
100
AcDbLine
 10
-16.3132043166
 20
65.4840214953
 30
0.0
 11
-16.7926347218
 21
68.0308657814
 31
0.0
  0
LINE
  5
223
330
1F
100
AcDbEntity
  8
0
  6
Continuous
 62
     7
370
    25
100
AcDbLine
 10
-19.9856772904
 20
67.1709087874
 30
0.0
 11
-19.4926618455
 21
64.626183272
 31
0.0
  0
LINE
  5
224
330
1F
100
AcDbEntity
  8
0
  6
Continuous
 62
     7
370
    25
100
AcDbLine
 10
-1.7619415739
 20
67.4695050684
 30
0.0
 11
-2.1810731786
 21
70.0281467419
 31
0.0
  0
LINE
  5
225
330
1F
100
AcDbEntity
  8
0
  6
Continuous
 62
     7
370
    25
100
AcDbLine
 10
-5.468097529
 20
69.8483731522
 30
0.0
 11
-5.0356267683
 21
67.2926824718
 31
0.0
  0
LINE
  5
226
330
1F
100
AcDbEntity
  8
0
  6
Continuous
 62
     7
370
    25
100
AcDbLine
 10
12.4030349904
 20
66.3330926379
 30
0.0
 11
12.0404815652
 21
68.9065482714
 31
0.0
  0
LINE
  5
227
330
1F
100
AcDbEntity
  8
0
  6
Continuous
 62
     7
370
    25
100
AcDbLine
 10
8.9562429216
 20
69.4309791919
 30
0.0
 11
9.33092773
 21
66.8610294805
 31
0.0
  0
LINE
  5
228
330
1F
100
AcDbEntity
  8
0
  6
Continuous
 62
     7
370
    25
100
AcDbLine
 10
24.8636153883
 20
62.1100271257
 30
0.0
 11
24.5495371331
 21
64.6996365971
 31
0.0
  0
LINE
  5
229
330
1F
100
AcDbEntity
  8
0
  6
Continuous
 62
     7
370
    25
100
AcDbLine
 10
21.9625659092
 20
65.9000332292
 30
0.0
 11
22.2865669449
 21
63.3140504752
 31
0.0
  0
LINE
  5
22A
330
1F
100
AcDbEntity
  8
0
  6
Continuous
 62
     7
370
    25
100
AcDbLine
 10
34.3523807099
 20
55.0871023644
 30
0.0
 11
34.0740485439
 21
57.6919581851
 31
0.0
  0
LINE
  5
22B
330
1F
100
AcDbEntity
  8
0
  6
Continuous
 62
     7
370
    25
100
AcDbLine
 10
32.260744445
 20
59.4810823017
 30
0.0
 11
32.5457343641
 21
56.8794364353
 31
0.0
  0
LINE
  5
22C
330
1F
100
AcDbEntity
  8
0
  6
Continuous
 62
     7
370
    25
100
AcDbLine
 10
39.7491730939
 20
45.8335673207
 30
0.0
 11
39.4891483082
 21
48.4503115619
 31
0.0
  0
LINE
  5
22D
330
1F
100
AcDbEntity
  8
0
  6
Continuous
 62
     7
370
    25
100
AcDbLine
 10
38.6820251355
 20
50.6753221262
 30
0.0
 11
38.9444053811
 21
48.0608305609
 31
0.0
  0
LINE
  5
22E
330
1F
100
AcDbEntity
  8
0
  6
Continuous
 62
     7
370
    25
100
AcDbLine
 10
-55.3502360318
 20
27.7467963011
 30
0.0
 11
-48.2697833752
 21
1.4292509835
 31
0.0
  0
LINE
  5
22F
330
1F
100
AcDbEntity
  8
0
  6
Continuous
 62
     7
370
    25
100
AcDbLine
 10
29.9408575791
 20
21.9494612149
 30
0.0
 11
33.2145985913
 21
-5.1243980602
 31
0.0
  0
LINE
  5
230
330
1F
100
AcDbEntity
  8
0
  6
Continuous
 62
     7
370
    25
100
AcDbLine
 10
-52.9234482175
 20
15.9080767502
 30
0.0
 11
-52.56562521
 21
14.7022059614
 31
0.0
  0
LINE
  5
231
330
1F
100
AcDbEntity
  8
0
  6
Continuous
 62
     7
370
    25
100
AcDbLine
 10
-52.56562521
 20
14.7022059614
 30
0.0
 11
-48.2697833752
 21
1.4292509835
 31
0.0
  0
LINE
  5
232
330
1F
100
AcDbEntity
  8
0
  6
Continuous
 62
     7
370
    25
100
AcDbLine
 10
33.2145985913
 20
-5.1243980602
 30
0.0
 11
41.9477970204
 21
7.6909829207
 31
0.0
  0
LINE
  5
233
330
1F
100
AcDbEntity
  8
0
  6
Continuous
 62
     7
370
    25
100
AcDbLine
 10
47.1562044872
 20
21.5410559581
 30
0.0
 11
47.7063502326
 21
26.1240530656
 31
0.0
  0
LINE
  5
234
330
1F
100
AcDbEntity
  8
0
  6
Continuous
 62
     7
370
    25
100
AcDbLine
 10
50.5266417859
 20
28.8335489811
 30
0.0
 11
45.9080491307
 21
40.1479660884
 31
0.0
  0
LINE
  5
235
330
1F
100
AcDbEntity
  8
0
  6
Continuous
 62
     7
370
    25
100
AcDbLine
 10
49.7682845228
 20
21.3644269942
 30
0.0
 11
50.3123638875
 21
25.9533828524
 31
0.0
  0
LINE
  5
236
330
1F
100
AcDbEntity
  8
0
  6
Continuous
 62
     7
370
    25
100
AcDbLine
 10
35.3059453559
 20
-6.7456391302
 30
0.0
 11
44.0465765305
 21
6.1000584576
 31
0.0
  0
LINE
  5
237
330
1F
100
AcDbEntity
  8
0
  6
Continuous
 62
     7
370
    25
100
AcDbLine
 10
-54.8765642378
 20
13.5039427924
 30
0.0
 11
-50.6056074341
 21
0.2219370663
 31
0.0
  0
LINE
  5
238
330
1F
100
AcDbEntity
  8
0
  6
Continuous
 62
     7
370
    25
100
AcDbLine
 10
41.9477970204
 20
7.6909829207
 30
0.0
 11
39.6168150527
 21
30.4861004104
 31
0.0
  0
LINE
  5
239
330
1F
100
AcDbEntity
  8
0
  6
Continuous
 62
     7
370
    25
100
AcDbLine
 10
45.5194888607
 20
39.6202304273
 30
0.0
 11
47.1562044872
 21
21.5410559581
 31
0.0
  0
LINE
  5
23A
330
1F
100
AcDbEntity
  8
0
  6
Continuous
 62
     7
370
    25
100
AcDbLine
 10
35.3059453559
 20
-6.7456391302
 30
0.0
 11
36.6491386594
 21
-18.188094571
 31
0.0
  0
LINE
  5
23B
330
1F
100
AcDbEntity
  8
0
  6
Continuous
 62
     7
370
    25
100
AcDbLine
 10
-50.6056074341
 20
0.2219370663
 30
0.0
 11
-47.5542681829
 21
-10.9170189979
 31
0.0
  0
LINE
  5
23C
330
1F
100
AcDbEntity
  8
0
  6
Continuous
 62
     7
370
    25
100
AcDbLine
 10
47.7063502326
 20
26.1240530656
 30
0.0
 11
46.2403741031
 21
42.6261416792
 31
0.0
  0
LINE
  5
23D
330
1F
100
AcDbEntity
  8
0
  6
Continuous
 62
     7
370
    25
100
AcDbLine
 10
44.0465765305
 20
6.1000584576
 30
0.0
 11
45.6104948385
 21
-9.7396215146
 31
0.0
  0
LINE
  5
23E
330
1F
100
AcDbEntity
  8
0
  6
Continuous
 62
     7
370
    25
100
AcDbLine
 10
45.6104948385
 20
-9.7396215146
 30
0.0
 11
36.6491386594
 21
-18.188094571
 31
0.0
  0
LINE
  5
23F
330
1F
100
AcDbEntity
  8
0
  6
Continuous
 62
     7
370
    25
100
AcDbLine
 10
49.7682845228
 20
21.3644269942
 30
0.0
 11
51.5808848936
 21
0.2712979697
 31
0.0
  0
LINE
  5
240
330
1F
100
AcDbEntity
  8
0
  6
Continuous
 62
     7
370
    25
100
AcDbLine
 10
-58.5231238459
 20
36.7394087685
 30
0.0
 11
-52.56562521
 21
14.7022059614
 31
0.0
  0
LINE
  5
241
330
1F
100
AcDbEntity
  8
0
  6
Continuous
 62
     7
370
    25
100
AcDbLine
 10
50.3123638875
 20
25.9533828524
 30
0.0
 11
52.2232426593
 21
3.2817003484
 31
0.0
  0
LINE
  5
242
330
1F
100
AcDbEntity
  8
0
  6
Continuous
 62
     7
370
    25
100
AcDbLine
 10
52.2232426593
 20
3.2817003484
 30
0.0
 11
51.5808848936
 21
0.2712979697
 31
0.0
  0
LINE
  5
243
330
1F
100
AcDbEntity
  8
0
  6
Continuous
 62
     7
370
    25
100
AcDbLine
 10
50.5266417859
 20
28.8335489811
 30
0.0
 11
52.5024658397
 21
5.1670355259
 31
0.0
  0
LINE
  5
244
330
1F
100
AcDbEntity
  8
0
  6
Continuous
 62
     7
370
    25
100
AcDbLine
 10
39.808191763
 20
48.2542866916
 30
0.0
 11
38.9444053811
 21
48.0608305609
 31
0.0
  0
LINE
  5
245
330
1F
100
AcDbEntity
  8
0
  6
Continuous
 62
     7
370
    25
100
AcDbLine
 10
-54.2277418666
 20
33.2709593193
 30
0.0
 11
-53.3184763976
 21
33.3710912123
 31
0.0
  0
LINE
  5
246
330
1F
100
AcDbEntity
  8
0
  6
Continuous
 62
     7
370
    25
100
AcDbLine
 10
33.2814455089
 20
57.2339127802
 30
0.0
 11
35.1217811947
 21
55.4590330319
 31
0.0
  0
LINE
  5
247
330
1F
100
AcDbEntity
  8
0
  6
Continuous
 62
     7
370
    25
100
AcDbLine
 10
32.9997685987
 20
59.8359487793
 30
0.0
 11
33.2814455089
 21
57.2339127802
 31
0.0
  0
LINE
  5
248
330
1F
100
AcDbEntity
  8
0
  6
Continuous
 62
     7
370
    25
100
AcDbLine
 10
-54.8765642378
 20
13.5039427924
 30
0.0
 11
-50.6569158592
 21
-1.836327558
 31
0.0
  0
LINE
  5
249
330
1F
100
AcDbEntity
  8
0
  6
Continuous
 62
     7
370
    25
100
AcDbLine
 10
-47.5542681829
 20
-10.9170189979
 30
0.0
 11
-50.6569158592
 21
-1.836327558
 31
0.0
  0
LINE
  5
24A
330
1F
100
AcDbEntity
  8
0
  6
Continuous
 62
     7
370
    25
100
AcDbLine
 10
33.2814455089
 20
57.2339127802
 30
0.0
 11
32.5457343641
 21
56.8794364353
 31
0.0
  0
LINE
  5
24B
330
1F
100
AcDbEntity
  8
0
  6
Continuous
 62
     7
370
    25
100
AcDbLine
 10
-50.333288683
 20
43.8820735537
 30
0.0
 11
-50.9748453728
 21
46.4168353641
 31
0.0
  0
LINE
  5
24C
330
1F
100
AcDbEntity
  8
0
  6
Continuous
 62
     7
370
    25
100
AcDbLine
 10
-51.5597199304
 20
41.6056923827
 30
0.0
 11
-50.333288683
 21
43.8820735537
 31
0.0
  0
LINE
  5
24D
330
1F
100
AcDbEntity
  8
0
  6
Continuous
 62
     7
370
    25
100
AcDbLine
 10
-50.333288683
 20
43.8820735537
 30
0.0
 11
-49.5010631935
 21
43.7806147846
 31
0.0
  0
LINE
  5
24E
330
1F
100
AcDbEntity
  8
0
  6
Continuous
 62
     7
370
    25
100
AcDbLine
 10
-50.6569158592
 20
-1.836327558
 30
0.0
 11
-50.8980652264
 21
-1.0536900134
 31
0.0
  0
LINE
  5
24F
330
1F
100
AcDbEntity
  8
0
  6
Continuous
 62
     7
370
    25
100
AcDbLine
 10
22.8296627817
 20
63.7826823443
 30
0.0
 11
25.429697822
 21
62.6011730557
 31
0.0
  0
LINE
  5
250
330
1F
100
AcDbEntity
  8
0
  6
Continuous
 62
     7
370
    25
100
AcDbLine
 10
22.508218179
 20
66.3687207063
 30
0.0
 11
22.8296627817
 21
63.7826823443
 31
0.0
  0
LINE
  5
251
330
1F
100
AcDbEntity
  8
0
  6
Continuous
 62
     7
370
    25
100
AcDbLine
 10
22.8296627817
 20
63.7826823443
 30
0.0
 11
22.2865669449
 21
63.3140504752
 31
0.0
  0
LINE
  5
252
330
1F
100
AcDbEntity
  8
0
  6
Continuous
 62
     7
370
    25
100
AcDbLine
 10
-42.0655405467
 20
53.4048384728
 30
0.0
 11
-42.6616745935
 21
55.9393173222
 31
0.0
  0
LINE
  5
253
330
1F
100
AcDbEntity
  8
0
  6
Continuous
 62
     7
370
    25
100
AcDbLine
 10
-44.1837894328
 20
51.4410539532
 30
0.0
 11
-42.0655405467
 21
53.4048384728
 31
0.0
  0
LINE
  5
254
330
1F
100
AcDbEntity
  8
0
  6
Continuous
 62
     7
370
    25
100
AcDbLine
 10
-42.0655405467
 20
53.4048384728
 30
0.0
 11
-41.3876992299
 21
53.1257025284
 31
0.0
  0
LINE
  5
255
330
1F
100
AcDbEntity
  8
0
  6
Continuous
 62
     7
370
    25
100
AcDbLine
 10
9.6394240222
 20
67.3917508383
 30
0.0
 11
12.7222425056
 21
66.8881350189
 31
0.0
  0
LINE
  5
256
330
1F
100
AcDbEntity
  8
0
  6
Continuous
 62
     7
370
    25
100
AcDbLine
 10
9.2664023531
 20
69.9614291134
 30
0.0
 11
9.6394240222
 21
67.3917508383
 31
0.0
  0
LINE
  5
257
330
1F
100
AcDbEntity
  8
0
  6
Continuous
 62
     7
370
    25
100
AcDbLine
 10
-30.4070546306
 20
60.9878060939
 30
0.0
 11
-30.9475935048
 21
63.5259426277
 31
0.0
  0
LINE
  5
258
330
1F
100
AcDbEntity
  8
0
  6
Continuous
 62
     7
370
    25
100
AcDbLine
 10
-33.1834897684
 20
59.5064036322
 30
0.0
 11
-30.4070546306
 21
60.9878060939
 31
0.0
  0
LINE
  5
259
330
1F
100
AcDbEntity
  8
0
  6
Continuous
 62
     7
370
    25
100
AcDbLine
 10
9.6394240222
 20
67.3917508383
 30
0.0
 11
9.33092773
 21
66.8610294805
 31
0.0
  0
LINE
  5
25A
330
1F
100
AcDbEntity
  8
0
  6
Continuous
 62
     7
370
    25
100
AcDbLine
 10
-30.4070546306
 20
60.9878060939
 30
0.0
 11
-29.9410068762
 21
60.5674750972
 31
0.0
  0
LINE
  5
25B
330
1F
100
AcDbEntity
  8
0
  6
Continuous
 62
     7
370
    25
100
AcDbLine
 10
-4.9826961227
 20
67.8323722888
 30
0.0
 11
-1.7104392049
 21
68.0324136324
 31
0.0
  0
LINE
  5
25C
330
1F
100
AcDbEntity
  8
0
  6
Continuous
 62
     7
370
    25
100
AcDbLine
 10
-5.4144719714
 20
70.3875203668
 30
0.0
 11
-4.9826961227
 21
67.8323722888
 31
0.0
  0
LINE
  5
25D
330
1F
100
AcDbEntity
  8
0
  6
Continuous
 62
     7
370
    25
100
AcDbLine
 10
-16.5298045359
 20
66.0007816572
 30
0.0
 11
-17.0095888086
 21
68.5468572151
 31
0.0
  0
LINE
  5
25E
330
1F
100
AcDbEntity
  8
0
  6
Continuous
 62
     7
370
    25
100
AcDbLine
 10
-19.6970580257
 20
65.1231049546
 30
0.0
 11
-16.5298045359
 21
66.0007816572
 31
0.0
  0
LINE
  5
25F
330
1F
100
AcDbEntity
  8
0
  6
Continuous
 62
     7
370
    25
100
AcDbLine
 10
-4.9826961227
 20
67.8323722888
 30
0.0
 11
-5.0356267683
 21
67.2926824718
 31
0.0
  0
LINE
  5
260
330
1F
100
AcDbEntity
  8
0
  6
Continuous
 62
     7
370
    25
100
AcDbLine
 10
-16.5298045359
 20
66.0007816572
 30
0.0
 11
-16.3132043166
 21
65.4840214953
 31
0.0
  0
LINE
  5
261
330
1F
100
AcDbEntity
  8
0
  6
HIDDEN
 62
     7
370
    18
100
AcDbLine
 10
-33.0420698456
 20
-12.1946683244
 30
0.0
 11
-30.1807201965
 21
-23.7663983879
 31
0.0
  0
LINE
  5
262
330
1F
100
AcDbEntity
  8
0
  6
HIDDEN
 62
     7
370
    18
100
AcDbLine
 10
-28.6048698494
 20
-14.2733797384
 30
0.0
 11
-25.8262658145
 21
-25.8578752251
 31
0.0
  0
LINE
  5
263
330
1F
100
AcDbEntity
  8
0
  6
HIDDEN
 62
     7
370
    18
100
AcDbLine
 10
2.3853932248
 20
-16.974889862
 30
0.0
 11
4.5158296694
 21
-28.6670395889
 31
0.0
  0
LINE
  5
264
330
1F
100
AcDbEntity
  8
0
  6
HIDDEN
 62
     7
370
    18
100
AcDbLine
 10
8.0437879671
 20
-15.7429683367
 30
0.0
 11
10.0478399291
 21
-27.4584175896
 31
0.0
  0
LINE
  5
265
330
1F
100
AcDbEntity
  8
0
  6
HIDDEN
 62
     7
370
    18
100
AcDbLine
 10
-20.5227908462
 20
2.9299910768
 30
0.0
 11
-21.0833488124
 21
5.5071872932
 31
0.0
  0
LINE
  5
266
330
1F
100
AcDbEntity
  8
0
  6
HIDDEN
 62
     7
370
    18
100
AcDbLine
 10
-17.4986877705
 20
5.1995734079
 30
0.0
 11
-16.9540090034
 21
2.6193069472
 31
0.0
  0
LINE
  5
267
330
1F
100
AcDbEntity
  8
0
  6
HIDDEN
 62
     7
370
    18
100
AcDbLine
 10
-35.0138239855
 20
6.638385026
 30
0.0
 11
-35.6354269639
 21
9.2028752923
 31
0.0
  0
LINE
  5
268
330
1F
100
AcDbEntity
  8
0
  6
HIDDEN
 62
     7
370
    18
100
AcDbLine
 10
-32.6330551023
 20
8.0606716616
 30
0.0
 11
-32.023490734
 21
5.493497354
 31
0.0
  0
LINE
  5
269
330
1F
100
AcDbEntity
  8
0
  6
HIDDEN
 62
     7
370
    18
100
AcDbLine
 10
-45.9444192275
 20
13.6326957868
 30
0.0
 11
-46.6057768108
 21
16.1864999924
 31
0.0
  0
LINE
  5
26A
330
1F
100
AcDbEntity
  8
0
  6
HIDDEN
 62
     7
370
    18
100
AcDbLine
 10
-44.5279060495
 20
14.3819115139
 30
0.0
 11
-43.8733580523
 21
11.8259009584
 31
0.0
  0
LINE
  5
26B
330
1F
100
AcDbEntity
  8
0
  6
HIDDEN
 62
     7
370
    18
100
AcDbLine
 10
-52.1920997729
 20
22.9328792355
 30
0.0
 11
-52.8685131011
 21
25.4781850984
 31
0.0
  0
LINE
  5
26C
330
1F
100
AcDbEntity
  8
0
  6
HIDDEN
 62
     7
370
    18
100
AcDbLine
 10
-51.907629026
 20
23.2545974579
 30
0.0
 11
-51.2324242764
 21
20.707581235
 31
0.0
  0
LINE
  5
26D
330
1F
100
AcDbEntity
  8
0
  6
HIDDEN
 62
     7
370
    18
100
AcDbLine
 10
40.2259156939
 20
35.2165352967
 30
0.0
 11
39.9626302628
 21
37.8397080526
 31
0.0
  0
LINE
  5
26E
330
1F
100
AcDbEntity
  8
0
  6
HIDDEN
 62
     7
370
    18
100
AcDbLine
 10
40.3136485745
 20
40.2813863336
 30
0.0
 11
40.574166703
 21
37.6591005187
 31
0.0
  0
LINE
  5
26F
330
1F
100
AcDbEntity
  8
0
  6
HIDDEN
 62
     7
370
    18
100
AcDbLine
 10
35.4269818622
 20
24.3707942259
 30
0.0
 11
35.1365123161
 21
26.9937896272
 31
0.0
  0
LINE
  5
270
330
1F
100
AcDbEntity
  8
0
  6
HIDDEN
 62
     7
370
    18
100
AcDbLine
 10
36.6750833497
 20
29.3787814069
 30
0.0
 11
36.9573641164
 21
26.7551606183
 31
0.0
  0
LINE
  5
271
330
1F
100
AcDbEntity
  8
0
  6
HIDDEN
 62
     7
370
    18
100
AcDbLine
 10
25.6390041974
 20
14.5944374489
 30
0.0
 11
25.2982830138
 21
17.210877834
 31
0.0
  0
LINE
  5
272
330
1F
100
AcDbEntity
  8
0
  6
HIDDEN
 62
     7
370
    18
100
AcDbLine
 10
27.8974034695
 20
19.2423818751
 30
0.0
 11
28.2250517468
 21
16.6239813653
 31
0.0
  0
LINE
  5
273
330
1F
100
AcDbEntity
  8
0
  6
HIDDEN
 62
     7
370
    18
100
AcDbLine
 10
11.875163514
 20
7.1627467993
 30
0.0
 11
11.4662102311
 21
9.7678216508
 31
0.0
  0
LINE
  5
274
330
1F
100
AcDbEntity
  8
0
  6
HIDDEN
 62
     7
370
    18
100
AcDbLine
 10
14.8350714933
 20
11.1735103157
 30
0.0
 11
15.2275902966
 21
8.5655862098
 31
0.0
  0
LINE
  5
275
330
1F
100
AcDbEntity
  8
0
  6
HIDDEN
 62
     7
370
    18
100
AcDbLine
 10
-4.1992883726
 20
3.0927025052
 30
0.0
 11
-4.6853254997
 21
5.6839404257
 31
0.0
  0
LINE
  5
276
330
1F
100
AcDbEntity
  8
0
  6
HIDDEN
 62
     7
370
    18
100
AcDbLine
 10
-0.9682944103
 20
6.2699256564
 30
0.0
 11
-0.4997238367
 21
3.6754975293
 31
0.0
  0
LINE
  5
277
330
1F
100
AcDbEntity
  8
0
  6
HIDDEN
 62
     7
370
    18
100
AcDbLine
 10
-55.7657672024
 20
28.5006440898
 30
0.0
 11
-54.989442395
 21
32.8496942713
 31
0.0
  0
LINE
  5
278
330
1F
100
AcDbEntity
  8
0
  6
HIDDEN
 62
     7
370
    18
100
AcDbLine
 10
-54.3891367728
 20
35.5648307185
 30
0.0
 11
-47.1401772913
 21
45.644996498
 31
0.0
  0
LINE
  5
279
330
1F
100
AcDbEntity
  8
0
  6
HIDDEN
 62
     7
370
    18
100
AcDbLine
 10
-52.6243877307
 20
32.6948046824
 30
0.0
 11
-53.3957862892
 21
28.340385879
 31
0.0
  0
LINE
  5
27A
330
1F
100
AcDbEntity
  8
0
  6
HIDDEN
 62
     7
370
    18
100
AcDbLine
 10
-55.7657672024
 20
28.5006440898
 30
0.0
 11
-55.9735434422
 21
27.1882167836
 31
0.0
  0
LINE
  5
27B
330
1F
100
AcDbEntity
  8
0
  6
HIDDEN
 62
     7
370
    18
100
AcDbLine
 10
-4.5840025574
 20
4.9796170326
 30
0.0
 11
-0.8663903568
 21
5.5950129455
 31
0.0
  0
LINE
  5
27C
330
1F
100
AcDbEntity
  8
0
  6
HIDDEN
 62
     7
370
    18
100
AcDbLine
 10
-0.8663903568
 20
5.5950129455
 30
0.0
 11
-0.3977110652
 21
3.0005059775
 31
0.0
  0
LINE
  5
27D
330
1F
100
AcDbEntity
  8
0
  6
HIDDEN
 62
     7
370
    18
100
AcDbLine
 10
-0.8663903568
 20
5.5950129455
 30
0.0
 11
-0.9682944103
 21
6.2699256564
 31
0.0
  0
LINE
  5
27E
330
1F
100
AcDbEntity
  8
0
  6
HIDDEN
 62
     7
370
    18
100
AcDbLine
 10
-4.0978059228
 20
2.3883044018
 30
0.0
 11
-4.1992883726
 21
3.0927025052
 31
0.0
  0
LINE
  5
27F
330
1F
100
AcDbEntity
  8
0
  6
HIDDEN
 62
     7
370
    18
100
AcDbLine
 10
-4.0978059228
 20
2.3883044018
 30
0.0
 11
-4.5840025574
 21
4.9796170326
 31
0.0
  0
LINE
  5
280
330
1F
100
AcDbEntity
  8
0
  6
HIDDEN
 62
     7
370
    18
100
AcDbLine
 10
-4.5840025574
 20
4.9796170326
 30
0.0
 11
-4.6853254997
 21
5.6839404257
 31
0.0
  0
LINE
  5
281
330
1F
100
AcDbEntity
  8
0
  6
HIDDEN
 62
     7
370
    18
100
AcDbLine
 10
11.9018313561
 20
9.1611553338
 30
0.0
 11
15.2563355203
 21
10.5941668581
 31
0.0
  0
LINE
  5
282
330
1F
100
AcDbEntity
  8
0
  6
HIDDEN
 62
     7
370
    18
100
AcDbLine
 10
12.3092411568
 20
6.5556875537
 30
0.0
 11
11.9018313561
 21
9.1611553338
 31
0.0
  0
LINE
  5
283
330
1F
100
AcDbEntity
  8
0
  6
HIDDEN
 62
     7
370
    18
100
AcDbLine
 10
11.9018313561
 20
9.1611553338
 30
0.0
 11
11.4662102311
 21
9.7678216508
 31
0.0
  0
LINE
  5
284
330
1F
100
AcDbEntity
  8
0
  6
HIDDEN
 62
     7
370
    18
100
AcDbLine
 10
-0.3977110652
 20
3.0005059775
 30
0.0
 11
-0.4997238367
 21
3.6754975293
 31
0.0
  0
LINE
  5
285
330
1F
100
AcDbEntity
  8
0
  6
HIDDEN
 62
     7
370
    18
100
AcDbLine
 10
-0.3977110652
 20
3.0005059775
 30
0.0
 11
-4.0978059228
 21
2.3883044018
 31
0.0
  0
LINE
  5
286
330
1F
100
AcDbEntity
  8
0
  6
HIDDEN
 62
     7
370
    18
100
AcDbLine
 10
-17.7285201432
 20
4.5115612872
 30
0.0
 11
-17.1821172229
 21
1.9314946859
 31
0.0
  0
LINE
  5
287
330
1F
100
AcDbEntity
  8
0
  6
HIDDEN
 62
     7
370
    18
100
AcDbLine
 10
-17.7285201432
 20
4.5115612872
 30
0.0
 11
-17.4986877705
 21
5.1995734079
 31
0.0
  0
LINE
  5
288
330
1F
100
AcDbEntity
  8
0
  6
HIDDEN
 62
     7
370
    18
100
AcDbLine
 10
-21.3269668064
 20
4.7915079329
 30
0.0
 11
-17.7285201432
 21
4.5115612872
 31
0.0
  0
LINE
  5
289
330
1F
100
AcDbEntity
  8
0
  6
HIDDEN
 62
     7
370
    18
100
AcDbLine
 10
15.64734028
 20
7.9858509393
 30
0.0
 11
15.2275902966
 21
8.5655862098
 31
0.0
  0
LINE
  5
28A
330
1F
100
AcDbEntity
  8
0
  6
HIDDEN
 62
     7
370
    18
100
AcDbLine
 10
15.2563355203
 20
10.5941668581
 30
0.0
 11
15.64734028
 21
7.9858509393
 31
0.0
  0
LINE
  5
28B
330
1F
100
AcDbEntity
  8
0
  6
HIDDEN
 62
     7
370
    18
100
AcDbLine
 10
15.2563355203
 20
10.5941668581
 30
0.0
 11
14.8350714933
 21
11.1735103157
 31
0.0
  0
LINE
  5
28C
330
1F
100
AcDbEntity
  8
0
  6
HIDDEN
 62
     7
370
    18
100
AcDbLine
 10
-20.7645760775
 20
2.2145159419
 30
0.0
 11
-20.5227908462
 21
2.9299910768
 31
0.0
  0
LINE
  5
28D
330
1F
100
AcDbEntity
  8
0
  6
HIDDEN
 62
     7
370
    18
100
AcDbLine
 10
-21.3269668064
 20
4.7915079329
 30
0.0
 11
-21.0833488124
 21
5.5071872932
 31
0.0
  0
LINE
  5
28E
330
1F
100
AcDbEntity
  8
0
  6
HIDDEN
 62
     7
370
    18
100
AcDbLine
 10
-20.7645760775
 20
2.2145159419
 30
0.0
 11
-21.3269668064
 21
4.7915079329
 31
0.0
  0
LINE
  5
28F
330
1F
100
AcDbEntity
  8
0
  6
HIDDEN
 62
     7
370
    18
100
AcDbLine
 10
12.3092411568
 20
6.5556875537
 30
0.0
 11
11.875163514
 21
7.1627467993
 31
0.0
  0
LINE
  5
290
330
1F
100
AcDbEntity
  8
0
  6
HIDDEN
 62
     7
370
    18
100
AcDbLine
 10
15.64734028
 20
7.9858509393
 30
0.0
 11
12.3092411568
 21
6.5556875537
 31
0.0
  0
LINE
  5
291
330
1F
100
AcDbEntity
  8
0
  6
HIDDEN
 62
     7
370
    18
100
AcDbLine
 10
-17.1821172229
 20
1.9314946859
 30
0.0
 11
-16.9540090034
 21
2.6193069472
 31
0.0
  0
LINE
  5
292
330
1F
100
AcDbEntity
  8
0
  6
HIDDEN
 62
     7
370
    18
100
AcDbLine
 10
-17.1821172229
 20
1.9314946859
 30
0.0
 11
-20.7645760775
 21
2.2145159419
 31
0.0
  0
LINE
  5
293
330
1F
100
AcDbEntity
  8
0
  6
HIDDEN
 62
     7
370
    18
100
AcDbLine
 10
26.0079646086
 20
16.7726599135
 30
0.0
 11
28.5787361635
 21
18.825311608
 31
0.0
  0
LINE
  5
294
330
1F
100
AcDbEntity
  8
0
  6
HIDDEN
 62
     7
370
    18
100
AcDbLine
 10
26.3457250321
 20
14.1555394634
 30
0.0
 11
26.0079646086
 21
16.7726599135
 31
0.0
  0
LINE
  5
295
330
1F
100
AcDbEntity
  8
0
  6
HIDDEN
 62
     7
370
    18
100
AcDbLine
 10
26.0079646086
 20
16.7726599135
 30
0.0
 11
25.2982830138
 21
17.210877834
 31
0.0
  0
LINE
  5
296
330
1F
100
AcDbEntity
  8
0
  6
HIDDEN
 62
     7
370
    18
100
AcDbLine
 10
-33.1577357915
 20
7.4423843263
 30
0.0
 11
-32.6330551023
 21
8.0606716616
 31
0.0
  0
LINE
  5
297
330
1F
100
AcDbEntity
  8
0
  6
HIDDEN
 62
     7
370
    18
100
AcDbLine
 10
-36.1837625013
 20
8.5614206978
 30
0.0
 11
-33.1577357915
 21
7.4423843263
 31
0.0
  0
LINE
  5
298
330
1F
100
AcDbEntity
  8
0
  6
HIDDEN
 62
     7
370
    18
100
AcDbLine
 10
-33.1577357915
 20
7.4423843263
 30
0.0
 11
-32.5451391095
 21
4.8756183574
 31
0.0
  0
LINE
  5
299
330
1F
100
AcDbEntity
  8
0
  6
HIDDEN
 62
     7
370
    18
100
AcDbLine
 10
28.9035368819
 20
16.2062435251
 30
0.0
 11
28.2250517468
 21
16.6239813653
 31
0.0
  0
LINE
  5
29A
330
1F
100
AcDbEntity
  8
0
  6
HIDDEN
 62
     7
370
    18
100
AcDbLine
 10
28.5787361635
 20
18.825311608
 30
0.0
 11
28.9035368819
 21
16.2062435251
 31
0.0
  0
LINE
  5
29B
330
1F
100
AcDbEntity
  8
0
  6
HIDDEN
 62
     7
370
    18
100
AcDbLine
 10
28.5787361635
 20
18.825311608
 30
0.0
 11
27.8974034695
 21
19.2423818751
 31
0.0
  0
LINE
  5
29C
330
1F
100
AcDbEntity
  8
0
  6
HIDDEN
 62
     7
370
    18
100
AcDbLine
 10
26.3457250321
 20
14.1555394634
 30
0.0
 11
25.6390041974
 21
14.5944374489
 31
0.0
  0
LINE
  5
29D
330
1F
100
AcDbEntity
  8
0
  6
HIDDEN
 62
     7
370
    18
100
AcDbLine
 10
28.9035368819
 20
16.2062435251
 30
0.0
 11
26.3457250321
 21
14.1555394634
 31
0.0
  0
LINE
  5
29E
330
1F
100
AcDbEntity
  8
0
  6
HIDDEN
 62
     7
370
    18
100
AcDbLine
 10
-35.5589896693
 20
5.9973429401
 30
0.0
 11
-35.0138239855
 21
6.638385026
 31
0.0
  0
LINE
  5
29F
330
1F
100
AcDbEntity
  8
0
  6
HIDDEN
 62
     7
370
    18
100
AcDbLine
 10
-35.5589896693
 20
5.9973429401
 30
0.0
 11
-36.1837625013
 21
8.5614206978
 31
0.0
  0
LINE
  5
2A0
330
1F
100
AcDbEntity
  8
0
  6
HIDDEN
 62
     7
370
    18
100
AcDbLine
 10
-36.1837625013
 20
8.5614206978
 30
0.0
 11
-35.6354269639
 21
9.2028752923
 31
0.0
  0
LINE
  5
2A1
330
1F
100
AcDbEntity
  8
0
  6
HIDDEN
 62
     7
370
    18
100
AcDbLine
 10
-32.5451391095
 20
4.8756183574
 30
0.0
 11
-35.5589896693
 21
5.9973429401
 31
0.0
  0
LINE
  5
2A2
330
1F
100
AcDbEntity
  8
0
  6
HIDDEN
 62
     7
370
    18
100
AcDbLine
 10
-32.5451391095
 20
4.8756183574
 30
0.0
 11
-32.023490734
 21
5.493497354
 31
0.0
  0
LINE
  5
2A3
330
1F
100
AcDbEntity
  8
0
  6
HIDDEN
 62
     7
370
    18
100
AcDbLine
 10
36.0238469253
 20
26.7673439476
 30
0.0
 11
37.523888654
 21
29.1640969457
 31
0.0
  0
LINE
  5
2A4
330
1F
100
AcDbEntity
  8
0
  6
HIDDEN
 62
     7
370
    18
100
AcDbLine
 10
36.3104427794
 20
24.1434931711
 30
0.0
 11
36.0238469253
 21
26.7673439476
 31
0.0
  0
LINE
  5
2A5
330
1F
100
AcDbEntity
  8
0
  6
HIDDEN
 62
     7
370
    18
100
AcDbLine
 10
36.0238469253
 20
26.7673439476
 30
0.0
 11
35.1365123161
 21
26.9937896272
 31
0.0
  0
LINE
  5
2A6
330
1F
100
AcDbEntity
  8
0
  6
HIDDEN
 62
     7
370
    18
100
AcDbLine
 10
-45.2710070747
 20
13.9017604944
 30
0.0
 11
-44.5279060495
 21
14.3819115139
 31
0.0
  0
LINE
  5
2A7
330
1F
100
AcDbEntity
  8
0
  6
HIDDEN
 62
     7
370
    18
100
AcDbLine
 10
-47.378733556
 20
15.6891778977
 30
0.0
 11
-45.2710070747
 21
13.9017604944
 31
0.0
  0
LINE
  5
2A8
330
1F
100
AcDbEntity
  8
0
  6
HIDDEN
 62
     7
370
    18
100
AcDbLine
 10
-45.2710070747
 20
13.9017604944
 30
0.0
 11
-44.6126285906
 21
11.3463011517
 31
0.0
  0
LINE
  5
2A9
330
1F
100
AcDbEntity
  8
0
  6
HIDDEN
 62
     7
370
    18
100
AcDbLine
 10
37.8024734866
 20
26.5396469547
 30
0.0
 11
36.9573641164
 21
26.7551606183
 31
0.0
  0
LINE
  5
2AA
330
1F
100
AcDbEntity
  8
0
  6
HIDDEN
 62
     7
370
    18
100
AcDbLine
 10
37.523888654
 20
29.1640969457
 30
0.0
 11
37.8024734866
 21
26.5396469547
 31
0.0
  0
LINE
  5
2AB
330
1F
100
AcDbEntity
  8
0
  6
HIDDEN
 62
     7
370
    18
100
AcDbLine
 10
37.523888654
 20
29.1640969457
 30
0.0
 11
36.6750833497
 21
29.3787814069
 31
0.0
  0
LINE
  5
2AC
330
1F
100
AcDbEntity
  8
0
  6
HIDDEN
 62
     7
370
    18
100
AcDbLine
 10
36.3104427794
 20
24.1434931711
 30
0.0
 11
35.4269818622
 21
24.3707942259
 31
0.0
  0
LINE
  5
2AD
330
1F
100
AcDbEntity
  8
0
  6
HIDDEN
 62
     7
370
    18
100
AcDbLine
 10
37.8024734866
 20
26.5396469547
 30
0.0
 11
36.3104427794
 21
24.1434931711
 31
0.0
  0
LINE
  5
2AE
330
1F
100
AcDbEntity
  8
0
  6
HIDDEN
 62
     7
370
    18
100
AcDbLine
 10
-46.7134022043
 20
13.1359326238
 30
0.0
 11
-45.9444192275
 21
13.6326957868
 31
0.0
  0
LINE
  5
2AF
330
1F
100
AcDbEntity
  8
0
  6
HIDDEN
 62
     7
370
    18
100
AcDbLine
 10
-46.7134022043
 20
13.1359326238
 30
0.0
 11
-47.378733556
 21
15.6891778977
 31
0.0
  0
LINE
  5
2B0
330
1F
100
AcDbEntity
  8
0
  6
HIDDEN
 62
     7
370
    18
100
AcDbLine
 10
-47.378733556
 20
15.6891778977
 30
0.0
 11
-46.6057768108
 21
16.1864999924
 31
0.0
  0
LINE
  5
2B1
330
1F
100
AcDbEntity
  8
0
  6
HIDDEN
 62
     7
370
    18
100
AcDbLine
 10
-44.6126285906
 20
11.3463011517
 30
0.0
 11
-46.7134022043
 21
13.1359326238
 31
0.0
  0
LINE
  5
2B2
330
1F
100
AcDbEntity
  8
0
  6
HIDDEN
 62
     7
370
    18
100
AcDbLine
 10
-44.6126285906
 20
11.3463011517
 30
0.0
 11
-43.8733580523
 21
11.8259009584
 31
0.0
  0
LINE
  5
2B3
330
1F
100
AcDbEntity
  8
0
  6
HIDDEN
 62
     7
370
    18
100
AcDbLine
 10
2.6766256202
 20
-15.9665326769
 30
0.0
 11
2.3853932248
 21
-16.974889862
 31
0.0
  0
LINE
  5
2B4
330
1F
100
AcDbEntity
  8
0
  6
HIDDEN
 62
     7
370
    18
100
AcDbLine
 10
1.108960247
 20
-15.830637422
 30
0.0
 11
2.6766256202
 21
-15.9665326769
 31
0.0
  0
LINE
  5
2B5
330
1F
100
AcDbEntity
  8
0
  6
HIDDEN
 62
     7
370
    18
100
AcDbLine
 10
8.0437879671
 20
-15.7429683367
 30
0.0
 11
3.7260703912
 21
-15.3700770758
 31
0.0
  0
LINE
  5
2B6
330
1F
100
AcDbEntity
  8
0
  6
HIDDEN
 62
     7
370
    18
100
AcDbLine
 10
44.8642487432
 20
51.7738262117
 30
0.0
 11
45.9080491307
 21
40.1479660884
 31
0.0
  0
LINE
  5
2B7
330
1F
100
AcDbEntity
  8
0
  6
HIDDEN
 62
     7
370
    18
100
AcDbLine
 10
3.7260703912
 20
-15.3700770758
 30
0.0
 11
5.8218361626
 21
-27.0705715667
 31
0.0
  0
LINE
  5
2B8
330
1F
100
AcDbEntity
  8
0
  6
HIDDEN
 62
     7
370
    18
100
AcDbLine
 10
52.5024658397
 20
5.1670355259
 30
0.0
 11
37.4485555321
 21
32.5620885362
 31
0.0
  0
LINE
  5
2B9
330
1F
100
AcDbEntity
  8
0
  6
HIDDEN
 62
     7
370
    18
100
AcDbLine
 10
40.9151561235
 20
37.8366573785
 30
0.0
 11
39.9626302628
 21
37.8397080526
 31
0.0
  0
LINE
  5
2BA
330
1F
100
AcDbEntity
  8
0
  6
HIDDEN
 62
     7
370
    18
100
AcDbLine
 10
3.2626671774
 20
-27.5206159619
 30
0.0
 11
4.7971219097
 21
-27.6619366354
 31
0.0
  0
LINE
  5
2BB
330
1F
100
AcDbEntity
  8
0
  6
HIDDEN
 62
     7
370
    18
100
AcDbLine
 10
3.2626671774
 20
-27.5206159619
 30
0.0
 11
1.108960247
 21
-15.830637422
 31
0.0
  0
LINE
  5
2BC
330
1F
100
AcDbEntity
  8
0
  6
HIDDEN
 62
     7
370
    18
100
AcDbLine
 10
2.6766256202
 20
-15.9665326769
 30
0.0
 11
4.7971219097
 21
-27.6619366354
 31
0.0
  0
LINE
  5
2BD
330
1F
100
AcDbEntity
  8
0
  6
HIDDEN
 62
     7
370
    18
100
AcDbLine
 10
40.9151561235
 20
37.8366573785
 30
0.0
 11
41.2232517941
 21
40.2792583544
 31
0.0
  0
LINE
  5
2BE
330
1F
100
AcDbEntity
  8
0
  6
HIDDEN
 62
     7
370
    18
100
AcDbLine
 10
41.1742291199
 20
35.2126192799
 30
0.0
 11
40.9151561235
 21
37.8366573785
 31
0.0
  0
LINE
  5
2BF
330
1F
100
AcDbEntity
  8
0
  6
HIDDEN
 62
     7
370
    18
100
AcDbLine
 10
-26.0966320525
 20
-24.1412199526
 30
0.0
 11
-30.1807201965
 21
-23.7663983879
 31
0.0
  0
LINE
  5
2C0
330
1F
100
AcDbEntity
  8
0
  6
HIDDEN
 62
     7
370
    18
100
AcDbLine
 10
-25.8262658145
 20
-25.8578752251
 30
0.0
 11
-25.5001004942
 21
-24.8716139329
 31
0.0
  0
LINE
  5
2C1
330
1F
100
AcDbEntity
  8
0
  6
HIDDEN
 62
     7
370
    18
100
AcDbLine
 10
-25.5001004942
 20
-24.8716139329
 30
0.0
 11
-24.0069076057
 21
-25.0091344607
 31
0.0
  0
LINE
  5
2C2
330
1F
100
AcDbEntity
  8
0
  6
HIDDEN
 62
     7
370
    18
100
AcDbLine
 10
10.0478399291
 20
-27.4584175896
 30
0.0
 11
5.8218361626
 21
-27.0705715667
 31
0.0
  0
LINE
  5
2C3
330
1F
100
AcDbEntity
  8
0
  6
HIDDEN
 62
     7
370
    18
100
AcDbLine
 10
4.7971219097
 20
-27.6619366354
 30
0.0
 11
4.5158296694
 21
-28.6670395889
 31
0.0
  0
LINE
  5
2C4
330
1F
100
AcDbEntity
  8
0
  6
HIDDEN
 62
     7
370
    18
100
AcDbLine
 10
-52.7704964163
 20
22.9570721909
 30
0.0
 11
-51.907629026
 21
23.2545974579
 31
0.0
  0
LINE
  5
2C5
330
1F
100
AcDbEntity
  8
0
  6
HIDDEN
 62
     7
370
    18
100
AcDbLine
 10
-53.7642338332
 20
25.1700463883
 30
0.0
 11
-52.7704964163
 21
22.9570721909
 31
0.0
  0
LINE
  5
2C6
330
1F
100
AcDbEntity
  8
0
  6
HIDDEN
 62
     7
370
    18
100
AcDbLine
 10
-52.7704964163
 20
22.9570721909
 30
0.0
 11
-52.0912306043
 21
20.4107102926
 31
0.0
  0
LINE
  5
2C7
330
1F
100
AcDbEntity
  8
0
  6
HIDDEN
 62
     7
370
    18
100
AcDbLine
 10
41.4797650403
 20
37.6561429727
 30
0.0
 11
40.574166703
 21
37.6591005187
 31
0.0
  0
LINE
  5
2C8
330
1F
100
AcDbEntity
  8
0
  6
HIDDEN
 62
     7
370
    18
100
AcDbLine
 10
41.4797650403
 20
37.6561429727
 30
0.0
 11
41.1742291199
 21
35.2126192799
 31
0.0
  0
LINE
  5
2C9
330
1F
100
AcDbEntity
  8
0
  6
HIDDEN
 62
     7
370
    18
100
AcDbLine
 10
41.1742291199
 20
35.2126192799
 30
0.0
 11
40.2259156939
 21
35.2165352967
 31
0.0
  0
LINE
  5
2CA
330
1F
100
AcDbEntity
  8
0
  6
HIDDEN
 62
     7
370
    18
100
AcDbLine
 10
41.2232517941
 20
40.2792583544
 30
0.0
 11
41.4797650403
 21
37.6561429727
 31
0.0
  0
LINE
  5
2CB
330
1F
100
AcDbEntity
  8
0
  6
HIDDEN
 62
     7
370
    18
100
AcDbLine
 10
41.2232517941
 20
40.2792583544
 30
0.0
 11
40.3136485745
 21
40.2813863336
 31
0.0
  0
LINE
  5
2CC
330
1F
100
AcDbEntity
  8
0
  6
HIDDEN
 62
     7
370
    18
100
AcDbLine
 10
-53.083622933
 20
22.625410895
 30
0.0
 11
-52.1920997729
 21
22.9328792355
 31
0.0
  0
LINE
  5
2CD
330
1F
100
AcDbEntity
  8
0
  6
HIDDEN
 62
     7
370
    18
100
AcDbLine
 10
-52.0912306043
 20
20.4107102926
 30
0.0
 11
-53.083622933
 21
22.625410895
 31
0.0
  0
LINE
  5
2CE
330
1F
100
AcDbEntity
  8
0
  6
HIDDEN
 62
     7
370
    18
100
AcDbLine
 10
-52.0912306043
 20
20.4107102926
 30
0.0
 11
-51.2324242764
 21
20.707581235
 31
0.0
  0
LINE
  5
2CF
330
1F
100
AcDbEntity
  8
0
  6
HIDDEN
 62
     7
370
    18
100
AcDbLine
 10
-53.083622933
 20
22.625410895
 30
0.0
 11
-53.7642338332
 21
25.1700463883
 31
0.0
  0
LINE
  5
2D0
330
1F
100
AcDbEntity
  8
0
  6
HIDDEN
 62
     7
370
    18
100
AcDbLine
 10
-53.7642338332
 20
25.1700463883
 30
0.0
 11
-52.8685131011
 21
25.4781850984
 31
0.0
  0
LINE
  5
2D1
330
1F
100
AcDbEntity
  8
0
  6
HIDDEN
 62
     7
370
    18
100
AcDbLine
 10
-28.6048698494
 20
-14.2733797384
 30
0.0
 11
-28.2668387377
 21
-13.2841553977
 31
0.0
  0
LINE
  5
2D2
330
1F
100
AcDbEntity
  8
0
  6
HIDDEN
 62
     7
370
    18
100
AcDbLine
 10
-28.8725520472
 20
-12.5547606005
 30
0.0
 11
-33.0420698456
 21
-12.1946683244
 31
0.0
  0
LINE
  5
2D3
330
1F
100
AcDbEntity
  8
0
  6
HIDDEN
 62
     7
370
    18
100
AcDbLine
 10
-28.2668387377
 20
-13.2841553977
 30
0.0
 11
-26.7422641576
 21
-13.4163152673
 31
0.0
  0
LINE
  5
2D4
330
1F
100
AcDbEntity
  8
0
  6
HIDDEN
 62
     7
370
    18
100
AcDbLine
 10
-28.2668387377
 20
-13.2841553977
 30
0.0
 11
-25.5001004942
 21
-24.8716139329
 31
0.0
  0
LINE
  5
2D5
330
1F
100
AcDbEntity
  8
0
  6
HIDDEN
 62
     7
370
    18
100
AcDbLine
 10
-26.7422641576
 20
-13.4163152673
 30
0.0
 11
-24.0069076057
 21
-25.0091344607
 31
0.0
  0
LINE
  5
2D6
330
1F
100
AcDbEntity
  8
0
  6
HIDDEN
 62
     7
370
    18
100
AcDbLine
 10
-26.0966320525
 20
-24.1412199526
 30
0.0
 11
-28.8725520472
 21
-12.5547606005
 31
0.0
  0
LINE
  5
2D7
330
1F
100
AcDbEntity
  8
0
  6
HIDDEN
 62
     7
370
    18
100
AcDbLine
 10
40.3978248252
 20
48.6538014891
 30
0.0
 11
39.4891483082
 21
48.4503115619
 31
0.0
  0
LINE
  5
2D8
330
1F
100
AcDbEntity
  8
0
  6
HIDDEN
 62
     7
370
    18
100
AcDbLine
 10
39.808191763
 20
48.2542866916
 30
0.0
 11
40.65381271
 21
46.0363516507
 31
0.0
  0
LINE
  5
2D9
330
1F
100
AcDbEntity
  8
0
  6
HIDDEN
 62
     7
370
    18
100
AcDbLine
 10
39.5496485552
 20
50.8694474391
 30
0.0
 11
39.808191763
 21
48.2542866916
 31
0.0
  0
LINE
  5
2DA
330
1F
100
AcDbEntity
  8
0
  6
HIDDEN
 62
     7
370
    18
100
AcDbLine
 10
40.3978248252
 20
48.6538014891
 30
0.0
 11
39.5496485552
 21
50.8694474391
 31
0.0
  0
LINE
  5
2DB
330
1F
100
AcDbEntity
  8
0
  6
HIDDEN
 62
     7
370
    18
100
AcDbLine
 10
40.65381271
 20
46.0363516507
 30
0.0
 11
40.3978248252
 21
48.6538014891
 31
0.0
  0
LINE
  5
2DC
330
1F
100
AcDbEntity
  8
0
  6
HIDDEN
 62
     7
370
    18
100
AcDbLine
 10
-53.3957862892
 20
28.340385879
 30
0.0
 11
-58.0187986135
 21
45.7632864323
 31
0.0
  0
LINE
  5
2DD
330
1F
100
AcDbEntity
  8
0
  6
HIDDEN
 62
     7
370
    18
100
AcDbLine
 10
-55.0620587763
 20
33.4381472209
 30
0.0
 11
-54.1821338724
 21
33.5350800226
 31
0.0
  0
LINE
  5
2DE
330
1F
100
AcDbEntity
  8
0
  6
HIDDEN
 62
     7
370
    18
100
AcDbLine
 10
40.65381271
 20
46.0363516507
 30
0.0
 11
39.7491730939
 21
45.8335673207
 31
0.0
  0
LINE
  5
2DF
330
1F
100
AcDbEntity
  8
0
  6
HIDDEN
 62
     7
370
    18
100
AcDbLine
 10
39.5496485552
 20
50.8694474391
 30
0.0
 11
38.6820251355
 21
50.6753221262
 31
0.0
  0
LINE
  5
2E0
330
1F
100
AcDbEntity
  8
0
  6
HIDDEN
 62
     7
370
    18
100
AcDbLine
 10
-54.2277418666
 20
33.2709593193
 30
0.0
 11
-54.8991743618
 21
35.8093119022
 31
0.0
  0
LINE
  5
2E1
330
1F
100
AcDbEntity
  8
0
  6
HIDDEN
 62
     7
370
    18
100
AcDbLine
 10
-54.3868305636
 20
30.8985963615
 30
0.0
 11
-54.2277418666
 21
33.2709593193
 31
0.0
  0
LINE
  5
2E2
330
1F
100
AcDbEntity
  8
0
  6
HIDDEN
 62
     7
370
    18
100
AcDbLine
 10
-54.8991743618
 20
35.8093119022
 30
0.0
 11
-55.0620587763
 21
33.4381472209
 31
0.0
  0
LINE
  5
2E3
330
1F
100
AcDbEntity
  8
0
  6
HIDDEN
 62
     7
370
    18
100
AcDbLine
 10
-55.0620587763
 20
33.4381472209
 30
0.0
 11
-54.3868305636
 21
30.8985963615
 31
0.0
  0
LINE
  5
2E4
330
1F
100
AcDbEntity
  8
0
  6
HIDDEN
 62
     7
370
    18
100
AcDbLine
 10
-54.3868305636
 20
30.8985963615
 30
0.0
 11
-53.5106973617
 21
30.9947899427
 31
0.0
  0
LINE
  5
2E5
330
1F
100
AcDbEntity
  8
0
  6
HIDDEN
 62
     7
370
    18
100
AcDbLine
 10
-54.8991743618
 20
35.8093119022
 30
0.0
 11
-53.9859917293
 21
35.9102101043
 31
0.0
  0
LINE
  5
2E6
330
1F
100
AcDbEntity
  8
0
  6
HIDDEN
 62
     7
370
    18
100
AcDbLine
 10
-48.3666764423
 20
12.730488972
 30
0.0
 11
-19.5182629378
 21
36.1408026951
 31
0.0
  0
LINE
  5
2E7
330
1F
100
AcDbEntity
  8
0
  6
HIDDEN
 62
     7
370
    18
100
AcDbLine
 10
34.8469248596
 20
58.0643061397
 30
0.0
 11
34.0740485439
 21
57.6919581851
 31
0.0
  0
LINE
  5
2E8
330
1F
100
AcDbEntity
  8
0
  6
HIDDEN
 62
     7
370
    18
100
AcDbLine
 10
35.1217811947
 20
55.4590330319
 30
0.0
 11
34.8469248596
 21
58.0643061397
 31
0.0
  0
LINE
  5
2E9
330
1F
100
AcDbEntity
  8
0
  6
HIDDEN
 62
     7
370
    18
100
AcDbLine
 10
34.8469248596
 20
58.0643061397
 30
0.0
 11
32.9997685987
 21
59.8359487793
 31
0.0
  0
LINE
  5
2EA
330
1F
100
AcDbEntity
  8
0
  6
HIDDEN
 62
     7
370
    18
100
AcDbLine
 10
-56.7899725337
 20
48.5942129524
 30
0.0
 11
-52.6243877307
 21
32.6948046824
 31
0.0
  0
LINE
  5
2EB
330
1F
100
AcDbEntity
  8
0
  6
HIDDEN
 62
     7
370
    18
100
AcDbLine
 10
-47.1401772913
 20
45.644996498
 30
0.0
 11
-49.9112041418
 21
56.8671624752
 31
0.0
  0
LINE
  5
2EC
330
1F
100
AcDbEntity
  8
0
  6
HIDDEN
 62
     7
370
    18
100
AcDbLine
 10
-52.2092320213
 20
44.1410171768
 30
0.0
 11
-51.4051542309
 21
44.0430047229
 31
0.0
  0
LINE
  5
2ED
330
1F
100
AcDbEntity
  8
0
  6
HIDDEN
 62
     7
370
    18
100
AcDbLine
 10
32.9997685987
 20
59.8359487793
 30
0.0
 11
32.260744445
 21
59.4810823017
 31
0.0
  0
LINE
  5
2EE
330
1F
100
AcDbEntity
  8
0
  6
HIDDEN
 62
     7
370
    18
100
AcDbLine
 10
35.1217811947
 20
55.4590330319
 30
0.0
 11
34.3523807099
 21
55.0871023644
 31
0.0
  0
LINE
  5
2EF
330
1F
100
AcDbEntity
  8
0
  6
HIDDEN
 62
     7
370
    18
100
AcDbLine
 10
-52.2092320213
 20
44.1410171768
 30
0.0
 11
-51.5597199304
 21
41.6056923827
 31
0.0
  0
LINE
  5
2F0
330
1F
100
AcDbEntity
  8
0
  6
HIDDEN
 62
     7
370
    18
100
AcDbLine
 10
-50.9748453728
 20
46.4168353641
 30
0.0
 11
-52.2092320213
 21
44.1410171768
 31
0.0
  0
LINE
  5
2F1
330
1F
100
AcDbEntity
  8
0
  6
HIDDEN
 62
     7
370
    18
100
AcDbLine
 10
-50.9748453728
 20
46.4168353641
 30
0.0
 11
-50.1393507784
 21
46.3162225679
 31
0.0
  0
LINE
  5
2F2
330
1F
100
AcDbEntity
  8
0
  6
HIDDEN
 62
     7
370
    18
100
AcDbLine
 10
-51.5597199304
 20
41.6056923827
 30
0.0
 11
-50.7587983258
 21
41.5068713987
 31
0.0
  0
LINE
  5
2F3
330
1F
100
AcDbEntity
  8
0
  6
HIDDEN
 62
     7
370
    18
100
AcDbLine
 10
-55.7657672024
 20
28.5006440898
 30
0.0
 11
-50.280871241
 21
8.1418198158
 31
0.0
  0
LINE
  5
2F4
330
1F
100
AcDbEntity
  8
0
  6
HIDDEN
 62
     7
370
    18
100
AcDbLine
 10
25.1182854173
 20
65.1908488552
 30
0.0
 11
24.5495371331
 21
64.6996365971
 31
0.0
  0
LINE
  5
2F5
330
1F
100
AcDbEntity
  8
0
  6
HIDDEN
 62
     7
370
    18
100
AcDbLine
 10
37.4485555321
 20
32.5620885362
 30
0.0
 11
33.3518301938
 21
71.3369003057
 31
0.0
  0
LINE
  5
2F6
330
1F
100
AcDbEntity
  8
0
  6
HIDDEN
 62
     7
370
    18
100
AcDbLine
 10
35.3432670233
 20
33.6502751025
 30
0.0
 11
37.4485555321
 21
32.5620885362
 31
0.0
  0
LINE
  5
2F7
330
1F
100
AcDbEntity
  8
0
  6
HIDDEN
 62
     7
370
    18
100
AcDbLine
 10
25.1182854173
 20
65.1908488552
 30
0.0
 11
22.508218179
 21
66.3687207063
 31
0.0
  0
LINE
  5
2F8
330
1F
100
AcDbEntity
  8
0
  6
HIDDEN
 62
     7
370
    18
100
AcDbLine
 10
25.429697822
 20
62.6011730557
 30
0.0
 11
25.1182854173
 21
65.1908488552
 31
0.0
  0
LINE
  5
2F9
330
1F
100
AcDbEntity
  8
0
  6
HIDDEN
 62
     7
370
    18
100
AcDbLine
 10
-44.7908650853
 20
53.9753121476
 30
0.0
 11
-44.1379934807
 21
53.706023656
 31
0.0
  0
LINE
  5
2FA
330
1F
100
AcDbEntity
  8
0
  6
HIDDEN
 62
     7
370
    18
100
AcDbLine
 10
22.508218179
 20
66.3687207063
 30
0.0
 11
21.9625659092
 21
65.9000332292
 31
0.0
  0
LINE
  5
2FB
330
1F
100
AcDbEntity
  8
0
  6
HIDDEN
 62
     7
370
    18
100
AcDbLine
 10
-44.7908650853
 20
53.9753121476
 30
0.0
 11
-44.1837894328
 21
51.4410539532
 31
0.0
  0
LINE
  5
2FC
330
1F
100
AcDbEntity
  8
0
  6
HIDDEN
 62
     7
370
    18
100
AcDbLine
 10
-42.6616745935
 20
55.9393173222
 30
0.0
 11
-44.7908650853
 21
53.9753121476
 31
0.0
  0
LINE
  5
2FD
330
1F
100
AcDbEntity
  8
0
  6
HIDDEN
 62
     7
370
    18
100
AcDbLine
 10
31.1173861118
 20
72.3829562454
 30
0.0
 11
35.3432670233
 21
33.6502751025
 31
0.0
  0
LINE
  5
2FE
330
1F
100
AcDbEntity
  8
0
  6
HIDDEN
 62
     7
370
    18
100
AcDbLine
 10
35.3432670233
 20
33.6502751025
 30
0.0
 11
-16.9682447916
 21
36.9133616841
 31
0.0
  0
LINE
  5
2FF
330
1F
100
AcDbEntity
  8
0
  6
HIDDEN
 62
     7
370
    18
100
AcDbLine
 10
25.429697822
 20
62.6011730557
 30
0.0
 11
24.8636153883
 21
62.1100271257
 31
0.0
  0
LINE
  5
300
330
1F
100
AcDbEntity
  8
0
  6
HIDDEN
 62
     7
370
    18
100
AcDbLine
 10
-42.6616745935
 20
55.9393173222
 30
0.0
 11
-41.9814405186
 21
55.6610717198
 31
0.0
  0
LINE
  5
301
330
1F
100
AcDbEntity
  8
0
  6
HIDDEN
 62
     7
370
    18
100
AcDbLine
 10
-44.1837894328
 20
51.4410539532
 30
0.0
 11
-43.5332133116
 21
51.1709191039
 31
0.0
  0
LINE
  5
302
330
1F
100
AcDbEntity
  8
0
  6
HIDDEN
 62
     7
370
    18
100
AcDbLine
 10
-49.1696595537
 20
10.973312307
 30
0.0
 11
-50.280871241
 21
8.1418198158
 31
0.0
  0
LINE
  5
303
330
1F
100
AcDbEntity
  8
0
  6
HIDDEN
 62
     7
370
    18
100
AcDbLine
 10
12.3614042411
 20
69.461310818
 30
0.0
 11
12.0404815652
 21
68.9065482714
 31
0.0
  0
LINE
  5
304
330
1F
100
AcDbEntity
  8
0
  6
HIDDEN
 62
     7
370
    18
100
AcDbLine
 10
12.7222425056
 20
66.8881350189
 30
0.0
 11
12.3614042411
 21
69.461310818
 31
0.0
  0
LINE
  5
305
330
1F
100
AcDbEntity
  8
0
  6
HIDDEN
 62
     7
370
    18
100
AcDbLine
 10
12.3614042411
 20
69.461310818
 30
0.0
 11
9.2664023531
 21
69.9614291134
 31
0.0
  0
LINE
  5
306
330
1F
100
AcDbEntity
  8
0
  6
HIDDEN
 62
     7
370
    18
100
AcDbLine
 10
-54.989442395
 20
32.8496942713
 30
0.0
 11
-49.1696595537
 21
10.973312307
 31
0.0
  0
LINE
  5
307
330
1F
100
AcDbEntity
  8
0
  6
HIDDEN
 62
     7
370
    18
100
AcDbLine
 10
-54.3891367728
 20
35.5648307185
 30
0.0
 11
-48.3666764423
 21
12.730488972
 31
0.0
  0
LINE
  5
308
330
1F
100
AcDbEntity
  8
0
  6
HIDDEN
 62
     7
370
    18
100
AcDbLine
 10
-33.7367995925
 20
62.0434087122
 30
0.0
 11
-33.1834897684
 21
59.5064036322
 31
0.0
  0
LINE
  5
309
330
1F
100
AcDbEntity
  8
0
  6
HIDDEN
 62
     7
370
    18
100
AcDbLine
 10
-30.9475935048
 20
63.5259426277
 30
0.0
 11
-33.7367995925
 21
62.0434087122
 31
0.0
  0
LINE
  5
30A
330
1F
100
AcDbEntity
  8
0
  6
HIDDEN
 62
     7
370
    18
100
AcDbLine
 10
-33.7367995925
 20
62.0434087122
 30
0.0
 11
-33.2903357831
 21
61.6387940352
 31
0.0
  0
LINE
  5
30B
330
1F
100
AcDbEntity
  8
0
  6
HIDDEN
 62
     7
370
    18
100
AcDbLine
 10
9.2664023531
 20
69.9614291134
 30
0.0
 11
8.9562429216
 21
69.4309791919
 31
0.0
  0
LINE
  5
30C
330
1F
100
AcDbEntity
  8
0
  6
HIDDEN
 62
     7
370
    18
100
AcDbLine
 10
-30.9475935048
 20
63.5259426277
 30
0.0
 11
-30.4801485064
 21
63.1064840567
 31
0.0
  0
LINE
  5
30D
330
1F
100
AcDbEntity
  8
0
  6
HIDDEN
 62
     7
370
    18
100
AcDbLine
 10
12.7222425056
 20
66.8881350189
 30
0.0
 11
12.4030349904
 21
66.3330926379
 31
0.0
  0
LINE
  5
30E
330
1F
100
AcDbEntity
  8
0
  6
HIDDEN
 62
     7
370
    18
100
AcDbLine
 10
-33.1834897684
 20
59.5064036322
 30
0.0
 11
-32.7383481094
 21
59.1009611588
 31
0.0
  0
LINE
  5
30F
330
1F
100
AcDbEntity
  8
0
  6
HIDDEN
 62
     7
370
    18
100
AcDbLine
 10
-2.1288763806
 20
70.5904868572
 30
0.0
 11
-2.1810731786
 21
70.0281467419
 31
0.0
  0
LINE
  5
310
330
1F
100
AcDbEntity
  8
0
  6
HIDDEN
 62
     7
370
    18
100
AcDbLine
 10
-1.7104392049
 20
68.0324136324
 30
0.0
 11
-2.1288763806
 21
70.5904868572
 31
0.0
  0
LINE
  5
311
330
1F
100
AcDbEntity
  8
0
  6
HIDDEN
 62
     7
370
    18
100
AcDbLine
 10
-2.1288763806
 20
70.5904868572
 30
0.0
 11
-5.4144719714
 21
70.3875203668
 31
0.0
  0
LINE
  5
312
330
1F
100
AcDbEntity
  8
0
  6
HIDDEN
 62
     7
370
    18
100
AcDbLine
 10
-20.1903840516
 20
67.6671002208
 30
0.0
 11
-19.6970580257
 21
65.1231049546
 31
0.0
  0
LINE
  5
313
330
1F
100
AcDbEntity
  8
0
  6
HIDDEN
 62
     7
370
    18
100
AcDbLine
 10
-17.0095888086
 20
68.5468572151
 30
0.0
 11
-20.1903840516
 21
67.6671002208
 31
0.0
  0
LINE
  5
314
330
1F
100
AcDbEntity
  8
0
  6
HIDDEN
 62
     7
370
    18
100
AcDbLine
 10
-20.1903840516
 20
67.6671002208
 30
0.0
 11
-19.9856772904
 21
67.1709087874
 31
0.0
  0
LINE
  5
315
330
1F
100
AcDbEntity
  8
0
  6
HIDDEN
 62
     7
370
    18
100
AcDbLine
 10
-5.4144719714
 20
70.3875203668
 30
0.0
 11
-5.468097529
 21
69.8483731522
 31
0.0
  0
LINE
  5
316
330
1F
100
AcDbEntity
  8
0
  6
HIDDEN
 62
     7
370
    18
100
AcDbLine
 10
-17.0095888086
 20
68.5468572151
 30
0.0
 11
-16.7926347218
 21
68.0308657814
 31
0.0
  0
LINE
  5
317
330
1F
100
AcDbEntity
  8
0
  6
HIDDEN
 62
     7
370
    18
100
AcDbLine
 10
-1.7104392049
 20
68.0324136324
 30
0.0
 11
-1.7619415739
 21
67.4695050684
 31
0.0
  0
LINE
  5
318
330
1F
100
AcDbEntity
  8
0
  6
HIDDEN
 62
     7
370
    18
100
AcDbLine
 10
-19.6970580257
 20
65.1231049546
 30
0.0
 11
-19.4926618455
 21
64.626183272
 31
0.0
  0
LINE
  5
319
330
1F
100
AcDbEntity
  8
0
  6
HIDDEN
 62
     7
370
    18
100
AcDbLine
 10
-16.9682447916
 20
36.9133616841
 30
0.0
 11
-24.5058537242
 21
74.8589510829
 31
0.0
  0
LINE
  5
31A
330
1F
100
AcDbEntity
  8
0
  6
HIDDEN
 62
     7
370
    18
100
AcDbLine
 10
-27.2275576441
 20
74.0601133649
 30
0.0
 11
-19.5182629378
 21
36.1408026951
 31
0.0
  0
LINE
  5
31B
330
1F
100
AcDbEntity
  8
0
  6
HIDDEN
 62
     7
370
    18
100
AcDbLine
 10
-19.5182629378
 20
36.1408026951
 30
0.0
 11
-16.9682447916
 21
36.9133616841
 31
0.0
  0
LINE
  5
31C
330
1F
100
AcDbEntity
  8
0
  6
HIDDEN
 62
     7
370
    18
100
AcDbLine
 10
43.7769428516
 20
9.1223623068
 30
0.0
 11
40.0372297031
 21
47.0189197938
 31
0.0
  0
LINE
  5
31D
330
1F
100
AcDbEntity
  8
0
  6
HIDDEN
 62
     7
370
    18
100
AcDbLine
 10
-54.1572392089
 20
29.9595991608
 30
0.0
 11
-44.3722844557
 21
-6.8370242715
 31
0.0
  0
LINE
  5
31E
330
1F
100
AcDbEntity
  8
0
  6
HIDDEN
 62
     7
370
    18
100
AcDbLine
 10
26.8364889828
 20
66.6677218456
 30
0.0
 11
27.3413925295
 21
66.5162775908
 31
0.0
  0
LINE
  5
31F
330
1F
100
AcDbEntity
  8
0
  6
HIDDEN
 62
     7
370
    18
100
AcDbLine
 10
31.198400717
 20
66.9732875948
 30
0.0
 11
31.6566530725
 21
67.2389855009
 31
0.0
  0
LINE
  5
320
330
1F
100
AcDbEntity
  8
0
  6
HIDDEN
 62
     7
370
    18
100
AcDbLine
 10
25.6476930724
 20
68.1242811643
 30
0.0
 11
25.8043833769
 21
66.8054370524
 31
0.0
  0
LINE
  5
321
330
1F
100
AcDbEntity
  8
0
  6
HIDDEN
 62
     7
370
    18
100
AcDbLine
 10
32.6321743184
 20
67.614863877
 30
0.0
 11
32.4901173897
 21
68.9366204135
 31
0.0
  0
LINE
  5
322
330
1F
100
AcDbEntity
  8
0
  6
HIDDEN
 62
     7
370
    18
100
AcDbLine
 10
-26.6855817513
 20
69.1421231619
 30
0.0
 11
-26.1381489926
 21
69.0028470275
 31
0.0
  0
LINE
  5
323
330
1F
100
AcDbEntity
  8
0
  6
HIDDEN
 62
     7
370
    18
100
AcDbLine
 10
-22.1340269678
 20
69.7958969701
 30
0.0
 11
-21.6819548703
 21
70.1330916872
 31
0.0
  0
LINE
  5
324
330
1F
100
AcDbEntity
  8
0
  6
HIDDEN
 62
     7
370
    18
100
AcDbLine
 10
-27.7465008546
 20
70.3612456228
 30
0.0
 11
-27.4812517577
 21
69.069734252
 31
0.0
  0
LINE
  5
325
330
1F
100
AcDbEntity
  8
0
  6
HIDDEN
 62
     7
370
    18
100
AcDbLine
 10
-20.9193336166
 20
70.369303606
 30
0.0
 11
-21.1706886876
 21
71.6632690456
 31
0.0
  0
ARC
  5
326
330
1F
100
AcDbEntity
  8
0
  6
Continuous
 62
     7
370
    25
100
AcDbCircle
 10
34.4309093875
 20
45.526943809
 30
0.0
 40
12.16051437498302
100
AcDbArc
 50
346.1994537496
 51
30.9107444081
  0
ARC
  5
327
330
1F
100
AcDbEntity
  8
0
  6
Continuous
 62
     7
370
    25
100
AcDbCircle
 10
28.0696432446
 20
44.4224176051
 30
0.0
 40
18.09856662047427
100
AcDbArc
 50
309.6440227496
 51
344.6131273579
  0
ARC
  5
328
330
1F
100
AcDbEntity
  8
0
  6
Continuous
 62
     7
370
    25
100
AcDbCircle
 10
-46.9498740598
 20
40.6186362395
 30
0.0
 40
12.20608521940734
100
AcDbArc
 50
155.0717864581
 51
198.5305916212
  0
ARC
  5
329
330
1F
100
AcDbEntity
  8
0
  6
Continuous
 62
     7
370
    25
100
AcDbCircle
 10
-37.4087173981
 20
39.4753864907
 30
0.0
 40
21.41929146052146
100
AcDbArc
 50
125.71135656
 51
154.8031463218
  0
ARC
  5
32A
330
1F
100
AcDbEntity
  8
0
  6
Continuous
 62
     7
370
    25
100
AcDbCircle
 10
-30.8911217811
 20
30.3609989617
 30
0.0
 40
22.62845311666742
100
AcDbArc
 50
172.3557167955
 51
178.3950163239
  0
ARC
  5
32B
330
1F
100
AcDbEntity
  8
0
  6
Continuous
 62
     7
370
    25
100
AcDbCircle
 10
-31.6686227204
 20
32.8715412057
 30
0.0
 40
22.52328724129183
100
AcDbArc
 50
172.2464502841
 51
178.3118150213
  0
ARC
  5
32C
330
1F
100
AcDbEntity
  8
0
  6
Continuous
 62
     7
370
    25
100
AcDbCircle
 10
-22.9859150908
 20
27.6288639495
 30
0.0
 40
31.04725646402259
100
AcDbArc
 50
148.6522401953
 51
153.4488703432
  0
ARC
  5
32D
330
1F
100
AcDbEntity
  8
0
  6
Continuous
 62
     7
370
    25
100
AcDbCircle
 10
-23.6531333478
 20
30.0787843378
 30
0.0
 40
31.06725147250209
100
AcDbArc
 50
148.4895220612
 51
153.2894421855
  0
ARC
  5
32E
330
1F
100
AcDbEntity
  8
0
  6
Continuous
 62
     7
370
    25
100
AcDbCircle
 10
-11.8815249931
 20
18.5857550669
 30
0.0
 40
45.42710962333411
100
AcDbArc
 50
130.5060155484
 51
134.1674490162
  0
ARC
  5
32F
330
1F
100
AcDbEntity
  8
0
  6
Continuous
 62
     7
370
    25
100
AcDbCircle
 10
-12.3967055017
 20
20.8601294842
 30
0.0
 40
45.67671317537069
100
AcDbArc
 50
130.3682966385
 51
134.0201909854
  0
ARC
  5
330
330
1F
100
AcDbEntity
  8
0
  6
Continuous
 62
     7
370
    25
100
AcDbCircle
 10
-3.2161747263
 20
6.1892906213
 30
0.0
 40
60.59045799743071
100
AcDbArc
 50
116.1723807997
 51
119.1594207847
  0
ARC
  5
331
330
1F
100
AcDbEntity
  8
0
  6
Continuous
 62
     7
370
    25
100
AcDbCircle
 10
-3.610763311
 20
8.2354714485
 30
0.0
 40
61.09657834467485
100
AcDbArc
 50
116.0901917572
 51
119.0636707619
  0
ARC
  5
332
330
1F
100
AcDbEntity
  8
0
  6
Continuous
 62
     7
370
    25
100
AcDbCircle
 10
0.2901375071
 20
-2.3749720618
 30
0.0
 40
69.86067539244199
100
AcDbArc
 50
103.7486869313
 51
106.4497926143
  0
ARC
  5
333
330
1F
100
AcDbEntity
  8
0
  6
Continuous
 62
     7
370
    25
100
AcDbCircle
 10
-0.0529542763
 20
-0.4819041543
 30
0.0
 40
70.52812591928316
100
AcDbArc
 50
103.7300454559
 51
106.4166911784
  0
ARC
  5
334
330
1F
100
AcDbEntity
  8
0
  6
Continuous
 62
     7
370
    25
100
AcDbCircle
 10
0.3107245306
 20
-1.2965749957
 30
0.0
 40
68.79730890196966
100
AcDbArc
 50
91.7264191568
 51
94.4570424411
  0
ARC
  5
335
330
1F
100
AcDbEntity
  8
0
  6
Continuous
 62
     7
370
    25
100
AcDbCircle
 10
-0.0331874288
 20
0.6154115641
 30
0.0
 40
69.44595897574212
100
AcDbArc
 50
91.7723769554
 51
94.4886148644
  0
ARC
  5
336
330
1F
100
AcDbEntity
  8
0
  6
Continuous
 62
     7
370
    25
100
AcDbCircle
 10
1.0609876699
 20
9.5351892936
 30
0.0
 40
57.91928747601968
100
AcDbArc
 50
78.7070753056
 51
81.7910309606
  0
ARC
  5
337
330
1F
100
AcDbEntity
  8
0
  6
Continuous
 62
     7
370
    25
100
AcDbCircle
 10
0.7158022585
 20
11.6364017753
 30
0.0
 40
58.37908907373221
100
AcDbArc
 50
78.8145520601
 51
81.8853725171
  0
ARC
  5
338
330
1F
100
AcDbEntity
  8
0
  6
Continuous
 62
     7
370
    25
100
AcDbCircle
 10
5.6444966472
 20
24.3340366497
 30
0.0
 40
42.38395901318692
100
AcDbArc
 50
63.0345805568
 51
66.8804961233
  0
ARC
  5
339
330
1F
100
AcDbEntity
  8
0
  6
Continuous
 62
     7
370
    25
100
AcDbCircle
 10
5.3424049594
 20
26.6941883029
 30
0.0
 40
42.58318948101449
100
AcDbArc
 50
63.1889524415
 51
67.0269170597
  0
ARC
  5
33A
330
1F
100
AcDbEntity
  8
0
  6
Continuous
 62
     7
370
    25
100
AcDbCircle
 10
13.15205918
 20
35.5241939922
 30
0.0
 40
28.84720119787439
100
AcDbArc
 50
42.6997295544
 51
47.7559709654
  0
ARC
  5
33B
330
1F
100
AcDbEntity
  8
0
  6
Continuous
 62
     7
370
    25
100
AcDbCircle
 10
12.9360861038
 20
38.081784034
 30
0.0
 40
28.83352885716204
100
AcDbArc
 50
42.8527892378
 51
47.9163531541
  0
ARC
  5
33C
330
1F
100
AcDbEntity
  8
0
  6
Continuous
 62
     7
370
    25
100
AcDbCircle
 10
18.7715422847
 20
39.5128309986
 30
0.0
 40
21.90919218093607
100
AcDbArc
 50
16.7679952722
 51
22.9641973716
  0
ARC
  5
33D
330
1F
100
AcDbEntity
  8
0
  6
Continuous
 62
     7
370
    25
100
AcDbCircle
 10
18.6289674421
 20
42.1421727706
 30
0.0
 40
21.7931126913684
100
AcDbArc
 50
16.8253671738
 51
23.0511395972
  0
ARC
  5
33E
330
1F
100
AcDbEntity
  8
0
  6
Continuous
 62
     7
370
    25
100
AcDbCircle
 10
16.0896411174
 20
25.3194695984
 30
0.0
 40
31.29549119680618
100
AcDbArc
 50
325.7162605233
 51
353.0655641811
  0
ARC
  5
33F
330
1F
100
AcDbEntity
  8
0
  6
Continuous
 62
     7
370
    25
100
AcDbCircle
 10
18.4982053397
 20
29.6622148835
 30
0.0
 40
29.42166407833512
100
AcDbArc
 50
353.0930635015
 51
4.9676433657
  0
ARC
  5
340
330
1F
100
AcDbEntity
  8
0
  6
Continuous
 62
     7
370
    25
100
AcDbCircle
 10
17.6362791178
 20
29.8324642126
 30
0.0
 40
32.90552822970503
100
AcDbArc
 50
353.2299213284
 51
358.2604010875
  0
ARC
  5
341
330
1F
100
AcDbEntity
  8
0
  6
Continuous
 62
     7
370
    25
100
AcDbCircle
 10
15.5990065848
 20
25.4679171539
 30
0.0
 40
34.4147960373403
100
AcDbArc
 50
325.7519297138
 51
353.1519753258
  0
ARC
  5
342
330
1F
100
AcDbEntity
  8
0
  6
Continuous
 62
     7
370
    25
100
AcDbCircle
 10
-25.3086269937
 20
22.7603177652
 30
0.0
 40
30.98295322447913
100
AcDbArc
 50
171.7834955319
 51
197.3829625398
  0
ARC
  5
343
330
1F
100
AcDbEntity
  8
0
  6
Continuous
 62
     7
370
    25
100
AcDbCircle
 10
32.5298500468
 20
4.8473087841
 30
0.0
 40
19.59290187053193
100
AcDbArc
 50
311.8837642508
 51
346.4935679448
  0
ARC
  5
344
330
1F
100
AcDbEntity
  8
0
  6
Continuous
 62
     7
370
    25
100
AcDbCircle
 10
37.5958660884
 20
6.4113983648
 30
0.0
 40
14.95844761398024
100
AcDbArc
 50
347.9229949967
 51
355.2281660798
  0
ARC
  5
345
330
1F
100
AcDbEntity
  8
0
  6
Continuous
 62
     7
370
    25
100
AcDbCircle
 10
29.2776518445
 20
65.5743443642
 30
0.0
 40
3.888364581365327
100
AcDbArc
 50
81.7137517294
 51
150.8595587119
  0
ARC
  5
346
330
1F
100
AcDbEntity
  8
0
  6
Continuous
 62
     7
370
    25
100
AcDbCircle
 10
29.9461474404
 20
66.2494161244
 30
0.0
 40
3.174541260017766
100
AcDbArc
 50
40.0596263391
 51
91.9515951072
  0
ARC
  5
347
330
1F
100
AcDbEntity
  8
0
  6
Continuous
 62
     7
370
    25
100
AcDbCircle
 10
-23.2984522613
 20
68.9604455401
 30
0.0
 40
2.906005712879292
100
AcDbArc
 50
44.3774318839
 51
91.5098871912
  0
ARC
  5
348
330
1F
100
AcDbEntity
  8
0
  6
Continuous
 62
     7
370
    25
100
AcDbCircle
 10
-23.9216283111
 20
67.9356374029
 30
0.0
 40
3.967636907427371
100
AcDbArc
 50
82.0814208536
 51
152.4080264432
  0
ARC
  5
349
330
1F
100
AcDbEntity
  8
0
  6
HIDDEN
 62
     7
370
    18
100
AcDbCircle
 10
-13.1453450368
 20
24.5015533144
 30
0.0
 40
41.74317118620885
100
AcDbArc
 50
241.5334104508
 51
248.2628823397
  0
ARC
  5
34A
330
1F
100
AcDbEntity
  8
0
  6
HIDDEN
 62
     7
370
    18
100
AcDbCircle
 10
-5.6999230674
 20
26.2602328764
 30
0.0
 40
55.86919423487062
100
AcDbArc
 50
248.8850374047
 51
280.5358820672
  0
ARC
  5
34B
330
1F
100
AcDbEntity
  8
0
  6
HIDDEN
 62
     7
370
    18
100
AcDbCircle
 10
-8.6928453316
 20
47.5199468854
 30
0.0
 40
65.43937145621571
100
AcDbArc
 50
279.7465472736
 51
284.8184962709
  0
ARC
  5
34C
330
1F
100
AcDbEntity
  8
0
  6
HIDDEN
 62
     7
370
    18
100
AcDbCircle
 10
-13.3048592039
 20
65.1889136029
 30
0.0
 40
62.67592816470015
100
AcDbArc
 50
263.3869882507
 51
266.6622083654
  0
ARC
  5
34D
330
1F
100
AcDbEntity
  8
0
  6
HIDDEN
 62
     7
370
    18
100
AcDbCircle
 10
-13.8888221856
 20
68.3058114599
 30
0.0
 40
63.20940128346621
100
AcDbArc
 50
263.4644011378
 51
266.7260778701
  0
ARC
  5
34E
330
1F
100
AcDbEntity
  8
0
  6
HIDDEN
 62
     7
370
    18
100
AcDbCircle
 10
-16.9875453173
 20
49.2435692057
 30
0.0
 40
46.26173841961779
100
AcDbArc
 50
247.0667493073
 51
251.0332719898
  0
ARC
  5
34F
330
1F
100
AcDbEntity
  8
0
  6
HIDDEN
 62
     7
370
    18
100
AcDbCircle
 10
-17.608033914
 20
52.0722055499
 30
0.0
 40
46.5055521084898
100
AcDbArc
 50
247.1922928311
 51
251.1506974723
  0
ARC
  5
350
330
1F
100
AcDbEntity
  8
0
  6
HIDDEN
 62
     7
370
    18
100
AcDbCircle
 10
-24.7315486626
 20
35.8578267426
 30
0.0
 40
30.72364437380041
100
AcDbArc
 50
226.3349544358
 51
231.4621232182
  0
ARC
  5
351
330
1F
100
AcDbEntity
  8
0
  6
HIDDEN
 62
     7
370
    18
100
AcDbCircle
 10
-25.4435822534
 20
38.4548800448
 30
0.0
 40
30.72001348707505
100
AcDbArc
 50
226.459019611
 51
231.5936796948
  0
ARC
  5
352
330
1F
100
AcDbEntity
  8
0
  6
HIDDEN
 62
     7
370
    18
100
AcDbCircle
 10
-31.2264655788
 20
30.6548747954
 30
0.0
 40
22.34249387576148
100
AcDbArc
 50
200.2196005263
 51
206.4373247657
  0
ARC
  5
353
330
1F
100
AcDbEntity
  8
0
  6
HIDDEN
 62
     7
370
    18
100
AcDbCircle
 10
-32.0156533915
 20
33.1699712925
 30
0.0
 40
22.22623074031793
100
AcDbArc
 50
200.2470012721
 51
206.4944646608
  0
ARC
  5
354
330
1F
100
AcDbEntity
  8
0
  6
HIDDEN
 62
     7
370
    18
100
AcDbCircle
 10
17.3758101692
 20
39.7205190683
 30
0.0
 40
23.28976582758626
100
AcDbArc
 50
348.849373084
 51
354.9220035334
  0
ARC
  5
355
330
1F
100
AcDbEntity
  8
0
  6
HIDDEN
 62
     7
370
    18
100
AcDbCircle
 10
17.2216831212
 20
42.3550417473
 30
0.0
 40
23.18488549192297
100
AcDbArc
 50
348.7696857189
 51
354.8686103184
  0
ARC
  5
356
330
1F
100
AcDbEntity
  8
0
  6
HIDDEN
 62
     7
370
    18
100
AcDbCircle
 10
8.1977891192
 20
43.5308989749
 30
0.0
 40
33.29472257626114
100
AcDbArc
 50
324.8674662385
 51
329.7445742036
  0
ARC
  5
357
330
1F
100
AcDbEntity
  8
0
  6
HIDDEN
 62
     7
370
    18
100
AcDbCircle
 10
7.9235659267
 20
46.2377739264
 30
0.0
 40
33.32979722254823
100
AcDbArc
 50
324.7334693015
 51
329.6139709185
  0
ARC
  5
358
330
1F
100
AcDbEntity
  8
0
  6
HIDDEN
 62
     7
370
    18
100
AcDbCircle
 10
-3.7096320128
 20
54.652853189
 30
0.0
 40
49.65902857492719
100
AcDbArc
 50
306.2282183959
 51
310.0218058418
  0
ARC
  5
359
330
1F
100
AcDbEntity
  8
0
  6
HIDDEN
 62
     7
370
    18
100
AcDbCircle
 10
-4.1526673971
 20
57.5690478871
 30
0.0
 40
49.96138879313697
100
AcDbArc
 50
306.1197057356
 51
309.903522617
  0
ARC
  5
35A
330
1F
100
AcDbEntity
  8
0
  6
HIDDEN
 62
     7
370
    18
100
AcDbCircle
 10
-11.5901811835
 20
67.9460490504
 30
0.0
 40
65.15544669722735
100
AcDbArc
 50
291.109041234
 51
294.3051810045
  0
ARC
  5
35B
330
1F
100
AcDbEntity
  8
0
  6
HIDDEN
 62
     7
370
    18
100
AcDbCircle
 10
-12.1528107126
 20
71.112698564
 30
0.0
 40
65.73470981022366
100
AcDbArc
 50
291.0577169408
 51
294.2398647932
  0
ARC
  5
35C
330
1F
100
AcDbEntity
  8
0
  6
HIDDEN
 62
     7
370
    18
100
AcDbCircle
 10
-13.3471098006
 20
73.1965433774
 30
0.0
 40
70.69816929671843
100
AcDbArc
 50
277.4344956299
 51
280.4700554728
  0
ARC
  5
35D
330
1F
100
AcDbEntity
  8
0
  6
HIDDEN
 62
     7
370
    18
100
AcDbCircle
 10
-13.9386574891
 20
76.461785867
 30
0.0
 40
71.38016221764983
100
AcDbArc
 50
277.448472271
 51
280.4692753225
  0
ARC
  5
35E
330
1F
100
AcDbEntity
  8
0
  6
HIDDEN
 62
     7
370
    18
100
AcDbCircle
 10
-21.4425432182
 20
26.856542134
 30
0.0
 40
34.07803276187801
100
AcDbArc
 50
165.194435673
 51
169.8709680275
  0
ARC
  5
35F
330
1F
100
AcDbEntity
  8
0
  6
HIDDEN
 62
     7
370
    18
100
AcDbCircle
 10
-21.3648546988
 20
27.0932010681
 30
0.0
 40
31.75746161801127
100
AcDbArc
 50
144.2555372006
 51
169.8406165307
  0
ARC
  5
360
330
1F
100
AcDbEntity
  8
0
  6
HIDDEN
 62
     7
370
    18
100
AcDbCircle
 10
-25.3480253545
 20
23.1808711996
 30
0.0
 40
28.51837101201499
100
AcDbArc
 50
169.576707469
 51
194.774852266
  0
ARC
  5
361
330
1F
100
AcDbEntity
  8
0
  6
HIDDEN
 62
     7
370
    18
100
AcDbCircle
 10
20.5918707893
 20
29.8875598209
 30
0.0
 40
27.31638377583974
100
AcDbArc
 50
4.8770289111
 51
22.0622444406
  0
ARC
  5
362
330
1F
100
AcDbEntity
  8
0
  6
HIDDEN
 62
     7
370
    18
100
AcDbCircle
 10
-8.5277620989
 20
46.5956107636
 30
0.0
 40
63.16567802294033
100
AcDbArc
 50
278.7754643908
 51
281.1860265456
  0
ARC
  5
363
330
1F
100
AcDbEntity
  8
0
  6
HIDDEN
 62
     7
370
    18
100
AcDbCircle
 10
-9.078257213
 20
13.8851083407
 30
0.0
 40
41.66085363560739
100
AcDbArc
 50
245.8894844514
 51
249.0018624752
  0
ARC
  5
364
330
1F
100
AcDbEntity
  8
0
  6
HIDDEN
 62
     7
370
    18
100
AcDbCircle
 10
-5.931205202
 20
32.2615216757
 30
0.0
 40
60.48496730465313
100
AcDbArc
 50
278.7429981183
 51
281.2046187899
  0
ARC
  5
365
330
1F
100
AcDbEntity
  8
0
  6
HIDDEN
 62
     7
370
    18
100
AcDbCircle
 10
-11.8252851639
 20
26.5320043146
 30
0.0
 40
42.6425198566129
100
AcDbArc
 50
246.4361013408
 51
249.5240200995
  0
ARC
  5
366
330
1F
100
AcDbEntity
  8
0
  6
HIDDEN
 62
     7
370
    18
100
AcDbCircle
 10
28.7251434758
 20
71.3366625286
 30
0.0
 40
5.010963464167237
100
AcDbArc
 50
251.465205745
 51
302.5510500205
  0
ARC
  5
367
330
1F
100
AcDbEntity
  8
0
  6
HIDDEN
 62
     7
370
    18
100
AcDbCircle
 10
-36.9440421184
 20
2.628196713
 30
0.0
 40
14.43159903706478
100
AcDbArc
 50
157.5391458389
 51
194.7810948531
  0
ARC
  5
368
330
1F
100
AcDbEntity
  8
0
  6
HIDDEN
 62
     7
370
    18
100
AcDbCircle
 10
-32.4501809959
 20
4.3950135571
 30
0.0
 40
17.96705255982109
100
AcDbArc
 50
152.3589299649
 51
158.5227839186
  0
ARC
  5
369
330
1F
100
AcDbEntity
  8
0
  6
HIDDEN
 62
     7
370
    18
100
AcDbCircle
 10
-24.987790784
 20
73.7234096395
 30
0.0
 40
4.850526815611242
100
AcDbArc
 50
252.2526887443
 51
308.4837990073
  0
MTEXT
  5
36B
330
1F
100
AcDbEntity
  8
0
  6
Continuous
 62
     7
100
AcDbMText
 10
-59.1559592792
 20
-35.1171600007
 30
0.0
 40
4.83362
 41
0.0
 71
     1
 72
     1
  1
SOLIDWORKS Educational Product.
  7
SLDTEXTSTYLE0
 73
     1
 44
1.0
  0
MTEXT
  5
36C
330
1F
100
AcDbEntity
  8
0
  6
Continuous
 62
     7
100
AcDbMText
 10
-59.1559592792
 20
-42.3675900007
 30
0.0
 40
4.83362
 41
0.0
 71
     1
 72
     1
  1
For Instructional Use Only.
  7
SLDTEXTSTYLE0
 73
     1
 44
1.0
  0
ENDSEC
  0
SECTION
  2
OBJECTS
  0
DICTIONARY
  5
C
330
0
100
AcDbDictionary
281
     1
  3
ACAD_GROUP
350
D
  3
ACAD_LAYOUT
350
1A
  3
ACAD_MLINESTYLE
350
17
  3
ACAD_PLOTSETTINGS
350
19
  3
ACAD_PLOTSTYLENAME
350
E
  3
ACAD_SCALELIST
350
47
  0
DICTIONARY
  5
D
102
{ACAD_REACTORS
330
C
102
}
330
C
100
AcDbDictionary
281
     1
  0
DICTIONARY
  5
1A
102
{ACAD_REACTORS
330
C
102
}
330
C
100
AcDbDictionary
281
     1
  3
Layout1
350
1E
  3
Layout2
350
26
  3
Model
350
22
  0
DICTIONARY
  5
17
102
{ACAD_REACTORS
330
C
102
}
330
C
100
AcDbDictionary
281
     1
  3
Standard
350
18
  0
DICTIONARY
  5
19
102
{ACAD_REACTORS
330
C
102
}
330
C
100
AcDbDictionary
281
     1
  0
ACDBDICTIONARYWDFLT
  5
E
102
{ACAD_REACTORS
330
C
102
}
330
C
100
AcDbDictionary
281
     1
  3
Normal
350
F
100
AcDbDictionaryWithDefault
340
F
  0
DICTIONARY
  5
47
102
{ACAD_REACTORS
330
C
102
}
330
C
100
AcDbDictionary
281
     1
  3
A0
350
48
  3
A1
350
49
  3
A2
350
4A
  3
A3
350
4B
  3
A4
350
4C
  3
A5
350
4D
  3
A6
350
4E
  3
A7
350
4F
  3
A8
350
50
  3
A9
350
51
  3
B0
350
52
  3
B1
350
53
  3
B2
350
54
  3
B3
350
55
  3
B4
350
56
  3
B5
350
57
  3
B6
350
58
  3
B7
350
59
  3
B8
350
5A
  3
B9
350
5B
  3
C0
350
5C
  3
C1
350
5D
  3
C2
350
5E
  3
C3
350
5F
  3
C4
350
60
  3
C5
350
61
  3
C6
350
62
  3
C7
350
63
  3
C8
350
64
  3
C9
350
65
  3
D0
350
66
  3
D1
350
67
  3
D2
350
68
  0
LAYOUT
  5
1E
102
{ACAD_REACTORS
330
1A
102
}
330
1A
100
AcDbPlotSettings
  1

  2
none_device
  4

  6

 40
0.0
 41
0.0
 42
0.0
 43
0.0
 44
0.0
 45
0.0
 46
0.0
 47
0.0
 48
0.0
 49
0.0
140
0.0
141
0.0
142
1.0
143
1.0
 70
   688
 72
     1
 73
     0
 74
     5
  7

 75
    16
147
1.0
148
0.0
149
0.0
100
AcDbLayout
  1
Layout1
 70
     1
 71
     1
 10
0.0
 20
0.0
 11
420.0
 21
297.0
 12
0.0
 22
0.0
 32
0.0
 14
1.0000000000E+20
 24
1.0000000000E+20
 34
1.0000000000E+20
 15
-1.0000000000E+20
 25
-1.0000000000E+20
 35
-1.0000000000E+20
146
0.0
 13
0.0
 23
0.0
 33
0.0
 16
1.0
 26
0.0
 36
0.0
 17
0.0
 27
1.0
 37
0.0
 76
     0
330
1B
  0
LAYOUT
  5
26
102
{ACAD_REACTORS
330
1A
102
}
330
1A
100
AcDbPlotSettings
  1

  2
none_device
  4

  6

 40
0.0
 41
0.0
 42
0.0
 43
0.0
 44
0.0
 45
0.0
 46
0.0
 47
0.0
 48
0.0
 49
0.0
140
0.0
141
0.0
142
1.0
143
1.0
 70
   688
 72
     1
 73
     0
 74
     5
  7

 75
    16
147
1.0
148
0.0
149
0.0
100
AcDbLayout
  1
Layout2
 70
     1
 71
     2
 10
0.0
 20
0.0
 11
0.0
 21
0.0
 12
0.0
 22
0.0
 32
0.0
 14
0.0
 24
0.0
 34
0.0
 15
0.0
 25
0.0
 35
0.0
146
0.0
 13
0.0
 23
0.0
 33
0.0
 16
1.0
 26
0.0
 36
0.0
 17
0.0
 27
1.0
 37
0.0
 76
     0
330
23
  0
LAYOUT
  5
22
102
{ACAD_REACTORS
330
1A
102
}
330
1A
100
AcDbPlotSettings
  1

  2
none_device
  4
ANSI_A_(11.00_x_8.50_Inches)
  6

 40
6.35
 41
19.05
 42
6.35000508
 43
19.05000254
 44
279.4
 45
215.9
 46
139.8761053926
 47
48.9190442473
 48
0.0
 49
0.0
140
0.0
141
0.0
142
0.0772326254
143
1.0
 70
  1696
 72
     0
 73
     0
 74
     0
  7

 75
     0
147
0.0179189148
148
-1300.4909072572
149
0.0
100
AcDbLayout
  1
Model
 70
     1
 71
     0
 10
0.0
 20
0.0
 11
420.0
 21
297.0
 12
0.0
 22
0.0
 32
0.0
 14
-59.1559592792
 24
-34.097593609
 34
0.0
 15
52.5024658397
 25
74.8589510829
 35
0.0
146
0.0
 13
0.0
 23
0.0
 33
0.0
 16
1.0
 26
0.0
 36
0.0
 17
0.0
 27
1.0
 37
0.0
 76
     0
330
1F
331
29
  0
MLINESTYLE
  5
18
102
{ACAD_REACTORS
330
17
102
}
330
17
100
AcDbMlineStyle
  2
Standard
 70
     0
  3

 62
   256
 51
90.0
 52
90.0
 71
     2
 49
0.5
 62
   256
  6
BYLAYER
 49
-0.5
 62
   256
  6
BYLAYER
  0
ACDBPLACEHOLDER
  5
F
102
{ACAD_REACTORS
330
E
102
}
330
E
  0
SCALE
  5
48
102
{ACAD_REACTORS
330
47
102
}
330
47
100
AcDbScale
 70
     0
300
1:1
140
1.0
141
1.0
290
     1
  0
SCALE
  5
49
102
{ACAD_REACTORS
330
47
102
}
330
47
100
AcDbScale
 70
     0
300
1:2
140
1.0
141
2.0
290
     0
  0
SCALE
  5
4A
102
{ACAD_REACTORS
330
47
102
}
330
47
100
AcDbScale
 70
     0
300
1:4
140
1.0
141
4.0
290
     0
  0
SCALE
  5
4B
102
{ACAD_REACTORS
330
47
102
}
330
47
100
AcDbScale
 70
     0
300
1:5
140
1.0
141
5.0
290
     0
  0
SCALE
  5
4C
102
{ACAD_REACTORS
330
47
102
}
330
47
100
AcDbScale
 70
     0
300
1:8
140
1.0
141
8.0
290
     0
  0
SCALE
  5
4D
102
{ACAD_REACTORS
330
47
102
}
330
47
100
AcDbScale
 70
     0
300
1:10
140
1.0
141
10.0
290
     0
  0
SCALE
  5
4E
102
{ACAD_REACTORS
330
47
102
}
330
47
100
AcDbScale
 70
     0
300
1:16
140
1.0
141
16.0
290
     0
  0
SCALE
  5
4F
102
{ACAD_REACTORS
330
47
102
}
330
47
100
AcDbScale
 70
     0
300
1:20
140
1.0
141
20.0
290
     0
  0
SCALE
  5
50
102
{ACAD_REACTORS
330
47
102
}
330
47
100
AcDbScale
 70
     0
300
1:30
140
1.0
141
30.0
290
     0
  0
SCALE
  5
51
102
{ACAD_REACTORS
330
47
102
}
330
47
100
AcDbScale
 70
     0
300
1:40
140
1.0
141
40.0
290
     0
  0
SCALE
  5
52
102
{ACAD_REACTORS
330
47
102
}
330
47
100
AcDbScale
 70
     0
300
1:50
140
1.0
141
50.0
290
     0
  0
SCALE
  5
53
102
{ACAD_REACTORS
330
47
102
}
330
47
100
AcDbScale
 70
     0
300
1:100
140
1.0
141
100.0
290
     0
  0
SCALE
  5
54
102
{ACAD_REACTORS
330
47
102
}
330
47
100
AcDbScale
 70
     0
300
2:1
140
2.0
141
1.0
290
     0
  0
SCALE
  5
55
102
{ACAD_REACTORS
330
47
102
}
330
47
100
AcDbScale
 70
     0
300
4:1
140
4.0
141
1.0
290
     0
  0
SCALE
  5
56
102
{ACAD_REACTORS
330
47
102
}
330
47
100
AcDbScale
 70
     0
300
8:1
140
8.0
141
1.0
290
     0
  0
SCALE
  5
57
102
{ACAD_REACTORS
330
47
102
}
330
47
100
AcDbScale
 70
     0
300
10:1
140
10.0
141
1.0
290
     0
  0
SCALE
  5
58
102
{ACAD_REACTORS
330
47
102
}
330
47
100
AcDbScale
 70
     0
300
100:1
140
100.0
141
1.0
290
     0
  0
SCALE
  5
59
102
{ACAD_REACTORS
330
47
102
}
330
47
100
AcDbScale
 70
     0
300
1/128" = 1'-0"
140
0.0078125
141
12.0
290
     0
  0
SCALE
  5
5A
102
{ACAD_REACTORS
330
47
102
}
330
47
100
AcDbScale
 70
     0
300
1/64" = 1'-0"
140
0.015625
141
12.0
290
     0
  0
SCALE
  5
5B
102
{ACAD_REACTORS
330
47
102
}
330
47
100
AcDbScale
 70
     0
300
1/32" = 1'-0"
140
0.03125
141
12.0
290
     0
  0
SCALE
  5
5C
102
{ACAD_REACTORS
330
47
102
}
330
47
100
AcDbScale
 70
     0
300
1/16" = 1'-0"
140
0.0625
141
12.0
290
     0
  0
SCALE
  5
5D
102
{ACAD_REACTORS
330
47
102
}
330
47
100
AcDbScale
 70
     0
300
3/32" = 1'-0"
140
0.09375
141
12.0
290
     0
  0
SCALE
  5
5E
102
{ACAD_REACTORS
330
47
102
}
330
47
100
AcDbScale
 70
     0
300
1/8" = 1'-0"
140
0.125
141
12.0
290
     0
  0
SCALE
  5
5F
102
{ACAD_REACTORS
330
47
102
}
330
47
100
AcDbScale
 70
     0
300
3/16" = 1'-0"
140
0.1875
141
12.0
290
     0
  0
SCALE
  5
60
102
{ACAD_REACTORS
330
47
102
}
330
47
100
AcDbScale
 70
     0
300
1/4" = 1'-0"
140
0.25
141
12.0
290
     0
  0
SCALE
  5
61
102
{ACAD_REACTORS
330
47
102
}
330
47
100
AcDbScale
 70
     0
300
3/8" = 1'-0"
140
0.375
141
12.0
290
     0
  0
SCALE
  5
62
102
{ACAD_REACTORS
330
47
102
}
330
47
100
AcDbScale
 70
     0
300
1/2" = 1'-0"
140
0.5
141
12.0
290
     0
  0
SCALE
  5
63
102
{ACAD_REACTORS
330
47
102
}
330
47
100
AcDbScale
 70
     0
300
3/4" = 1'-0"
140
0.75
141
12.0
290
     0
  0
SCALE
  5
64
102
{ACAD_REACTORS
330
47
102
}
330
47
100
AcDbScale
 70
     0
300
1" = 1'-0"
140
1.0
141
12.0
290
     0
  0
SCALE
  5
65
102
{ACAD_REACTORS
330
47
102
}
330
47
100
AcDbScale
 70
     0
300
1-1/2" = 1'-0"
140
1.5
141
12.0
290
     0
  0
SCALE
  5
66
102
{ACAD_REACTORS
330
47
102
}
330
47
100
AcDbScale
 70
     0
300
3" = 1'-0"
140
3.0
141
12.0
290
     0
  0
SCALE
  5
67
102
{ACAD_REACTORS
330
47
102
}
330
47
100
AcDbScale
 70
     0
300
6" = 1'-0"
140
6.0
141
12.0
290
     0
  0
SCALE
  5
68
102
{ACAD_REACTORS
330
47
102
}
330
47
100
AcDbScale
 70
     0
300
1'-0" = 1'-0"
140
12.0
141
12.0
290
     0
  0
ENDSEC
  0
EOF
