  0
SECTION
  2
HEADER
  9
$ACADVER
  1
AC1015
  9
$ACADMAINTVER
 70
     6
  9
$DWGCODEPAGE
  3
ANSI_1252
  9
$INSBASE
 10
0.0
 20
0.0
 30
0.0
  9
$EXTMIN
 10
-55.0872069018
 20
-50.6345002517
 30
0.0
  9
$EXTMAX
 10
55.0872069018
 20
50.3391516417
 30
0.0
  9
$LIMMIN
 10
0.0
 20
0.0
  9
$LIMMAX
 10
420.0
 20
297.0
  9
$ORTHOMODE
 70
     0
  9
$REGENMODE
 70
     1
  9
$FILLMODE
 70
     1
  9
$QTEXTMODE
 70
     0
  9
$MIRRTEXT
 70
     1
  9
$LTSCALE
 40
1.0
  9
$ATTMODE
 70
     1
  9
$TEXTSIZE
 40
3.5
  9
$TRACEWID
 40
1.0
  9
$TEXTSTYLE
  7
Standard
  9
$CLAYER
  8
0
  9
$CELTYPE
  6
ByLayer
  9
$CECOLOR
 62
   256
  9
$CELTSCALE
 40
1.0
  9
$DISPSILH
 70
     0
  9
$DIMSCALE
 40
1.0
  9
$DIMASZ
 40
3.302
  9
$DIMEXO
 40
1.0
  9
$DIMDLI
 40
3.75
  9
$DIMRND
 40
0.0
  9
$DIMDLE
 40
0.0
  9
$DIMEXE
 40
1.0
  9
$DIMTP
 40
0.0
  9
$DIMTM
 40
0.0
  9
$DIMTXT
 40
3.5
  9
$DIMCEN
 40
2.5
  9
$DIMTSZ
 40
0.0
  9
$DIMTOL
 70
     0
  9
$DIMLIM
 70
     0
  9
$DIMTIH
 70
     1
  9
$DIMTOH
 70
     1
  9
$DIMSE1
 70
     0
  9
$DIMSE2
 70
     0
  9
$DIMTAD
 70
     1
  9
$DIMZIN
 70
     0
  9
$DIMBLK
  1

  9
$DIMASO
 70
     1
  9
$DIMSHO
 70
     1
  9
$DIMPOST
  1

  9
$DIMAPOST
  1

  9
$DIMALT
 70
     0
  9
$DIMALTD
 70
     3
  9
$DIMALTF
 40
0.0393700787
  9
$DIMLFAC
 40
1.0
  9
$DIMTOFL
 70
     1
  9
$DIMTVP
 40
0.0
  9
$DIMTIX
 70
     0
  9
$DIMSOXD
 70
     0
  9
$DIMSAH
 70
     0
  9
$DIMBLK1
  1

  9
$DIMBLK2
  1

  9
$DIMSTYLE
  2
ISO-25
  9
$DIMCLRD
 70
     0
  9
$DIMCLRE
 70
     0
  9
$DIMCLRT
 70
     0
  9
$DIMTFAC
 40
1.0
  9
$DIMGAP
 40
1.524
  9
$DIMJUST
 70
     0
  9
$DIMSD1
 70
     0
  9
$DIMSD2
 70
     0
  9
$DIMTOLJ
 70
     0
  9
$DIMTZIN
 70
     0
  9
$DIMALTZ
 70
     0
  9
$DIMALTTZ
 70
     0
  9
$DIMUPT
 70
     0
  9
$DIMDEC
 70
     2
  9
$DIMTDEC
 70
     2
  9
$DIMALTU
 70
     2
  9
$DIMALTTD
 70
     3
  9
$DIMTXSTY
  7
Standard
  9
$DIMAUNIT
 70
     0
  9
$DIMADEC
 70
     2
  9
$DIMALTRND
 40
0.0
  9
$DIMAZIN
 70
     0
  9
$DIMDSEP
 70
    44
  9
$DIMATFIT
 70
     3
  9
$DIMFRAC
 70
     0
  9
$DIMLDRBLK
  1

  9
$DIMLUNIT
 70
     2
  9
$DIMLWD
 70
    -2
  9
$DIMLWE
 70
    -2
  9
$DIMTMOVE
 70
     0
  9
$LUNITS
 70
     2
  9
$LUPREC
 70
     2
  9
$SKETCHINC
 40
1.0
  9
$FILLETRAD
 40
10.0
  9
$AUNITS
 70
     0
  9
$AUPREC
 70
     2
  9
$MENU
  1
.
  9
$ELEVATION
 40
0.0
  9
$PELEVATION
 40
0.0
  9
$THICKNESS
 40
0.0
  9
$LIMCHECK
 70
     0
  9
$CHAMFERA
 40
0.0
  9
$CHAMFERB
 40
0.0
  9
$CHAMFERC
 40
0.0
  9
$CHAMFERD
 40
0.0
  9
$SKPOLY
 70
     0
  9
$TDCREATE
 40
2458917.608603484
  9
$TDUCREATE
 40
2458917.816936817
  9
$TDUPDATE
 40
2458917.608747882
  9
$TDUUPDATE
 40
2458917.817081215
  9
$TDINDWG
 40
0.0000000116
  9
$TDUSRTIMER
 40
0.0000000116
  9
$USRTIMER
 70
     1
  9
$ANGBASE
 50
0.0
  9
$ANGDIR
 70
     0
  9
$PDMODE
 70
     0
  9
$PDSIZE
 40
-1.0
  9
$PLINEWID
 40
0.0
  9
$SPLFRAME
 70
     0
  9
$SPLINETYPE
 70
     6
  9
$SPLINESEGS
 70
     8
  9
$HANDSEED
  5
384
  9
$SURFTAB1
 70
     6
  9
$SURFTAB2
 70
     6
  9
$SURFTYPE
 70
     6
  9
$SURFU
 70
     6
  9
$SURFV
 70
     6
  9
$UCSBASE
  2

  9
$UCSNAME
  2

  9
$UCSORG
 10
0.0
 20
0.0
 30
0.0
  9
$UCSXDIR
 10
1.0
 20
0.0
 30
0.0
  9
$UCSYDIR
 10
0.0
 20
1.0
 30
0.0
  9
$UCSORTHOREF
  2

  9
$UCSORTHOVIEW
 70
     0
  9
$UCSORGTOP
 10
0.0
 20
0.0
 30
0.0
  9
$UCSORGBOTTOM
 10
0.0
 20
0.0
 30
0.0
  9
$UCSORGLEFT
 10
0.0
 20
0.0
 30
0.0
  9
$UCSORGRIGHT
 10
0.0
 20
0.0
 30
0.0
  9
$UCSORGFRONT
 10
0.0
 20
0.0
 30
0.0
  9
$UCSORGBACK
 10
0.0
 20
0.0
 30
0.0
  9
$PUCSBASE
  2

  9
$PUCSNAME
  2

  9
$PUCSORG
 10
0.0
 20
0.0
 30
0.0
  9
$PUCSXDIR
 10
1.0
 20
0.0
 30
0.0
  9
$PUCSYDIR
 10
0.0
 20
1.0
 30
0.0
  9
$PUCSORTHOREF
  2

  9
$PUCSORTHOVIEW
 70
     0
  9
$PUCSORGTOP
 10
0.0
 20
0.0
 30
0.0
  9
$PUCSORGBOTTOM
 10
0.0
 20
0.0
 30
0.0
  9
$PUCSORGLEFT
 10
0.0
 20
0.0
 30
0.0
  9
$PUCSORGRIGHT
 10
0.0
 20
0.0
 30
0.0
  9
$PUCSORGFRONT
 10
0.0
 20
0.0
 30
0.0
  9
$PUCSORGBACK
 10
0.0
 20
0.0
 30
0.0
  9
$USERI1
 70
     0
  9
$USERI2
 70
     0
  9
$USERI3
 70
     0
  9
$USERI4
 70
     0
  9
$USERI5
 70
     0
  9
$USERR1
 40
0.0
  9
$USERR2
 40
0.0
  9
$USERR3
 40
0.0
  9
$USERR4
 40
0.0
  9
$USERR5
 40
0.0
  9
$WORLDVIEW
 70
     1
  9
$SHADEDGE
 70
     3
  9
$SHADEDIF
 70
    70
  9
$TILEMODE
 70
     1
  9
$MAXACTVP
 70
    64
  9
$PINSBASE
 10
0.0
 20
0.0
 30
0.0
  9
$PLIMCHECK
 70
     0
  9
$PEXTMIN
 10
1.0000000000E+20
 20
1.0000000000E+20
 30
1.0000000000E+20
  9
$PEXTMAX
 10
-1.0000000000E+20
 20
-1.0000000000E+20
 30
-1.0000000000E+20
  9
$PLIMMIN
 10
0.0
 20
0.0
  9
$PLIMMAX
 10
420.0
 20
297.0
  9
$UNITMODE
 70
     0
  9
$VISRETAIN
 70
     1
  9
$PLINEGEN
 70
     0
  9
$PSLTSCALE
 70
     1
  9
$TREEDEPTH
 70
  3020
  9
$CMLSTYLE
  2
Standard
  9
$CMLJUST
 70
     0
  9
$CMLSCALE
 40
20.0
  9
$PROXYGRAPHICS
 70
     1
  9
$MEASUREMENT
 70
     1
  9
$CELWEIGHT
370
    -1
  9
$ENDCAPS
280
     0
  9
$JOINSTYLE
280
     0
  9
$LWDISPLAY
290
     1
  9
$INSUNITS
 70
     4
  9
$HYPERLINKBASE
  1

  9
$STYLESHEET
  1

  9
$XEDIT
290
     1
  9
$CEPSNTYPE
380
     0
  9
$PSTYLEMODE
290
     1
  9
$FINGERPRINTGUID
  2
{A2C27FF9-4BBE-4B85-8A42-C9860F058245}
  9
$VERSIONGUID
  2
{FAEB1C32-E019-11D5-929B-00C0DF256EC4}
  9
$EXTNAMES
290
     1
  9
$PSVPSCALE
 40
0.0
  9
$OLESTARTUP
290
     0
  0
ENDSEC
  0
SECTION
  2
CLASSES
  0
CLASS
  1
ACDBDICTIONARYWDFLT
  2
AcDbDictionaryWithDefault
  3
ObjectDBX Classes
 90
        0
280
     0
281
     0
  0
CLASS
  1
VISUALSTYLE
  2
AcDbVisualStyle
  3
ObjectDBX Classes
 90
     4095
280
     0
281
     0
  0
CLASS
  1
MATERIAL
  2
AcDbMaterial
  3
ObjectDBX Classes
 90
     1153
280
     0
281
     0
  0
CLASS
  1
SCALE
  2
AcDbScale
  3
ObjectDBX Classes
 90
     1153
280
     0
281
     0
  0
CLASS
  1
TABLESTYLE
  2
AcDbTableStyle
  3
ObjectDBX Classes
 90
     4095
280
     0
281
     0
  0
CLASS
  1
MLEADERSTYLE
  2
AcDbMLeaderStyle
  3
ACDB_MLEADERSTYLE_CLASS
 90
     4095
280
     0
281
     0
  0
CLASS
  1
SUN
  2
AcDbSun
  3
SCENEOE
 90
     1153
280
     0
281
     0
  0
CLASS
  1
ACDBPLACEHOLDER
  2
AcDbPlaceHolder
  3
ObjectDBX Classes
 90
        0
280
     0
281
     0
  0
CLASS
  1
LAYOUT
  2
AcDbLayout
  3
ObjectDBX Classes
 90
        0
280
     0
281
     0
  0
ENDSEC
  0
SECTION
  2
TABLES
  0
TABLE
  2
VPORT
  5
8
330
0
100
AcDbSymbolTable
 70
     1
  0
VPORT
  5
29
330
8
100
AcDbSymbolTableRecord
100
AcDbViewportTableRecord
  2
*Active
 70
     0
 10
0.0
 20
0.0
 11
1.0
 21
1.0
 12
0.0
 22
-0.147674305
 13
0.0
 23
0.0
 14
10.0
 24
10.0
 15
10.0
 25
10.0
 16
0.0
 26
0.0
 36
1.0
 17
0.0
 27
0.0
 37
0.0
 40
102.9931249313
 41
1.0911204234
 42
50.0
 43
0.0
 44
0.0
 50
0.0
 51
0.0
 71
     0
 72
   100
 73
     1
 74
     3
 75
     0
 76
     0
 77
     0
 78
     0
281
     0
 65
     1
110
0.0
120
0.0
130
0.0
111
1.0
121
0.0
131
0.0
112
0.0
122
1.0
132
0.0
 79
     0
146
0.0
  0
ENDTAB
  0
TABLE
  2
LTYPE
  5
5
330
0
100
AcDbSymbolTable
 70
     6
  0
LTYPE
  5
14
330
5
100
AcDbSymbolTableRecord
100
AcDbLinetypeTableRecord
  2
ByBlock
 70
     0
  3

 72
    65
 73
     0
 40
0.0
  0
LTYPE
  5
15
330
5
100
AcDbSymbolTableRecord
100
AcDbLinetypeTableRecord
  2
ByLayer
 70
     0
  3

 72
    65
 73
     0
 40
0.0
  0
LTYPE
  5
16
330
5
100
AcDbSymbolTableRecord
100
AcDbLinetypeTableRecord
  2
Continuous
 70
     0
  3
Solid line
 72
    65
 73
     0
 40
0.0
  0
LTYPE
  5
6E
330
5
100
AcDbSymbolTableRecord
100
AcDbLinetypeTableRecord
  2
HIDDEN
 70
     0
  3
Hidden __ __ __ __ __ __ __ __ __ __ __ __ __ __
 72
    65
 73
     2
 40
1.905
 49
1.27
 74
     0
 49
-0.635
 74
     0
  0
LTYPE
  5
6F
330
5
100
AcDbSymbolTableRecord
100
AcDbLinetypeTableRecord
  2
PHANTOM
 70
     0
  3
Phantom ______  __  __  ______  __  __  ______
 72
    65
 73
     6
 40
12.7
 49
6.35
 74
     0
 49
-1.27
 74
     0
 49
1.27
 74
     0
 49
-1.27
 74
     0
 49
1.27
 74
     0
 49
-1.27
 74
     0
  0
LTYPE
  5
70
330
5
100
AcDbSymbolTableRecord
100
AcDbLinetypeTableRecord
  2
CENTER
 70
     0
  3
Center ____ _ ____ _ ____ _ ____ _ ____ _ ____
 72
    65
 73
     4
 40
10.16
 49
6.35
 74
     0
 49
-1.27
 74
     0
 49
1.27
 74
     0
 49
-1.27
 74
     0
  0
LTYPE
  5
71
330
5
100
AcDbSymbolTableRecord
100
AcDbLinetypeTableRecord
  2
CENTERX2
 70
     0
  3
Center (2x) ________  __  ________  __  _____
 72
    65
 73
     4
 40
20.32
 49
12.7
 74
     0
 49
-2.54
 74
     0
 49
2.54
 74
     0
 49
-2.54
 74
     0
  0
LTYPE
  5
72
330
5
100
AcDbSymbolTableRecord
100
AcDbLinetypeTableRecord
  2
DOT2
 70
     0
  3
Dot (.5x) ........................................
 72
    65
 73
     2
 40
0.635
 49
0.0
 74
     0
 49
-0.635
 74
     0
  0
ENDTAB
  0
TABLE
  2
LAYER
  5
2
330
0
100
AcDbSymbolTable
 70
     1
  0
LAYER
  5
10
330
2
100
AcDbSymbolTableRecord
100
AcDbLayerTableRecord
  2
0
 70
     0
 62
     7
  6
Continuous
370
    -3
390
F
  0
ENDTAB
  0
TABLE
  2
STYLE
  5
3
330
0
100
AcDbSymbolTable
 70
     2
  0
STYLE
  5
11
330
3
100
AcDbSymbolTableRecord
100
AcDbTextStyleTableRecord
  2
Standard
 70
     0
 40
0.0
 41
1.0
 50
0.0
 71
     0
 42
3.5
  3
txt
  4

  0
STYLE
  5
381
330
3
100
AcDbSymbolTableRecord
100
AcDbTextStyleTableRecord
  2
SLDTEXTSTYLE0
 70
     0
 40
0.0
 41
0.7
 50
0.0
 71
     0
 42
3.5
  3
TXT
  4

  0
ENDTAB
  0
TABLE
  2
VIEW
  5
6
330
0
100
AcDbSymbolTable
 70
     0
  0
ENDTAB
  0
TABLE
  2
UCS
  5
7
330
0
100
AcDbSymbolTable
 70
     0
  0
ENDTAB
  0
TABLE
  2
APPID
  5
9
330
0
100
AcDbSymbolTable
 70
     1
  0
APPID
  5
12
330
9
100
AcDbSymbolTableRecord
100
AcDbRegAppTableRecord
  2
ACAD
 70
     0
  0
ENDTAB
  0
TABLE
  2
DIMSTYLE
  5
A
330
0
100
AcDbSymbolTable
 70
     1
100
AcDbDimStyleTable
  0
DIMSTYLE
105
27
330
A
100
AcDbSymbolTableRecord
100
AcDbDimStyleTableRecord
  2
ISO-25
 70
     0
 41
2.5
 42
0.625
 43
3.75
 44
1.25
 73
     0
 74
     0
 77
     1
 78
     8
140
2.5
141
2.5
143
0.0393700787
147
0.625
171
     3
172
     1
178
     0
271
     2
272
     2
274
     3
278
    44
283
     0
284
     8
340
11
  0
ENDTAB
  0
TABLE
  2
BLOCK_RECORD
  5
1
330
0
100
AcDbSymbolTable
 70
     1
  0
BLOCK_RECORD
  5
1F
330
1
100
AcDbSymbolTableRecord
100
AcDbBlockTableRecord
  2
*Model_Space
340
22
  0
BLOCK_RECORD
  5
1B
330
1
100
AcDbSymbolTableRecord
100
AcDbBlockTableRecord
  2
*Paper_Space
340
1E
  0
BLOCK_RECORD
  5
23
330
1
100
AcDbSymbolTableRecord
100
AcDbBlockTableRecord
  2
*Paper_Space0
340
26
  0
ENDTAB
  0
ENDSEC
  0
SECTION
  2
BLOCKS
  0
BLOCK
  5
20
330
1F
100
AcDbEntity
  8
0
100
AcDbBlockBegin
  2
*Model_Space
 70
     0
 10
0.0
 20
0.0
 30
0.0
  3
*Model_Space
  1

  0
ENDBLK
  5
21
330
1F
100
AcDbEntity
  8
0
100
AcDbBlockEnd
  0
BLOCK
  5
1C
330
1B
100
AcDbEntity
 67
     1
  8
0
100
AcDbBlockBegin
  2
*Paper_Space
 70
     0
 10
0.0
 20
0.0
 30
0.0
  3
*Paper_Space
  1

  0
ENDBLK
  5
1D
330
1B
100
AcDbEntity
 67
     1
  8
0
100
AcDbBlockEnd
  0
BLOCK
  5
24
330
23
100
AcDbEntity
  8
0
100
AcDbBlockBegin
  2
*Paper_Space0
 70
     0
 10
0.0
 20
0.0
 30
0.0
  3
*Paper_Space0
  1

  0
ENDBLK
  5
25
330
23
100
AcDbEntity
  8
0
100
AcDbBlockEnd
  0
ENDSEC
  0
SECTION
  2
ENTITIES
  0
CIRCLE
  5
73
330
1F
100
AcDbEntity
  8
0
  6
CENTERX2
 62
     7
100
AcDbCircle
 10
0.0
 20
0.0
 30
0.0
 40
25.0
  0
CIRCLE
  5
74
330
1F
100
AcDbEntity
  8
0
  6
CENTERX2
 62
     7
100
AcDbCircle
 10
0.0
 20
0.0
 30
0.0
 40
42.5
  0
CIRCLE
  5
75
330
1F
100
AcDbEntity
  8
0
  6
CENTERX2
 62
     7
100
AcDbCircle
 10
0.0
 20
0.0
 30
0.0
 40
7.5
  0
LINE
  5
76
330
1F
100
AcDbEntity
  8
0
  6
Continuous
 62
     7
100
AcDbLine
 10
0.0
 20
-25.0
 30
0.0
 11
0.0
 21
-7.5
 31
0.0
  0
LINE
  5
77
330
1F
100
AcDbEntity
  8
0
  6
Continuous
 62
     7
100
AcDbLine
 10
25.0
 20
0.0
 30
0.0
 11
7.5
 21
0.0
 31
0.0
  0
LINE
  5
78
330
1F
100
AcDbEntity
  8
0
  6
Continuous
 62
     7
100
AcDbLine
 10
30.0520382004
 20
30.0520382004
 30
0.0
 11
17.6776695297
 21
17.6776695297
 31
0.0
  0
LINE
  5
79
330
1F
100
AcDbEntity
  8
0
  6
Continuous
 62
     7
100
AcDbLine
 10
-30.0520382004
 20
30.0520382004
 30
0.0
 11
-17.6776695297
 21
17.6776695297
 31
0.0
  0
LINE
  5
7A
330
1F
100
AcDbEntity
  8
0
  6
Continuous
 62
     7
100
AcDbLine
 10
17.6776695297
 20
-17.6776695297
 30
0.0
 11
30.0520382004
 21
-30.0520382004
 31
0.0
  0
LINE
  5
7B
330
1F
100
AcDbEntity
  8
0
  6
Continuous
 62
     7
100
AcDbLine
 10
-17.6776695297
 20
-17.6776695297
 30
0.0
 11
-30.0520382004
 21
-30.0520382004
 31
0.0
  0
LINE
  5
7C
330
1F
100
AcDbEntity
  8
0
  6
Continuous
 62
     7
100
AcDbLine
 10
0.0
 20
7.5
 30
0.0
 11
0.0
 21
25.0
 31
0.0
  0
LINE
  5
7D
330
1F
100
AcDbEntity
  8
0
  6
Continuous
 62
     7
100
AcDbLine
 10
-7.5
 20
0.0
 30
0.0
 11
-25.0
 21
0.0
 31
0.0
  0
LWPOLYLINE
  5
7E
330
1F
100
AcDbEntity
  8
0
  6
Continuous
 62
     7
100
AcDbPolyline
 90
       93
 70
   128
 43
0.0
 10
-5.1282048225
 20
14.8247195513
 10
-5.1241987179
 20
14.9549278846
 10
-5.1111778846
 20
15.0801282051
 10
-5.0901442308
 20
15.2013221154
 10
-5.0610977564
 20
15.3175080128
 10
-5.023036859
 20
15.4296875
 10
-4.976963141
 20
15.5368589744
 10
-4.921875
 20
15.6400240385
 10
-4.8587740385
 20
15.7381810897
 10
-4.7876602564
 20
15.8313301282
 10
-4.7065304487
 20
15.9184695513
 10
-4.6173878205
 20
16.0006009615
 10
-4.5192307692
 20
16.077724359
 10
-4.4120592949
 20
16.148838141
 10
-4.2958733974
 20
16.2149439103
 10
-4.1716746795
 20
16.2750400641
 10
-4.0374599359
 20
16.3301282051
 10
-3.8922275641
 20
16.3792067308
 10
-3.733974359
 20
16.4212740385
 10
-3.5616987179
 20
16.4573317308
 10
-3.3764022436
 20
16.4863782051
 10
-3.1770833333
 20
16.5094150641
 10
-2.9637419872
 20
16.5254407051
 10
-2.7373798077
 20
16.5354567308
 10
-2.4979967949
 20
16.5384615385
 10
-2.4979967949
 20
16.5384615385
 10
-2.2556089744
 20
16.5354567308
 10
-2.0272435897
 20
16.5254407051
 10
-1.812900641
 20
16.5084134615
 10
-1.6115785256
 20
16.4853766026
 10
-1.4252804487
 20
16.4553285256
 10
-1.2520032051
 20
16.4192708333
 10
-1.0917467949
 20
16.3762019231
 10
-0.9465144231
 20
16.3261217949
 10
-0.8122996795
 20
16.2710336538
 10
-0.6881009615
 20
16.2109375
 10
-0.5719150641
 20
16.1468349359
 10
-0.4657451923
 20
16.077724359
 10
-0.3685897436
 20
16.0036057692
 10
-0.2804487179
 20
15.9254807692
 10
-0.2023237179
 20
15.843349359
 10
-0.1322115385
 20
15.7562099359
 10
-0.0711137821
 20
15.6640625
 10
-0.0180288462
 20
15.5649038462
 10
0.0260416667
 20
15.4607371795
 10
0.0631009615
 20
15.3505608974
 10
0.0911458333
 20
15.234375
 10
0.1121794872
 20
15.1121794872
 10
0.1241987179
 20
14.9849759615
 10
0.1282051282
 20
14.8507612179
 10
0.1282051282
 20
14.8507612179
 10
0.1241987179
 20
14.7165464744
 10
0.1121794872
 20
14.5883413462
 10
0.0911458333
 20
14.4661458333
 10
0.0631009615
 20
14.3479567308
 10
0.0260416667
 20
14.2367788462
 10
-0.0190304487
 20
14.1296073718
 10
-0.0721153846
 20
14.0284455128
 10
-0.133213141
 20
13.9332932692
 10
-0.2033253205
 20
13.8431490385
 10
-0.2814503205
 20
13.7580128205
 10
-0.3685897436
 20
13.6768830128
 10
-0.4637419872
 20
13.6017628205
 10
-0.5669070513
 20
13.531650641
 10
-0.6790865385
 20
13.4665464744
 10
-0.8002804487
 20
13.4064503205
 10
-0.9294871795
 20
13.3513621795
 10
-1.070713141
 20
13.3022836538
 10
-1.2249599359
 20
13.2592147436
 10
-1.3942307692
 20
13.2231570513
 10
-1.5775240385
 20
13.1931089744
 10
-1.7748397436
 20
13.1710737179
 10
-1.9861778846
 20
13.1540464744
 10
-2.2115384615
 20
13.1440304487
 10
-2.4509214744
 20
13.141025641
 10
-2.4509214744
 20
13.141025641
 10
-2.7834535256
 20
13.1470352564
 10
-3.0919471154
 20
13.1670673077
 10
-3.3774038462
 20
13.1991185897
 10
-3.6388221154
 20
13.2431891026
 10
-3.8762019231
 20
13.3012820513
 10
-4.0905448718
 20
13.3723958333
 10
-4.280849359
 20
13.4555288462
 10
-4.4481169872
 20
13.5516826923
 10
-4.4481169872
 20
13.5516826923
 10
-4.6073717949
 20
13.671875
 10
-4.7455929487
 20
13.8030849359
 10
-4.8627804487
 20
13.9453125
 10
-4.9579326923
 20
14.0985576923
 10
-5.0330528846
 20
14.2638221154
 10
-5.0861378205
 20
14.4391025641
 10
-5.1171875
 20
14.6264022436
 10
-5.1282051282
 20
14.8247195513
  0
LWPOLYLINE
  5
7F
330
1F
100
AcDbEntity
  8
0
  6
Continuous
 62
     7
100
AcDbPolyline
 90
       73
 70
   128
 43
0.0
 10
-4.2307674885
 20
14.8467548077
 10
-4.2207532051
 20
14.7295673077
 10
-4.1917067308
 20
14.6203926282
 10
-4.1436298077
 20
14.5172275641
 10
-4.0755208333
 20
14.4210737179
 10
-4.0334535256
 20
14.3760016026
 10
-3.984375
 20
14.3329326923
 10
-3.9282852564
 20
14.2938701923
 10
-3.8651842949
 20
14.2568108974
 10
-3.7950721154
 20
14.2227564103
 10
-3.7189503205
 20
14.1907051282
 10
-3.6348157051
 20
14.1626602564
 10
-3.5436698718
 20
14.1366185897
 10
-3.4445112179
 20
14.1135817308
 10
-3.3333333333
 20
14.0935496795
 10
-3.2121394231
 20
14.0765224359
 10
-3.0799278846
 20
14.0625
 10
-2.9366987179
 20
14.0524839744
 10
-2.7824519231
 20
14.0444711538
 10
-2.6171875
 20
14.0404647436
 10
-2.4409054487
 20
14.0384615385
 10
-2.4409054487
 20
14.0384615385
 10
-2.2125400641
 20
14.0424679487
 10
-2.0032051282
 20
14.0524839744
 10
-1.8118990385
 20
14.0705128205
 10
-1.6396233974
 20
14.0945512821
 10
-1.484375
 20
14.1266025641
 10
-1.3481570513
 20
14.1656650641
 10
-1.2299679487
 20
14.2107371795
 10
-1.1308092949
 20
14.2638221154
 10
-1.0456730769
 20
14.3219150641
 10
-0.9725560897
 20
14.3840144231
 10
-0.9104567308
 20
14.4511217949
 10
-0.859375
 20
14.5212339744
 10
-0.8203125
 20
14.5963541667
 10
-0.7922676282
 20
14.6754807692
 10
-0.7752403846
 20
14.7596153846
 10
-0.7692307692
 20
14.8467548077
 10
-0.7692307692
 20
14.8467548077
 10
-0.7742387821
 20
14.9308894231
 10
-0.7902644231
 20
15.0100160256
 10
-0.8173076923
 20
15.0851362179
 10
-0.8553685897
 20
15.15625
 10
-0.9034455128
 20
15.2223557692
 10
-0.9625400641
 20
15.2844551282
 10
-1.0326522436
 20
15.3415464744
 10
-1.1127804487
 20
15.3946314103
 10
-1.1127804487
 20
15.3946314103
 10
-1.2249599359
 20
15.452724359
 10
-1.3541666667
 20
15.5028044872
 10
-1.5014022436
 20
15.5448717949
 10
-1.6656650641
 20
15.5789262821
 10
-1.8479567308
 20
15.6059695513
 10
-2.047275641
 20
15.6260016026
 10
-2.2636217949
 20
15.6370192308
 10
-2.4979967949
 20
15.641025641
 10
-2.4979967949
 20
15.641025641
 10
-2.734375
 20
15.6380208333
 10
-2.952724359
 20
15.6270032051
 10
-3.1510416667
 20
15.6099759615
 10
-3.3303285256
 20
15.5859375
 10
-3.4905849359
 20
15.5548878205
 10
-3.6318108974
 20
15.5168269231
 10
-3.7540064103
 20
15.4717548077
 10
-3.8571714744
 20
15.4196714744
 10
-3.9443108974
 20
15.3625801282
 10
-4.0204326923
 20
15.3004807692
 10
-4.0845352564
 20
15.2353766026
 10
-4.1376201923
 20
15.1652644231
 10
-4.1786858974
 20
15.0921474359
 10
-4.2077323718
 20
15.0140224359
 10
-4.2247596154
 20
14.9328926282
 10
-4.2307692308
 20
14.8467548077
  0
ARC
  5
80
330
1F
100
AcDbEntity
  8
0
  6
Continuous
 62
     7
100
AcDbCircle
 10
-3.9743573657
 20
18.205112508
 30
0.0
 40
1.153861850955283
100
AcDbArc
 50
90.0000798766
 51
89.9999201282
  0
LINE
  5
81
330
1F
100
AcDbEntity
  8
0
  6
Continuous
 62
     7
100
AcDbLine
 10
-3.9693489671
 20
18.9743589744
 30
0.0
 11
-3.9693509615
 21
18.9743589744
 31
0.0
  0
LWPOLYLINE
  5
82
330
1F
100
AcDbEntity
  8
0
  6
Continuous
 62
     7
100
AcDbPolyline
 90
       68
 70
   128
 43
0.0
 10
-10.1282000542
 20
3.9743589744
 10
-10.133213141
 20
3.8551682692
 10
-10.1492387821
 20
3.7409855769
 10
-10.1752804487
 20
3.6308092949
 10
-10.2123397436
 20
3.5256410256
 10
-10.2604166667
 20
3.4254807692
 10
-10.3185096154
 20
3.3303285256
 10
-10.3866185897
 20
3.2401842949
 10
-10.4657451923
 20
3.1540464744
 10
-10.5528846154
 20
3.0759214744
 10
-10.6440304487
 20
3.0078125
 10
-10.7391826923
 20
2.9507211538
 10
-10.8403445513
 20
2.9036458333
 10
-10.9445112179
 20
2.867588141
 10
-11.0536858974
 20
2.8415464744
 10
-11.1668669872
 20
2.8255208333
 10
-11.2850560897
 20
2.8205128205
 10
-11.2850560897
 20
2.8205128205
 10
-11.4032451923
 20
2.8255208333
 10
-11.5164262821
 20
2.8415464744
 10
-11.6256009615
 20
2.867588141
 10
-11.7297676282
 20
2.9046474359
 10
-11.8299278846
 20
2.9517227564
 10
-11.9250801282
 20
3.0088141026
 10
-12.015224359
 20
3.0769230769
 10
-12.1013621795
 20
3.1560496795
 10
-12.1794871795
 20
3.2421875
 10
-12.2475961538
 20
3.3333333333
 10
-12.3056891026
 20
3.4294871795
 10
-12.3527644231
 20
3.5306490385
 10
-12.3888221154
 20
3.6368189103
 10
-12.4148637821
 20
3.7479967949
 10
-12.4308894231
 20
3.8631810897
 10
-12.4358974359
 20
3.984375
 10
-12.4358974359
 20
3.984375
 10
-12.4308894231
 20
4.1005608974
 10
-12.4148637821
 20
4.2117387821
 10
-12.3878205128
 20
4.319911859
 10
-12.3497596154
 20
4.4230769231
 10
-12.3016826923
 20
4.5212339744
 10
-12.242588141
 20
4.6163862179
 10
-12.1724759615
 20
4.7065304487
 10
-12.0923477564
 20
4.7926682692
 10
-12.0042067308
 20
4.8717948718
 10
-11.9130608974
 20
4.9399038462
 10
-11.8169070513
 20
4.9969951923
 10
-11.7167467949
 20
5.0440705128
 10
-11.6125801282
 20
5.0811298077
 10
-11.5044070513
 20
5.1071714744
 10
-11.3912259615
 20
5.1231971154
 10
-11.2750400641
 20
5.1282051282
 10
-11.2750400641
 20
5.1282051282
 10
-11.1588541667
 20
5.1231971154
 10
-11.0466746795
 20
5.1071714744
 10
-10.9385016026
 20
5.0811298077
 10
-10.8353365385
 20
5.0440705128
 10
-10.7351762821
 20
4.9969951923
 10
-10.641025641
 20
4.9399038462
 10
-10.5498798077
 20
4.8717948718
 10
-10.4637419872
 20
4.7926682692
 10
-10.3846153846
 20
4.7065304487
 10
-10.3165064103
 20
4.6153846154
 10
-10.2594150641
 20
4.5202323718
 10
-10.2123397436
 20
4.4200721154
 10
-10.1752804487
 20
4.3159054487
 10
-10.1492387821
 20
4.2067307692
 10
-10.133213141
 20
4.0925480769
 10
-10.1282051282
 20
3.9743589744
  0
LWPOLYLINE
  5
83
330
1F
100
AcDbEntity
  8
0
  6
Continuous
 62
     7
100
AcDbPolyline
 90
       68
 70
   128
 43
0.0
 10
-10.5128139257
 20
3.9693509615
 10
-10.5158253205
 20
4.0494791667
 10
-10.5268429487
 20
4.1266025641
 10
-10.5438701923
 20
4.2007211538
 10
-10.5679086538
 20
4.2718349359
 10
-10.5989583333
 20
4.3389423077
 10
-10.6370192308
 20
4.4030448718
 10
-10.6820913462
 20
4.4641426282
 10
-10.7341746795
 20
4.5212339744
 10
-10.7912660256
 20
4.5733173077
 10
-10.8503605769
 20
4.6183894231
 10
-10.9134615385
 20
4.6564503205
 10
-10.9795673077
 20
4.6875
 10
-11.0476762821
 20
4.7125400641
 10
-11.1197916667
 20
4.7295673077
 10
-11.1939102564
 20
4.7405849359
 10
-11.2720352564
 20
4.7435897436
 10
-11.2720352564
 20
4.7435897436
 10
-11.351161859
 20
4.7395833333
 10
-11.4282852564
 20
4.7295673077
 10
-11.5014022436
 20
4.7115384615
 10
-11.5715144231
 20
4.6875
 10
-11.6386217949
 20
4.6554487179
 10
-11.7037259615
 20
4.6173878205
 10
-11.7648237179
 20
4.5713141026
 10
-11.8229166667
 20
4.5192307692
 10
-11.8760016026
 20
4.4621394231
 10
-11.9230769231
 20
4.4010416667
 10
-11.9621394231
 20
4.3379407051
 10
-11.9941907051
 20
4.2708333333
 10
-12.0192307692
 20
4.2017227564
 10
-12.0372596154
 20
4.1296073718
 10
-12.047275641
 20
4.0544871795
 10
-12.0512820513
 20
3.9763621795
 10
-12.0512820513
 20
3.9763621795
 10
-12.047275641
 20
3.8992387821
 10
-12.0372596154
 20
3.8251201923
 10
-12.0192307692
 20
3.7540064103
 10
-11.9941907051
 20
3.6848958333
 10
-11.9611378205
 20
3.6177884615
 10
-11.9220753205
 20
3.5546875
 10
-11.875
 20
3.4935897436
 10
-11.8209134615
 20
3.4344951923
 10
-11.7618189103
 20
3.3804086538
 10
-11.7007211538
 20
3.3343349359
 10
-11.6366185897
 20
3.2942708333
 10
-11.5695112179
 20
3.2622195513
 10
-11.500400641
 20
3.2371794872
 10
-11.4282852564
 20
3.219150641
 10
-11.3531650641
 20
3.2091346154
 10
-11.2750400641
 20
3.2051282051
 10
-11.2750400641
 20
3.2051282051
 10
-11.1979166667
 20
3.2081330128
 10
-11.1237980769
 20
3.219150641
 10
-11.0526842949
 20
3.2361778846
 10
-10.9845753205
 20
3.2612179487
 10
-10.9184695513
 20
3.2922676282
 10
-10.8553685897
 20
3.3313301282
 10
-10.7952724359
 20
3.3764022436
 10
-10.7371794872
 20
3.4294871795
 10
-10.6850961538
 20
3.4865785256
 10
-10.6390224359
 20
3.5476762821
 10
-10.6009615385
 20
3.6107772436
 10
-10.5689102564
 20
3.6768830128
 10
-10.5448717949
 20
3.7459935897
 10
-10.5268429487
 20
3.8171073718
 10
-10.5168269231
 20
3.8922275641
 10
-10.5128205128
 20
3.9693509615
  0
LWPOLYLINE
  5
84
330
1F
100
AcDbEntity
  8
0
  6
Continuous
 62
     7
100
AcDbPolyline
 90
       93
 70
   128
 43
0.0
 10
-14.5983546972
 20
5.1282051282
 10
-14.4681490385
 20
5.1241987179
 10
-14.3429487179
 20
5.1111778846
 10
-14.2217548077
 20
5.0901442308
 10
-14.1055689103
 20
5.0610977564
 10
-13.9933894231
 20
5.023036859
 10
-13.8862179487
 20
4.976963141
 10
-13.7830528846
 20
4.9228766026
 10
-13.6848958333
 20
4.859775641
 10
-13.5917467949
 20
4.7876602564
 10
-13.5046073718
 20
4.7075320513
 10
-13.4224759615
 20
4.6173878205
 10
-13.3453525641
 20
4.5192307692
 10
-13.2742387821
 20
4.4120592949
 10
-13.2081330128
 20
4.2958733974
 10
-13.148036859
 20
4.1716746795
 10
-13.0929487179
 20
4.0374599359
 10
-13.0438701923
 20
3.8922275641
 10
-13.0018028846
 20
3.733974359
 10
-12.9657451923
 20
3.5616987179
 10
-12.9366987179
 20
3.3764022436
 10
-12.913661859
 20
3.1770833333
 10
-12.8976362179
 20
2.9637419872
 10
-12.8876201923
 20
2.7373798077
 10
-12.8846153846
 20
2.4979967949
 10
-12.8846153846
 20
2.4979967949
 10
-12.8876201923
 20
2.2556089744
 10
-12.8976362179
 20
2.0272435897
 10
-12.9146634615
 20
1.812900641
 10
-12.9377003205
 20
1.6115785256
 10
-12.9677483974
 20
1.4252804487
 10
-13.0038060897
 20
1.2520032051
 10
-13.046875
 20
1.0927483974
 10
-13.0969551282
 20
0.9475160256
 10
-13.1520432692
 20
0.8133012821
 10
-13.2121394231
 20
0.6881009615
 10
-13.2762419872
 20
0.5729166667
 10
-13.3453525641
 20
0.4657451923
 10
-13.4194711538
 20
0.3685897436
 10
-13.4975961538
 20
0.2804487179
 10
-13.5797275641
 20
0.2023237179
 10
-13.6668669872
 20
0.1322115385
 10
-13.7590144231
 20
0.0711137821
 10
-13.8581730769
 20
0.0180288462
 10
-13.9623397436
 20
-0.0260416667
 10
-14.0725160256
 20
-0.0631009615
 10
-14.1887019231
 20
-0.0911458333
 10
-14.3108974359
 20
-0.1121794872
 10
-14.4381009615
 20
-0.1241987179
 10
-14.5723157051
 20
-0.1282051282
 10
-14.5723157051
 20
-0.1282051282
 10
-14.7065304487
 20
-0.1241987179
 10
-14.8347355769
 20
-0.1121794872
 10
-14.9569310897
 20
-0.0911458333
 10
-15.0751201923
 20
-0.0631009615
 10
-15.1862980769
 20
-0.0260416667
 10
-15.2934695513
 20
0.0190304487
 10
-15.3946314103
 20
0.0731169872
 10
-15.4897836538
 20
0.1342147436
 10
-15.5799278846
 20
0.2043269231
 10
-15.6650641026
 20
0.2824519231
 10
-15.7461939103
 20
0.3685897436
 10
-15.8213141026
 20
0.4637419872
 10
-15.8914262821
 20
0.5679086538
 10
-15.9565304487
 20
0.680088141
 10
-16.0166266026
 20
0.8012820513
 10
-16.0717147436
 20
0.9304887821
 10
-16.1207932692
 20
1.070713141
 10
-16.1638621795
 20
1.2259615385
 10
-16.1999198718
 20
1.3942307692
 10
-16.2299679487
 20
1.5775240385
 10
-16.2520032051
 20
1.7748397436
 10
-16.2690304487
 20
1.9861778846
 10
-16.2790464744
 20
2.2115384615
 10
-16.2820512821
 20
2.4509214744
 10
-16.2820512821
 20
2.4509214744
 10
-16.2760416667
 20
2.7834535256
 10
-16.2560096154
 20
3.0919471154
 10
-16.2239583333
 20
3.3774038462
 10
-16.1798878205
 20
3.6388221154
 10
-16.1217948718
 20
3.8762019231
 10
-16.0506810897
 20
4.0905448718
 10
-15.9675480769
 20
4.280849359
 10
-15.8713942308
 20
4.4481169872
 10
-15.8713942308
 20
4.4481169872
 10
-15.7512019231
 20
4.6073717949
 10
-15.6199919872
 20
4.7455929487
 10
-15.4777644231
 20
4.8627804487
 10
-15.3245192308
 20
4.9579326923
 10
-15.1592548077
 20
5.0330528846
 10
-14.983974359
 20
5.0861378205
 10
-14.7966746795
 20
5.1171875
 10
-14.5983573718
 20
5.1282051282
  0
LWPOLYLINE
  5
85
330
1F
100
AcDbEntity
  8
0
  6
Continuous
 62
     7
100
AcDbPolyline
 90
       73
 70
   128
 43
0.0
 10
-14.5763158798
 20
4.2307692308
 10
-14.6935096154
 20
4.2207532051
 10
-14.8026842949
 20
4.1917067308
 10
-14.905849359
 20
4.1436298077
 10
-15.0020032051
 20
4.0765224359
 10
-15.0470753205
 20
4.0344551282
 10
-15.0901442308
 20
3.9853766026
 10
-15.1292067308
 20
3.929286859
 10
-15.1662660256
 20
3.8661858974
 10
-15.2003205128
 20
3.7960737179
 10
-15.2323717949
 20
3.7189503205
 10
-15.2604166667
 20
3.6358173077
 10
-15.2864583333
 20
3.5446714744
 10
-15.3094951923
 20
3.4445112179
 10
-15.3295272436
 20
3.3343349359
 10
-15.3465544872
 20
3.2121394231
 10
-15.3605769231
 20
3.0799278846
 10
-15.3705929487
 20
2.9366987179
 10
-15.3786057692
 20
2.7824519231
 10
-15.3826121795
 20
2.6171875
 10
-15.3846153846
 20
2.4409054487
 10
-15.3846153846
 20
2.4409054487
 10
-15.3806089744
 20
2.2125400641
 10
-15.3705929487
 20
2.0032051282
 10
-15.3525641026
 20
1.8118990385
 10
-15.328525641
 20
1.6386217949
 10
-15.296474359
 20
1.484375
 10
-15.257411859
 20
1.3481570513
 10
-15.2123397436
 20
1.2299679487
 10
-15.1592548077
 20
1.1308092949
 10
-15.101161859
 20
1.0456730769
 10
-15.0390625
 20
0.9725560897
 10
-14.9719551282
 20
0.9104567308
 10
-14.9018429487
 20
0.859375
 10
-14.8267227564
 20
0.8203125
 10
-14.7475961538
 20
0.7922676282
 10
-14.6634615385
 20
0.7752403846
 10
-14.5763221154
 20
0.7692307692
 10
-14.5763221154
 20
0.7692307692
 10
-14.4921875
 20
0.7742387821
 10
-14.4130608974
 20
0.7902644231
 10
-14.3379407051
 20
0.8173076923
 10
-14.2668269231
 20
0.8553685897
 10
-14.2007211538
 20
0.9034455128
 10
-14.1386217949
 20
0.9625400641
 10
-14.0815304487
 20
1.0326522436
 10
-14.0284455128
 20
1.1127804487
 10
-14.0284455128
 20
1.1127804487
 10
-13.9703525641
 20
1.2249599359
 10
-13.9202724359
 20
1.3541666667
 10
-13.8782051282
 20
1.5014022436
 10
-13.844150641
 20
1.6656650641
 10
-13.8171073718
 20
1.8479567308
 10
-13.7970753205
 20
2.047275641
 10
-13.7860576923
 20
2.2636217949
 10
-13.7820512821
 20
2.4979967949
 10
-13.7820512821
 20
2.4979967949
 10
-13.7850560897
 20
2.734375
 10
-13.7960737179
 20
2.952724359
 10
-13.8131009615
 20
3.1510416667
 10
-13.8371394231
 20
3.3303285256
 10
-13.8681891026
 20
3.4905849359
 10
-13.90625
 20
3.6318108974
 10
-13.9513221154
 20
3.7540064103
 10
-14.0034054487
 20
3.8571714744
 10
-14.0604967949
 20
3.9443108974
 10
-14.1225961538
 20
4.0204326923
 10
-14.1877003205
 20
4.0845352564
 10
-14.2578125
 20
4.1376201923
 10
-14.3309294872
 20
4.1786858974
 10
-14.4090544872
 20
4.2077323718
 10
-14.4901842949
 20
4.2247596154
 10
-14.5763221154
 20
4.2307692308
  0
LWPOLYLINE
  5
86
330
1F
100
AcDbEntity
  8
0
  6
Continuous
 62
     7
100
AcDbPolyline
 90
       70
 70
   128
 43
0.0
 10
-18.505603075
 20
-0.1282051282
 10
-19.3008814103
 20
0.2724358974
 10
-19.3008814103
 20
0.2724358974
 10
-18.4294871795
 20
1.9871794872
 10
-18.4294871795
 20
1.9871794872
 10
-18.5837339744
 20
1.9941907051
 10
-18.7309695513
 20
2.015224359
 10
-18.8731971154
 20
2.0512820513
 10
-19.0094150641
 20
2.1003605769
 10
-19.1396233974
 20
2.164463141
 10
-19.2648237179
 20
2.242588141
 10
-19.3830128205
 20
2.3357371795
 10
-19.4961939103
 20
2.4419070513
 10
-19.5993589744
 20
2.5590945513
 10
-19.6885016026
 20
2.6822916667
 10
-19.7646233974
 20
2.8135016026
 10
-19.8257211538
 20
2.9507211538
 10
-19.8737980769
 20
3.0949519231
 10
-19.9088541667
 20
3.2461939103
 10
-19.9288862179
 20
3.4044471154
 10
-19.9358974359
 20
3.5697115385
 10
-19.9358974359
 20
3.5697115385
 10
-19.9288862179
 20
3.7299679487
 10
-19.9078525641
 20
3.8842147436
 10
-19.8727964744
 20
4.0314503205
 10
-19.8237179487
 20
4.1736778846
 10
-19.7606169872
 20
4.3088942308
 10
-19.6834935897
 20
4.437099359
 10
-19.5923477564
 20
4.5602964744
 10
-19.4871794872
 20
4.6764823718
 10
-19.3719951923
 20
4.7826522436
 10
-19.2518028846
 20
4.8737980769
 10
-19.1256009615
 20
4.9519230769
 10
-18.9933894231
 20
5.0150240385
 10
-18.8551682692
 20
5.0651041667
 10
-18.7109375
 20
5.1001602564
 10
-18.5606971154
 20
5.1211939103
 10
-18.4054487179
 20
5.1282051282
 10
-18.4054487179
 20
5.1282051282
 10
-18.2431891026
 20
5.1211939103
 10
-18.0879407051
 20
5.0981570513
 10
-17.9397035256
 20
5.0610977564
 10
-17.7974759615
 20
5.0100160256
 10
-17.6632612179
 20
4.9429086538
 10
-17.5350560897
 20
4.8617788462
 10
-17.4148637821
 20
4.765625
 10
-17.3006810897
 20
4.6544471154
 10
-17.1975160256
 20
4.5332532051
 10
-17.1073717949
 20
4.4080528846
 10
-17.03125
 20
4.2788461538
 10
-16.969150641
 20
4.1436298077
 10
-16.9210737179
 20
4.0054086538
 10
-16.8870192308
 20
3.8621794872
 10
-16.8659855769
 20
3.7149439103
 10
-16.858974359
 20
3.5627003205
 10
-16.858974359
 20
3.5627003205
 10
-16.8629807692
 20
3.4465144231
 10
-16.8760016026
 20
3.3293269231
 10
-16.8970352564
 20
3.2131410256
 10
-16.9260817308
 20
3.0959535256
 10
-16.9451121795
 20
3.0328525641
 10
-16.9701522436
 20
2.9627403846
 10
-17.0012019231
 20
2.8836137821
 10
-17.0372596154
 20
2.796474359
 10
-17.0783253205
 20
2.7023237179
 10
-17.125400641
 20
2.6001602564
 10
-17.1774839744
 20
2.4889823718
 10
-17.2355769231
 20
2.3707932692
 10
-17.2355769231
 20
2.3707932692
 10
-18.5056089744
 20
-0.1282051282
  0
LWPOLYLINE
  5
87
330
1F
100
AcDbEntity
  8
0
  6
Continuous
 62
     7
100
AcDbPolyline
 90
       36
 70
   128
 43
0.0
 10
-18.3854103088
 20
2.8205128205
 10
-18.2572115385
 20
2.8335336538
 10
-18.1400240385
 20
2.8705929487
 10
-18.0338541667
 20
2.9336939103
 10
-17.9377003205
 20
3.0218349359
 10
-17.8585737179
 20
3.1280048077
 10
-17.8014823718
 20
3.2461939103
 10
-17.7674278846
 20
3.3764022436
 10
-17.7564102564
 20
3.5186298077
 10
-17.7564102564
 20
3.5186298077
 10
-17.7684294872
 20
3.6638621795
 10
-17.8034855769
 20
3.7970753205
 10
-17.8625801282
 20
3.9182692308
 10
-17.945713141
 20
4.0264423077
 10
-18.0448717949
 20
4.1155849359
 10
-18.1520432692
 20
4.1796875
 10
-18.2662259615
 20
4.2177483974
 10
-18.3884214744
 20
4.2307692308
 10
-18.3884214744
 20
4.2307692308
 10
-18.5176282051
 20
4.2177483974
 10
-18.6368189103
 20
4.1796875
 10
-18.7469951923
 20
4.1165865385
 10
-18.8471554487
 20
4.0284455128
 10
-18.9312900641
 20
3.9202724359
 10
-18.9903846154
 20
3.8000801282
 10
-19.0264423077
 20
3.6668669872
 10
-19.0384615385
 20
3.5216346154
 10
-19.0384615385
 20
3.5216346154
 10
-19.0264423077
 20
3.3784054487
 10
-18.9923878205
 20
3.2471955128
 10
-18.9332932692
 20
3.1280048077
 10
-18.8521634615
 20
3.0218349359
 10
-18.7530048077
 20
2.9336939103
 10
-18.6428285256
 20
2.8705929487
 10
-18.5196314103
 20
2.8335336538
 10
-18.3854166667
 20
2.8205128205
  0
LWPOLYLINE
  5
88
330
1F
100
AcDbEntity
  8
0
  6
Continuous
 62
     7
100
AcDbPolyline
 90
        8
 70
   128
 43
0.0
 10
-22.6282030344
 20
2.2435897436
 10
-20.8974358974
 20
2.2435897436
 10
-20.8974358974
 20
2.2435897436
 10
-20.8974358974
 20
1.4102564103
 10
-20.8974358974
 20
1.4102564103
 10
-22.6282051282
 20
1.4102564103
 10
-22.6282051282
 20
1.4102564103
 10
-22.6282051282
 20
2.2435897436
  0
LWPOLYLINE
  5
89
330
1F
100
AcDbEntity
  8
0
  6
Continuous
 62
     7
100
AcDbPolyline
 90
       12
 70
   128
 43
0.0
 10
-4.9999989569
 20
-22.2846554487
 10
-5.0
 20
-20.8974358974
 10
-5.0
 20
-20.8974358974
 10
0.0
 20
-20.8974358974
 10
0.0
 20
-20.8974358974
 10
0.0
 20
-21.7948717949
 10
0.0
 20
-21.7948717949
 10
-4.1666666667
 20
-21.7948717949
 10
-4.1666666667
 20
-21.7948717949
 10
-4.1666666667
 20
-22.8205128205
 10
-4.1666666667
 20
-22.8205128205
 10
-5.0
 20
-22.2846554487
  0
LWPOLYLINE
  5
8A
330
1F
100
AcDbEntity
  8
0
  6
Continuous
 62
     7
100
AcDbPolyline
 90
       96
 70
   128
 43
0.0
 10
-2.6923064142
 20
-16.5825320513
 10
-2.5761217949
 20
-16.4282852564
 10
-2.444911859
 20
-16.2920673077
 10
-2.2976762821
 20
-16.1748798077
 10
-2.1354166667
 20
-16.0757211538
 10
-1.9621394231
 20
-15.9975961538
 10
-1.7818509615
 20
-15.9425080128
 10
-1.5945512821
 20
-15.9084535256
 10
-1.4002403846
 20
-15.8974358974
 10
-1.4002403846
 20
-15.8974358974
 10
-1.1899038462
 20
-15.9104567308
 10
-0.9865785256
 20
-15.9505208333
 10
-0.7922676282
 20
-16.0166266026
 10
-0.6049679487
 20
-16.1087740385
 10
-0.4336939103
 20
-16.2239583333
 10
-0.2854567308
 20
-16.3561698718
 10
-0.1592548077
 20
-16.507411859
 10
-0.0560897436
 20
-16.6756810897
 10
-0.0130208333
 20
-16.7678285256
 10
0.0240384615
 20
-16.8659855769
 10
0.0560897436
 20
-16.9701522436
 10
0.0821314103
 20
-17.0813301282
 10
0.1021634615
 20
-17.1975160256
 10
0.1161858974
 20
-17.320713141
 10
0.1252003205
 20
-17.4489182692
 10
0.1282051282
 20
-17.5841346154
 10
0.1282051282
 20
-17.5841346154
 10
0.1252003205
 20
-17.7283653846
 10
0.1171875
 20
-17.8655849359
 10
0.1031650641
 20
-17.9947916667
 10
0.0841346154
 20
-18.1159855769
 10
0.0590945513
 20
-18.2301682692
 10
0.0280448718
 20
-18.336338141
 10
-0.0080128205
 20
-18.4344951923
 10
-0.0490785256
 20
-18.5256410256
 10
-0.1492387821
 20
-18.6919070513
 10
-0.2724358974
 20
-18.8401442308
 10
-0.4186698718
 20
-18.9713541667
 10
-0.5869391026
 20
-19.0845352564
 10
-0.7732371795
 20
-19.1766826923
 10
-0.9705528846
 20
-19.2427884615
 10
-1.1798878205
 20
-19.2818509615
 10
-1.4002403846
 20
-19.2948717949
 10
-1.4002403846
 20
-19.2948717949
 10
-1.5925480769
 20
-19.2848557692
 10
-1.7758413462
 20
-19.2528044872
 10
-1.9501201923
 20
-19.2007211538
 10
-2.1153846154
 20
-19.1266025641
 10
-2.2726362179
 20
-19.0324519231
 10
-2.421875
 20
-18.9162660256
 10
-2.5610977564
 20
-18.7800480769
 10
-2.6923076923
 20
-18.6227964744
 10
-2.6923076923
 20
-18.6227964744
 10
-2.8084935897
 20
-18.7199519231
 10
-2.9286858974
 20
-18.8040865385
 10
-3.0528846154
 20
-18.8752003205
 10
-3.180088141
 20
-18.9332932692
 10
-3.3112980769
 20
-18.9793669872
 10
-3.4465144231
 20
-19.0124198718
 10
-3.5847355769
 20
-19.0314503205
 10
-3.726963141
 20
-19.0384615385
 10
-3.726963141
 20
-19.0384615385
 10
-3.9192708333
 20
-19.0274439103
 10
-4.1035657051
 20
-18.9933894231
 10
-4.2778445513
 20
-18.9362980769
 10
-4.4441105769
 20
-18.8561698718
 10
-4.5973557692
 20
-18.7560096154
 10
-4.7325721154
 20
-18.6378205128
 10
-4.8487580128
 20
-18.5016025641
 10
-4.9479166667
 20
-18.3463541667
 10
-5.0270432692
 20
-18.1760817308
 10
-5.0831330128
 20
-17.9937900641
 10
-5.1171875
 20
-17.7974759615
 10
-5.1282051282
 20
-17.5891426282
 10
-5.1282051282
 20
-17.5891426282
 10
-5.1171875
 20
-17.3838141026
 10
-5.0831330128
 20
-17.1915064103
 10
-5.0260416667
 20
-17.0122195513
 10
-4.9459134615
 20
-16.8449519231
 10
-4.8457532051
 20
-16.6927083333
 10
-4.7265625
 20
-16.5584935897
 10
-4.5873397436
 20
-16.4403044872
 10
-4.430088141
 20
-16.3391426282
 10
-4.2598157051
 20
-16.2580128205
 10
-4.0845352564
 20
-16.1999198718
 10
-3.9012419872
 20
-16.1658653846
 10
-3.7129407051
 20
-16.1538461538
 10
-3.7129407051
 20
-16.1538461538
 10
-3.5797275641
 20
-16.1598557692
 10
-3.4525240385
 20
-16.1768830128
 10
-3.3293269231
 20
-16.2059294872
 10
-3.2111378205
 20
-16.2459935897
 10
-3.0919471154
 20
-16.3020833333
 10
-2.9657451923
 20
-16.3762019231
 10
-2.8325320513
 20
-16.4703525641
 10
-2.6923076923
 20
-16.5825320513
  0
LWPOLYLINE
  5
8B
330
1F
100
AcDbEntity
  8
0
  6
Continuous
 62
     7
100
AcDbPolyline
 90
       36
 70
   128
 43
0.0
 10
-4.2307674885
 20
-17.6111778846
 10
-4.2207532051
 20
-17.7213541667
 10
-4.1907051282
 20
-17.8225160256
 10
-4.140625
 20
-17.9116586538
 10
-4.0705128205
 20
-17.991786859
 10
-3.9853766026
 20
-18.0568910256
 10
-3.8892227564
 20
-18.1039663462
 10
-3.7810496795
 20
-18.1320112179
 10
-3.6628605769
 20
-18.141025641
 10
-3.6628605769
 20
-18.141025641
 10
-3.5436698718
 20
-18.1310096154
 10
-3.4334935897
 20
-18.101963141
 10
-3.3343349359
 20
-18.0518830128
 10
-3.2451923077
 20
-17.9827724359
 10
-3.1720753205
 20
-17.8996394231
 10
-3.1189903846
 20
-17.8074919872
 10
-3.0879407051
 20
-17.7053285256
 10
-3.0769230769
 20
-17.594150641
 10
-3.0769230769
 20
-17.594150641
 10
-3.0869391026
 20
-17.4809695513
 10
-3.1179887821
 20
-17.3778044872
 10
-3.1690705128
 20
-17.2856570513
 10
-3.2411858974
 20
-17.203525641
 10
-3.3303285256
 20
-17.1374198718
 10
-3.4314903846
 20
-17.0893429487
 10
-3.5446714744
 20
-17.0612980769
 10
-3.6698717949
 20
-17.0512820513
 10
-3.6698717949
 20
-17.0512820513
 10
-3.7880608974
 20
-17.0612980769
 10
-3.8952323718
 20
-17.0903445513
 10
-3.9903846154
 20
-17.1384214744
 10
-4.0745192308
 20
-17.2055288462
 10
-4.1426282051
 20
-17.288661859
 10
-4.1917067308
 20
-17.3838141026
 10
-4.2207532051
 20
-17.4919871795
 10
-4.2307692308
 20
-17.6111778846
  0
LWPOLYLINE
  5
8C
330
1F
100
AcDbEntity
  8
0
  6
Continuous
 62
     7
100
AcDbPolyline
 90
       68
 70
   128
 43
0.0
 10
-2.1794866771
 20
-17.5821314103
 10
-2.1764823718
 20
-17.6662660256
 10
-2.1664663462
 20
-17.7473958333
 10
-2.1504407051
 20
-17.8255208333
 10
-2.1284054487
 20
-17.8996394231
 10
-2.0993589744
 20
-17.9697516026
 10
-2.0633012821
 20
-18.0378605769
 10
-2.0212339744
 20
-18.101963141
 10
-1.9731570513
 20
-18.1620592949
 10
-1.9200721154
 20
-18.2171474359
 10
-1.8649839744
 20
-18.265224359
 10
-1.8068910256
 20
-18.3052884615
 10
-1.7467948718
 20
-18.3383413462
 10
-1.6846955128
 20
-18.3643830128
 10
-1.6195913462
 20
-18.382411859
 10
-1.5514823718
 20
-18.3934294872
 10
-1.4813701923
 20
-18.3974358974
 10
-1.4813701923
 20
-18.3974358974
 10
-1.4082532051
 20
-18.3944310897
 10
-1.3371394231
 20
-18.3834134615
 10
-1.2700320513
 20
-18.3663862179
 10
-1.2049278846
 20
-18.3423477564
 10
-1.1438301282
 20
-18.3102964744
 10
-1.0847355769
 20
-18.2722355769
 10
-1.0286458333
 20
-18.2271634615
 10
-0.9755608974
 20
-18.1750801282
 10
-0.9274839744
 20
-18.1179887821
 10
-0.8854166667
 20
-18.0558894231
 10
-0.8493589744
 20
-17.9897836538
 10
-0.8213141026
 20
-17.9186698718
 10
-0.7982772436
 20
-17.8435496795
 10
-0.7822516026
 20
-17.7644230769
 10
-0.7722355769
 20
-17.6812900641
 10
-0.7692307692
 20
-17.5931490385
 10
-0.7692307692
 20
-17.5931490385
 10
-0.7722355769
 20
-17.5040064103
 10
-0.78125
 20
-17.4198717949
 10
-0.7962740385
 20
-17.3397435897
 10
-0.8173076923
 20
-17.2646233974
 10
-0.8443509615
 20
-17.1945112179
 10
-0.8784054487
 20
-17.1284054487
 10
-0.9174679487
 20
-17.0673076923
 10
-0.9625400641
 20
-17.0112179487
 10
-1.0126201923
 20
-16.9601362179
 10
-1.0667067308
 20
-16.9170673077
 10
-1.1237980769
 20
-16.8790064103
 10
-1.1838942308
 20
-16.8489583333
 10
-1.2479967949
 20
-16.8249198718
 10
-1.3161057692
 20
-16.8088942308
 10
-1.3872195513
 20
-16.7978766026
 10
-1.461338141
 20
-16.7948717949
 10
-1.461338141
 20
-16.7948717949
 10
-1.5364583333
 20
-16.7988782051
 10
-1.6075721154
 20
-16.8088942308
 10
-1.6766826923
 20
-16.8269230769
 10
-1.741786859
 20
-16.8509615385
 10
-1.8048878205
 20
-16.8830128205
 10
-1.8639823718
 20
-16.9210737179
 10
-1.9200721154
 20
-16.9671474359
 10
-1.9731570513
 20
-17.0192307692
 10
-2.0212339744
 20
-17.0773237179
 10
-2.0633012821
 20
-17.1394230769
 10
-2.0993589744
 20
-17.2045272436
 10
-2.1284054487
 20
-17.2726362179
 10
-2.1504407051
 20
-17.3447516026
 10
-2.1664663462
 20
-17.4208733974
 10
-2.1764823718
 20
-17.5
 10
-2.1794871795
 20
-17.5821314103
  0
LWPOLYLINE
  5
8D
330
1F
100
AcDbEntity
  8
0
  6
Continuous
 62
     7
100
AcDbPolyline
 90
       93
 70
   128
 43
0.0
 10
-5.1282048225
 20
-13.7009214744
 10
-5.1241987179
 20
-13.570713141
 10
-5.1111778846
 20
-13.4455128205
 10
-5.0901442308
 20
-13.3243189103
 10
-5.0610977564
 20
-13.2081330128
 10
-5.023036859
 20
-13.0959535256
 10
-4.976963141
 20
-12.9887820513
 10
-4.921875
 20
-12.8856169872
 10
-4.8587740385
 20
-12.7874599359
 10
-4.7876602564
 20
-12.6943108974
 10
-4.7065304487
 20
-12.6071714744
 10
-4.6173878205
 20
-12.5250400641
 10
-4.5192307692
 20
-12.4479166667
 10
-4.4120592949
 20
-12.3768028846
 10
-4.2958733974
 20
-12.3106971154
 10
-4.1716746795
 20
-12.2506009615
 10
-4.0374599359
 20
-12.1955128205
 10
-3.8922275641
 20
-12.1464342949
 10
-3.733974359
 20
-12.1043669872
 10
-3.5616987179
 20
-12.0683092949
 10
-3.3764022436
 20
-12.0392628205
 10
-3.1770833333
 20
-12.0162259615
 10
-2.9637419872
 20
-12.0002003205
 10
-2.7373798077
 20
-11.9901842949
 10
-2.4979967949
 20
-11.9871794872
 10
-2.4979967949
 20
-11.9871794872
 10
-2.2556089744
 20
-11.9901842949
 10
-2.0272435897
 20
-12.0002003205
 10
-1.812900641
 20
-12.0172275641
 10
-1.6115785256
 20
-12.0402644231
 10
-1.4252804487
 20
-12.0703125
 10
-1.2520032051
 20
-12.1063701923
 10
-1.0917467949
 20
-12.1494391026
 10
-0.9465144231
 20
-12.1995192308
 10
-0.8122996795
 20
-12.2546073718
 10
-0.6881009615
 20
-12.3147035256
 10
-0.5719150641
 20
-12.3788060897
 10
-0.4657451923
 20
-12.4479166667
 10
-0.3685897436
 20
-12.5220352564
 10
-0.2804487179
 20
-12.6001602564
 10
-0.2023237179
 20
-12.6822916667
 10
-0.1322115385
 20
-12.7694310897
 10
-0.0711137821
 20
-12.8615785256
 10
-0.0180288462
 20
-12.9607371795
 10
0.0260416667
 20
-13.0649038462
 10
0.0631009615
 20
-13.1750801282
 10
0.0911458333
 20
-13.2912660256
 10
0.1121794872
 20
-13.4134615385
 10
0.1241987179
 20
-13.5406650641
 10
0.1282051282
 20
-13.6748798077
 10
0.1282051282
 20
-13.6748798077
 10
0.1241987179
 20
-13.8090945513
 10
0.1121794872
 20
-13.9372996795
 10
0.0911458333
 20
-14.0594951923
 10
0.0631009615
 20
-14.1776842949
 10
0.0260416667
 20
-14.2888621795
 10
-0.0190304487
 20
-14.3960336538
 10
-0.0721153846
 20
-14.4971955128
 10
-0.133213141
 20
-14.5923477564
 10
-0.2033253205
 20
-14.6824919872
 10
-0.2814503205
 20
-14.7676282051
 10
-0.3685897436
 20
-14.8487580128
 10
-0.4637419872
 20
-14.9238782051
 10
-0.5669070513
 20
-14.9939903846
 10
-0.6790865385
 20
-15.0590945513
 10
-0.8002804487
 20
-15.1191907051
 10
-0.9294871795
 20
-15.1742788462
 10
-1.070713141
 20
-15.2233573718
 10
-1.2249599359
 20
-15.2664262821
 10
-1.3942307692
 20
-15.3024839744
 10
-1.5775240385
 20
-15.3325320513
 10
-1.7748397436
 20
-15.3545673077
 10
-1.9861778846
 20
-15.3715945513
 10
-2.2115384615
 20
-15.3816105769
 10
-2.4509214744
 20
-15.3846153846
 10
-2.4509214744
 20
-15.3846153846
 10
-2.7834535256
 20
-15.3786057692
 10
-3.0919471154
 20
-15.3585737179
 10
-3.3774038462
 20
-15.3265224359
 10
-3.6388221154
 20
-15.2824519231
 10
-3.8762019231
 20
-15.2243589744
 10
-4.0905448718
 20
-15.1532451923
 10
-4.280849359
 20
-15.0701121795
 10
-4.4481169872
 20
-14.9739583333
 10
-4.4481169872
 20
-14.9739583333
 10
-4.6073717949
 20
-14.8537660256
 10
-4.7455929487
 20
-14.7225560897
 10
-4.8627804487
 20
-14.5803285256
 10
-4.9579326923
 20
-14.4270833333
 10
-5.0330528846
 20
-14.2618189103
 10
-5.0861378205
 20
-14.0865384615
 10
-5.1171875
 20
-13.8992387821
 10
-5.1282051282
 20
-13.7009214744
  0
LWPOLYLINE
  5
8E
330
1F
100
AcDbEntity
  8
0
  6
Continuous
 62
     7
100
AcDbPolyline
 90
       73
 70
   128
 43
0.0
 10
-4.2307674885
 20
-13.6788862179
 10
-4.2207532051
 20
-13.7960737179
 10
-4.1917067308
 20
-13.9052483974
 10
-4.1436298077
 20
-14.0084134615
 10
-4.0755208333
 20
-14.1045673077
 10
-4.0334535256
 20
-14.1496394231
 10
-3.984375
 20
-14.1927083333
 10
-3.9282852564
 20
-14.2317708333
 10
-3.8651842949
 20
-14.2688301282
 10
-3.7950721154
 20
-14.3028846154
 10
-3.7189503205
 20
-14.3349358974
 10
-3.6348157051
 20
-14.3629807692
 10
-3.5436698718
 20
-14.3890224359
 10
-3.4445112179
 20
-14.4120592949
 10
-3.3333333333
 20
-14.4320913462
 10
-3.2121394231
 20
-14.4491185897
 10
-3.0799278846
 20
-14.4631410256
 10
-2.9366987179
 20
-14.4731570513
 10
-2.7824519231
 20
-14.4811698718
 10
-2.6171875
 20
-14.4851762821
 10
-2.4409054487
 20
-14.4871794872
 10
-2.4409054487
 20
-14.4871794872
 10
-2.2125400641
 20
-14.4831730769
 10
-2.0032051282
 20
-14.4731570513
 10
-1.8118990385
 20
-14.4551282051
 10
-1.6396233974
 20
-14.4310897436
 10
-1.484375
 20
-14.3990384615
 10
-1.3481570513
 20
-14.3599759615
 10
-1.2299679487
 20
-14.3149038462
 10
-1.1308092949
 20
-14.2618189103
 10
-1.0456730769
 20
-14.2037259615
 10
-0.9725560897
 20
-14.1416266026
 10
-0.9104567308
 20
-14.0745192308
 10
-0.859375
 20
-14.0044070513
 10
-0.8203125
 20
-13.929286859
 10
-0.7922676282
 20
-13.8501602564
 10
-0.7752403846
 20
-13.766025641
 10
-0.7692307692
 20
-13.6788862179
 10
-0.7692307692
 20
-13.6788862179
 10
-0.7742387821
 20
-13.5947516026
 10
-0.7902644231
 20
-13.515625
 10
-0.8173076923
 20
-13.4405048077
 10
-0.8553685897
 20
-13.3693910256
 10
-0.9034455128
 20
-13.3032852564
 10
-0.9625400641
 20
-13.2411858974
 10
-1.0326522436
 20
-13.1840945513
 10
-1.1127804487
 20
-13.1310096154
 10
-1.1127804487
 20
-13.1310096154
 10
-1.2249599359
 20
-13.0729166667
 10
-1.3541666667
 20
-13.0228365385
 10
-1.5014022436
 20
-12.9807692308
 10
-1.6656650641
 20
-12.9467147436
 10
-1.8479567308
 20
-12.9196714744
 10
-2.047275641
 20
-12.8996394231
 10
-2.2636217949
 20
-12.8886217949
 10
-2.4979967949
 20
-12.8846153846
 10
-2.4979967949
 20
-12.8846153846
 10
-2.734375
 20
-12.8876201923
 10
-2.952724359
 20
-12.8986378205
 10
-3.1510416667
 20
-12.9156650641
 10
-3.3303285256
 20
-12.9397035256
 10
-3.4905849359
 20
-12.9707532051
 10
-3.6318108974
 20
-13.0088141026
 10
-3.7540064103
 20
-13.0538862179
 10
-3.8571714744
 20
-13.1059695513
 10
-3.9443108974
 20
-13.1630608974
 10
-4.0204326923
 20
-13.2251602564
 10
-4.0845352564
 20
-13.2902644231
 10
-4.1376201923
 20
-13.3603766026
 10
-4.1786858974
 20
-13.4334935897
 10
-4.2077323718
 20
-13.5116185897
 10
-4.2247596154
 20
-13.5927483974
 10
-4.2307692308
 20
-13.6788862179
  0
ARC
  5
8F
330
1F
100
AcDbEntity
  8
0
  6
Continuous
 62
     7
100
AcDbCircle
 10
-3.9743573658
 20
-10.3205285176
 30
0.0
 40
1.153861850899494
100
AcDbArc
 50
90.0000798745
 51
89.9999201262
  0
LINE
  5
90
330
1F
100
AcDbEntity
  8
0
  6
Continuous
 62
     7
100
AcDbLine
 10
-3.9693489671
 20
-9.5512820513
 30
0.0
 11
-3.9693509615
 21
-9.5512820513
 31
0.0
  0
LWPOLYLINE
  5
91
330
1F
100
AcDbEntity
  8
0
  6
Continuous
 62
     7
100
AcDbPolyline
 90
       68
 70
   128
 43
0.0
 10
21.2179422379
 20
3.9743589744
 10
21.2129407051
 20
3.8551682692
 10
21.1969150641
 20
3.7409855769
 10
21.1708733974
 20
3.6308092949
 10
21.1338141026
 20
3.5256410256
 10
21.0857371795
 20
3.4254807692
 10
21.0276442308
 20
3.3303285256
 10
20.9595352564
 20
3.2401842949
 10
20.8804086538
 20
3.1540464744
 10
20.7932692308
 20
3.0759214744
 10
20.7021233974
 20
3.0078125
 10
20.6069711538
 20
2.9507211538
 10
20.5058092949
 20
2.9036458333
 10
20.4016426282
 20
2.867588141
 10
20.2924679487
 20
2.8415464744
 10
20.179286859
 20
2.8255208333
 10
20.0610977564
 20
2.8205128205
 10
20.0610977564
 20
2.8205128205
 10
19.9429086538
 20
2.8255208333
 10
19.8297275641
 20
2.8415464744
 10
19.7205528846
 20
2.867588141
 10
19.6163862179
 20
2.9046474359
 10
19.5162259615
 20
2.9517227564
 10
19.4210737179
 20
3.0088141026
 10
19.3309294872
 20
3.0769230769
 10
19.2447916667
 20
3.1560496795
 10
19.1666666667
 20
3.2421875
 10
19.0985576923
 20
3.3333333333
 10
19.0404647436
 20
3.4294871795
 10
18.9933894231
 20
3.5306490385
 10
18.9573317308
 20
3.6368189103
 10
18.9312900641
 20
3.7479967949
 10
18.9152644231
 20
3.8631810897
 10
18.9102564103
 20
3.984375
 10
18.9102564103
 20
3.984375
 10
18.9152644231
 20
4.1005608974
 10
18.9312900641
 20
4.2117387821
 10
18.9583333333
 20
4.319911859
 10
18.9963942308
 20
4.4230769231
 10
19.0444711538
 20
4.5212339744
 10
19.1035657051
 20
4.6163862179
 10
19.1736778846
 20
4.7065304487
 10
19.2538060897
 20
4.7926682692
 10
19.3419471154
 20
4.8717948718
 10
19.4330929487
 20
4.9399038462
 10
19.5292467949
 20
4.9969951923
 10
19.6294070513
 20
5.0440705128
 10
19.7335737179
 20
5.0811298077
 10
19.8417467949
 20
5.1071714744
 10
19.9549278846
 20
5.1231971154
 10
20.0711137821
 20
5.1282051282
 10
20.0711137821
 20
5.1282051282
 10
20.1872996795
 20
5.1231971154
 10
20.2994791667
 20
5.1071714744
 10
20.4076522436
 20
5.0811298077
 10
20.5108173077
 20
5.0440705128
 10
20.6109775641
 20
4.9969951923
 10
20.7051282051
 20
4.9399038462
 10
20.7962740385
 20
4.8717948718
 10
20.882411859
 20
4.7926682692
 10
20.9615384615
 20
4.7065304487
 10
21.0296474359
 20
4.6153846154
 10
21.0867387821
 20
4.5202323718
 10
21.1338141026
 20
4.4200721154
 10
21.1708733974
 20
4.3159054487
 10
21.1969150641
 20
4.2067307692
 10
21.2129407051
 20
4.0925480769
 10
21.2179487179
 20
3.9743589744
  0
LWPOLYLINE
  5
92
330
1F
100
AcDbEntity
  8
0
  6
Continuous
 62
     7
100
AcDbPolyline
 90
       68
 70
   128
 43
0.0
 10
20.8333283663
 20
3.9693509615
 10
20.8303285256
 20
4.0494791667
 10
20.8193108974
 20
4.1266025641
 10
20.8022836538
 20
4.2007211538
 10
20.7782451923
 20
4.2718349359
 10
20.7471955128
 20
4.3389423077
 10
20.7091346154
 20
4.4030448718
 10
20.6640625
 20
4.4641426282
 10
20.6119791667
 20
4.5212339744
 10
20.5548878205
 20
4.5733173077
 10
20.4957932692
 20
4.6183894231
 10
20.4326923077
 20
4.6564503205
 10
20.3665865385
 20
4.6875
 10
20.2984775641
 20
4.7125400641
 10
20.2263621795
 20
4.7295673077
 10
20.1522435897
 20
4.7405849359
 10
20.0741185897
 20
4.7435897436
 10
20.0741185897
 20
4.7435897436
 10
19.9949919872
 20
4.7395833333
 10
19.9178685897
 20
4.7295673077
 10
19.8447516026
 20
4.7115384615
 10
19.7746394231
 20
4.6875
 10
19.7075320513
 20
4.6554487179
 10
19.6424278846
 20
4.6173878205
 10
19.5813301282
 20
4.5713141026
 10
19.5232371795
 20
4.5192307692
 10
19.4701522436
 20
4.4621394231
 10
19.4230769231
 20
4.4010416667
 10
19.3840144231
 20
4.3379407051
 10
19.351963141
 20
4.2708333333
 10
19.3269230769
 20
4.2017227564
 10
19.3088942308
 20
4.1296073718
 10
19.2988782051
 20
4.0544871795
 10
19.2948717949
 20
3.9763621795
 10
19.2948717949
 20
3.9763621795
 10
19.2988782051
 20
3.8992387821
 10
19.3088942308
 20
3.8251201923
 10
19.3269230769
 20
3.7540064103
 10
19.351963141
 20
3.6848958333
 10
19.3850160256
 20
3.6177884615
 10
19.4240785256
 20
3.5546875
 10
19.4711538462
 20
3.4935897436
 10
19.5252403846
 20
3.4344951923
 10
19.5843349359
 20
3.3804086538
 10
19.6454326923
 20
3.3343349359
 10
19.7095352564
 20
3.2942708333
 10
19.7766426282
 20
3.2622195513
 10
19.8457532051
 20
3.2371794872
 10
19.9178685897
 20
3.219150641
 10
19.9929887821
 20
3.2091346154
 10
20.0711137821
 20
3.2051282051
 10
20.0711137821
 20
3.2051282051
 10
20.1482371795
 20
3.2081330128
 10
20.2223557692
 20
3.219150641
 10
20.2934695513
 20
3.2361778846
 10
20.3615785256
 20
3.2612179487
 10
20.4276842949
 20
3.2922676282
 10
20.4907852564
 20
3.3313301282
 10
20.5508814103
 20
3.3764022436
 10
20.608974359
 20
3.4294871795
 10
20.6610576923
 20
3.4865785256
 10
20.7071314103
 20
3.5476762821
 10
20.7451923077
 20
3.6107772436
 10
20.7772435897
 20
3.6768830128
 10
20.8012820513
 20
3.7459935897
 10
20.8193108974
 20
3.8171073718
 10
20.8293269231
 20
3.8922275641
 10
20.8333333333
 20
3.9693509615
  0
LWPOLYLINE
  5
93
330
1F
100
AcDbEntity
  8
0
  6
Continuous
 62
     7
100
AcDbPolyline
 90
       93
 70
   128
 43
0.0
 10
16.7477875948
 20
5.1282051282
 10
16.8780048077
 20
5.1241987179
 10
17.0032051282
 20
5.1111778846
 10
17.1243990385
 20
5.0901442308
 10
17.2405849359
 20
5.0610977564
 10
17.3527644231
 20
5.023036859
 10
17.4599358974
 20
4.976963141
 10
17.5631009615
 20
4.9228766026
 10
17.6612580128
 20
4.859775641
 10
17.7544070513
 20
4.7876602564
 10
17.8415464744
 20
4.7075320513
 10
17.9236778846
 20
4.6173878205
 10
18.0008012821
 20
4.5192307692
 10
18.0719150641
 20
4.4120592949
 10
18.1380208333
 20
4.2958733974
 10
18.1981169872
 20
4.1716746795
 10
18.2532051282
 20
4.0374599359
 10
18.3022836538
 20
3.8922275641
 10
18.3443509615
 20
3.733974359
 10
18.3804086538
 20
3.5616987179
 10
18.4094551282
 20
3.3764022436
 10
18.4324919872
 20
3.1770833333
 10
18.4485176282
 20
2.9637419872
 10
18.4585336538
 20
2.7373798077
 10
18.4615384615
 20
2.4979967949
 10
18.4615384615
 20
2.4979967949
 10
18.4585336538
 20
2.2556089744
 10
18.4485176282
 20
2.0272435897
 10
18.4314903846
 20
1.812900641
 10
18.4084535256
 20
1.6115785256
 10
18.3784054487
 20
1.4252804487
 10
18.3423477564
 20
1.2520032051
 10
18.2992788462
 20
1.0927483974
 10
18.2491987179
 20
0.9475160256
 10
18.1941105769
 20
0.8133012821
 10
18.1340144231
 20
0.6881009615
 10
18.069911859
 20
0.5729166667
 10
18.0008012821
 20
0.4657451923
 10
17.9266826923
 20
0.3685897436
 10
17.8485576923
 20
0.2804487179
 10
17.7664262821
 20
0.2023237179
 10
17.679286859
 20
0.1322115385
 10
17.5871394231
 20
0.0711137821
 10
17.4879807692
 20
0.0180288462
 10
17.3838141026
 20
-0.0260416667
 10
17.2736378205
 20
-0.0631009615
 10
17.1574519231
 20
-0.0911458333
 10
17.0352564103
 20
-0.1121794872
 10
16.9080528846
 20
-0.1241987179
 10
16.773838141
 20
-0.1282051282
 10
16.773838141
 20
-0.1282051282
 10
16.6396233974
 20
-0.1241987179
 10
16.5114182692
 20
-0.1121794872
 10
16.3892227564
 20
-0.0911458333
 10
16.2710336538
 20
-0.0631009615
 10
16.1598557692
 20
-0.0260416667
 10
16.0526842949
 20
0.0190304487
 10
15.9515224359
 20
0.0731169872
 10
15.8563701923
 20
0.1342147436
 10
15.7662259615
 20
0.2043269231
 10
15.6810897436
 20
0.2824519231
 10
15.5999599359
 20
0.3685897436
 10
15.5248397436
 20
0.4637419872
 10
15.4547275641
 20
0.5679086538
 10
15.3896233974
 20
0.680088141
 10
15.3295272436
 20
0.8012820513
 10
15.2744391026
 20
0.9304887821
 10
15.2253605769
 20
1.070713141
 10
15.1822916667
 20
1.2259615385
 10
15.1462339744
 20
1.3942307692
 10
15.1161858974
 20
1.5775240385
 10
15.094150641
 20
1.7748397436
 10
15.0771233974
 20
1.9861778846
 10
15.0671073718
 20
2.2115384615
 10
15.0641025641
 20
2.4509214744
 10
15.0641025641
 20
2.4509214744
 10
15.0701121795
 20
2.7834535256
 10
15.0901442308
 20
3.0919471154
 10
15.1221955128
 20
3.3774038462
 10
15.1662660256
 20
3.6388221154
 10
15.2243589744
 20
3.8762019231
 10
15.2954727564
 20
4.0905448718
 10
15.3786057692
 20
4.280849359
 10
15.4747596154
 20
4.4481169872
 10
15.4747596154
 20
4.4481169872
 10
15.5949519231
 20
4.6073717949
 10
15.726161859
 20
4.7455929487
 10
15.8683894231
 20
4.8627804487
 10
16.0216346154
 20
4.9579326923
 10
16.1868990385
 20
5.0330528846
 10
16.3621794872
 20
5.0861378205
 10
16.5494791667
 20
5.1171875
 10
16.7477964744
 20
5.1282051282
  0
LWPOLYLINE
  5
94
330
1F
100
AcDbEntity
  8
0
  6
Continuous
 62
     7
100
AcDbPolyline
 90
       73
 70
   128
 43
0.0
 10
16.7698264122
 20
4.2307692308
 10
16.6526442308
 20
4.2207532051
 10
16.5434695513
 20
4.1917067308
 10
16.4403044872
 20
4.1436298077
 10
16.344150641
 20
4.0765224359
 10
16.2990785256
 20
4.0344551282
 10
16.2560096154
 20
3.9853766026
 10
16.2169471154
 20
3.929286859
 10
16.1798878205
 20
3.8661858974
 10
16.1458333333
 20
3.7960737179
 10
16.1137820513
 20
3.7189503205
 10
16.0857371795
 20
3.6358173077
 10
16.0596955128
 20
3.5446714744
 10
16.0366586538
 20
3.4445112179
 10
16.0166266026
 20
3.3343349359
 10
15.999599359
 20
3.2121394231
 10
15.9855769231
 20
3.0799278846
 10
15.9755608974
 20
2.9366987179
 10
15.9675480769
 20
2.7824519231
 10
15.9635416667
 20
2.6171875
 10
15.9615384615
 20
2.4409054487
 10
15.9615384615
 20
2.4409054487
 10
15.9655448718
 20
2.2125400641
 10
15.9755608974
 20
2.0032051282
 10
15.9935897436
 20
1.8118990385
 10
16.0176282051
 20
1.6386217949
 10
16.0496794872
 20
1.484375
 10
16.0887419872
 20
1.3481570513
 10
16.1338141026
 20
1.2299679487
 10
16.1868990385
 20
1.1308092949
 10
16.2449919872
 20
1.0456730769
 10
16.3070913462
 20
0.9725560897
 10
16.3741987179
 20
0.9104567308
 10
16.4443108974
 20
0.859375
 10
16.5194310897
 20
0.8203125
 10
16.5985576923
 20
0.7922676282
 10
16.6826923077
 20
0.7752403846
 10
16.7698317308
 20
0.7692307692
 10
16.7698317308
 20
0.7692307692
 10
16.8539663462
 20
0.7742387821
 10
16.9330929487
 20
0.7902644231
 10
17.008213141
 20
0.8173076923
 10
17.0793269231
 20
0.8553685897
 10
17.1454326923
 20
0.9034455128
 10
17.2075320513
 20
0.9625400641
 10
17.2646233974
 20
1.0326522436
 10
17.3177083333
 20
1.1127804487
 10
17.3177083333
 20
1.1127804487
 10
17.3758012821
 20
1.2249599359
 10
17.4258814103
 20
1.3541666667
 10
17.4679487179
 20
1.5014022436
 10
17.5020032051
 20
1.6656650641
 10
17.5290464744
 20
1.8479567308
 10
17.5490785256
 20
2.047275641
 10
17.5600961538
 20
2.2636217949
 10
17.5641025641
 20
2.4979967949
 10
17.5641025641
 20
2.4979967949
 10
17.5610977564
 20
2.734375
 10
17.5500801282
 20
2.952724359
 10
17.5330528846
 20
3.1510416667
 10
17.5090144231
 20
3.3303285256
 10
17.4779647436
 20
3.4905849359
 10
17.4399038462
 20
3.6318108974
 10
17.3948317308
 20
3.7540064103
 10
17.3427483974
 20
3.8571714744
 10
17.2856570513
 20
3.9443108974
 10
17.2235576923
 20
4.0204326923
 10
17.1584535256
 20
4.0845352564
 10
17.0883413462
 20
4.1376201923
 10
17.015224359
 20
4.1786858974
 10
16.937099359
 20
4.2077323718
 10
16.8559695513
 20
4.2247596154
 10
16.7698317308
 20
4.2307692308
  0
LWPOLYLINE
  5
95
330
1F
100
AcDbEntity
  8
0
  6
Continuous
 62
     7
100
AcDbPolyline
 90
       70
 70
   128
 43
0.0
 10
12.840539217
 20
-0.1282051282
 10
12.0452724359
 20
0.2724358974
 10
12.0452724359
 20
0.2724358974
 10
12.9166666667
 20
1.9871794872
 10
12.9166666667
 20
1.9871794872
 10
12.7624198718
 20
1.9941907051
 10
12.6151842949
 20
2.015224359
 10
12.4729567308
 20
2.0512820513
 10
12.3367387821
 20
2.1003605769
 10
12.2065304487
 20
2.164463141
 10
12.0813301282
 20
2.242588141
 10
11.9631410256
 20
2.3357371795
 10
11.8499599359
 20
2.4419070513
 10
11.7467948718
 20
2.5590945513
 10
11.6576522436
 20
2.6822916667
 10
11.5815304487
 20
2.8135016026
 10
11.5204326923
 20
2.9507211538
 10
11.4723557692
 20
3.0949519231
 10
11.4372996795
 20
3.2461939103
 10
11.4172676282
 20
3.4044471154
 10
11.4102564103
 20
3.5697115385
 10
11.4102564103
 20
3.5697115385
 10
11.4172676282
 20
3.7299679487
 10
11.4383012821
 20
3.8842147436
 10
11.4733573718
 20
4.0314503205
 10
11.5224358974
 20
4.1736778846
 10
11.585536859
 20
4.3088942308
 10
11.6626602564
 20
4.437099359
 10
11.7538060897
 20
4.5602964744
 10
11.858974359
 20
4.6764823718
 10
11.9741586538
 20
4.7826522436
 10
12.0943509615
 20
4.8737980769
 10
12.2205528846
 20
4.9519230769
 10
12.3527644231
 20
5.0150240385
 10
12.4909855769
 20
5.0651041667
 10
12.6352163462
 20
5.1001602564
 10
12.7854567308
 20
5.1211939103
 10
12.9407051282
 20
5.1282051282
 10
12.9407051282
 20
5.1282051282
 10
13.1029647436
 20
5.1211939103
 10
13.258213141
 20
5.0981570513
 10
13.4064503205
 20
5.0610977564
 10
13.5486778846
 20
5.0100160256
 10
13.6828926282
 20
4.9429086538
 10
13.8110977564
 20
4.8617788462
 10
13.9312900641
 20
4.765625
 10
14.0454727564
 20
4.6544471154
 10
14.1486378205
 20
4.5332532051
 10
14.2387820513
 20
4.4080528846
 10
14.3149038462
 20
4.2788461538
 10
14.3770032051
 20
4.1436298077
 10
14.4250801282
 20
4.0054086538
 10
14.4591346154
 20
3.8621794872
 10
14.4801682692
 20
3.7149439103
 10
14.4871794872
 20
3.5627003205
 10
14.4871794872
 20
3.5627003205
 10
14.4831730769
 20
3.4465144231
 10
14.4701522436
 20
3.3293269231
 10
14.4491185897
 20
3.2131410256
 10
14.4200721154
 20
3.0959535256
 10
14.4010416667
 20
3.0328525641
 10
14.3760016026
 20
2.9627403846
 10
14.3449519231
 20
2.8836137821
 10
14.3088942308
 20
2.796474359
 10
14.2678285256
 20
2.7023237179
 10
14.2207532051
 20
2.6001602564
 10
14.1686698718
 20
2.4889823718
 10
14.1105769231
 20
2.3707932692
 10
14.1105769231
 20
2.3707932692
 10
12.8405448718
 20
-0.1282051282
  0
LWPOLYLINE
  5
96
330
1F
100
AcDbEntity
  8
0
  6
Continuous
 62
     7
100
AcDbPolyline
 90
       36
 70
   128
 43
0.0
 10
12.9607319832
 20
2.8205128205
 10
13.0889423077
 20
2.8335336538
 10
13.2061298077
 20
2.8705929487
 10
13.3122996795
 20
2.9336939103
 10
13.4084535256
 20
3.0218349359
 10
13.4875801282
 20
3.1280048077
 10
13.5446714744
 20
3.2461939103
 10
13.5787259615
 20
3.3764022436
 10
13.5897435897
 20
3.5186298077
 10
13.5897435897
 20
3.5186298077
 10
13.577724359
 20
3.6638621795
 10
13.5426682692
 20
3.7970753205
 10
13.4835737179
 20
3.9182692308
 10
13.4004407051
 20
4.0264423077
 10
13.3012820513
 20
4.1155849359
 10
13.1941105769
 20
4.1796875
 10
13.0799278846
 20
4.2177483974
 10
12.9577323718
 20
4.2307692308
 10
12.9577323718
 20
4.2307692308
 10
12.828525641
 20
4.2177483974
 10
12.7093349359
 20
4.1796875
 10
12.5991586538
 20
4.1165865385
 10
12.4989983974
 20
4.0284455128
 10
12.4148637821
 20
3.9202724359
 10
12.3557692308
 20
3.8000801282
 10
12.3197115385
 20
3.6668669872
 10
12.3076923077
 20
3.5216346154
 10
12.3076923077
 20
3.5216346154
 10
12.3197115385
 20
3.3784054487
 10
12.3537660256
 20
3.2471955128
 10
12.4128605769
 20
3.1280048077
 10
12.4939903846
 20
3.0218349359
 10
12.5931490385
 20
2.9336939103
 10
12.7033253205
 20
2.8705929487
 10
12.8265224359
 20
2.8335336538
 10
12.9607371795
 20
2.8205128205
  0
LWPOLYLINE
  5
97
330
1F
100
AcDbEntity
  8
0
  6
Continuous
 62
     7
100
AcDbPolyline
 90
        8
 70
   128
 43
0.0
 10
-26.3646990061
 20
29.5478025656
 10
-25.155775322
 20
28.3388682707
 10
-25.155775322
 20
28.3388682707
 10
-25.7597416681
 20
27.7349019245
 10
-25.7597416681
 20
27.7349019245
 10
-26.968675963
 20
28.9438362194
 10
-26.968675963
 20
28.9438362194
 10
-26.3647096168
 20
29.5478025656
  0
LWPOLYLINE
  5
98
330
1F
100
AcDbEntity
  8
0
  6
Continuous
 62
     7
100
AcDbPolyline
 90
       22
 70
   128
 43
0.0
 10
-21.1348682642
 20
28.3103551198
 10
-20.4688086455
 20
27.6442894147
 10
-20.4688086455
 20
27.6442894147
 10
-22.7224144147
 20
25.3906836455
 10
-22.7224144147
 20
25.3906836455
 10
-22.4109160173
 20
25.079185248
 10
-22.4109160173
 20
25.079185248
 10
-23.0269015942
 20
24.4631996711
 10
-23.0269015942
 20
24.4631996711
 10
-23.3383999916
 20
24.7746980685
 10
-23.3383999916
 20
24.7746980685
 10
-24.0565490301
 20
24.0565490301
 10
-24.0565490301
 20
24.0565490301
 10
-24.7075906968
 20
24.7075906968
 10
-24.7075906968
 20
24.7075906968
 10
-23.9894416583
 20
25.4257397352
 10
-23.9894416583
 20
25.4257397352
 10
-25.5168855686
 20
26.9531836455
 10
-25.5168855686
 20
26.9531836455
 10
-24.9008999916
 20
27.5691692224
 10
-24.9008999916
 20
27.5691692224
 10
-21.1348743506
 20
28.3103551198
  0
LWPOLYLINE
  5
99
330
1F
100
AcDbEntity
  8
0
  6
Continuous
 62
     7
100
AcDbPolyline
 90
        6
 70
   128
 43
0.0
 10
-23.3734548092
 20
26.0417253121
 10
-22.2005794788
 20
27.2146019147
 10
-22.2005794788
 20
27.2146019147
 10
-24.1727349275
 20
26.8410041583
 10
-24.1727349275
 20
26.8410041583
 10
-23.3734560814
 20
26.0417253121
  0
LWPOLYLINE
  5
9A
330
1F
100
AcDbEntity
  8
0
  6
Continuous
 62
     7
100
AcDbPolyline
 90
      122
 70
   128
 43
0.0
 10
-19.3026512861
 20
26.3018514742
 10
-17.6630293589
 20
24.6622280768
 10
-17.6630293589
 20
24.6622280768
 10
-18.2770117307
 20
24.048245705
 10
-18.2770117307
 20
24.048245705
 10
-19.4188386537
 20
25.1900726281
 10
-19.4188386537
 20
25.1900726281
 10
-20.2000886537
 20
24.6952809614
 10
-20.2000886537
 20
24.6952809614
 10
-20.125970064
 20
24.6512104486
 10
-20.0568594871
 20
24.6041351281
 10
-19.9947601281
 20
24.5540549999
 10
-19.9396719871
 20
24.5029732691
 10
-19.9396719871
 20
24.5029732691
 10
-19.8284941024
 20
24.3817793589
 10
-19.7323402563
 20
24.2545758332
 10
-19.6512104486
 20
24.1233658973
 10
-19.5851046794
 20
23.986146346
 10
-19.5350245512
 20
23.8439187819
 10
-19.4989668589
 20
23.696683205
 10
-19.4789348076
 20
23.5444396153
 10
-19.4739267948
 20
23.3871880127
 10
-19.4839428204
 20
23.2289348076
 10
-19.5099844871
 20
23.0756896153
 10
-19.5510501922
 20
22.9254492307
 10
-19.6081415383
 20
22.7802168589
 10
-19.680256923
 20
22.6389908973
 10
-19.7683979486
 20
22.501771346
 10
-19.8715630127
 20
22.3695598076
 10
-19.9907537178
 20
22.2403530768
 10
-19.9907537178
 20
22.2403530768
 10
-20.1209620512
 20
22.1201607691
 10
-20.2581816024
 20
22.016995705
 10
-20.4004091666
 20
21.9288546794
 10
-20.548646346
 20
21.8567392948
 10
-20.7028931409
 20
21.8006495512
 10
-20.8631495512
 20
21.7605854486
 10
-21.0284139742
 20
21.7355453845
 10
-21.2006896153
 20
21.727532564
 10
-21.3729652563
 20
21.7345437819
 10
-21.5382296794
 20
21.7575806409
 10
-21.6974844871
 20
21.7956415383
 10
-21.8507296794
 20
21.8497280768
 10
-21.9969636537
 20
21.9198402563
 10
-22.1371880127
 20
22.0049764742
 10
-22.2714027563
 20
22.1061383332
 10
-22.3996078845
 20
22.2233258332
 10
-22.3996078845
 20
22.2233258332
 10
-22.5057777563
 20
22.3375085255
 10
-22.5999283973
 20
22.4546960255
 10
-22.6820598076
 20
22.5768915383
 10
-22.7521719871
 20
22.7030934614
 10
-22.8102649358
 20
22.8333017948
 10
-22.8563386537
 20
22.9665149358
 10
-22.8913947435
 20
23.1047360896
 10
-22.9134299999
 20
23.2469636537
 10
-22.9234460255
 20
23.3901928204
 10
-22.9214428204
 20
23.5324203845
 10
-22.9064187819
 20
23.673646346
 10
-22.8783739101
 20
23.813870705
 10
-22.837308205
 20
23.9530934614
 10
-22.7832216666
 20
24.0913146153
 10
-22.7171158973
 20
24.2285341666
 10
-22.6379892948
 20
24.3647521153
 10
-22.6379892948
 20
24.3647521153
 10
-21.938870705
 20
23.6656335255
 10
-21.938870705
 20
23.6656335255
 10
-21.9719235896
 20
23.5444396153
 10
-21.9889508332
 20
23.4272521153
 10
-21.9899524358
 20
23.3140710255
 10
-21.9739267948
 20
23.2038947435
 10
-21.9428771153
 20
23.0997280768
 10
-21.8978049999
 20
23.0015710255
 10
-21.8397120512
 20
22.9114267948
 10
-21.766595064
 20
22.8282937819
 10
-21.766595064
 20
22.8282937819
 10
-21.7095037178
 20
22.7762104486
 10
-21.6504091666
 20
22.7321399358
 10
-21.587308205
 20
22.6940790383
 10
-21.5222040383
 20
22.6630293589
 10
-21.454095064
 20
22.6399924999
 10
-21.3829812819
 20
22.6239668589
 10
-21.3088626922
 20
22.6139508332
 10
-21.2317392948
 20
22.6119476281
 10
-21.1546158973
 20
22.6169556409
 10
-21.079495705
 20
22.6299764742
 10
-21.0053771153
 20
22.6500085255
 10
-20.9342633332
 20
22.6780533973
 10
-20.8651527563
 20
22.7141110896
 10
-20.7980453845
 20
22.7571799999
 10
-20.7319396153
 20
22.8082617307
 10
-20.6688386537
 20
22.8663546794
 10
-20.6688386537
 20
22.8663546794
 10
-20.6117473076
 20
22.9284540383
 10
-20.5616671794
 20
22.9915549999
 10
-20.5185982691
 20
23.0566591666
 10
-20.4835421794
 20
23.1237665383
 10
-20.454495705
 20
23.1928771153
 10
-20.4334620512
 20
23.2629892948
 10
-20.4204412178
 20
23.3351046794
 10
-20.4134299999
 20
23.4092232691
 10
-20.4134299999
 20
23.4823402563
 10
-20.4214428204
 20
23.5534540383
 10
-20.4344636537
 20
23.6205614101
 10
-20.4554973076
 20
23.6846639742
 10
-20.4825405768
 20
23.7467633332
 10
-20.5175966666
 20
23.8048562819
 10
-20.5576607691
 20
23.8609460255
 10
-20.6057376922
 20
23.9130293589
 10
-20.6057376922
 20
23.9130293589
 10
-20.6638306409
 20
23.9641110896
 10
-20.727933205
 20
24.0071799999
 10
-20.7990469871
 20
24.0442392948
 10
-20.8761703845
 20
24.0732857691
 10
-20.9603049999
 20
24.0953210255
 10
-21.0504492307
 20
24.1093434614
 10
-21.1466030768
 20
24.1173562819
 10
-21.2487665383
 20
24.1173562819
 10
-21.2487665383
 20
24.1173562819
 10
-21.6694396153
 20
24.7804171794
 10
-21.6694396153
 20
24.7804171794
 10
-19.3026527563
 20
26.3018514742
  0
LWPOLYLINE
  5
9B
330
1F
100
AcDbEntity
  8
0
  6
Continuous
 62
     7
100
AcDbPolyline
 90
       68
 70
   128
 43
0.0
 10
-16.3305997849
 20
21.8694696235
 10
-16.4187484697
 20
21.7883398158
 10
-16.5118975081
 20
21.7182276363
 10
-16.6080513543
 20
21.6591330851
 10
-16.7092132133
 20
21.611056162
 10
-16.8133798799
 20
21.5739968671
 10
-16.9225545594
 20
21.5479552004
 10
-17.0357356492
 20
21.5319295594
 10
-17.1529231492
 20
21.5279231492
 10
-17.2701106492
 20
21.5339327646
 10
-17.3832917389
 20
21.5509600081
 10
-17.4914648158
 20
21.5790048799
 10
-17.5966330851
 20
21.6160641748
 10
-17.6967933415
 20
21.6651427004
 10
-17.7929471876
 20
21.7242372517
 10
-17.884093021
 20
21.7943494312
 10
-17.9722340466
 20
21.8744776363
 10
-17.9722340466
 20
21.8744776363
 10
-18.0523622517
 20
21.962618662
 10
-18.1224744312
 20
22.0537644953
 10
-18.1805673799
 20
22.1499183415
 10
-18.2296459056
 20
22.2500785979
 10
-18.2667052004
 20
22.3542452646
 10
-18.2937484697
 20
22.463419944
 10
-18.3097741107
 20
22.5755994312
 10
-18.3147821235
 20
22.6927869312
 10
-18.3097741107
 20
22.8099744312
 10
-18.2927468671
 20
22.923155521
 10
-18.2657035979
 20
23.0323302004
 10
-18.2276427004
 20
23.1364968671
 10
-18.1785641748
 20
23.2386603287
 10
-18.118468021
 20
23.3358157774
 10
-18.0473542389
 20
23.4289648158
 10
-17.9652228287
 20
23.518107444
 10
-17.9652228287
 20
23.518107444
 10
-17.8790850081
 20
23.596232444
 10
-17.7879391748
 20
23.6643414184
 10
-17.6927869312
 20
23.7214327646
 10
-17.5936282774
 20
23.7685080851
 10
-17.4884600081
 20
23.8045657774
 10
-17.3792853287
 20
23.8296058415
 10
-17.2661042389
 20
23.8436282774
 10
-17.1479151363
 20
23.8476346876
 10
-17.0297260338
 20
23.8406234697
 10
-16.9155433415
 20
23.8235962261
 10
-16.806368662
 20
23.7965529569
 10
-16.7022019953
 20
23.7584920594
 10
-16.6020417389
 20
23.7104151363
 10
-16.5058878928
 20
23.6513205851
 10
-16.4147420594
 20
23.5822100081
 10
-16.3276026363
 20
23.5030834056
 10
-16.3276026363
 20
23.5030834056
 10
-16.2484760338
 20
23.4169455851
 10
-16.1803670594
 20
23.3257997517
 10
-16.1222741107
 20
23.2306475081
 10
-16.0741971876
 20
23.1304872517
 10
-16.0371378928
 20
23.0263205851
 10
-16.0110962261
 20
22.9181475081
 10
-15.9950705851
 20
22.805968021
 10
-15.9890609697
 20
22.688780521
 10
-15.9940689825
 20
22.571593021
 10
-16.0100946235
 20
22.4584119312
 10
-16.0361362902
 20
22.3502388543
 10
-16.0741971876
 20
22.2450705851
 10
-16.1222741107
 20
22.1449103287
 10
-16.1803670594
 20
22.0487564825
 10
-16.2504792389
 20
21.9576106492
 10
-16.330607444
 20
21.8694696235
  0
LWPOLYLINE
  5
9C
330
1F
100
AcDbEntity
  8
0
  6
Continuous
 62
     7
100
AcDbPolyline
 90
       68
 70
   128
 43
0.0
 10
-16.6180580854
 20
22.1469135338
 10
-16.5629792389
 20
22.2070096876
 10
-16.5149023158
 20
22.2691090466
 10
-16.4738366107
 20
22.3342132133
 10
-16.4407837261
 20
22.4023221876
 10
-16.4137404569
 20
22.4724343671
 10
-16.3947100081
 20
22.5445497517
 10
-16.3826907774
 20
22.619669944
 10
-16.3776827646
 20
22.6967933415
 10
-16.3806875722
 20
22.7739167389
 10
-16.3897019953
 20
22.8480353287
 10
-16.4067292389
 20
22.9191491107
 10
-16.4297660979
 20
22.9872580851
 10
-16.4608157774
 20
23.0523622517
 10
-16.4988766748
 20
23.1154632133
 10
-16.5429471876
 20
23.1745577646
 10
-16.595030521
 20
23.2316491107
 10
-16.595030521
 20
23.2316491107
 10
-16.6531234697
 20
23.2847340466
 10
-16.7142212261
 20
23.3308077646
 10
-16.7783237902
 20
23.3698702646
 10
-16.8444295594
 20
23.400919944
 10
-16.9145417389
 20
23.4259600081
 10
-16.9866571235
 20
23.4429872517
 10
-17.0627789184
 20
23.4540048799
 10
-17.1409039184
 20
23.4570096876
 10
-17.2190289184
 20
23.4530032774
 10
-17.2951507133
 20
23.4419856492
 10
-17.3672660979
 20
23.423956803
 10
-17.4373782774
 20
23.3989167389
 10
-17.5044856492
 20
23.3668654569
 10
-17.5685882133
 20
23.3278029569
 10
-17.6306875722
 20
23.2807276363
 10
-17.688780521
 20
23.2276427004
 10
-17.688780521
 20
23.2276427004
 10
-17.7418654569
 20
23.1695497517
 10
-17.7869375722
 20
23.1094535979
 10
-17.8260000722
 20
23.0453510338
 10
-17.8580513543
 20
22.978243662
 10
-17.8830914184
 20
22.9081314825
 10
-17.9011202646
 20
22.8350144953
 10
-17.9121378928
 20
22.7578910979
 10
-17.916144303
 20
22.6787644953
 10
-17.9131394953
 20
22.5996378928
 10
-17.9041250722
 20
22.5225144953
 10
-17.8870978287
 20
22.4493975081
 10
-17.8630593671
 20
22.3802869312
 10
-17.8320096876
 20
22.3131795594
 10
-17.7949503928
 20
22.2500785979
 10
-17.7498782774
 20
22.189982444
 10
-17.697794944
 20
22.1328910979
 10
-17.697794944
 20
22.1328910979
 10
-17.6417052004
 20
22.0818093671
 10
-17.5826106492
 20
22.0377388543
 10
-17.5205112902
 20
22.0006795594
 10
-17.454405521
 20
21.9696298799
 10
-17.3862965466
 20
21.946593021
 10
-17.314181162
 20
21.9295657774
 10
-17.2400625722
 20
21.9205513543
 10
-17.1619375722
 20
21.9175465466
 10
-17.0838125722
 20
21.9215529569
 10
-17.0086923799
 20
21.9325705851
 10
-16.9365769953
 20
21.9516010338
 10
-16.8674664184
 20
21.9766410979
 10
-16.8003590466
 20
22.0086923799
 10
-16.7372580851
 20
22.0477548799
 10
-16.6761603287
 20
22.0938285979
 10
-16.6180673799
 20
22.1469135338
  0
LWPOLYLINE
  5
9D
330
1F
100
AcDbEntity
  8
0
  6
Continuous
 62
     7
100
AcDbPolyline
 90
       68
 70
   128
 43
0.0
 10
-20.9175944328
 20
-15.3787329309
 10
-20.8364653027
 20
-15.4668739565
 10
-20.7663531232
 20
-15.560022995
 10
-20.7072585719
 20
-15.6561768412
 10
-20.6591816489
 20
-15.7573387001
 10
-20.622122354
 20
-15.8615053668
 10
-20.5960806873
 20
-15.9706800463
 10
-20.5800550463
 20
-16.083861136
 10
-20.576048636
 20
-16.201048636
 10
-20.5820582514
 20
-16.318236136
 10
-20.599085495
 20
-16.4314172258
 10
-20.6271303668
 20
-16.5395903027
 10
-20.6651912642
 20
-16.6447585719
 10
-20.7132681873
 20
-16.7449188283
 10
-20.7723627386
 20
-16.8410726745
 10
-20.8424749181
 20
-16.9322185078
 10
-20.9226031232
 20
-17.0203595335
 10
-20.9226031232
 20
-17.0203595335
 10
-21.0107441489
 20
-17.1004877386
 10
-21.1018899822
 20
-17.1705999181
 10
-21.1980438283
 20
-17.2286928668
 10
-21.2982040847
 20
-17.2777713924
 10
-21.4023707514
 20
-17.3148306873
 10
-21.5115454309
 20
-17.3418739565
 10
-21.6237249181
 20
-17.3578995976
 10
-21.7409124181
 20
-17.3629076104
 10
-21.8580999181
 20
-17.3578995976
 10
-21.9712810078
 20
-17.340872354
 10
-22.0804556873
 20
-17.3138290847
 10
-22.1856239565
 20
-17.2757681873
 10
-22.2867858155
 20
-17.2266896617
 10
-22.3839412642
 20
-17.1665935078
 10
-22.4770903027
 20
-17.0954797258
 10
-22.5662329309
 20
-17.0133483155
 10
-22.5662329309
 20
-17.0133483155
 10
-22.6443579309
 20
-16.927210495
 10
-22.7124669053
 20
-16.8360646617
 10
-22.7695582514
 20
-16.7409124181
 10
-22.8166335719
 20
-16.6417537642
 10
-22.8526912642
 20
-16.536585495
 10
-22.8777313283
 20
-16.4274108155
 10
-22.8917537642
 20
-16.3142297258
 10
-22.8957601745
 20
-16.1960406232
 10
-22.8887489565
 20
-16.0778515206
 10
-22.871721713
 20
-15.9636688283
 10
-22.8446784437
 20
-15.8544941489
 10
-22.8066175463
 20
-15.7503274822
 10
-22.7585406232
 20
-15.6501672258
 10
-22.6994460719
 20
-15.5540133796
 10
-22.630335495
 20
-15.4628675463
 10
-22.5512088924
 20
-15.3757281232
 10
-22.5512088924
 20
-15.3757281232
 10
-22.4650710719
 20
-15.2966015206
 10
-22.3739252386
 20
-15.2284925463
 10
-22.278772995
 20
-15.1703995976
 10
-22.1786127386
 20
-15.1223226745
 10
-22.0744460719
 20
-15.0852633796
 10
-21.966272995
 20
-15.059221713
 10
-21.8540935078
 20
-15.0431960719
 10
-21.7369060078
 20
-15.0371864565
 10
-21.6197185078
 20
-15.0421944694
 10
-21.5065374181
 20
-15.0582201104
 10
-21.3983643412
 20
-15.0842617771
 10
-21.2941976745
 20
-15.1223226745
 10
-21.1930358155
 20
-15.1703995976
 10
-21.0968819694
 20
-15.2284925463
 10
-21.005736136
 20
-15.2986047258
 10
-20.9175951104
 20
-15.3787329309
  0
LWPOLYLINE
  5
9E
330
1F
100
AcDbEntity
  8
0
  6
Continuous
 62
     7
100
AcDbPolyline
 90
       68
 70
   128
 43
0.0
 10
-21.1950242519
 20
-15.6661928668
 10
-21.2551351745
 20
-15.6111047258
 10
-21.3172345335
 20
-15.5630278027
 10
-21.3823387001
 20
-15.5219620976
 10
-21.4504476745
 20
-15.488909213
 10
-21.5195582514
 20
-15.4618659437
 10
-21.591673636
 20
-15.442835495
 10
-21.6667938283
 20
-15.4308162642
 10
-21.7439172258
 20
-15.4258082514
 10
-21.8210406232
 20
-15.4288130591
 10
-21.895159213
 20
-15.4378274822
 10
-21.966272995
 20
-15.4548547258
 10
-22.0353835719
 20
-15.4778915847
 10
-22.1004877386
 20
-15.5089412642
 10
-22.1635887001
 20
-15.5470021617
 10
-22.2226832514
 20
-15.5910726745
 10
-22.2797745976
 20
-15.6431560078
 10
-22.2797745976
 20
-15.6431560078
 10
-22.3328595335
 20
-15.7012489565
 10
-22.3789332514
 20
-15.762346713
 10
-22.4179957514
 20
-15.8264492771
 10
-22.4490454309
 20
-15.8925550463
 10
-22.474085495
 20
-15.9626672258
 10
-22.4911127386
 20
-16.0347826104
 10
-22.5021303668
 20
-16.1109044053
 10
-22.5051351745
 20
-16.1890294053
 10
-22.5011287642
 20
-16.2671544053
 10
-22.490111136
 20
-16.3432762001
 10
-22.4720822899
 20
-16.4153915847
 10
-22.4470422258
 20
-16.4855037642
 10
-22.4149909437
 20
-16.552611136
 10
-22.3759284437
 20
-16.6167137001
 10
-22.3288531232
 20
-16.6788130591
 10
-22.2757681873
 20
-16.7369060078
 10
-22.2757681873
 20
-16.7369060078
 10
-22.2176752386
 20
-16.7899909437
 10
-22.1575790847
 20
-16.8350630591
 10
-22.0934765206
 20
-16.8741255591
 10
-22.0263691489
 20
-16.9061768412
 10
-21.9562569694
 20
-16.9312169053
 10
-21.8831399822
 20
-16.9492457514
 10
-21.8060165847
 20
-16.9602633796
 10
-21.7268899822
 20
-16.9642697899
 10
-21.6477633796
 20
-16.9612649822
 10
-21.5706399822
 20
-16.9522505591
 10
-21.497522995
 20
-16.9352233155
 10
-21.4284124181
 20
-16.911184854
 10
-21.3613050463
 20
-16.8801351745
 10
-21.2982040847
 20
-16.8430758796
 10
-21.2381079309
 20
-16.7980037642
 10
-21.1810165847
 20
-16.7459204309
 10
-21.1810165847
 20
-16.7459204309
 10
-21.129934854
 20
-16.6898306873
 10
-21.0858643412
 20
-16.630736136
 10
-21.0488050463
 20
-16.5686367771
 10
-21.0177553668
 20
-16.5025310078
 10
-20.9947185078
 20
-16.4344220335
 10
-20.9776912642
 20
-16.3623066489
 10
-20.9686768412
 20
-16.2881880591
 10
-20.9656720335
 20
-16.2100630591
 10
-20.9696784437
 20
-16.1319380591
 10
-20.9806960719
 20
-16.0568178668
 10
-20.9997265206
 20
-15.9847024822
 10
-21.0247665847
 20
-15.9155919053
 10
-21.0568178668
 20
-15.8484845335
 10
-21.0958803668
 20
-15.7853835719
 10
-21.1419540847
 20
-15.7242858155
 10
-21.1950390206
 20
-15.6661928668
  0
LWPOLYLINE
  5
9F
330
1F
100
AcDbEntity
  8
0
  6
Continuous
 62
     7
100
AcDbPolyline
 90
      122
 70
   128
 43
0.0
 10
-25.3499746323
 20
-18.3507782432
 10
-23.7103535637
 20
-16.7111548457
 10
-23.7103535637
 20
-16.7111548457
 10
-23.0963711919
 20
-17.3251372175
 10
-23.0963711919
 20
-17.3251372175
 10
-24.238198115
 20
-18.4669641406
 10
-24.238198115
 20
-18.4669641406
 10
-23.7434064483
 20
-19.2482141406
 10
-23.7434064483
 20
-19.2482141406
 10
-23.6993359355
 20
-19.1740955509
 10
-23.6512590124
 20
-19.1049849739
 10
-23.6021804867
 20
-19.042885615
 10
-23.551098756
 20
-18.9877974739
 10
-23.551098756
 20
-18.9877974739
 10
-23.4299048457
 20
-18.8766195893
 10
-23.3027013201
 20
-18.7804657432
 10
-23.1714913842
 20
-18.6993359355
 10
-23.0342718329
 20
-18.6332301662
 10
-22.8920442688
 20
-18.583150038
 10
-22.7448086919
 20
-18.5470923457
 10
-22.5925651021
 20
-18.5270602944
 10
-22.4353134996
 20
-18.5220522816
 10
-22.2770602944
 20
-18.5320683073
 10
-22.1238151021
 20
-18.5581099739
 10
-21.9735747175
 20
-18.5991756791
 10
-21.8283423457
 20
-18.6562670252
 10
-21.6871163842
 20
-18.7283824098
 10
-21.5498968329
 20
-18.8165234355
 10
-21.4176852944
 20
-18.9196884996
 10
-21.2884785637
 20
-19.0388792047
 10
-21.2884785637
 20
-19.0388792047
 10
-21.168286256
 20
-19.169087538
 10
-21.0651211919
 20
-19.3063070893
 10
-20.9769801662
 20
-19.4485346534
 10
-20.9048647816
 20
-19.5967718329
 10
-20.848775038
 20
-19.7510186278
 10
-20.8077093329
 20
-19.911275038
 10
-20.7836708714
 20
-20.0765394611
 10
-20.7746564483
 20
-20.2488151021
 10
-20.7816676662
 20
-20.4210907432
 10
-20.8047045252
 20
-20.5863551662
 10
-20.8437670252
 20
-20.7456099739
 10
-20.8978535637
 20
-20.8988551662
 10
-20.9679657432
 20
-21.0450891406
 10
-21.0531019611
 20
-21.1853134996
 10
-21.1542638201
 20
-21.3195282432
 10
-21.2714513201
 20
-21.4477333714
 10
-21.2714513201
 20
-21.4477333714
 10
-21.3856340124
 20
-21.5539032432
 10
-21.5028215124
 20
-21.6480538842
 10
-21.6250170252
 20
-21.7301852944
 10
-21.7512189483
 20
-21.8002974739
 10
-21.8804256791
 20
-21.8583904226
 10
-22.0146404226
 20
-21.9044641406
 10
-22.1518599739
 20
-21.9395202303
 10
-22.294087538
 20
-21.9615554867
 10
-22.4373167047
 20
-21.9715715124
 10
-22.5795442688
 20
-21.9695683073
 10
-22.7217718329
 20
-21.9545442688
 10
-22.8619961919
 20
-21.926499397
 10
-23.0012189483
 20
-21.8854336919
 10
-23.1394401021
 20
-21.8313471534
 10
-23.2766596534
 20
-21.7652413842
 10
-23.4128776021
 20
-21.6861147816
 10
-23.4128776021
 20
-21.6861147816
 10
-22.7137590124
 20
-20.9869961919
 10
-22.7137590124
 20
-20.9869961919
 10
-22.5925651021
 20
-21.0200490765
 10
-22.4753776021
 20
-21.0370763201
 10
-22.3621965124
 20
-21.0380779226
 10
-22.2520202303
 20
-21.0220522816
 10
-22.1478535637
 20
-20.9910026021
 10
-22.0496965124
 20
-20.9459304867
 10
-21.9595522816
 20
-20.887837538
 10
-21.8764192688
 20
-20.8147205509
 10
-21.8764192688
 20
-20.8147205509
 10
-21.8243359355
 20
-20.7576292047
 10
-21.7802654226
 20
-20.6985346534
 10
-21.7422045252
 20
-20.6354336919
 10
-21.7121564483
 20
-20.5703295252
 10
-21.6881179867
 20
-20.5022205509
 10
-21.6720923457
 20
-20.4311067688
 10
-21.6620763201
 20
-20.3569881791
 10
-21.660073115
 20
-20.2798647816
 10
-21.6650811278
 20
-20.2027413842
 10
-21.6781019611
 20
-20.1276211919
 10
-21.6981340124
 20
-20.0535026021
 10
-21.7261788842
 20
-19.9823888201
 10
-21.7622365765
 20
-19.9132782432
 10
-21.8053054867
 20
-19.8461708714
 10
-21.8563872175
 20
-19.7800651021
 10
-21.9144801662
 20
-19.7169641406
 10
-21.9144801662
 20
-19.7169641406
 10
-21.9765795252
 20
-19.6598727944
 10
-22.0396804867
 20
-19.6097926662
 10
-22.1047846534
 20
-19.566723756
 10
-22.1718920252
 20
-19.5316676662
 10
-22.2410026021
 20
-19.5026211919
 10
-22.3111147816
 20
-19.481587538
 10
-22.3832301662
 20
-19.4685667047
 10
-22.457348756
 20
-19.4615554867
 10
-22.5304657432
 20
-19.4615554867
 10
-22.6015795252
 20
-19.4695683073
 10
-22.668686897
 20
-19.4825891406
 10
-22.7327894611
 20
-19.5036227944
 10
-22.7948888201
 20
-19.5306660637
 10
-22.8529817688
 20
-19.5657221534
 10
-22.9090715124
 20
-19.605786256
 10
-22.9611548457
 20
-19.6538631791
 10
-22.9611548457
 20
-19.6538631791
 10
-23.0122365765
 20
-19.7119561278
 10
-23.0563070893
 20
-19.7760586919
 10
-23.0923647816
 20
-19.8471724739
 10
-23.121411256
 20
-19.9242958714
 10
-23.1434465124
 20
-20.0084304867
 10
-23.1584705509
 20
-20.0985747175
 10
-23.1654817688
 20
-20.1947285637
 10
-23.1654817688
 20
-20.2968920252
 10
-23.1654817688
 20
-20.2968920252
 10
-23.8285426662
 20
-20.7175651021
 10
-23.8285426662
 20
-20.7175651021
 10
-25.3499769611
 20
-18.3507782432
  0
LWPOLYLINE
  5
A0
330
1F
100
AcDbEntity
  8
0
  6
Continuous
 62
     7
100
AcDbPolyline
 90
      179
 70
   128
 43
0.0
 10
-27.0940512419
 20
-21.8216216323
 10
-27.7340815682
 20
-22.4616456708
 10
-27.7340815682
 20
-22.4616456708
 10
-27.8132081708
 20
-22.3514693887
 10
-27.8823187477
 20
-22.2412931067
 10
-27.9404116964
 20
-22.1301152221
 10
-27.9894902221
 20
-22.0179357349
 10
-28.026549517
 20
-21.9047546452
 10
-28.0545943887
 20
-21.7905719529
 10
-28.0716216323
 20
-21.675387658
 10
-28.0786328503
 20
-21.5602033631
 10
-28.0786328503
 20
-21.5602033631
 10
-28.0736248375
 20
-21.4009485554
 10
-28.0525911836
 20
-21.2467017605
 10
-28.0165334913
 20
-21.0984645811
 10
-27.9654517605
 20
-20.9542338118
 10
-27.8983443887
 20
-20.816012658
 10
-27.8162129785
 20
-20.6817979144
 10
-27.7190575298
 20
-20.5535927862
 10
-27.60587644
 20
-20.4303956708
 10
-27.60587644
 20
-20.4303956708
 10
-27.495700158
 20
-20.3292338118
 10
-27.3825190682
 20
-20.2410927862
 10
-27.2643299657
 20
-20.1649709913
 10
-27.1411328503
 20
-20.1028716323
 10
-27.0149309272
 20
-20.0527915041
 10
-26.8837209913
 20
-20.0167338118
 10
-26.7485046452
 20
-19.9926953503
 10
-26.6092818887
 20
-19.9816777221
 10
-26.4710607349
 20
-19.9836809272
 10
-26.3388491964
 20
-19.9977033631
 10
-26.2126472734
 20
-20.0237450298
 10
-26.0914533631
 20
-20.0628075298
 10
-25.9772706708
 20
-20.1138892605
 10
-25.8680959913
 20
-20.1769902221
 10
-25.7659325298
 20
-20.2521104144
 10
-25.6687770811
 20
-20.34025144
 10
-25.6687770811
 20
-20.34025144
 10
-25.5626072093
 20
-20.4624469529
 10
-25.4774709913
 20
-20.5956600939
 10
-25.4133684272
 20
-20.7388892605
 10
-25.370299517
 20
-20.8931360554
 10
-25.3492658631
 20
-21.0553956708
 10
-25.3522706708
 20
-21.2236649016
 10
-25.3783123375
 20
-21.3959405426
 10
-25.4283924657
 20
-21.574225799
 10
-25.4283924657
 20
-21.574225799
 10
-25.3252274016
 20
-21.5231440682
 10
-25.2210607349
 20
-21.480075158
 10
-25.1178956708
 20
-21.4460206708
 10
-25.0137290041
 20
-21.4209806067
 10
-24.91056394
 20
-21.4049549657
 10
-24.8063972734
 20
-21.3969421452
 10
-24.7022306067
 20
-21.3979437477
 10
-24.59806394
 20
-21.4079597734
 10
-24.4959004785
 20
-21.4259886195
 10
-24.3957402221
 20
-21.4530318887
 10
-24.2995863759
 20
-21.4880879785
 10
-24.2054357349
 20
-21.5311568887
 10
-24.1152915041
 20
-21.5822386195
 10
-24.0271504785
 20
-21.6413331708
 10
-23.9430158631
 20
-21.7094421452
 10
-23.8608844528
 20
-21.78556394
 10
-23.8608844528
 20
-21.78556394
 10
-23.7507081708
 20
-21.9067578503
 10
-23.6555559272
 20
-22.0339613759
 10
-23.5764293246
 20
-22.1681761195
 10
-23.5123267605
 20
-22.3084004785
 10
-23.4632482349
 20
-22.4546344529
 10
-23.4301953503
 20
-22.6068780426
 10
-23.4121665041
 20
-22.7661328503
 10
-23.4091616964
 20
-22.9313972734
 10
-23.4221825298
 20
-23.097663299
 10
-23.4522306067
 20
-23.2599229144
 10
-23.4973027221
 20
-23.4181761195
 10
-23.5594020811
 20
-23.5724229144
 10
-23.6375270811
 20
-23.7216616964
 10
-23.7316777221
 20
-23.8668940682
 10
-23.8418540041
 20
-24.0081200298
 10
-23.9680559272
 20
-24.1443379785
 10
-23.9680559272
 20
-24.1443379785
 10
-24.097262658
 20
-24.2635286836
 10
-24.230475799
 20
-24.3676953503
 10
-24.3666937477
 20
-24.4558363759
 10
-24.5069181067
 20
-24.5289533631
 10
-24.6511488759
 20
-24.5870463118
 10
-24.7993860554
 20
-24.6291136195
 10
-24.9506280426
 20
-24.6551552862
 10
-25.10587644
 20
-24.6661729144
 10
-25.26212644
 20
-24.6611649016
 10
-25.4163732349
 20
-24.6411328503
 10
-25.5686168246
 20
-24.6040735554
 10
-25.7178556067
 20
-24.5509886195
 10
-25.8660927862
 20
-24.4818780426
 10
-26.011325158
 20
-24.3977434272
 10
-26.1555559272
 20
-24.2965815682
 10
-26.2967818887
 20
-24.1793940682
 10
-26.2967818887
 20
-24.1793940682
 10
-25.6377274016
 20
-23.5203395811
 10
-25.6377274016
 20
-23.5203395811
 10
-25.5596024016
 20
-23.573424517
 10
-25.4824790041
 20
-23.6194982349
 10
-25.4073588118
 20
-23.6575591323
 10
-25.3322386195
 20
-23.6876072093
 10
-25.2591216323
 20
-23.7106440682
 10
-25.1860046452
 20
-23.7256681067
 10
-25.1148908631
 20
-23.7336809272
 10
-25.0447786836
 20
-23.7336809272
 10
-24.9095623375
 20
-23.7136488759
 10
-24.7813572093
 20
-23.667575158
 10
-24.6591616964
 20
-23.5944581708
 10
-24.5439774016
 20
-23.4963011195
 10
-24.5439774016
 20
-23.4963011195
 10
-24.4888892605
 20
-23.4372065682
 10
-24.44181394
 20
-23.3751072093
 10
-24.4007482349
 20
-23.3110046452
 10
-24.3676953503
 20
-23.2459004785
 10
-24.3416536836
 20
-23.1767899016
 10
-24.3226232349
 20
-23.1066777221
 10
-24.3116056067
 20
-23.0345623375
 10
-24.3065975939
 20
-22.9594421452
 10
-24.3096024016
 20
-22.8853235554
 10
-24.3186168246
 20
-22.8132081708
 10
-24.3356440682
 20
-22.7450991964
 10
-24.3586809272
 20
-22.6789934272
 10
-24.3887290041
 20
-22.6148908631
 10
-24.425788299
 20
-22.5537931067
 10
-24.4688572093
 20
-22.495700158
 10
-24.51993894
 20
-22.440612017
 10
-24.51993894
 20
-22.440612017
 10
-24.5810366964
 20
-22.3855238759
 10
-24.6471424657
 20
-22.339450158
 10
-24.7162530426
 20
-22.3013892605
 10
-24.7903716323
 20
-22.2733443887
 10
-24.8684966323
 20
-22.2533123375
 10
-24.9506280426
 20
-22.2412931067
 10
-25.0377674657
 20
-22.2392899016
 10
-25.1279116964
 20
-22.245299517
 10
-25.2210607349
 20
-22.261325158
 10
-25.3152113759
 20
-22.2883684272
 10
-25.4103636195
 20
-22.3254277221
 10
-25.5055158631
 20
-22.3745062477
 10
-25.6016697093
 20
-22.4325991964
 10
-25.698825158
 20
-22.5027113759
 10
-25.7969822093
 20
-22.5828395811
 10
-25.8951392605
 20
-22.6739854144
 10
-25.8951392605
 20
-22.6739854144
 10
-26.4660527221
 20
-22.1030719529
 10
-26.4660527221
 20
-22.1030719529
 10
-26.3648908631
 20
-21.9788732349
 10
-26.284762658
 20
-21.8646905426
 10
-26.2236649016
 20
-21.7615254785
 10
-26.1825991964
 20
-21.6693780426
 10
-26.1575591323
 20
-21.5832402221
 10
-26.144538299
 20
-21.4991056067
 10
-26.1425350939
 20
-21.4149709913
 10
-26.1525511195
 20
-21.3328395811
 10
-26.1735847734
 20
-21.2547145811
 10
-26.2046344528
 20
-21.183600799
 10
-26.2446985554
 20
-21.1184966323
 10
-26.2947786836
 20
-21.0604036836
 10
-26.2947786836
 20
-21.0604036836
 10
-26.3688972734
 20
-20.9983043246
 10
-26.4500270811
 20
-20.9552354144
 10
-26.5371665041
 20
-20.9301953503
 10
-26.6313171452
 20
-20.9241857349
 10
-26.7264693887
 20
-20.9372065682
 10
-26.8176152221
 20
-20.9692578503
 10
-26.9037530426
 20
-21.0203395811
 10
-26.9868860554
 20
-21.0914533631
 10
-26.9868860554
 20
-21.0914533631
 10
-27.0509886195
 20
-21.1665735554
 10
-27.1020703503
 20
-21.2497065682
 10
-27.13712644
 20
-21.339850799
 10
-27.1591616964
 20
-21.4380078503
 10
-27.1661729144
 20
-21.5381681067
 10
-27.1571584913
 20
-21.6353235554
 10
-27.1331200298
 20
-21.730475799
 10
-27.0940575298
 20
-21.8216216323
  0
LWPOLYLINE
  5
A1
330
1F
100
AcDbEntity
  8
0
  6
Continuous
 62
     7
100
AcDbPolyline
 90
       12
 70
   128
 43
0.0
 10
-30.8012664318
 20
-23.8020804061
 10
-29.8036829702
 20
-22.8044842523
 10
-29.8036829702
 20
-22.8044842523
 10
-26.3040836113
 20
-26.3040836113
 10
-26.3040836113
 20
-26.3040836113
 10
-26.9661429061
 20
-26.9661429061
 10
-26.9661429061
 20
-26.9661429061
 10
-29.8397406625
 20
-24.0925451497
 10
-29.8397406625
 20
-24.0925451497
 10
-30.5598929061
 20
-24.8126973933
 10
-30.5598929061
 20
-24.8126973933
 10
-30.8012791241
 20
-23.8020804061
  0
LWPOLYLINE
  5
A2
330
1F
100
AcDbEntity
  8
0
  6
Continuous
 62
     7
100
AcDbPolyline
 90
       12
 70
   128
 43
0.0
 10
23.111730814
 20
-16.1125361662
 10
24.109331038
 20
-17.11013232
 10
24.109331038
 20
-17.11013232
 10
20.609731679
 20
-20.609731679
 10
20.609731679
 20
-20.609731679
 10
19.9476723841
 20
-19.9476723841
 10
19.9476723841
 20
-19.9476723841
 10
22.8212701405
 20
-17.0740746277
 10
22.8212701405
 20
-17.0740746277
 10
22.1011178969
 20
-16.3539223841
 10
22.1011178969
 20
-16.3539223841
 10
23.1117348841
 20
-16.1125361662
  0
LWPOLYLINE
  5
A3
330
1F
100
AcDbEntity
  8
0
  6
Continuous
 62
     7
100
AcDbPolyline
 90
      179
 70
   128
 43
0.0
 10
25.0921845436
 20
-19.8197577605
 10
24.4521696195
 20
-19.179733722
 10
24.4521696195
 20
-19.179733722
 10
24.5623459015
 20
-19.1006071195
 10
24.6725221836
 20
-19.0314965425
 10
24.7837000682
 20
-18.9734035938
 10
24.8958795554
 20
-18.9253266707
 10
25.0090606451
 20
-18.8872657733
 10
25.1232433374
 20
-18.8592209015
 10
25.2384276323
 20
-18.8421936579
 10
25.3536119272
 20
-18.83518244
 10
25.3536119272
 20
-18.83518244
 10
25.5128667348
 20
-18.8401904528
 10
25.6671135297
 20
-18.8612241066
 10
25.8153507092
 20
-18.8972817989
 10
25.9595814784
 20
-18.9483635297
 10
26.0978026323
 20
-19.0154709015
 10
26.2320173759
 20
-19.0976023118
 10
26.3602225041
 20
-19.1947577605
 10
26.4834196195
 20
-19.3079388502
 10
26.4834196195
 20
-19.3079388502
 10
26.5845814784
 20
-19.4181151323
 10
26.6727225041
 20
-19.531296222
 10
26.7488442989
 20
-19.6494853246
 10
26.8109436579
 20
-19.77268244
 10
26.8610237861
 20
-19.8988843631
 10
26.8970814784
 20
-20.0290926964
 10
26.92111994
 20
-20.1643090425
 10
26.9321375682
 20
-20.3035317989
 10
26.9301343631
 20
-20.4417529528
 10
26.9161119272
 20
-20.5749660938
 10
26.8900702605
 20
-20.7011680169
 10
26.8510077605
 20
-20.8223619272
 10
26.7999260297
 20
-20.9365446195
 10
26.7368250682
 20
-21.0457192989
 10
26.6617048759
 20
-21.1478827605
 10
26.5735638502
 20
-21.2450382092
 10
26.5735638502
 20
-21.2450382092
 10
26.4513683374
 20
-21.351208081
 10
26.3181551964
 20
-21.4363442989
 10
26.1749260297
 20
-21.5004468631
 10
26.0206792348
 20
-21.5435157733
 10
25.8584196195
 20
-21.5645494272
 10
25.6901503887
 20
-21.5615446195
 10
25.5178747477
 20
-21.5355029528
 10
25.3395894913
 20
-21.4854228246
 10
25.3395894913
 20
-21.4854228246
 10
25.390671222
 20
-21.5885878887
 10
25.4337401323
 20
-21.6927545554
 10
25.4677946195
 20
-21.7959196195
 10
25.4928346836
 20
-21.9000862861
 10
25.5088603246
 20
-22.0032513502
 10
25.5168731451
 20
-22.1074180169
 10
25.5158715425
 20
-22.2115846836
 10
25.5058555169
 20
-22.3157513502
 10
25.4878266707
 20
-22.4189164143
 10
25.4607834015
 20
-22.5180750682
 10
25.4257273118
 20
-22.6152305169
 10
25.3826584015
 20
-22.7083795554
 10
25.3315766707
 20
-22.7995253887
 10
25.2724821195
 20
-22.8866648118
 10
25.2043731451
 20
-22.9718010297
 10
25.1282513502
 20
-23.0529308374
 10
25.1282513502
 20
-23.0529308374
 10
25.00705744
 20
-23.1631071195
 10
24.8798539143
 20
-23.2582593631
 10
24.7456391707
 20
-23.3373859656
 10
24.6054148118
 20
-23.4014885297
 10
24.4591808374
 20
-23.4505670554
 10
24.3069372477
 20
-23.48361994
 10
24.14768244
 20
-23.5016487861
 10
23.9824180169
 20
-23.5036519913
 10
23.8161519913
 20
-23.4906311579
 10
23.6538923759
 20
-23.4615846836
 10
23.4956391707
 20
-23.4155109656
 10
23.3413923759
 20
-23.3544132092
 10
23.1921535938
 20
-23.2762882092
 10
23.046921222
 20
-23.1821375682
 10
22.9056952605
 20
-23.0719612861
 10
22.7694773118
 20
-22.9457593631
 10
22.7694773118
 20
-22.9457593631
 10
22.6502866066
 20
-22.8165526323
 10
22.54611994
 20
-22.6843410938
 10
22.4579789143
 20
-22.5471215425
 10
22.3848619272
 20
-22.4068971836
 10
22.3267689784
 20
-22.2626664143
 10
22.2847016707
 20
-22.1154308374
 10
22.2586600041
 20
-21.9631872477
 10
22.2476423759
 20
-21.8079388502
 10
22.2526503887
 20
-21.6516888502
 10
22.27268244
 20
-21.4974420554
 10
22.3097417348
 20
-21.3451984656
 10
22.3628266707
 20
-21.1959596836
 10
22.4319372477
 20
-21.0477225041
 10
22.5160718631
 20
-20.9024901323
 10
22.617233722
 20
-20.7582593631
 10
22.734421222
 20
-20.6170334015
 10
22.734421222
 20
-20.6170334015
 10
23.3934757092
 20
-21.2760878887
 10
23.3934757092
 20
-21.2760878887
 10
23.3403907733
 20
-21.3542128887
 10
23.2943170554
 20
-21.4313362861
 10
23.2562561579
 20
-21.5064564784
 10
23.226208081
 20
-21.5815766707
 10
23.203171222
 20
-21.6546936579
 10
23.1881471836
 20
-21.7268090425
 10
23.1801343631
 20
-21.7979228246
 10
23.1801343631
 20
-21.8680350041
 10
23.2001664143
 20
-22.0042529528
 10
23.2462401323
 20
-22.132458081
 10
23.3193571195
 20
-22.2546535938
 10
23.4175141707
 20
-22.3698378887
 10
23.4175141707
 20
-22.3698378887
 10
23.476608722
 20
-22.4249260297
 10
23.538708081
 20
-22.4720013502
 10
23.6028106451
 20
-22.5120654528
 10
23.6679148118
 20
-22.54611994
 10
23.7370253887
 20
-22.5711600041
 10
23.8071375682
 20
-22.5901904528
 10
23.8792529528
 20
-22.6022096836
 10
23.9543731451
 20
-22.6062160938
 10
24.0284917348
 20
-22.6042128887
 10
24.1006071195
 20
-22.5941968631
 10
24.1687160938
 20
-22.578171222
 10
24.2348218631
 20
-22.5551343631
 10
24.2989244272
 20
-22.5250862861
 10
24.3600221836
 20
-22.4880269913
 10
24.4181151323
 20
-22.444958081
 10
24.4732032733
 20
-22.3938763502
 10
24.4732032733
 20
-22.3938763502
 10
24.5282914143
 20
-22.3327785938
 10
24.5743651323
 20
-22.2666728246
 10
24.6124260297
 20
-22.1965606451
 10
24.6404709015
 20
-22.1234436579
 10
24.6605029528
 20
-22.0443170554
 10
24.6725221836
 20
-21.9621856451
 10
24.6745253887
 20
-21.8760478246
 10
24.6685157733
 20
-21.7849019913
 10
24.6524901323
 20
-21.6917529528
 10
24.6254468631
 20
-21.5976023118
 10
24.5883875682
 20
-21.5034516707
 10
24.5393090425
 20
-21.4082994272
 10
24.4812160938
 20
-21.312145581
 10
24.4111039143
 20
-21.2149901323
 10
24.3309757092
 20
-21.116833081
 10
24.2398298759
 20
-21.0186760297
 10
24.2398298759
 20
-21.0186760297
 10
24.8107433374
 20
-20.4477625682
 10
24.8107433374
 20
-20.4477625682
 10
24.9349420554
 20
-20.5489244272
 10
25.0491247477
 20
-20.6290526323
 10
25.1522898118
 20
-20.6901503887
 10
25.2444372477
 20
-20.7302144913
 10
25.3305750682
 20
-20.7552545554
 10
25.4147096836
 20
-20.7692769913
 10
25.4988442989
 20
-20.7702785938
 10
25.5809757092
 20
-20.7602625682
 10
25.6591007092
 20
-20.7402305169
 10
25.7302144913
 20
-20.7091808374
 10
25.7953186579
 20
-20.6691167348
 10
25.8534116066
 20
-20.6190366066
 10
25.8534116066
 20
-20.6190366066
 10
25.9155109656
 20
-20.5449180169
 10
25.9585798759
 20
-20.4637882092
 10
25.98361994
 20
-20.3766487861
 10
25.9896295554
 20
-20.2824981451
 10
25.976608722
 20
-20.1873459015
 10
25.94455744
 20
-20.0962000682
 10
25.8934757092
 20
-20.0100622477
 10
25.8223619272
 20
-19.9269292348
 10
25.8223619272
 20
-19.9269292348
 10
25.7472417348
 20
-19.8628266707
 10
25.664108722
 20
-19.8127465425
 10
25.5739644913
 20
-19.7766888502
 10
25.47580744
 20
-19.7546535938
 10
25.3756471836
 20
-19.7476423759
 10
25.2784917348
 20
-19.7566567989
 10
25.1833394913
 20
-19.7806952605
 10
25.0921936579
 20
-19.8197577605
  0
LWPOLYLINE
  5
A4
330
1F
100
AcDbEntity
  8
0
  6
Continuous
 62
     7
100
AcDbPolyline
 90
      122
 70
   128
 43
0.0
 10
28.5630226135
 20
-21.5638383292
 10
30.2026604445
 20
-23.2034617266
 10
30.2026604445
 20
-23.2034617266
 10
29.5886780727
 20
-23.8174440984
 10
29.5886780727
 20
-23.8174440984
 10
28.4468511497
 20
-22.6756171753
 10
28.4468511497
 20
-22.6756171753
 10
27.6656011497
 20
-23.170408842
 10
27.6656011497
 20
-23.170408842
 10
27.7397197394
 20
-23.2144793548
 10
27.8088303163
 20
-23.2615546753
 10
27.8709296753
 20
-23.3116348035
 10
27.9260178163
 20
-23.3627165343
 10
27.9260178163
 20
-23.3627165343
 10
28.0371957009
 20
-23.4839104445
 10
28.1333495471
 20
-23.6111139702
 10
28.2144793548
 20
-23.7423239061
 10
28.280585124
 20
-23.8795434574
 10
28.3306652522
 20
-24.0217710215
 10
28.3667229445
 20
-24.1690065984
 10
28.3867549958
 20
-24.3212501881
 10
28.3917630086
 20
-24.4785017907
 10
28.381746983
 20
-24.6367549958
 10
28.3557053163
 20
-24.7900001881
 10
28.3146396112
 20
-24.9402405727
 10
28.2575482651
 20
-25.0854729445
 10
28.1854328804
 20
-25.2266989061
 10
28.0972918548
 20
-25.3639184574
 10
27.9941267907
 20
-25.4961299958
 10
27.8749360856
 20
-25.6253367266
 10
27.8749360856
 20
-25.6253367266
 10
27.7447277522
 20
-25.7455290343
 10
27.6075082009
 20
-25.8486940984
 10
27.4652806368
 20
-25.936835124
 10
27.3170434574
 20
-26.0089505086
 10
27.1627966625
 20
-26.0650402522
 10
27.0025402522
 20
-26.1051043548
 10
26.8372758292
 20
-26.1301444189
 10
26.6650001881
 20
-26.1381572394
 10
26.4927245471
 20
-26.1311460215
 10
26.327460124
 20
-26.1081091625
 10
26.1682053163
 20
-26.0700482651
 10
26.014960124
 20
-26.0159617266
 10
25.8687261497
 20
-25.9458495471
 10
25.7285017907
 20
-25.8607133292
 10
25.5942870471
 20
-25.7595514702
 10
25.4660819189
 20
-25.6423639702
 10
25.4660819189
 20
-25.6423639702
 10
25.3599120471
 20
-25.5281812779
 10
25.2657614061
 20
-25.4109937779
 10
25.1836299958
 20
-25.2887982651
 10
25.1135178163
 20
-25.162596342
 10
25.0554248676
 20
-25.0323880086
 10
25.0093511497
 20
-24.8991748676
 10
24.9742950599
 20
-24.7609537138
 10
24.9522598035
 20
-24.6187261497
 10
24.9422437779
 20
-24.475496983
 10
24.944246983
 20
-24.3332694189
 10
24.9592710215
 20
-24.1920434574
 10
24.9873158933
 20
-24.0518190984
 10
25.0283815984
 20
-23.912596342
 10
25.0824681368
 20
-23.7743751881
 10
25.1485739061
 20
-23.6371556368
 10
25.2277005086
 20
-23.5009376881
 10
25.2277005086
 20
-23.5009376881
 10
25.9268190984
 20
-24.2000562779
 10
25.9268190984
 20
-24.2000562779
 10
25.8937662138
 20
-24.3212501881
 10
25.8767389702
 20
-24.4384376881
 10
25.8757373676
 20
-24.5516187779
 10
25.8917630086
 20
-24.6617950599
 10
25.9228126881
 20
-24.7659617266
 10
25.9678848035
 20
-24.8641187779
 10
26.0259777522
 20
-24.9542630086
 10
26.0990947394
 20
-25.0373960215
 10
26.0990947394
 20
-25.0373960215
 10
26.1561860856
 20
-25.0894793548
 10
26.2152806368
 20
-25.1335498676
 10
26.2783815984
 20
-25.1716107651
 10
26.3434857651
 20
-25.2026604445
 10
26.4115947394
 20
-25.2256973035
 10
26.4827085215
 20
-25.2417229445
 10
26.5568271112
 20
-25.2517389702
 10
26.6339505086
 20
-25.2537421753
 10
26.7110739061
 20
-25.2487341625
 10
26.7861940984
 20
-25.2357133292
 10
26.8603126881
 20
-25.2156812779
 10
26.9314264702
 20
-25.1876364061
 10
27.0005370471
 20
-25.1515787138
 10
27.0676444189
 20
-25.1085098035
 10
27.1337501881
 20
-25.0574280727
 10
27.1968511497
 20
-24.999335124
 10
27.1968511497
 20
-24.999335124
 10
27.2539424958
 20
-24.9372357651
 10
27.304022624
 20
-24.8741348035
 10
27.3470915343
 20
-24.8090306368
 10
27.382147624
 20
-24.7419232651
 10
27.4111940984
 20
-24.6728126881
 10
27.4322277522
 20
-24.6027005086
 10
27.4452485856
 20
-24.530585124
 10
27.4522598035
 20
-24.4564665343
 10
27.4522598035
 20
-24.3833495471
 10
27.444246983
 20
-24.3122357651
 10
27.4312261497
 20
-24.2451283933
 10
27.4101924958
 20
-24.1810258292
 10
27.3831492266
 20
-24.1189264702
 10
27.3480931368
 20
-24.0608335215
 10
27.3080290343
 20
-24.0047437779
 10
27.2599521112
 20
-23.9526604445
 10
27.2599521112
 20
-23.9526604445
 10
27.2018591625
 20
-23.9015787138
 10
27.1377565984
 20
-23.8585098035
 10
27.0666428163
 20
-23.8214505086
 10
26.9895194189
 20
-23.7924040343
 10
26.9053848035
 20
-23.7703687779
 10
26.8152405727
 20
-23.756346342
 10
26.7190867266
 20
-23.7483335215
 10
26.6169232651
 20
-23.7483335215
 10
26.6169232651
 20
-23.7483335215
 10
26.1962501881
 20
-23.085272624
 10
26.1962501881
 20
-23.085272624
 10
28.5630370471
 20
-21.5638383292
  0
LWPOLYLINE
  5
A5
330
1F
100
AcDbEntity
  8
0
  6
Continuous
 62
     7
100
AcDbPolyline
 90
       68
 70
   128
 43
0.0
 10
31.5350592136
 20
-25.9962201799
 10
31.4469413337
 20
-26.0773499876
 10
31.3537922953
 20
-26.1474621671
 10
31.2576384491
 20
-26.2065567183
 10
31.1564765901
 20
-26.2546336414
 10
31.0523099235
 20
-26.2916929363
 10
30.943135244
 20
-26.3177346029
 10
30.8299541542
 20
-26.333760244
 10
30.7127666542
 20
-26.3377666542
 10
30.5955791542
 20
-26.3317570388
 10
30.4823980645
 20
-26.3147297953
 10
30.3742249876
 20
-26.2866849235
 10
30.2690567183
 20
-26.2496256286
 10
30.1688964619
 20
-26.2005471029
 10
30.0727426158
 20
-26.1414525517
 10
29.9815967824
 20
-26.0713403722
 10
29.8934557568
 20
-25.9912121671
 10
29.8934557568
 20
-25.9912121671
 10
29.8133275517
 20
-25.9030711414
 10
29.7432153722
 20
-25.8119253081
 10
29.6851224235
 20
-25.7157714619
 10
29.6360438978
 20
-25.6156112055
 10
29.5989846029
 20
-25.5114445388
 10
29.5719413337
 20
-25.4022698594
 10
29.5559156927
 20
-25.2900903722
 10
29.5509076799
 20
-25.1729028722
 10
29.5559156927
 20
-25.0557153722
 10
29.5729429363
 20
-24.9425342824
 10
29.5999862055
 20
-24.8333596029
 10
29.6380471029
 20
-24.7291929363
 10
29.6871256286
 20
-24.6270294747
 10
29.7472217824
 20
-24.529874026
 10
29.8183355645
 20
-24.4367249876
 10
29.9004669747
 20
-24.3475823594
 10
29.9004669747
 20
-24.3475823594
 10
29.9866047953
 20
-24.2694573594
 10
30.0777506286
 20
-24.201348385
 10
30.1729028722
 20
-24.1442570388
 10
30.272061526
 20
-24.0971817183
 10
30.3772297953
 20
-24.061124026
 10
30.4864044747
 20
-24.0360839619
 10
30.5995855645
 20
-24.022061526
 10
30.7177746671
 20
-24.0180551158
 10
30.8359637696
 20
-24.0250663337
 10
30.9501464619
 20
-24.0420935773
 10
31.0593211414
 20
-24.0691368465
 10
31.1634878081
 20
-24.107197744
 10
31.2636480645
 20
-24.1552746671
 10
31.3598019106
 20
-24.2143692183
 10
31.450947744
 20
-24.2834797953
 10
31.5380871671
 20
-24.3626063978
 10
31.5380871671
 20
-24.3626063978
 10
31.6172137696
 20
-24.4487442183
 10
31.685322744
 20
-24.5398900517
 10
31.7434156927
 20
-24.6350422953
 10
31.7914926158
 20
-24.7352025517
 10
31.8285519106
 20
-24.8393692183
 10
31.8545935773
 20
-24.9475422953
 10
31.8706192183
 20
-25.0597217824
 10
31.8766288337
 20
-25.1769092824
 10
31.8716208209
 20
-25.2940967824
 10
31.8555951799
 20
-25.4072778722
 10
31.8295535132
 20
-25.5154509491
 10
31.7914926158
 20
-25.6206192183
 10
31.7434156927
 20
-25.7207794747
 10
31.685322744
 20
-25.8169333209
 10
31.6152105645
 20
-25.9080791542
 10
31.5350823594
 20
-25.9962201799
  0
LWPOLYLINE
  5
A6
330
1F
100
AcDbEntity
  8
0
  6
Continuous
 62
     7
100
AcDbPolyline
 90
       68
 70
   128
 43
0.0
 10
31.2476158142
 20
-25.7187762696
 10
31.3027105645
 20
-25.6586801158
 10
31.3507874876
 20
-25.5965807568
 10
31.3918531927
 20
-25.5314765901
 10
31.4249060773
 20
-25.4633676158
 10
31.4519493465
 20
-25.3932554363
 10
31.4709797953
 20
-25.3211400517
 10
31.482999026
 20
-25.2460198594
 10
31.4880070388
 20
-25.1688964619
 10
31.4850022312
 20
-25.0917730645
 10
31.4759878081
 20
-25.0176544747
 10
31.4589605645
 20
-24.9465406927
 10
31.4359237055
 20
-24.8784317183
 10
31.404874026
 20
-24.8133275517
 10
31.3668131286
 20
-24.7502265901
 10
31.3227426158
 20
-24.6911320388
 10
31.2706592824
 20
-24.6340406927
 10
31.2706592824
 20
-24.6340406927
 10
31.2125663337
 20
-24.5809557568
 10
31.1514685773
 20
-24.5348820388
 10
31.0873660132
 20
-24.4958195388
 10
31.021260244
 20
-24.4647698594
 10
30.9511480645
 20
-24.4397297953
 10
30.8790326799
 20
-24.4227025517
 10
30.802910885
 20
-24.4116849235
 10
30.724785885
 20
-24.4086801158
 10
30.646660885
 20
-24.412686526
 10
30.5705390901
 20
-24.4237041542
 10
30.4984237055
 20
-24.4417330004
 10
30.428311526
 20
-24.4667730645
 10
30.3612041542
 20
-24.4988243465
 10
30.2971015901
 20
-24.5378868465
 10
30.2350022312
 20
-24.5849621671
 10
30.1769092824
 20
-24.6380471029
 10
30.1769092824
 20
-24.6380471029
 10
30.1238243465
 20
-24.6961400517
 10
30.0787522312
 20
-24.7562362055
 10
30.0396897312
 20
-24.8203387696
 10
30.0076384491
 20
-24.8874461414
 10
29.982598385
 20
-24.9575583209
 10
29.9645695388
 20
-25.0306753081
 10
29.9535519106
 20
-25.1077987055
 10
29.9495455004
 20
-25.1869253081
 10
29.9525503081
 20
-25.2660519106
 10
29.9615647312
 20
-25.3431753081
 10
29.9785919747
 20
-25.4162922953
 10
30.0026304363
 20
-25.4854028722
 10
30.0336801158
 20
-25.552510244
 10
30.0707394106
 20
-25.6156112055
 10
30.115811526
 20
-25.6757073594
 10
30.1678948594
 20
-25.7327987055
 10
30.1678948594
 20
-25.7327987055
 10
30.2239846029
 20
-25.7838804363
 10
30.2830791542
 20
-25.8279509491
 10
30.3451785132
 20
-25.865010244
 10
30.4112842824
 20
-25.8960599235
 10
30.4793932568
 20
-25.9190967824
 10
30.5515086414
 20
-25.936124026
 10
30.6256272312
 20
-25.9451384491
 10
30.7037522312
 20
-25.9481432568
 10
30.7818772312
 20
-25.9441368465
 10
30.8569974235
 20
-25.9331192183
 10
30.9291128081
 20
-25.9140887696
 10
30.998223385
 20
-25.8890487055
 10
31.0653307568
 20
-25.8569974235
 10
31.1284317183
 20
-25.8179349235
 10
31.1895294747
 20
-25.7718612055
 10
31.2476224235
 20
-25.7187762696
  0
LWPOLYLINE
  5
A7
330
1F
100
AcDbEntity
  8
0
  6
Continuous
 62
     7
100
AcDbPolyline
 90
       68
 70
   128
 43
0.0
 10
24.636387825
 20
30.1752616263
 10
24.7175292545
 20
30.0871206007
 10
24.787641434
 20
29.9939715622
 10
24.8467359853
 20
29.8978177161
 10
24.8948129084
 20
29.7966558571
 10
24.9318722032
 20
29.6924891904
 10
24.9579138699
 20
29.5833145109
 10
24.9739395109
 20
29.4701334212
 10
24.9779459212
 20
29.3529459212
 10
24.9719363058
 20
29.2357584212
 10
24.9549090622
 20
29.1225773314
 10
24.9268641904
 20
29.0144042545
 10
24.888803293
 20
28.9092359853
 10
24.8407263699
 20
28.8090757289
 10
24.7816318186
 20
28.7129218827
 10
24.7115196391
 20
28.6217760494
 10
24.631391434
 20
28.5336350237
 10
24.631391434
 20
28.5336350237
 10
24.5432504084
 20
28.4535068186
 10
24.452104575
 20
28.3833946391
 10
24.3559507289
 20
28.3253016904
 10
24.2557904725
 20
28.2762231648
 10
24.1516238058
 20
28.2391638699
 10
24.0424491263
 20
28.2121206007
 10
23.9302696391
 20
28.1960949596
 10
23.8130821391
 20
28.1910869468
 10
23.6958946391
 20
28.1960949596
 10
23.5827135494
 20
28.2131222032
 10
23.4735388699
 20
28.2401654725
 10
23.3683706007
 20
28.2782263699
 10
23.2672087417
 20
28.3273048955
 10
23.170053293
 20
28.3874010494
 10
23.0769042545
 20
28.4585148314
 10
22.9877616263
 20
28.5406462417
 10
22.9877616263
 20
28.5406462417
 10
22.9096366263
 20
28.6267840622
 10
22.8415276519
 20
28.7179298955
 10
22.7844363058
 20
28.8130821391
 10
22.7373609853
 20
28.912240793
 10
22.701303293
 20
29.0174090622
 10
22.6762632289
 20
29.1265837417
 10
22.662240793
 20
29.2397648314
 10
22.6582343827
 20
29.357953934
 10
22.6652456007
 20
29.4761430366
 10
22.6822728443
 20
29.5903257289
 10
22.7093161135
 20
29.6995004084
 10
22.7473770109
 20
29.803667075
 10
22.795453934
 20
29.9038273314
 10
22.8545484853
 20
29.9999811776
 10
22.9236590622
 20
30.0911270109
 10
23.0027856648
 20
30.178266434
 10
23.0027856648
 20
30.178266434
 10
23.0889234853
 20
30.2573930366
 10
23.1800693186
 20
30.3255020109
 10
23.2752215622
 20
30.3835949596
 10
23.3753818186
 20
30.4316718827
 10
23.4795484853
 20
30.4687311776
 10
23.5877215622
 20
30.4947728443
 10
23.6999010494
 20
30.5107984853
 10
23.8170885494
 20
30.5168081007
 10
23.9342760494
 20
30.5118000878
 10
24.0474571391
 20
30.4957744468
 10
24.1556302161
 20
30.4697327802
 10
24.2597968827
 20
30.4316718827
 10
24.3609587417
 20
30.3835949596
 10
24.4571125878
 20
30.3255020109
 10
24.5482584212
 20
30.2553898314
 10
24.6363994468
 20
30.1752616263
  0
LWPOLYLINE
  5
A8
330
1F
100
AcDbEntity
  8
0
  6
Continuous
 62
     7
100
AcDbPolyline
 90
       68
 70
   128
 43
0.0
 10
24.3589431047
 20
29.8878016904
 10
24.2988593827
 20
29.9428898314
 10
24.2367600237
 20
29.9909667545
 10
24.1716558571
 20
30.0320324596
 10
24.1035468827
 20
30.0650853443
 10
24.0344363058
 20
30.0921286135
 10
23.9623209212
 20
30.1111590622
 10
23.8872007289
 20
30.123178293
 10
23.8100773314
 20
30.1281863058
 10
23.732953934
 20
30.1251814981
 10
23.6588353443
 20
30.116167075
 10
23.5877215622
 20
30.0991398314
 10
23.5186109853
 20
30.0761029725
 10
23.4535068186
 20
30.045053293
 10
23.3904058571
 20
30.0069923955
 10
23.3313113058
 20
29.9629218827
 10
23.2742199596
 20
29.9108385494
 10
23.2742199596
 20
29.9108385494
 10
23.2211350237
 20
29.8527456007
 10
23.1750613058
 20
29.7916478443
 10
23.1359988058
 20
29.7275452802
 10
23.1049491263
 20
29.6614395109
 10
23.0799090622
 20
29.5913273314
 10
23.0628818186
 20
29.5192119468
 10
23.0518641904
 20
29.4430901519
 10
23.0488593827
 20
29.3649651519
 10
23.052865793
 20
29.2868401519
 10
23.0638834212
 20
29.2107183571
 10
23.0819122673
 20
29.1386029725
 10
23.1069523314
 20
29.068490793
 10
23.1390036135
 20
29.0013834212
 10
23.1780661135
 20
28.9372808571
 10
23.225141434
 20
28.8751814981
 10
23.2782263699
 20
28.8170885494
 10
23.2782263699
 20
28.8170885494
 10
23.3363193186
 20
28.7640036135
 10
23.3964154725
 20
28.7189314981
 10
23.4605180366
 20
28.6798689981
 10
23.5276254084
 20
28.6478177161
 10
23.5977375878
 20
28.6227776519
 10
23.670854575
 20
28.6047488058
 10
23.7479779725
 20
28.5937311776
 10
23.827104575
 20
28.5897247673
 10
23.9062311776
 20
28.592729575
 10
23.983354575
 20
28.6017439981
 10
24.0564715622
 20
28.6187712417
 10
24.1255821391
 20
28.6428097032
 10
24.1926895109
 20
28.6738593827
 10
24.2557904725
 20
28.7109186776
 10
24.3158866263
 20
28.755990793
 10
24.3729779725
 20
28.8080741263
 10
24.3729779725
 20
28.8080741263
 10
24.4240597032
 20
28.8641638699
 10
24.4681302161
 20
28.9232584212
 10
24.5051895109
 20
28.9853577802
 10
24.5362391904
 20
29.0514635494
 10
24.5592760494
 20
29.1195725237
 10
24.576303293
 20
29.1916879084
 10
24.5853177161
 20
29.2658064981
 10
24.5883225237
 20
29.3439314981
 10
24.5843161135
 20
29.4220564981
 10
24.5732984853
 20
29.4971766904
 10
24.5542680366
 20
29.569292075
 10
24.5292279725
 20
29.6384026519
 10
24.4971766904
 20
29.7055100237
 10
24.4581141904
 20
29.7686109853
 10
24.4120404725
 20
29.8297087417
 10
24.3589555366
 20
29.8878016904
  0
LWPOLYLINE
  5
A9
330
1F
100
AcDbEntity
  8
0
  6
Continuous
 62
     7
100
AcDbPolyline
 90
      122
 70
   128
 43
0.0
 10
20.2040076256
 20
27.2032163141
 10
21.8436409935
 20
28.8428397115
 10
21.8436409935
 20
28.8428397115
 10
22.4576233653
 20
28.2288573397
 10
22.4576233653
 20
28.2288573397
 10
21.3157964423
 20
27.0870304166
 10
21.3157964423
 20
27.0870304166
 10
21.8105881089
 20
26.3057804166
 10
21.8105881089
 20
26.3057804166
 10
21.8546586217
 20
26.3798990064
 10
21.9027355448
 20
26.4490095833
 10
21.9518140705
 20
26.5111089423
 10
22.0028958012
 20
26.5661970833
 10
22.0028958012
 20
26.5661970833
 10
22.1240897115
 20
26.6773749679
 10
22.2512932371
 20
26.7735288141
 10
22.382503173
 20
26.8546586217
 10
22.5197227243
 20
26.920764391
 10
22.6619502884
 20
26.9708445192
 10
22.8091858653
 20
27.0069022115
 10
22.9614294551
 20
27.0269342628
 10
23.1186810576
 20
27.0319422756
 10
23.2769342628
 20
27.0219262499
 10
23.4301794551
 20
26.9958845833
 10
23.5804198397
 20
26.9548188782
 10
23.7256522115
 20
26.897727532
 10
23.866878173
 20
26.8256121474
 10
24.0040977243
 20
26.7374711217
 10
24.1363092628
 20
26.6343060576
 10
24.2655159935
 20
26.5151153525
 10
24.2655159935
 20
26.5151153525
 10
24.3857083012
 20
26.3849070192
 10
24.4888733653
 20
26.2476874679
 10
24.577014391
 20
26.1054599038
 10
24.6491297756
 20
25.9572227243
 10
24.7052195192
 20
25.8029759294
 10
24.7462852243
 20
25.6427195192
 10
24.7703236858
 20
25.4774550961
 10
24.7793381089
 20
25.3051794551
 10
24.772326891
 20
25.1329038141
 10
24.749290032
 20
24.967639391
 10
24.710227532
 20
24.8083845833
 10
24.6561409935
 20
24.655139391
 10
24.5860288141
 20
24.5089054166
 10
24.5008925961
 20
24.3686810576
 10
24.3997307371
 20
24.2344663141
 10
24.2825432371
 20
24.1062611858
 10
24.2825432371
 20
24.1062611858
 10
24.1683605448
 20
24.0000913141
 10
24.0511730448
 20
23.905940673
 10
23.928977532
 20
23.8238092628
 10
23.8027756089
 20
23.7536970833
 10
23.6735688782
 20
23.6956041346
 10
23.5393541346
 20
23.6495304166
 10
23.4021345833
 20
23.6144743269
 10
23.2599070192
 20
23.5924390705
 10
23.1166778525
 20
23.5824230448
 10
22.9744502884
 20
23.5844262499
 10
22.8322227243
 20
23.5994502884
 10
22.6919983653
 20
23.6274951602
 10
22.5527756089
 20
23.6685608653
 10
22.4145544551
 20
23.7226474038
 10
22.2773349038
 20
23.788753173
 10
22.1411169551
 20
23.8678797756
 10
22.1411169551
 20
23.8678797756
 10
22.8402355448
 20
24.5669983653
 10
22.8402355448
 20
24.5669983653
 10
22.9614294551
 20
24.5339454807
 10
23.0786169551
 20
24.5169182371
 10
23.1917980448
 20
24.5159166346
 10
23.3019743269
 20
24.5319422756
 10
23.4061409935
 20
24.5629919551
 10
23.5042980448
 20
24.6080640705
 10
23.5944422756
 20
24.6661570192
 10
23.6775752884
 20
24.7392740064
 10
23.6775752884
 20
24.7392740064
 10
23.7296586217
 20
24.7963653525
 10
23.7737291346
 20
24.8554599038
 10
23.811790032
 20
24.9185608653
 10
23.8418381089
 20
24.983665032
 10
23.8658765705
 20
25.0517740064
 10
23.8819022115
 20
25.1228877884
 10
23.8919182371
 20
25.1970063782
 10
23.8939214423
 20
25.2741297756
 10
23.8889134294
 20
25.351253173
 10
23.8758925961
 20
25.4263733653
 10
23.8558605448
 20
25.5004919551
 10
23.827815673
 20
25.5716057371
 10
23.7917579807
 20
25.6407163141
 10
23.7486890705
 20
25.7078236858
 10
23.6976073397
 20
25.7739294551
 10
23.639514391
 20
25.8370304166
 10
23.639514391
 20
25.8370304166
 10
23.577415032
 20
25.8941217628
 10
23.5143140705
 20
25.944201891
 10
23.4492099038
 20
25.9872708012
 10
23.382102532
 20
26.022326891
 10
23.3129919551
 20
26.0513733653
 10
23.2428797756
 20
26.0724070192
 10
23.170764391
 20
26.0854278525
 10
23.0966458012
 20
26.0924390705
 10
23.0235288141
 20
26.0924390705
 10
22.952415032
 20
26.0844262499
 10
22.8853076602
 20
26.0714054166
 10
22.8212050961
 20
26.0503717628
 10
22.7591057371
 20
26.0233284935
 10
22.7010127884
 20
25.9882724038
 10
22.6449230448
 20
25.9482083012
 10
22.5928397115
 20
25.9001313782
 10
22.5928397115
 20
25.9001313782
 10
22.5417579807
 20
25.8420384294
 10
22.4976874679
 20
25.7779358653
 10
22.4616297756
 20
25.7068220833
 10
22.4325833012
 20
25.6296986858
 10
22.4105480448
 20
25.5455640705
 10
22.3955240064
 20
25.4554198397
 10
22.3885127884
 20
25.3592659935
 10
22.3885127884
 20
25.257102532
 10
22.3885127884
 20
25.257102532
 10
21.725451891
 20
24.8364294551
 10
21.725451891
 20
24.8364294551
 10
20.2040175961
 20
27.2032163141
  0
LWPOLYLINE
  5
AA
330
1F
100
AcDbEntity
  8
0
  6
Continuous
 62
     7
100
AcDbPolyline
 90
       22
 70
   128
 43
0.0
 10
18.1955099106
 20
25.3709947197
 10
18.8615796556
 20
26.0370604249
 10
18.8615796556
 20
26.0370604249
 10
21.1151854249
 20
23.7834546556
 10
21.1151854249
 20
23.7834546556
 10
21.4266838223
 20
24.0949530531
 10
21.4266838223
 20
24.0949530531
 10
22.0426693992
 20
23.4789674762
 10
22.0426693992
 20
23.4789674762
 10
21.7311710018
 20
23.1674690787
 10
21.7311710018
 20
23.1674690787
 10
22.4493200403
 20
22.4493200403
 10
22.4493200403
 20
22.4493200403
 10
21.7982783736
 20
21.7982783736
 10
21.7982783736
 20
21.7982783736
 10
21.0801293351
 20
22.5164274121
 10
21.0801293351
 20
22.5164274121
 10
19.5526854249
 20
20.9889835018
 10
19.5526854249
 20
20.9889835018
 10
18.9366998479
 20
21.6049690787
 10
18.9366998479
 20
21.6049690787
 10
18.1955139505
 20
25.3709947197
  0
LWPOLYLINE
  5
AB
330
1F
100
AcDbEntity
  8
0
  6
Continuous
 62
     7
100
AcDbPolyline
 90
        6
 70
   128
 43
0.0
 10
20.4641371965
 20
23.132412989
 10
19.2912671556
 20
24.3052895915
 10
19.2912671556
 20
24.3052895915
 10
19.6648649121
 20
22.3331341428
 10
19.6648649121
 20
22.3331341428
 10
20.4641437582
 20
23.132412989
  0
CIRCLE
  5
AC
330
1F
100
AcDbEntity
  8
0
  6
Continuous
 62
     7
370
    25
100
AcDbCircle
 10
0.0
 20
-0.147674305
 30
0.0
 40
48.68372502002705
  0
CIRCLE
  5
BB
330
1F
100
AcDbEntity
  8
0
  6
Continuous
 62
     7
370
    25
100
AcDbCircle
 10
29.6823694264
 20
44.9528443872
 30
0.0
 40
4.548322087519274
  0
CIRCLE
  5
BC
330
1F
100
AcDbEntity
  8
0
  6
Continuous
 62
     7
370
    25
100
AcDbCircle
 10
-29.6823694264
 20
44.9528443872
 30
0.0
 40
4.54832208751921
  0
CIRCLE
  5
BD
330
1F
100
AcDbEntity
  8
0
  6
Continuous
 62
     7
370
    25
100
AcDbCircle
 10
-29.6336302197
 20
44.8765676334
 30
0.0
 40
3.640783532284303
  0
CIRCLE
  5
BE
330
1F
100
AcDbEntity
  8
0
  6
Continuous
 62
     7
370
    25
100
AcDbCircle
 10
29.6336302197
 20
44.8765676334
 30
0.0
 40
3.64078353228431
  0
LINE
  5
22F
330
1F
100
AcDbEntity
  8
0
  6
Continuous
 62
     7
370
    25
100
AcDbLine
 10
54.6535922829
 20
5.2269406241
 30
0.0
 11
54.6535922829
 21
0.7885640093
 31
0.0
  0
LINE
  5
230
330
1F
100
AcDbEntity
  8
0
  6
Continuous
 62
     7
370
    25
100
AcDbLine
 10
43.7228738263
 20
-25.3910872783
 30
0.0
 11
51.0300465041
 21
-12.7346929408
 31
0.0
  0
LINE
  5
231
330
1F
100
AcDbEntity
  8
0
  6
Continuous
 62
     7
370
    25
100
AcDbLine
 10
-51.0300465041
 20
-12.7346929408
 30
0.0
 11
-43.7228738263
 21
-25.3910872783
 31
0.0
  0
LINE
  5
232
330
1F
100
AcDbEntity
  8
0
  6
Continuous
 62
     7
370
    25
100
AcDbLine
 10
-54.6535922829
 20
5.2269406241
 30
0.0
 11
-54.6535922829
 21
0.7885640092
 31
0.0
  0
LINE
  5
233
330
1F
100
AcDbEntity
  8
0
  6
Continuous
 62
     7
370
    25
100
AcDbLine
 10
-51.0300465041
 20
18.7501975741
 30
0.0
 11
-33.693705833
 21
48.7776204336
 31
0.0
  0
LINE
  5
234
330
1F
100
AcDbEntity
  8
0
  6
Continuous
 62
     7
370
    25
100
AcDbLine
 10
-30.989054443
 20
50.3391516417
 30
0.0
 11
-33.693705833
 21
48.7776204336
 31
0.0
  0
LINE
  5
235
330
1F
100
AcDbEntity
  8
0
  6
Continuous
 62
     7
370
    25
100
AcDbLine
 10
30.989054443
 20
50.3391516417
 30
0.0
 11
-30.989054443
 21
50.3391516417
 31
0.0
  0
LINE
  5
236
330
1F
100
AcDbEntity
  8
0
  6
Continuous
 62
     7
370
    25
100
AcDbLine
 10
33.693705833
 20
48.7776204336
 30
0.0
 11
30.989054443
 21
50.3391516417
 31
0.0
  0
LINE
  5
237
330
1F
100
AcDbEntity
  8
0
  6
Continuous
 62
     7
370
    25
100
AcDbLine
 10
51.0300465041
 20
18.7501975741
 30
0.0
 11
33.693705833
 21
48.7776204336
 31
0.0
  0
LINE
  5
238
330
1F
100
AcDbEntity
  8
0
  6
Continuous
 62
     7
370
    25
100
AcDbLine
 10
-20.2052476313
 20
-41.1214316695
 30
0.0
 11
-19.6012079208
 21
-39.9369414543
 31
0.0
  0
LINE
  5
239
330
1F
100
AcDbEntity
  8
0
  6
Continuous
 62
     7
370
    25
100
AcDbLine
 10
-15.2027308486
 20
-43.2329220651
 30
0.0
 11
-14.7482423263
 21
-41.9853084441
 31
0.0
  0
LINE
  5
23A
330
1F
100
AcDbEntity
  8
0
  6
Continuous
 62
     7
370
    25
100
AcDbLine
 10
15.2027308486
 20
-43.2329220651
 30
0.0
 11
14.7482423263
 21
-41.9853084441
 31
0.0
  0
LINE
  5
23B
330
1F
100
AcDbEntity
  8
0
  6
Continuous
 62
     7
370
    25
100
AcDbLine
 10
20.2052476313
 20
-41.1214316695
 30
0.0
 11
19.6012079208
 21
-39.9369414543
 31
0.0
  0
LINE
  5
23C
330
1F
100
AcDbEntity
  8
0
  6
Continuous
 62
     7
370
    25
100
AcDbLine
 10
-2.2998876051
 20
-48.1616384519
 30
0.0
 11
-2.3149194532
 21
-48.4666145123
 31
0.0
  0
LINE
  5
23D
330
1F
100
AcDbEntity
  8
0
  6
Continuous
 62
     7
370
    25
100
AcDbLine
 10
1.2677126055
 20
-48.5054288612
 30
0.0
 11
1.2594807582
 21
-48.2002007612
 31
0.0
  0
LINE
  5
23E
330
1F
100
AcDbEntity
  8
0
  6
Continuous
 62
     7
370
    25
100
AcDbLine
 10
-17.7596794703
 20
-44.8142887408
 30
0.0
 11
-17.8757550575
 21
-45.0973868398
 31
0.0
  0
LINE
  5
23F
330
1F
100
AcDbEntity
  8
0
  6
Continuous
 62
     7
370
    25
100
AcDbLine
 10
-14.4998428841
 20
-46.297376848
 30
0.0
 11
-14.405688664
 21
-46.0064866561
 31
0.0
  0
LINE
  5
240
330
1F
100
AcDbEntity
  8
0
  6
Continuous
 62
     7
370
    25
100
AcDbLine
 10
-31.2949344951
 20
-36.6285214574
 30
0.0
 11
-31.4994752303
 21
-36.8581181548
 31
0.0
  0
LINE
  5
241
330
1F
100
AcDbEntity
  8
0
  6
Continuous
 62
     7
370
    25
100
AcDbLine
 10
-28.696115409
 20
-39.0892462852
 30
0.0
 11
-28.5097781923
 21
-38.8451618357
 31
0.0
  0
LINE
  5
242
330
1F
100
AcDbEntity
  8
0
  6
Continuous
 62
     7
370
    25
100
AcDbLine
 10
-41.4388977764
 20
-24.4913915021
 30
0.0
 11
-41.7097384972
 21
-24.6416610648
 31
0.0
  0
LINE
  5
243
330
1F
100
AcDbEntity
  8
0
  6
Continuous
 62
     7
370
    25
100
AcDbLine
 10
-39.7827185632
 20
-27.6621499649
 30
0.0
 11
-39.5243908786
 21
-27.4922669637
 31
0.0
  0
LINE
  5
244
330
1F
100
AcDbEntity
  8
0
  6
Continuous
 62
     7
370
    25
100
AcDbLine
 10
-47.0923134928
 20
-9.7181452326
 30
0.0
 11
-47.4001044046
 21
-9.7718582534
 31
0.0
  0
LINE
  5
245
330
1F
100
AcDbEntity
  8
0
  6
Continuous
 62
     7
370
    25
100
AcDbLine
 10
-46.5582468686
 20
-13.2543910832
 30
0.0
 11
-46.2559225291
 21
-13.1780643579
 31
0.0
  0
LINE
  5
246
330
1F
100
AcDbEntity
  8
0
  6
Continuous
 62
     7
370
    25
100
AcDbLine
 10
-47.6425463298
 20
6.0903068874
 30
0.0
 11
-47.9539335115
 21
6.1399164161
 31
0.0
  0
LINE
  5
247
330
1F
100
AcDbEntity
  8
0
  6
Continuous
 62
     7
370
    25
100
AcDbLine
 10
-48.2884667001
 20
2.5727261257
 30
0.0
 11
-47.974907239
 21
2.5462800218
 31
0.0
  0
LINE
  5
248
330
1F
100
AcDbEntity
  8
0
  6
Continuous
 62
     7
370
    25
100
AcDbLine
 10
-43.0299700217
 20
21.2208737772
 30
0.0
 11
-43.3112098404
 21
21.3693752615
 31
0.0
  0
LINE
  5
249
330
1F
100
AcDbEntity
  8
0
  6
Continuous
 62
     7
370
    25
100
AcDbLine
 10
-44.785881892
 20
18.1040879293
 30
0.0
 11
-44.4950663422
 21
17.9767894734
 31
0.0
  0
LINE
  5
24A
330
1F
100
AcDbEntity
  8
0
  6
Continuous
 62
     7
370
    25
100
AcDbLine
 10
-33.7544287829
 20
34.0339237393
 30
0.0
 11
-33.9750445404
 21
34.2661701077
 31
0.0
  0
LINE
  5
24B
330
1F
100
AcDbEntity
  8
0
  6
Continuous
 62
     7
370
    25
100
AcDbLine
 10
-36.4300518562
 20
31.6566302821
 30
0.0
 11
-36.1934945951
 21
31.4413288689
 31
0.0
  0
LINE
  5
24C
330
1F
100
AcDbEntity
  8
0
  6
Continuous
 62
     7
370
    25
100
AcDbLine
 10
-20.8210714316
 20
43.1409639954
 30
0.0
 11
-20.9571559874
 21
43.4327331185
 31
0.0
  0
LINE
  5
24D
330
1F
100
AcDbEntity
  8
0
  6
Continuous
 62
     7
370
    25
100
AcDbLine
 10
-24.1264604314
 20
41.7617249309
 30
0.0
 11
-23.9697961087
 21
41.4808064408
 31
0.0
  0
LINE
  5
24E
330
1F
100
AcDbEntity
  8
0
  6
Continuous
 62
     7
370
    25
100
AcDbLine
 10
-5.6314279185
 20
47.5551054235
 30
0.0
 11
-5.6682343993
 21
47.8757249579
 31
0.0
  0
LINE
  5
24F
330
1F
100
AcDbEntity
  8
0
  6
Continuous
 62
     7
370
    25
100
AcDbLine
 10
-9.2083926582
 20
47.3243280738
 30
0.0
 11
-9.1485982842
 21
47.0072890157
 31
0.0
  0
LINE
  5
250
330
1F
100
AcDbEntity
  8
0
  6
Continuous
 62
     7
370
    25
100
AcDbLine
 10
10.1684681903
 20
46.7980073074
 30
0.0
 11
10.2349283376
 21
47.11367852
 31
0.0
  0
LINE
  5
251
330
1F
100
AcDbEntity
  8
0
  6
Continuous
 62
     7
370
    25
100
AcDbLine
 10
6.7075473424
 20
47.7416453476
 30
0.0
 11
6.6639921195
 21
47.4218964545
 31
0.0
  0
LINE
  5
252
330
1F
100
AcDbEntity
  8
0
  6
Continuous
 62
     7
370
    25
100
AcDbLine
 10
24.8664529905
 20
40.9517129755
 30
0.0
 11
25.0289777779
 21
41.2291733608
 31
0.0
  0
LINE
  5
253
330
1F
100
AcDbEntity
  8
0
  6
Continuous
 62
     7
370
    25
100
AcDbLine
 10
21.8966205102
 20
42.9684539503
 30
0.0
 11
21.7544355746
 21
42.6796996077
 31
0.0
  0
LINE
  5
254
330
1F
100
AcDbEntity
  8
0
  6
Continuous
 62
     7
370
    25
100
AcDbLine
 10
36.8697717665
 20
30.6497591333
 30
0.0
 11
37.1107491114
 21
30.8598869216
 31
0.0
  0
LINE
  5
255
330
1F
100
AcDbEntity
  8
0
  6
Continuous
 62
     7
370
    25
100
AcDbLine
 10
34.7128550846
 20
33.5220032335
 30
0.0
 11
34.4874483803
 21
33.2945890866
 31
0.0
  0
LINE
  5
256
330
1F
100
AcDbEntity
  8
0
  6
Continuous
 62
     7
370
    25
100
AcDbLine
 10
44.8776786781
 20
17.008522331
 30
0.0
 11
45.170994946
 21
17.1294922843
 31
0.0
  0
LINE
  5
257
330
1F
100
AcDbEntity
  8
0
  6
Continuous
 62
     7
370
    25
100
AcDbLine
 10
43.7674131852
 20
20.4259627092
 30
0.0
 11
43.4832110261
 21
20.2835872411
 31
0.0
  0
LINE
  5
258
330
1F
100
AcDbEntity
  8
0
  6
Continuous
 62
     7
370
    25
100
AcDbLine
 10
48.022392756
 20
1.5062422415
 30
0.0
 11
48.336262578
 21
1.5258907568
 31
0.0
  0
LINE
  5
259
330
1F
100
AcDbEntity
  8
0
  6
Continuous
 62
     7
370
    25
100
AcDbLine
 10
48.0790929457
 20
5.0994915742
 30
0.0
 11
47.7668930457
 21
5.0566380076
 31
0.0
  0
LINE
  5
25A
330
1F
100
AcDbEntity
  8
0
  6
Continuous
 62
     7
370
    25
100
AcDbLine
 10
45.9631354346
 20
-14.1771685447
 30
0.0
 11
46.2635461453
 21
-14.2600253206
 31
0.0
  0
LINE
  5
25B
330
1F
100
AcDbEntity
  8
0
  6
Continuous
 62
     7
370
    25
100
AcDbLine
 10
47.1806569616
 20
-10.7965492094
 30
0.0
 11
46.8742910241
 21
-10.7361823939
 31
0.0
  0
LINE
  5
25C
330
1F
100
AcDbEntity
  8
0
  6
Continuous
 62
     7
370
    25
100
AcDbLine
 10
38.9230591973
 20
-28.3421691157
 30
0.0
 11
39.1774566349
 21
-28.517606997
 31
0.0
  0
LINE
  5
25D
330
1F
100
AcDbEntity
  8
0
  6
Continuous
 62
     7
370
    25
100
AcDbLine
 10
41.1694647124
 20
-25.5395769702
 30
0.0
 11
40.9021322404
 21
-25.3834768221
 31
0.0
  0
LINE
  5
25E
330
1F
100
AcDbEntity
  8
0
  6
Continuous
 62
     7
370
    25
100
AcDbLine
 10
27.6650655425
 20
-39.4537618671
 30
0.0
 11
27.8458817972
 21
-39.7018240688
 31
0.0
  0
LINE
  5
25F
330
1F
100
AcDbEntity
  8
0
  6
Continuous
 62
     7
370
    25
100
AcDbLine
 10
30.6969221515
 20
-37.5319558885
 30
0.0
 11
30.4975927665
 21
-37.2979836495
 31
0.0
  0
LINE
  5
260
330
1F
100
AcDbEntity
  8
0
  6
Continuous
 62
     7
370
    25
100
AcDbLine
 10
13.4091327685
 20
-46.3078333101
 30
0.0
 11
13.4967735934
 21
-46.6006930752
 31
0.0
  0
LINE
  5
261
330
1F
100
AcDbEntity
  8
0
  6
Continuous
 62
     7
370
    25
100
AcDbLine
 10
16.8978917637
 20
-45.4741256278
 30
0.0
 11
16.7881658975
 21
-45.1885811888
 31
0.0
  0
LINE
  5
262
330
1F
100
AcDbEntity
  8
0
  6
Continuous
 62
     7
370
    25
100
AcDbLine
 10
6.8131726074
 20
48.3158861059
 30
0.0
 11
6.6639921195
 21
47.4218964545
 31
0.0
  0
LINE
  5
263
330
1F
100
AcDbEntity
  8
0
  6
Continuous
 62
     7
370
    25
100
AcDbLine
 10
10.3239958256
 20
47.7300333285
 30
0.0
 11
10.1684681903
 21
46.7980073074
 31
0.0
  0
LINE
  5
264
330
1F
100
AcDbEntity
  8
0
  6
Continuous
 62
     7
370
    25
100
AcDbLine
 10
-5.7869555538
 20
48.4871314446
 30
0.0
 11
-5.6314279185
 21
47.5551054235
 31
0.0
  0
LINE
  5
265
330
1F
100
AcDbEntity
  8
0
  6
Continuous
 62
     7
370
    25
100
AcDbLine
 10
-9.297778772
 20
47.9012786672
 30
0.0
 11
-9.1485982842
 21
47.0072890157
 31
0.0
  0
LINE
  5
266
330
1F
100
AcDbEntity
  8
0
  6
Continuous
 62
     7
370
    25
100
AcDbLine
 10
-24.4011715515
 20
42.2779184418
 30
0.0
 11
-23.9697961087
 21
41.4808064408
 31
0.0
  0
LINE
  5
267
330
1F
100
AcDbEntity
  8
0
  6
Continuous
 62
     7
370
    25
100
AcDbLine
 10
-21.270800505
 20
43.9719905353
 30
0.0
 11
-20.8210714316
 21
43.1409639954
 31
0.0
  0
LINE
  5
268
330
1F
100
AcDbEntity
  8
0
  6
Continuous
 62
     7
370
    25
100
AcDbLine
 10
25.3161820639
 20
41.7827395154
 30
0.0
 11
24.8664529905
 21
40.9517129755
 31
0.0
  0
LINE
  5
269
330
1F
100
AcDbEntity
  8
0
  6
Continuous
 62
     7
370
    25
100
AcDbLine
 10
22.1858110174
 20
43.4768116088
 30
0.0
 11
21.7544355746
 21
42.6796996077
 31
0.0
  0
LINE
  5
26A
330
1F
100
AcDbEntity
  8
0
  6
Continuous
 62
     7
370
    25
100
AcDbLine
 10
-34.449624171
 20
34.6738961776
 30
0.0
 11
-33.7544287829
 21
34.0339237393
 31
0.0
  0
LINE
  5
26B
330
1F
100
AcDbEntity
  8
0
  6
Continuous
 62
     7
370
    25
100
AcDbLine
 10
35.1542725554
 20
33.9084439835
 30
0.0
 11
34.4874483803
 21
33.2945890866
 31
0.0
  0
LINE
  5
26C
330
1F
100
AcDbEntity
  8
0
  6
Continuous
 62
     7
370
    25
100
AcDbLine
 10
37.5649671546
 20
31.2897315716
 30
0.0
 11
36.8697717665
 21
30.6497591333
 31
0.0
  0
LINE
  5
26D
330
1F
100
AcDbEntity
  8
0
  6
Continuous
 62
     7
370
    25
100
AcDbLine
 10
-36.8603187702
 20
32.0551837657
 30
0.0
 11
-36.1934945951
 21
31.4413288689
 31
0.0
  0
LINE
  5
26E
330
1F
100
AcDbEntity
  8
0
  6
Continuous
 62
     7
370
    25
100
AcDbLine
 10
-43.8952965171
 20
21.60044117
 30
0.0
 11
-43.0299700217
 21
21.2208737772
 31
0.0
  0
LINE
  5
26F
330
1F
100
AcDbEntity
  8
0
  6
Continuous
 62
     7
370
    25
100
AcDbLine
 10
-45.3250785033
 20
18.3408665631
 30
0.0
 11
-44.4950663422
 21
17.9767894734
 31
0.0
  0
LINE
  5
270
330
1F
100
AcDbEntity
  8
0
  6
Continuous
 62
     7
370
    25
100
AcDbLine
 10
45.7430051735
 20
17.3880897238
 30
0.0
 11
44.8776786781
 21
17.008522331
 31
0.0
  0
LINE
  5
271
330
1F
100
AcDbEntity
  8
0
  6
Continuous
 62
     7
370
    25
100
AcDbLine
 10
44.3132231873
 20
20.6476643307
 30
0.0
 11
43.4832110261
 21
20.2835872411
 31
0.0
  0
LINE
  5
272
330
1F
100
AcDbEntity
  8
0
  6
Continuous
 62
     7
370
    25
100
AcDbLine
 10
-48.5842323799
 20
6.1683372182
 30
0.0
 11
-47.6425463298
 21
6.0903068874
 31
0.0
  0
LINE
  5
273
330
1F
100
AcDbEntity
  8
0
  6
Continuous
 62
     7
370
    25
100
AcDbLine
 10
48.6701484963
 20
5.1314838881
 30
0.0
 11
47.7668930457
 21
5.0566380076
 31
0.0
  0
LINE
  5
274
330
1F
100
AcDbEntity
  8
0
  6
Continuous
 62
     7
370
    25
100
AcDbLine
 10
48.9640788061
 20
1.5842725723
 30
0.0
 11
48.022392756
 21
1.5062422415
 31
0.0
  0
LINE
  5
275
330
1F
100
AcDbEntity
  8
0
  6
Continuous
 62
     7
370
    25
100
AcDbLine
 10
47.7529080206
 20
-10.958678435
 30
0.0
 11
46.8742910241
 21
-10.7361823939
 31
0.0
  0
LINE
  5
276
330
1F
100
AcDbEntity
  8
0
  6
Continuous
 62
     7
370
    25
100
AcDbLine
 10
-48.0083128022
 20
-9.9501077609
 30
0.0
 11
-47.0923134928
 21
-9.7181452326
 31
0.0
  0
LINE
  5
277
330
1F
100
AcDbEntity
  8
0
  6
Continuous
 62
     7
370
    25
100
AcDbLine
 10
46.879134744
 20
-14.409131073
 30
0.0
 11
45.9631354346
 21
-14.1771685447
 31
0.0
  0
LINE
  5
278
330
1F
100
AcDbEntity
  8
0
  6
Continuous
 62
     7
370
    25
100
AcDbLine
 10
41.6608989981
 20
-25.8792038864
 30
0.0
 11
40.9021322404
 21
-25.3834768221
 31
0.0
  0
LINE
  5
279
330
1F
100
AcDbEntity
  8
0
  6
Continuous
 62
     7
370
    25
100
AcDbLine
 10
-42.2299476068
 20
-25.0082101504
 30
0.0
 11
-41.4388977764
 21
-24.4913915021
 31
0.0
  0
LINE
  5
27A
330
1F
100
AcDbEntity
  8
0
  6
Continuous
 62
     7
370
    25
100
AcDbLine
 10
-40.2831576363
 20
-27.987994028
 30
0.0
 11
-39.5243908786
 21
-27.4922669637
 31
0.0
  0
LINE
  5
27B
330
1F
100
AcDbEntity
  8
0
  6
Continuous
 62
     7
370
    25
100
AcDbLine
 10
39.7141090277
 20
-28.858987764
 30
0.0
 11
38.9230591973
 21
-28.3421691157
 31
0.0
  0
LINE
  5
27C
330
1F
100
AcDbEntity
  8
0
  6
Continuous
 62
     7
370
    25
100
AcDbLine
 10
31.0542851338
 20
-38.0132220176
 30
0.0
 11
30.4975927665
 21
-37.2979836495
 31
0.0
  0
LINE
  5
27D
330
1F
100
AcDbEntity
  8
0
  6
Continuous
 62
     7
370
    25
100
AcDbLine
 10
28.2454433704
 20
-40.1994313155
 30
0.0
 11
27.6650655425
 21
-39.4537618671
 31
0.0
  0
LINE
  5
27E
330
1F
100
AcDbEntity
  8
0
  6
Continuous
 62
     7
370
    25
100
AcDbLine
 10
-29.0664705595
 20
-39.5604002038
 30
0.0
 11
-28.5097781923
 21
-38.8451618357
 31
0.0
  0
LINE
  5
27F
330
1F
100
AcDbEntity
  8
0
  6
Continuous
 62
     7
370
    25
100
AcDbLine
 10
-31.8753123229
 20
-37.3741909058
 30
0.0
 11
-31.2949344951
 21
-36.6285214574
 31
0.0
  0
LINE
  5
280
330
1F
100
AcDbEntity
  8
0
  6
Continuous
 62
     7
370
    25
100
AcDbLine
 10
-14.6999803848
 20
-46.8637291527
 30
0.0
 11
-14.405688664
 21
-46.0064866561
 31
0.0
  0
LINE
  5
281
330
1F
100
AcDbEntity
  8
0
  6
Continuous
 62
     7
370
    25
100
AcDbLine
 10
-18.0664923525
 20
-45.7080041344
 30
0.0
 11
-17.7596794703
 21
-44.8142887408
 31
0.0
  0
LINE
  5
282
330
1F
100
AcDbEntity
  8
0
  6
Continuous
 62
     7
370
    25
100
AcDbLine
 10
17.0824576183
 20
-46.0458236853
 30
0.0
 11
16.7881658975
 21
-45.1885811888
 31
0.0
  0
LINE
  5
283
330
1F
100
AcDbEntity
  8
0
  6
Continuous
 62
     7
370
    25
100
AcDbLine
 10
13.7159456507
 20
-47.2015487036
 30
0.0
 11
13.4091327685
 21
-46.3078333101
 31
0.0
  0
LINE
  5
284
330
1F
100
AcDbEntity
  8
0
  6
Continuous
 62
     7
370
    25
100
AcDbLine
 10
-2.2998876051
 20
-49.1065518603
 30
0.0
 11
-2.2998876051
 21
-48.1616384519
 31
0.0
  0
LINE
  5
285
330
1F
100
AcDbEntity
  8
0
  6
Continuous
 62
     7
370
    25
100
AcDbLine
 10
1.2594807582
 20
-49.1065518603
 30
0.0
 11
1.2594807582
 21
-48.2002007612
 31
0.0
  0
LINE
  5
286
330
1F
100
AcDbEntity
  8
0
  6
Continuous
 62
     7
370
    25
100
AcDbLine
 10
-54.8326833423
 20
0.6877954692
 30
0.0
 11
-55.0497999224
 21
4.9562077172
 31
0.0
  0
LINE
  5
287
330
1F
100
AcDbEntity
  8
0
  6
Continuous
 62
     7
370
    25
100
AcDbLine
 10
54.8326833423
 20
0.6877954692
 30
0.0
 11
55.0497999224
 21
4.9562077172
 31
0.0
  0
LINE
  5
288
330
1F
100
AcDbEntity
  8
0
  6
Continuous
 62
     7
370
    25
100
AcDbLine
 10
55.0610376692
 20
7.6562319061
 30
0.0
 11
49.5743797141
 21
18.172546913
 31
0.0
  0
LINE
  5
289
330
1F
100
AcDbEntity
  8
0
  6
Continuous
 62
     7
370
    25
100
AcDbLine
 10
-55.0610376692
 20
7.6562319061
 30
0.0
 11
-49.5743797141
 21
18.172546913
 31
0.0
  0
LINE
  5
28A
330
1F
100
AcDbEntity
  8
0
  6
Continuous
 62
     7
370
    25
100
AcDbLine
 10
19.6012079208
 20
-39.9369414543
 30
0.0
 11
15.5526707513
 21
-39.9369414543
 31
0.0
  0
LINE
  5
28B
330
1F
100
AcDbEntity
  8
0
  6
Continuous
 62
     7
370
    25
100
AcDbLine
 10
20.2052476313
 20
-41.1214316695
 30
0.0
 11
16.0319489048
 21
-41.1214316695
 31
0.0
  0
LINE
  5
28C
330
1F
100
AcDbEntity
  8
0
  6
Continuous
 62
     7
370
    25
100
AcDbLine
 10
16.0319489048
 20
-41.1214316695
 30
0.0
 11
15.5526707513
 21
-39.9369414543
 31
0.0
  0
LINE
  5
28D
330
1F
100
AcDbEntity
  8
0
  6
Continuous
 62
     7
370
    25
100
AcDbLine
 10
13.2745576635
 20
-40.7562882502
 30
0.0
 11
13.6836324511
 21
-41.9660278278
 31
0.0
  0
LINE
  5
28E
330
1F
100
AcDbEntity
  8
0
  6
Continuous
 62
     7
370
    25
100
AcDbLine
 10
-15.5526707513
 20
-39.9369414543
 30
0.0
 11
-16.0319489048
 21
-41.1214316695
 31
0.0
  0
LINE
  5
28F
330
1F
100
AcDbEntity
  8
0
  6
Continuous
 62
     7
370
    25
100
AcDbLine
 10
-13.6836324511
 20
-41.9660278278
 30
0.0
 11
-13.2745576635
 21
-40.7562882502
 31
0.0
  0
LINE
  5
290
330
1F
100
AcDbEntity
  8
0
  6
Continuous
 62
     7
370
    25
100
AcDbLine
 10
-15.2027308486
 20
-43.2329220651
 30
0.0
 11
-15.2027308486
 21
-41.9660278278
 31
0.0
  0
LINE
  5
291
330
1F
100
AcDbEntity
  8
0
  6
Continuous
 62
     7
370
    25
100
AcDbLine
 10
-14.7482423263
 20
-41.9853084441
 30
0.0
 11
-14.7482423263
 21
-40.7562882502
 31
0.0
  0
LINE
  5
292
330
1F
100
AcDbEntity
  8
0
  6
Continuous
 62
     7
370
    25
100
AcDbLine
 10
15.2027308486
 20
-41.9660278278
 30
0.0
 11
15.2027308486
 21
-43.2329220651
 31
0.0
  0
LINE
  5
293
330
1F
100
AcDbEntity
  8
0
  6
Continuous
 62
     7
370
    25
100
AcDbLine
 10
14.7482423263
 20
-40.7562882502
 30
0.0
 11
14.7482423263
 21
-41.9853084441
 31
0.0
  0
LINE
  5
294
330
1F
100
AcDbEntity
  8
0
  6
Continuous
 62
     7
370
    25
100
AcDbLine
 10
13.6836324511
 20
-41.9660278278
 30
0.0
 11
15.2027308486
 21
-41.9660278278
 31
0.0
  0
LINE
  5
295
330
1F
100
AcDbEntity
  8
0
  6
Continuous
 62
     7
370
    25
100
AcDbLine
 10
-16.0319489048
 20
-41.1214316695
 30
0.0
 11
-20.2052476313
 21
-41.1214316695
 31
0.0
  0
LINE
  5
296
330
1F
100
AcDbEntity
  8
0
  6
Continuous
 62
     7
370
    25
100
AcDbLine
 10
-15.5526707513
 20
-39.9369414543
 30
0.0
 11
-19.6012079208
 21
-39.9369414543
 31
0.0
  0
LINE
  5
297
330
1F
100
AcDbEntity
  8
0
  6
Continuous
 62
     7
370
    25
100
AcDbLine
 10
-15.2027308486
 20
-41.9660278278
 30
0.0
 11
-13.6836324511
 21
-41.9660278278
 31
0.0
  0
LINE
  5
298
330
1F
100
AcDbEntity
  8
0
  6
HIDDEN
 62
     7
370
    18
100
AcDbLine
 10
-28.0795180264
 20
45.4720170286
 30
0.0
 11
-30.989054443
 21
50.3391516417
 31
0.0
  0
LINE
  5
299
330
1F
100
AcDbEntity
  8
0
  6
HIDDEN
 62
     7
370
    18
100
AcDbLine
 10
30.989054443
 20
50.3391516417
 30
0.0
 11
28.0795180264
 21
45.4720170286
 31
0.0
  0
LINE
  5
29A
330
1F
100
AcDbEntity
  8
0
  6
HIDDEN
 62
     7
370
    18
100
AcDbLine
 10
-33.693705833
 20
48.7776204336
 30
0.0
 11
-30.5302319584
 21
44.0570966803
 31
0.0
  0
LINE
  5
29B
330
1F
100
AcDbEntity
  8
0
  6
HIDDEN
 62
     7
370
    18
100
AcDbLine
 10
30.5302319584
 20
44.0570966803
 30
0.0
 11
33.693705833
 21
48.7776204336
 31
0.0
  0
LINE
  5
29C
330
1F
100
AcDbEntity
  8
0
  6
HIDDEN
 62
     7
370
    18
100
AcDbLine
 10
-49.5743797141
 20
18.172546913
 30
0.0
 11
-51.0300465041
 21
18.7501975741
 31
0.0
  0
LINE
  5
29D
330
1F
100
AcDbEntity
  8
0
  6
HIDDEN
 62
     7
370
    18
100
AcDbLine
 10
51.0300465041
 20
18.7501975741
 30
0.0
 11
49.5743797141
 21
18.172546913
 31
0.0
  0
LINE
  5
29E
330
1F
100
AcDbEntity
  8
0
  6
HIDDEN
 62
     7
370
    18
100
AcDbLine
 10
-54.6535922829
 20
5.2269406241
 30
0.0
 11
-52.4540001149
 21
4.9562077172
 31
0.0
  0
LINE
  5
29F
330
1F
100
AcDbEntity
  8
0
  6
HIDDEN
 62
     7
370
    18
100
AcDbLine
 10
52.4540001149
 20
4.9562077172
 30
0.0
 11
54.6535922829
 21
5.2269406241
 31
0.0
  0
LINE
  5
2A0
330
1F
100
AcDbEntity
  8
0
  6
HIDDEN
 62
     7
370
    18
100
AcDbLine
 10
-52.2471213773
 20
0.6877954692
 30
0.0
 11
-54.6535922829
 21
0.7885640092
 31
0.0
  0
LINE
  5
2A1
330
1F
100
AcDbEntity
  8
0
  6
HIDDEN
 62
     7
370
    18
100
AcDbLine
 10
54.6535922829
 20
0.7885640093
 30
0.0
 11
52.2471213773
 21
0.6877954692
 31
0.0
  0
LINE
  5
2A2
330
1F
100
AcDbEntity
  8
0
  6
HIDDEN
 62
     7
370
    18
100
AcDbLine
 10
-51.0300465041
 20
-12.7346929408
 30
0.0
 11
-48.2038615944
 21
-12.1124846178
 31
0.0
  0
LINE
  5
2A3
330
1F
100
AcDbEntity
  8
0
  6
HIDDEN
 62
     7
370
    18
100
AcDbLine
 10
48.2038615944
 20
-12.1124846178
 30
0.0
 11
51.0300465041
 21
-12.7346929408
 31
0.0
  0
LINE
  5
2A4
330
1F
100
AcDbEntity
  8
0
  6
HIDDEN
 62
     7
370
    18
100
AcDbLine
 10
43.7228738263
 20
-25.3910872783
 30
0.0
 11
40.8474385663
 21
-23.8198896706
 31
0.0
  0
LINE
  5
2A5
330
1F
100
AcDbEntity
  8
0
  6
HIDDEN
 62
     7
370
    18
100
AcDbLine
 10
-43.7228738263
 20
-25.3910872783
 30
0.0
 11
-40.8474385663
 21
-23.8198896706
 31
0.0
  0
LINE
  5
2A6
330
1F
100
AcDbEntity
  8
0
  6
HIDDEN
 62
     7
370
    18
100
AcDbLine
 10
6.8577028598
 20
48.641478031
 30
0.0
 11
6.8131726074
 21
48.3158861059
 31
0.0
  0
LINE
  5
2A7
330
1F
100
AcDbEntity
  8
0
  6
HIDDEN
 62
     7
370
    18
100
AcDbLine
 10
6.8577028598
 20
48.641478031
 30
0.0
 11
6.7075473424
 21
47.7416453476
 31
0.0
  0
LINE
  5
2A8
330
1F
100
AcDbEntity
  8
0
  6
HIDDEN
 62
     7
370
    18
100
AcDbLine
 10
10.3239958256
 20
47.7300333285
 30
0.0
 11
10.3914724869
 21
48.0517961752
 31
0.0
  0
LINE
  5
2A9
330
1F
100
AcDbEntity
  8
0
  6
HIDDEN
 62
     7
370
    18
100
AcDbLine
 10
10.3914724869
 20
48.0517961752
 30
0.0
 11
10.2349283376
 21
47.11367852
 31
0.0
  0
LINE
  5
2AA
330
1F
100
AcDbEntity
  8
0
  6
HIDDEN
 62
     7
370
    18
100
AcDbLine
 10
6.8131726074
 20
48.3158861059
 30
0.0
 11
10.3239958256
 21
47.7300333285
 31
0.0
  0
LINE
  5
2AB
330
1F
100
AcDbEntity
  8
0
  6
HIDDEN
 62
     7
370
    18
100
AcDbLine
 10
10.3914724869
 20
48.0517961752
 30
0.0
 11
6.8577028598
 21
48.641478031
 31
0.0
  0
LINE
  5
2AC
330
1F
100
AcDbEntity
  8
0
  6
HIDDEN
 62
     7
370
    18
100
AcDbLine
 10
-5.7869555538
 20
48.4871314446
 30
0.0
 11
-5.8247785485
 21
48.813842613
 31
0.0
  0
LINE
  5
2AD
330
1F
100
AcDbEntity
  8
0
  6
HIDDEN
 62
     7
370
    18
100
AcDbLine
 10
-5.8247785485
 20
48.813842613
 30
0.0
 11
-5.6682343993
 21
47.8757249579
 31
0.0
  0
LINE
  5
2AE
330
1F
100
AcDbEntity
  8
0
  6
HIDDEN
 62
     7
370
    18
100
AcDbLine
 10
-9.3585481756
 20
48.2241607572
 30
0.0
 11
-9.297778772
 21
47.9012786672
 31
0.0
  0
LINE
  5
2AF
330
1F
100
AcDbEntity
  8
0
  6
HIDDEN
 62
     7
370
    18
100
AcDbLine
 10
-9.3585481756
 20
48.2241607572
 30
0.0
 11
-9.2083926582
 21
47.3243280738
 31
0.0
  0
LINE
  5
2B0
330
1F
100
AcDbEntity
  8
0
  6
HIDDEN
 62
     7
370
    18
100
AcDbLine
 10
-9.297778772
 20
47.9012786672
 30
0.0
 11
-5.7869555538
 21
48.4871314446
 31
0.0
  0
LINE
  5
2B1
330
1F
100
AcDbEntity
  8
0
  6
HIDDEN
 62
     7
370
    18
100
AcDbLine
 10
-5.8247785485
 20
48.813842613
 30
0.0
 11
-9.3585481756
 21
48.2241607572
 31
0.0
  0
LINE
  5
2B2
330
1F
100
AcDbEntity
  8
0
  6
HIDDEN
 62
     7
370
    18
100
AcDbLine
 10
-24.5606553033
 20
42.5640467807
 30
0.0
 11
-24.1264604314
 21
41.7617249309
 31
0.0
  0
LINE
  5
2B3
330
1F
100
AcDbEntity
  8
0
  6
HIDDEN
 62
     7
370
    18
100
AcDbLine
 10
-24.5606553033
 20
42.5640467807
 30
0.0
 11
-24.4011715515
 21
42.2779184418
 31
0.0
  0
LINE
  5
2B4
330
1F
100
AcDbEntity
  8
0
  6
HIDDEN
 62
     7
370
    18
100
AcDbLine
 10
-21.270800505
 20
43.9719905353
 30
0.0
 11
-21.4098244475
 21
44.2691911693
 31
0.0
  0
LINE
  5
2B5
330
1F
100
AcDbEntity
  8
0
  6
HIDDEN
 62
     7
370
    18
100
AcDbLine
 10
-24.4011715515
 20
42.2779184418
 30
0.0
 11
-21.270800505
 21
43.9719905353
 31
0.0
  0
LINE
  5
2B6
330
1F
100
AcDbEntity
  8
0
  6
HIDDEN
 62
     7
370
    18
100
AcDbLine
 10
-21.4098244475
 20
44.2691911693
 30
0.0
 11
-24.5606553033
 21
42.5640467807
 31
0.0
  0
LINE
  5
2B7
330
1F
100
AcDbEntity
  8
0
  6
HIDDEN
 62
     7
370
    18
100
AcDbLine
 10
-21.4098244475
 20
44.2691911693
 30
0.0
 11
-20.9571559874
 21
43.4327331185
 31
0.0
  0
LINE
  5
2B8
330
1F
100
AcDbEntity
  8
0
  6
HIDDEN
 62
     7
370
    18
100
AcDbLine
 10
25.3161820639
 20
41.7827395154
 30
0.0
 11
25.481646238
 21
42.0656314116
 31
0.0
  0
LINE
  5
2B9
330
1F
100
AcDbEntity
  8
0
  6
HIDDEN
 62
     7
370
    18
100
AcDbLine
 10
25.481646238
 20
42.0656314116
 30
0.0
 11
25.0289777779
 21
41.2291733608
 31
0.0
  0
LINE
  5
2BA
330
1F
100
AcDbEntity
  8
0
  6
HIDDEN
 62
     7
370
    18
100
AcDbLine
 10
22.3308153821
 20
43.7707758001
 30
0.0
 11
22.1858110174
 21
43.4768116088
 31
0.0
  0
LINE
  5
2BB
330
1F
100
AcDbEntity
  8
0
  6
HIDDEN
 62
     7
370
    18
100
AcDbLine
 10
22.3308153821
 20
43.7707758001
 30
0.0
 11
21.8966205102
 21
42.9684539503
 31
0.0
  0
LINE
  5
2BC
330
1F
100
AcDbEntity
  8
0
  6
HIDDEN
 62
     7
370
    18
100
AcDbLine
 10
22.1858110174
 20
43.4768116088
 30
0.0
 11
25.3161820639
 21
41.7827395154
 31
0.0
  0
LINE
  5
2BD
330
1F
100
AcDbEntity
  8
0
  6
HIDDEN
 62
     7
370
    18
100
AcDbLine
 10
25.481646238
 20
42.0656314116
 30
0.0
 11
22.3308153821
 21
43.7707758001
 31
0.0
  0
LINE
  5
2BE
330
1F
100
AcDbEntity
  8
0
  6
HIDDEN
 62
     7
370
    18
100
AcDbLine
 10
-34.449624171
 20
34.6738961776
 30
0.0
 11
-34.6747836598
 21
34.9103253453
 31
0.0
  0
LINE
  5
2BF
330
1F
100
AcDbEntity
  8
0
  6
HIDDEN
 62
     7
370
    18
100
AcDbLine
 10
-36.8603187702
 20
32.0551837657
 30
0.0
 11
-34.449624171
 21
34.6738961776
 31
0.0
  0
LINE
  5
2C0
330
1F
100
AcDbEntity
  8
0
  6
HIDDEN
 62
     7
370
    18
100
AcDbLine
 10
-37.1012343311
 20
32.2744972766
 30
0.0
 11
-36.8603187702
 21
32.0551837657
 31
0.0
  0
LINE
  5
2C1
330
1F
100
AcDbEntity
  8
0
  6
HIDDEN
 62
     7
370
    18
100
AcDbLine
 10
-34.6747836598
 20
34.9103253453
 30
0.0
 11
-37.1012343311
 21
32.2744972766
 31
0.0
  0
LINE
  5
2C2
330
1F
100
AcDbEntity
  8
0
  6
HIDDEN
 62
     7
370
    18
100
AcDbLine
 10
-34.6747836598
 20
34.9103253453
 30
0.0
 11
-33.9750445404
 21
34.2661701077
 31
0.0
  0
LINE
  5
2C3
330
1F
100
AcDbEntity
  8
0
  6
HIDDEN
 62
     7
370
    18
100
AcDbLine
 10
35.3840375595
 20
34.139870228
 30
0.0
 11
34.7128550846
 21
33.5220032335
 31
0.0
  0
LINE
  5
2C4
330
1F
100
AcDbEntity
  8
0
  6
HIDDEN
 62
     7
370
    18
100
AcDbLine
 10
35.3840375595
 20
34.139870228
 30
0.0
 11
35.1542725554
 21
33.9084439835
 31
0.0
  0
LINE
  5
2C5
330
1F
100
AcDbEntity
  8
0
  6
HIDDEN
 62
     7
370
    18
100
AcDbLine
 10
37.5649671546
 20
31.2897315716
 30
0.0
 11
37.8104882308
 21
31.5040421593
 31
0.0
  0
LINE
  5
2C6
330
1F
100
AcDbEntity
  8
0
  6
HIDDEN
 62
     7
370
    18
100
AcDbLine
 10
35.1542725554
 20
33.9084439835
 30
0.0
 11
37.5649671546
 21
31.2897315716
 31
0.0
  0
LINE
  5
2C7
330
1F
100
AcDbEntity
  8
0
  6
HIDDEN
 62
     7
370
    18
100
AcDbLine
 10
37.8104882308
 20
31.5040421593
 30
0.0
 11
35.3840375595
 21
34.139870228
 31
0.0
  0
LINE
  5
2C8
330
1F
100
AcDbEntity
  8
0
  6
HIDDEN
 62
     7
370
    18
100
AcDbLine
 10
37.8104882308
 20
31.5040421593
 30
0.0
 11
37.1107491114
 21
30.8598869216
 31
0.0
  0
LINE
  5
2C9
330
1F
100
AcDbEntity
  8
0
  6
HIDDEN
 62
     7
370
    18
100
AcDbLine
 10
-37.1012343311
 20
32.2744972766
 30
0.0
 11
-36.4300518562
 21
31.6566302821
 31
0.0
  0
LINE
  5
2CA
330
1F
100
AcDbEntity
  8
0
  6
HIDDEN
 62
     7
370
    18
100
AcDbLine
 10
-43.8952965171
 20
21.60044117
 30
0.0
 11
-44.182192028
 21
21.751423471
 31
0.0
  0
LINE
  5
2CB
330
1F
100
AcDbEntity
  8
0
  6
HIDDEN
 62
     7
370
    18
100
AcDbLine
 10
-44.182192028
 20
21.751423471
 30
0.0
 11
-43.3112098404
 21
21.3693752615
 31
0.0
  0
LINE
  5
2CC
330
1F
100
AcDbEntity
  8
0
  6
HIDDEN
 62
     7
370
    18
100
AcDbLine
 10
-45.3250785033
 20
18.3408665631
 30
0.0
 11
-43.8952965171
 21
21.60044117
 31
0.0
  0
LINE
  5
2CD
330
1F
100
AcDbEntity
  8
0
  6
HIDDEN
 62
     7
370
    18
100
AcDbLine
 10
-45.6213189342
 20
18.4705445924
 30
0.0
 11
-45.3250785033
 21
18.3408665631
 31
0.0
  0
LINE
  5
2CE
330
1F
100
AcDbEntity
  8
0
  6
HIDDEN
 62
     7
370
    18
100
AcDbLine
 10
-44.182192028
 20
21.751423471
 30
0.0
 11
-45.6213189342
 21
18.4705445924
 31
0.0
  0
LINE
  5
2CF
330
1F
100
AcDbEntity
  8
0
  6
HIDDEN
 62
     7
370
    18
100
AcDbLine
 10
-45.6213189342
 20
18.4705445924
 30
0.0
 11
-44.785881892
 21
18.1040879293
 31
0.0
  0
LINE
  5
2D0
330
1F
100
AcDbEntity
  8
0
  6
HIDDEN
 62
     7
370
    18
100
AcDbLine
 10
45.7430051735
 20
17.3880897238
 30
0.0
 11
46.0419771336
 21
17.5115404937
 31
0.0
  0
LINE
  5
2D1
330
1F
100
AcDbEntity
  8
0
  6
HIDDEN
 62
     7
370
    18
100
AcDbLine
 10
46.0419771336
 20
17.5115404937
 30
0.0
 11
45.170994946
 21
17.1294922843
 31
0.0
  0
LINE
  5
2D2
330
1F
100
AcDbEntity
  8
0
  6
HIDDEN
 62
     7
370
    18
100
AcDbLine
 10
44.6028502274
 20
20.7924193723
 30
0.0
 11
43.7674131852
 21
20.4259627092
 31
0.0
  0
LINE
  5
2D3
330
1F
100
AcDbEntity
  8
0
  6
HIDDEN
 62
     7
370
    18
100
AcDbLine
 10
44.6028502274
 20
20.7924193723
 30
0.0
 11
44.3132231873
 21
20.6476643307
 31
0.0
  0
LINE
  5
2D4
330
1F
100
AcDbEntity
  8
0
  6
HIDDEN
 62
     7
370
    18
100
AcDbLine
 10
44.3132231873
 20
20.6476643307
 30
0.0
 11
45.7430051735
 21
17.3880897238
 31
0.0
  0
LINE
  5
2D5
330
1F
100
AcDbEntity
  8
0
  6
HIDDEN
 62
     7
370
    18
100
AcDbLine
 10
46.0419771336
 20
17.5115404937
 30
0.0
 11
44.6028502274
 21
20.7924193723
 31
0.0
  0
LINE
  5
2D6
330
1F
100
AcDbEntity
  8
0
  6
HIDDEN
 62
     7
370
    18
100
AcDbLine
 10
-48.5842323799
 20
6.1683372182
 30
0.0
 11
-48.9017743326
 21
6.2184567458
 31
0.0
  0
LINE
  5
2D7
330
1F
100
AcDbEntity
  8
0
  6
HIDDEN
 62
     7
370
    18
100
AcDbLine
 10
-48.9017743326
 20
6.2184567458
 30
0.0
 11
-47.9539335115
 21
6.1399164161
 31
0.0
  0
LINE
  5
2D8
330
1F
100
AcDbEntity
  8
0
  6
HIDDEN
 62
     7
370
    18
100
AcDbLine
 10
-48.9017743326
 20
6.2184567458
 30
0.0
 11
-49.197625743
 21
2.6480611919
 31
0.0
  0
LINE
  5
2D9
330
1F
100
AcDbEntity
  8
0
  6
HIDDEN
 62
     7
370
    18
100
AcDbLine
 10
-48.8781626896
 20
2.6211259023
 30
0.0
 11
-48.5842323799
 21
6.1683372182
 31
0.0
  0
LINE
  5
2DA
330
1F
100
AcDbEntity
  8
0
  6
HIDDEN
 62
     7
370
    18
100
AcDbLine
 10
-49.197625743
 20
2.6480611919
 30
0.0
 11
-48.8781626896
 21
2.6211259023
 31
0.0
  0
LINE
  5
2DB
330
1F
100
AcDbEntity
  8
0
  6
HIDDEN
 62
     7
370
    18
100
AcDbLine
 10
-49.197625743
 20
2.6480611919
 30
0.0
 11
-48.2884667001
 21
2.5727261257
 31
0.0
  0
LINE
  5
2DC
330
1F
100
AcDbEntity
  8
0
  6
HIDDEN
 62
     7
370
    18
100
AcDbLine
 10
48.9882519886
 20
5.1748266403
 30
0.0
 11
48.0790929457
 21
5.0994915742
 31
0.0
  0
LINE
  5
2DD
330
1F
100
AcDbEntity
  8
0
  6
HIDDEN
 62
     7
370
    18
100
AcDbLine
 10
48.9882519886
 20
5.1748266403
 30
0.0
 11
48.6701484963
 21
5.1314838881
 31
0.0
  0
LINE
  5
2DE
330
1F
100
AcDbEntity
  8
0
  6
HIDDEN
 62
     7
370
    18
100
AcDbLine
 10
48.9640788061
 20
1.5842725723
 30
0.0
 11
49.2841033991
 21
1.6044310864
 31
0.0
  0
LINE
  5
2DF
330
1F
100
AcDbEntity
  8
0
  6
HIDDEN
 62
     7
370
    18
100
AcDbLine
 10
49.2841033991
 20
1.6044310864
 30
0.0
 11
48.336262578
 21
1.5258907568
 31
0.0
  0
LINE
  5
2E0
330
1F
100
AcDbEntity
  8
0
  6
HIDDEN
 62
     7
370
    18
100
AcDbLine
 10
48.6701484963
 20
5.1314838881
 30
0.0
 11
48.9640788061
 21
1.5842725723
 31
0.0
  0
LINE
  5
2E1
330
1F
100
AcDbEntity
  8
0
  6
HIDDEN
 62
     7
370
    18
100
AcDbLine
 10
49.2841033991
 20
1.6044310864
 30
0.0
 11
48.9882519886
 21
5.1748266403
 31
0.0
  0
LINE
  5
2E2
330
1F
100
AcDbEntity
  8
0
  6
HIDDEN
 62
     7
370
    18
100
AcDbLine
 10
48.0650165158
 20
-11.0204994636
 30
0.0
 11
47.1806569616
 21
-10.7965492094
 31
0.0
  0
LINE
  5
2E3
330
1F
100
AcDbEntity
  8
0
  6
HIDDEN
 62
     7
370
    18
100
AcDbLine
 10
48.0650165158
 20
-11.0204994636
 30
0.0
 11
47.7529080206
 21
-10.958678435
 31
0.0
  0
LINE
  5
2E4
330
1F
100
AcDbEntity
  8
0
  6
HIDDEN
 62
     7
370
    18
100
AcDbLine
 10
-48.0083128022
 20
-9.9501077609
 30
0.0
 11
-48.322090599
 21
-10.0053368669
 31
0.0
  0
LINE
  5
2E5
330
1F
100
AcDbEntity
  8
0
  6
HIDDEN
 62
     7
370
    18
100
AcDbLine
 10
-48.322090599
 20
-10.0053368669
 30
0.0
 11
-47.4001044046
 21
-9.7718582534
 31
0.0
  0
LINE
  5
2E6
330
1F
100
AcDbEntity
  8
0
  6
HIDDEN
 62
     7
370
    18
100
AcDbLine
 10
46.879134744
 20
-14.409131073
 30
0.0
 11
47.1855323396
 21
-14.4935039341
 31
0.0
  0
LINE
  5
2E7
330
1F
100
AcDbEntity
  8
0
  6
HIDDEN
 62
     7
370
    18
100
AcDbLine
 10
47.1855323396
 20
-14.4935039341
 30
0.0
 11
46.2635461453
 21
-14.2600253206
 31
0.0
  0
LINE
  5
2E8
330
1F
100
AcDbEntity
  8
0
  6
HIDDEN
 62
     7
370
    18
100
AcDbLine
 10
-48.322090599
 20
-10.0053368669
 30
0.0
 11
-47.4426064228
 21
-13.4783413374
 31
0.0
  0
LINE
  5
2E9
330
1F
100
AcDbEntity
  8
0
  6
HIDDEN
 62
     7
370
    18
100
AcDbLine
 10
-47.1345395256
 20
-13.400560399
 30
0.0
 11
-48.0083128022
 21
-9.9501077609
 31
0.0
  0
LINE
  5
2EA
330
1F
100
AcDbEntity
  8
0
  6
HIDDEN
 62
     7
370
    18
100
AcDbLine
 10
-47.4426064228
 20
-13.4783413374
 30
0.0
 11
-47.1345395256
 21
-13.400560399
 31
0.0
  0
LINE
  5
2EB
330
1F
100
AcDbEntity
  8
0
  6
HIDDEN
 62
     7
370
    18
100
AcDbLine
 10
-47.4426064228
 20
-13.4783413374
 30
0.0
 11
-46.5582468686
 21
-13.2543910832
 31
0.0
  0
LINE
  5
2EC
330
1F
100
AcDbEntity
  8
0
  6
HIDDEN
 62
     7
370
    18
100
AcDbLine
 10
47.7529080206
 20
-10.958678435
 30
0.0
 11
46.879134744
 21
-14.409131073
 31
0.0
  0
LINE
  5
2ED
330
1F
100
AcDbEntity
  8
0
  6
HIDDEN
 62
     7
370
    18
100
AcDbLine
 10
47.1855323396
 20
-14.4935039341
 30
0.0
 11
48.0650165158
 21
-11.0204994636
 31
0.0
  0
LINE
  5
2EE
330
1F
100
AcDbEntity
  8
0
  6
HIDDEN
 62
     7
370
    18
100
AcDbLine
 10
39.9736766922
 20
-29.0378035232
 30
0.0
 11
41.933190698
 21
-26.0385440597
 31
0.0
  0
LINE
  5
2EF
330
1F
100
AcDbEntity
  8
0
  6
HIDDEN
 62
     7
370
    18
100
AcDbLine
 10
39.7141090277
 20
-28.858987764
 30
0.0
 11
39.9736766922
 21
-29.0378035232
 31
0.0
  0
LINE
  5
2F0
330
1F
100
AcDbEntity
  8
0
  6
HIDDEN
 62
     7
370
    18
100
AcDbLine
 10
41.6608989981
 20
-25.8792038864
 30
0.0
 11
39.7141090277
 21
-28.858987764
 31
0.0
  0
LINE
  5
2F1
330
1F
100
AcDbEntity
  8
0
  6
HIDDEN
 62
     7
370
    18
100
AcDbLine
 10
41.933190698
 20
-26.0385440597
 30
0.0
 11
41.6608989981
 21
-25.8792038864
 31
0.0
  0
LINE
  5
2F2
330
1F
100
AcDbEntity
  8
0
  6
HIDDEN
 62
     7
370
    18
100
AcDbLine
 10
41.933190698
 20
-26.0385440597
 30
0.0
 11
41.1694647124
 21
-25.5395769702
 31
0.0
  0
LINE
  5
2F3
330
1F
100
AcDbEntity
  8
0
  6
HIDDEN
 62
     7
370
    18
100
AcDbLine
 10
-42.2299476068
 20
-25.0082101504
 30
0.0
 11
-42.5059585545
 21
-25.1618575909
 31
0.0
  0
LINE
  5
2F4
330
1F
100
AcDbEntity
  8
0
  6
HIDDEN
 62
     7
370
    18
100
AcDbLine
 10
-42.5059585545
 20
-25.1618575909
 30
0.0
 11
-41.7097384972
 21
-24.6416610648
 31
0.0
  0
LINE
  5
2F5
330
1F
100
AcDbEntity
  8
0
  6
HIDDEN
 62
     7
370
    18
100
AcDbLine
 10
-40.2831576363
 20
-27.987994028
 30
0.0
 11
-42.2299476068
 21
-25.0082101504
 31
0.0
  0
LINE
  5
2F6
330
1F
100
AcDbEntity
  8
0
  6
HIDDEN
 62
     7
370
    18
100
AcDbLine
 10
-40.5464445488
 20
-28.1611170545
 30
0.0
 11
-40.2831576363
 21
-27.987994028
 31
0.0
  0
LINE
  5
2F7
330
1F
100
AcDbEntity
  8
0
  6
HIDDEN
 62
     7
370
    18
100
AcDbLine
 10
-42.5059585545
 20
-25.1618575909
 30
0.0
 11
-40.5464445488
 21
-28.1611170545
 31
0.0
  0
LINE
  5
2F8
330
1F
100
AcDbEntity
  8
0
  6
HIDDEN
 62
     7
370
    18
100
AcDbLine
 10
-40.5464445488
 20
-28.1611170545
 30
0.0
 11
-39.7827185632
 21
-27.6621499649
 31
0.0
  0
LINE
  5
2F9
330
1F
100
AcDbEntity
  8
0
  6
HIDDEN
 62
     7
370
    18
100
AcDbLine
 10
39.9736766922
 20
-29.0378035232
 30
0.0
 11
39.1774566349
 21
-28.517606997
 31
0.0
  0
LINE
  5
2FA
330
1F
100
AcDbEntity
  8
0
  6
HIDDEN
 62
     7
370
    18
100
AcDbLine
 10
31.2572530075
 20
-38.251868987
 30
0.0
 11
30.6969221515
 21
-37.5319558885
 31
0.0
  0
LINE
  5
2FB
330
1F
100
AcDbEntity
  8
0
  6
HIDDEN
 62
     7
370
    18
100
AcDbLine
 10
31.2572530075
 20
-38.251868987
 30
0.0
 11
31.0542851338
 21
-38.0132220176
 31
0.0
  0
LINE
  5
2FC
330
1F
100
AcDbEntity
  8
0
  6
HIDDEN
 62
     7
370
    18
100
AcDbLine
 10
28.2454433704
 20
-40.1994313155
 30
0.0
 11
28.4300529197
 21
-40.4523671423
 31
0.0
  0
LINE
  5
2FD
330
1F
100
AcDbEntity
  8
0
  6
HIDDEN
 62
     7
370
    18
100
AcDbLine
 10
28.4300529197
 20
-40.4523671423
 30
0.0
 11
27.8458817972
 21
-39.7018240688
 31
0.0
  0
LINE
  5
2FE
330
1F
100
AcDbEntity
  8
0
  6
HIDDEN
 62
     7
370
    18
100
AcDbLine
 10
-32.0836463528
 20
-37.6086612283
 30
0.0
 11
-29.256446265
 21
-39.8091593836
 31
0.0
  0
LINE
  5
2FF
330
1F
100
AcDbEntity
  8
0
  6
HIDDEN
 62
     7
370
    18
100
AcDbLine
 10
-31.8753123229
 20
-37.3741909058
 30
0.0
 11
-32.0836463528
 21
-37.6086612283
 31
0.0
  0
LINE
  5
300
330
1F
100
AcDbEntity
  8
0
  6
HIDDEN
 62
     7
370
    18
100
AcDbLine
 10
-29.0664705595
 20
-39.5604002038
 30
0.0
 11
-31.8753123229
 21
-37.3741909058
 31
0.0
  0
LINE
  5
301
330
1F
100
AcDbEntity
  8
0
  6
HIDDEN
 62
     7
370
    18
100
AcDbLine
 10
-29.256446265
 20
-39.8091593836
 30
0.0
 11
-29.0664705595
 21
-39.5604002038
 31
0.0
  0
LINE
  5
302
330
1F
100
AcDbEntity
  8
0
  6
HIDDEN
 62
     7
370
    18
100
AcDbLine
 10
-29.256446265
 20
-39.8091593836
 30
0.0
 11
-28.696115409
 21
-39.0892462852
 31
0.0
  0
LINE
  5
303
330
1F
100
AcDbEntity
  8
0
  6
HIDDEN
 62
     7
370
    18
100
AcDbLine
 10
31.0542851338
 20
-38.0132220176
 30
0.0
 11
28.2454433704
 21
-40.1994313155
 31
0.0
  0
LINE
  5
304
330
1F
100
AcDbEntity
  8
0
  6
HIDDEN
 62
     7
370
    18
100
AcDbLine
 10
28.4300529197
 20
-40.4523671423
 30
0.0
 11
31.2572530075
 21
-38.251868987
 31
0.0
  0
LINE
  5
305
330
1F
100
AcDbEntity
  8
0
  6
HIDDEN
 62
     7
370
    18
100
AcDbLine
 10
-32.0836463528
 20
-37.6086612283
 30
0.0
 11
-31.4994752303
 21
-36.8581181548
 31
0.0
  0
LINE
  5
306
330
1F
100
AcDbEntity
  8
0
  6
HIDDEN
 62
     7
370
    18
100
AcDbLine
 10
-14.7960580678
 20
-47.1602222005
 30
0.0
 11
-14.4998428841
 21
-46.297376848
 31
0.0
  0
LINE
  5
307
330
1F
100
AcDbEntity
  8
0
  6
HIDDEN
 62
     7
370
    18
100
AcDbLine
 10
-14.7960580678
 20
-47.1602222005
 30
0.0
 11
-14.6999803848
 21
-46.8637291527
 31
0.0
  0
LINE
  5
308
330
1F
100
AcDbEntity
  8
0
  6
HIDDEN
 62
     7
370
    18
100
AcDbLine
 10
-18.0664923525
 20
-45.7080041344
 30
0.0
 11
-18.1845732396
 21
-45.9969434727
 31
0.0
  0
LINE
  5
309
330
1F
100
AcDbEntity
  8
0
  6
HIDDEN
 62
     7
370
    18
100
AcDbLine
 10
-18.1845732396
 20
-45.9969434727
 30
0.0
 11
-17.8757550575
 21
-45.0973868398
 31
0.0
  0
LINE
  5
30A
330
1F
100
AcDbEntity
  8
0
  6
HIDDEN
 62
     7
370
    18
100
AcDbLine
 10
13.8055917756
 20
-47.5002497082
 30
0.0
 11
17.1941069474
 21
-46.3369709803
 31
0.0
  0
LINE
  5
30B
330
1F
100
AcDbEntity
  8
0
  6
HIDDEN
 62
     7
370
    18
100
AcDbLine
 10
13.7159456507
 20
-47.2015487036
 30
0.0
 11
13.8055917756
 21
-47.5002497082
 31
0.0
  0
LINE
  5
30C
330
1F
100
AcDbEntity
  8
0
  6
HIDDEN
 62
     7
370
    18
100
AcDbLine
 10
17.0824576183
 20
-46.0458236853
 30
0.0
 11
13.7159456507
 21
-47.2015487036
 31
0.0
  0
LINE
  5
30D
330
1F
100
AcDbEntity
  8
0
  6
HIDDEN
 62
     7
370
    18
100
AcDbLine
 10
17.1941069474
 20
-46.3369709803
 30
0.0
 11
17.0824576183
 21
-46.0458236853
 31
0.0
  0
LINE
  5
30E
330
1F
100
AcDbEntity
  8
0
  6
HIDDEN
 62
     7
370
    18
100
AcDbLine
 10
-14.6999803848
 20
-46.8637291527
 30
0.0
 11
-18.0664923525
 21
-45.7080041344
 31
0.0
  0
LINE
  5
30F
330
1F
100
AcDbEntity
  8
0
  6
HIDDEN
 62
     7
370
    18
100
AcDbLine
 10
-18.1845732396
 20
-45.9969434727
 30
0.0
 11
-14.7960580678
 21
-47.1602222005
 31
0.0
  0
LINE
  5
310
330
1F
100
AcDbEntity
  8
0
  6
HIDDEN
 62
     7
370
    18
100
AcDbLine
 10
17.1941069474
 20
-46.3369709803
 30
0.0
 11
16.8978917637
 21
-45.4741256278
 31
0.0
  0
LINE
  5
311
330
1F
100
AcDbEntity
  8
0
  6
HIDDEN
 62
     7
370
    18
100
AcDbLine
 10
13.8055917756
 20
-47.5002497082
 30
0.0
 11
13.4967735934
 21
-46.6006930752
 31
0.0
  0
LINE
  5
312
330
1F
100
AcDbEntity
  8
0
  6
HIDDEN
 62
     7
370
    18
100
AcDbLine
 10
-2.2998876051
 20
-49.1065518603
 30
0.0
 11
-2.3149194532
 21
-49.4177037855
 31
0.0
  0
LINE
  5
313
330
1F
100
AcDbEntity
  8
0
  6
HIDDEN
 62
     7
370
    18
100
AcDbLine
 10
-2.3149194532
 20
-49.4177037855
 30
0.0
 11
-2.3149194532
 21
-48.4666145123
 31
0.0
  0
LINE
  5
314
330
1F
100
AcDbEntity
  8
0
  6
HIDDEN
 62
     7
370
    18
100
AcDbLine
 10
1.2677126055
 20
-49.4177037855
 30
0.0
 11
1.2594807582
 21
-49.1065518603
 31
0.0
  0
LINE
  5
315
330
1F
100
AcDbEntity
  8
0
  6
HIDDEN
 62
     7
370
    18
100
AcDbLine
 10
1.2677126055
 20
-49.4177037855
 30
0.0
 11
1.2677126055
 21
-48.5054288612
 31
0.0
  0
LINE
  5
316
330
1F
100
AcDbEntity
  8
0
  6
HIDDEN
 62
     7
370
    18
100
AcDbLine
 10
1.2594807582
 20
-49.1065518603
 30
0.0
 11
-2.2998876051
 21
-49.1065518603
 31
0.0
  0
LINE
  5
317
330
1F
100
AcDbEntity
  8
0
  6
HIDDEN
 62
     7
370
    18
100
AcDbLine
 10
-2.3149194532
 20
-49.4177037855
 30
0.0
 11
1.2677126055
 21
-49.4177037855
 31
0.0
  0
LINE
  5
318
330
1F
100
AcDbEntity
  8
0
  6
HIDDEN
 62
     7
370
    18
100
AcDbLine
 10
-48.8781626896
 20
2.6211259023
 30
0.0
 11
-47.974907239
 21
2.5462800218
 31
0.0
  0
LINE
  5
319
330
1F
100
AcDbEntity
  8
0
  6
HIDDEN
 62
     7
370
    18
100
AcDbLine
 10
-47.1345395256
 20
-13.400560399
 30
0.0
 11
-46.2559225291
 21
-13.1780643579
 31
0.0
  0
LINE
  5
31A
330
1F
100
AcDbEntity
  8
0
  6
HIDDEN
 62
     7
370
    18
100
AcDbLine
 10
42.9852134357
 20
-25.0556165204
 30
0.0
 11
50.3566407486
 21
-13.3758131301
 31
0.0
  0
LINE
  5
31B
330
1F
100
AcDbEntity
  8
0
  6
HIDDEN
 62
     7
370
    18
100
AcDbLine
 10
-50.3566407486
 20
-13.3758131301
 30
0.0
 11
-42.9852134357
 21
-25.0556165204
 31
0.0
  0
LINE
  5
31C
330
1F
100
AcDbEntity
  8
0
  6
HIDDEN
 62
     7
370
    18
100
AcDbLine
 10
40.8474385663
 20
-23.8198896706
 30
0.0
 11
48.2038615944
 21
-12.1124846178
 31
0.0
  0
LINE
  5
31D
330
1F
100
AcDbEntity
  8
0
  6
HIDDEN
 62
     7
370
    18
100
AcDbLine
 10
-48.2038615944
 20
-12.1124846178
 30
0.0
 11
-40.8474385663
 21
-23.8198896706
 31
0.0
  0
LINE
  5
31E
330
1F
100
AcDbEntity
  8
0
  6
HIDDEN
 62
     7
370
    18
100
AcDbLine
 10
52.2471213773
 20
0.6877954692
 30
0.0
 11
52.4540001149
 21
4.9562077172
 31
0.0
  0
LINE
  5
31F
330
1F
100
AcDbEntity
  8
0
  6
HIDDEN
 62
     7
370
    18
100
AcDbLine
 10
-52.4540001149
 20
4.9562077172
 30
0.0
 11
-52.2471213773
 21
0.6877954692
 31
0.0
  0
LINE
  5
320
330
1F
100
AcDbEntity
  8
0
  6
HIDDEN
 62
     7
370
    18
100
AcDbLine
 10
-55.0610376692
 20
7.6562319061
 30
0.0
 11
-51.8541691458
 21
7.1229540542
 31
0.0
  0
LINE
  5
321
330
1F
100
AcDbEntity
  8
0
  6
HIDDEN
 62
     7
370
    18
100
AcDbLine
 10
55.0610376692
 20
7.6562319061
 30
0.0
 11
51.8541691458
 21
7.1229540542
 31
0.0
  0
LINE
  5
322
330
1F
100
AcDbEntity
  8
0
  6
HIDDEN
 62
     7
370
    18
100
AcDbLine
 10
-55.0497999224
 20
4.9562077172
 30
0.0
 11
-51.9729261226
 21
4.5953537922
 31
0.0
  0
LINE
  5
323
330
1F
100
AcDbEntity
  8
0
  6
HIDDEN
 62
     7
370
    18
100
AcDbLine
 10
55.0497999224
 20
4.9562077172
 30
0.0
 11
51.9729261226
 21
4.5953537922
 31
0.0
  0
LINE
  5
324
330
1F
100
AcDbEntity
  8
0
  6
HIDDEN
 62
     7
370
    18
100
AcDbLine
 10
-54.8326833423
 20
0.6877954692
 30
0.0
 11
-51.9729261226
 21
0.5736926475
 31
0.0
  0
LINE
  5
325
330
1F
100
AcDbEntity
  8
0
  6
HIDDEN
 62
     7
370
    18
100
AcDbLine
 10
54.8326833423
 20
0.6877954692
 30
0.0
 11
51.9729261226
 21
0.5736926475
 31
0.0
  0
LINE
  5
326
330
1F
100
AcDbEntity
  8
0
  6
HIDDEN
 62
     7
370
    18
100
AcDbLine
 10
50.3566407486
 20
-13.3758131301
 30
0.0
 11
48.3612586184
 21
-12.9052339781
 31
0.0
  0
LINE
  5
327
330
1F
100
AcDbEntity
  8
0
  6
HIDDEN
 62
     7
370
    18
100
AcDbLine
 10
-50.3566407486
 20
-13.3758131301
 30
0.0
 11
-48.3612586184
 21
-12.9052339781
 31
0.0
  0
LINE
  5
328
330
1F
100
AcDbEntity
  8
0
  6
HIDDEN
 62
     7
370
    18
100
AcDbLine
 10
-15.2027308486
 20
-41.9660278278
 30
0.0
 11
-14.7482423263
 21
-40.7562882502
 31
0.0
  0
LINE
  5
329
330
1F
100
AcDbEntity
  8
0
  6
HIDDEN
 62
     7
370
    18
100
AcDbLine
 10
15.2027308486
 20
-41.9660278278
 30
0.0
 11
14.7482423263
 21
-40.7562882502
 31
0.0
  0
LINE
  5
32A
330
1F
100
AcDbEntity
  8
0
  6
HIDDEN
 62
     7
370
    18
100
AcDbLine
 10
-42.9852134357
 20
-25.0556165204
 30
0.0
 11
-41.740150275
 21
-24.3733300313
 31
0.0
  0
LINE
  5
32B
330
1F
100
AcDbEntity
  8
0
  6
HIDDEN
 62
     7
370
    18
100
AcDbLine
 10
42.9852134357
 20
-25.0556165204
 30
0.0
 11
41.740150275
 21
-24.3733300313
 31
0.0
  0
LINE
  5
32C
330
1F
100
AcDbEntity
  8
0
  6
HIDDEN
 62
     7
370
    18
100
AcDbLine
 10
13.2745576635
 20
-40.7562882502
 30
0.0
 11
14.7482423263
 21
-40.7562882502
 31
0.0
  0
LINE
  5
32D
330
1F
100
AcDbEntity
  8
0
  6
HIDDEN
 62
     7
370
    18
100
AcDbLine
 10
-14.7482423263
 20
-40.7562882502
 30
0.0
 11
-13.2745576635
 21
-40.7562882502
 31
0.0
  0
LINE
  5
32E
330
1F
100
AcDbEntity
  8
0
  6
HIDDEN
 62
     7
370
    18
100
AcDbLine
 10
-41.740150275
 20
-24.3733300313
 30
0.0
 11
-48.3612586184
 21
-12.9052339781
 31
0.0
  0
LINE
  5
32F
330
1F
100
AcDbEntity
  8
0
  6
HIDDEN
 62
     7
370
    18
100
AcDbLine
 10
48.3612586184
 20
-12.9052339781
 30
0.0
 11
41.740150275
 21
-24.3733300313
 31
0.0
  0
LINE
  5
330
330
1F
100
AcDbEntity
  8
0
  6
HIDDEN
 62
     7
370
    18
100
AcDbLine
 10
51.9729261226
 20
4.5953537922
 30
0.0
 11
51.9729261226
 21
0.5736926475
 31
0.0
  0
LINE
  5
331
330
1F
100
AcDbEntity
  8
0
  6
HIDDEN
 62
     7
370
    18
100
AcDbLine
 10
-51.9729261226
 20
4.5953537922
 30
0.0
 11
-51.9729261226
 21
0.5736926475
 31
0.0
  0
LINE
  5
332
330
1F
100
AcDbEntity
  8
0
  6
HIDDEN
 62
     7
370
    18
100
AcDbLine
 10
51.8541691458
 20
7.1229540542
 30
0.0
 11
30.5302319584
 21
44.0570966803
 31
0.0
  0
LINE
  5
333
330
1F
100
AcDbEntity
  8
0
  6
HIDDEN
 62
     7
370
    18
100
AcDbLine
 10
-51.8541691458
 20
7.1229540542
 30
0.0
 11
-30.5302319584
 21
44.0570966803
 31
0.0
  0
LINE
  5
334
330
1F
100
AcDbEntity
  8
0
  6
HIDDEN
 62
     7
370
    18
100
AcDbLine
 10
28.0795180264
 20
45.4720170286
 30
0.0
 11
-28.0795180264
 21
45.4720170286
 31
0.0
  0
LINE
  5
335
330
1F
100
AcDbEntity
  8
0
  6
HIDDEN
 62
     7
370
    18
100
AcDbLine
 10
-30.5302319584
 20
44.0570966803
 30
0.0
 11
-28.0795180264
 21
45.4720170286
 31
0.0
  0
LINE
  5
336
330
1F
100
AcDbEntity
  8
0
  6
HIDDEN
 62
     7
370
    18
100
AcDbLine
 10
28.0795180264
 20
45.4720170286
 30
0.0
 11
30.5302319584
 21
44.0570966803
 31
0.0
  0
LINE
  5
337
330
1F
100
AcDbEntity
  8
0
  6
HIDDEN
 62
     7
370
    18
100
AcDbLine
 10
-32.5651764159
 20
42.7175535926
 30
0.0
 11
-32.4575183507
 21
42.57137363
 31
0.0
  0
LINE
  5
338
330
1F
100
AcDbEntity
  8
0
  6
HIDDEN
 62
     7
370
    18
100
AcDbLine
 10
-26.3552996792
 20
46.4705602421
 30
0.0
 11
-26.4427173475
 21
46.6296733835
 31
0.0
  0
LINE
  5
339
330
1F
100
AcDbEntity
  8
0
  6
HIDDEN
 62
     7
370
    18
100
AcDbLine
 10
26.4427173475
 20
46.6296733835
 30
0.0
 11
26.3552996792
 21
46.4705602421
 31
0.0
  0
LINE
  5
33A
330
1F
100
AcDbEntity
  8
0
  6
HIDDEN
 62
     7
370
    18
100
AcDbLine
 10
32.4575183507
 20
42.57137363
 30
0.0
 11
32.5651764159
 21
42.7175535926
 31
0.0
  0
ARC
  5
33B
330
1F
100
AcDbEntity
  8
0
  6
Continuous
 62
     7
370
    25
100
AcDbCircle
 10
27.6070783828
 20
5.2269406241
 30
0.0
 40
27.04651390001509
100
AcDbArc
 50
0.0
 51
30.0
  0
ARC
  5
33C
330
1F
100
AcDbEntity
  8
0
  6
Continuous
 62
     7
370
    25
100
AcDbCircle
 10
27.6070783828
 20
0.7885640092
 30
0.0
 40
27.04651390001465
100
AcDbArc
 50
330.0
 51
0.0
  0
ARC
  5
33D
330
1F
100
AcDbEntity
  8
0
  6
Continuous
 62
     7
370
    25
100
AcDbCircle
 10
0.0
 20
-0.147674305
 30
0.0
 40
50.48682594669473
100
AcDbArc
 50
210.0
 51
330.0
  0
ARC
  5
33E
330
1F
100
AcDbEntity
  8
0
  6
Continuous
 62
     7
370
    25
100
AcDbCircle
 10
-27.6070783828
 20
0.7885640092
 30
0.0
 40
27.04651390001488
100
AcDbArc
 50
180.0
 51
210.0
  0
ARC
  5
33F
330
1F
100
AcDbEntity
  8
0
  6
Continuous
 62
     7
370
    25
100
AcDbCircle
 10
-27.6070783828
 20
5.2269406241
 30
0.0
 40
27.04651390001451
100
AcDbArc
 50
150.0
 51
180.0
  0
ARC
  5
340
330
1F
100
AcDbEntity
  8
0
  6
Continuous
 62
     7
370
    25
100
AcDbCircle
 10
0.0
 20
-0.2331057626
 30
0.0
 40
45.60819254595264
100
AcDbArc
 50
243.7034031178
 51
250.5287793655
  0
ARC
  5
341
330
1F
100
AcDbEntity
  8
0
  6
Continuous
 62
     7
370
    25
100
AcDbCircle
 10
0.0
 20
-0.2709798061
 30
0.0
 40
44.24472697877727
100
AcDbArc
 50
250.5287793655
 51
289.4712206345
  0
ARC
  5
342
330
1F
100
AcDbEntity
  8
0
  6
Continuous
 62
     7
370
    25
100
AcDbCircle
 10
0.0
 20
-0.2331057626
 30
0.0
 40
45.60819254595567
100
AcDbArc
 50
289.4712206345
 51
296.2965968822
  0
ARC
  5
343
330
1F
100
AcDbEntity
  8
0
  6
Continuous
 62
     7
370
    25
100
AcDbCircle
 10
0.0
 20
-0.2709798061
 30
0.0
 40
44.2447269787771
100
AcDbArc
 50
296.2965968822
 51
243.7034031178
  0
ARC
  5
344
330
1F
100
AcDbEntity
  8
0
  6
Continuous
 62
     7
370
    25
100
AcDbCircle
 10
0.0
 20
-0.1652368637
 30
0.0
 40
48.05147290572735
100
AcDbArc
 50
267.2566040161
 51
271.5019559842
  0
ARC
  5
345
330
1F
100
AcDbEntity
  8
0
  6
Continuous
 62
     7
370
    25
100
AcDbCircle
 10
0.0
 20
-0.156512978
 30
0.0
 40
48.36553279282266
100
AcDbArc
 50
267.2566040161
 51
271.5019559842
  0
ARC
  5
346
330
1F
100
AcDbEntity
  8
0
  6
Continuous
 62
     7
370
    25
100
AcDbCircle
 10
0.0
 20
-0.1652368637
 30
0.0
 40
48.05147290573305
100
AcDbArc
 50
248.3092355951
 51
252.5545875632
  0
ARC
  5
347
330
1F
100
AcDbEntity
  8
0
  6
Continuous
 62
     7
370
    25
100
AcDbCircle
 10
0.0
 20
-0.156512978
 30
0.0
 40
48.36553279284198
100
AcDbArc
 50
248.3092355951
 51
252.5545875632
  0
ARC
  5
348
330
1F
100
AcDbEntity
  8
0
  6
Continuous
 62
     7
370
    25
100
AcDbCircle
 10
0.0
 20
-0.1652368637
 30
0.0
 40
48.05147290573352
100
AcDbArc
 50
229.361867174
 51
233.6072191421
  0
ARC
  5
349
330
1F
100
AcDbEntity
  8
0
  6
Continuous
 62
     7
370
    25
100
AcDbCircle
 10
0.0
 20
-0.156512978
 30
0.0
 40
48.36553279283009
100
AcDbArc
 50
229.361867174
 51
233.6072191421
  0
ARC
  5
34A
330
1F
100
AcDbEntity
  8
0
  6
Continuous
 62
     7
370
    25
100
AcDbCircle
 10
0.0
 20
-0.1652368637
 30
0.0
 40
48.05147290573738
100
AcDbArc
 50
210.414498753
 51
214.6598507211
  0
ARC
  5
34B
330
1F
100
AcDbEntity
  8
0
  6
Continuous
 62
     7
370
    25
100
AcDbCircle
 10
0.0
 20
-0.156512978
 30
0.0
 40
48.36553279282075
100
AcDbArc
 50
210.414498753
 51
214.6598507211
  0
ARC
  5
34C
330
1F
100
AcDbEntity
  8
0
  6
Continuous
 62
     7
370
    25
100
AcDbCircle
 10
0.0
 20
-0.1652368637
 30
0.0
 40
48.05147290573348
100
AcDbArc
 50
191.4671303319
 51
195.7124823
  0
ARC
  5
34D
330
1F
100
AcDbEntity
  8
0
  6
Continuous
 62
     7
370
    25
100
AcDbCircle
 10
0.0
 20
-0.156512978
 30
0.0
 40
48.36553279282895
100
AcDbArc
 50
191.4671303319
 51
195.7124823
  0
ARC
  5
34E
330
1F
100
AcDbEntity
  8
0
  6
Continuous
 62
     7
370
    25
100
AcDbCircle
 10
0.0
 20
-0.1652368637
 30
0.0
 40
48.05147290573011
100
AcDbArc
 50
172.5197619109
 51
176.765113879
  0
ARC
  5
34F
330
1F
100
AcDbEntity
  8
0
  6
Continuous
 62
     7
370
    25
100
AcDbCircle
 10
0.0
 20
-0.156512978
 30
0.0
 40
48.36553279283913
100
AcDbArc
 50
172.5197619109
 51
176.765113879
  0
ARC
  5
350
330
1F
100
AcDbEntity
  8
0
  6
Continuous
 62
     7
370
    25
100
AcDbCircle
 10
0.0
 20
-0.1652368637
 30
0.0
 40
48.05147290573417
100
AcDbArc
 50
153.5723934898
 51
157.8177454579
  0
ARC
  5
351
330
1F
100
AcDbEntity
  8
0
  6
Continuous
 62
     7
370
    25
100
AcDbCircle
 10
0.0
 20
-0.156512978
 30
0.0
 40
48.36553279284734
100
AcDbArc
 50
153.5723934898
 51
157.8177454579
  0
ARC
  5
352
330
1F
100
AcDbEntity
  8
0
  6
Continuous
 62
     7
370
    25
100
AcDbCircle
 10
0.0
 20
-0.1652368637
 30
0.0
 40
48.05147290573547
100
AcDbArc
 50
134.6250250688
 51
138.8703770369
  0
ARC
  5
353
330
1F
100
AcDbEntity
  8
0
  6
Continuous
 62
     7
370
    25
100
AcDbCircle
 10
0.0
 20
-0.156512978
 30
0.0
 40
48.36553279283717
100
AcDbArc
 50
134.6250250688
 51
138.8703770369
  0
ARC
  5
354
330
1F
100
AcDbEntity
  8
0
  6
Continuous
 62
     7
370
    25
100
AcDbCircle
 10
0.0
 20
-0.1652368637
 30
0.0
 40
48.05147290573758
100
AcDbArc
 50
115.6776566477
 51
119.9230086158
  0
ARC
  5
355
330
1F
100
AcDbEntity
  8
0
  6
Continuous
 62
     7
370
    25
100
AcDbCircle
 10
0.0
 20
-0.156512978
 30
0.0
 40
48.36553279283836
100
AcDbArc
 50
115.6776566477
 51
119.9230086158
  0
ARC
  5
356
330
1F
100
AcDbEntity
  8
0
  6
Continuous
 62
     7
370
    25
100
AcDbCircle
 10
0.0
 20
-0.1652368637
 30
0.0
 40
48.05147290574421
100
AcDbArc
 50
96.7302882267
 51
100.9756401948
  0
ARC
  5
357
330
1F
100
AcDbEntity
  8
0
  6
Continuous
 62
     7
370
    25
100
AcDbCircle
 10
0.0
 20
-0.156512978
 30
0.0
 40
48.36553279283935
100
AcDbArc
 50
96.7302882267
 51
100.9756401948
  0
ARC
  5
358
330
1F
100
AcDbEntity
  8
0
  6
Continuous
 62
     7
370
    25
100
AcDbCircle
 10
0.0
 20
-0.1652368637
 30
0.0
 40
48.05147290573505
100
AcDbArc
 50
77.7829198056
 51
82.0282717737
  0
ARC
  5
359
330
1F
100
AcDbEntity
  8
0
  6
Continuous
 62
     7
370
    25
100
AcDbCircle
 10
0.0
 20
-0.156512978
 30
0.0
 40
48.36553279283007
100
AcDbArc
 50
77.7829198056
 51
82.0282717737
  0
ARC
  5
35A
330
1F
100
AcDbEntity
  8
0
  6
Continuous
 62
     7
370
    25
100
AcDbCircle
 10
0.0
 20
-0.1652368637
 30
0.0
 40
48.05147290573792
100
AcDbArc
 50
58.8355513845
 51
63.0809033527
  0
ARC
  5
35B
330
1F
100
AcDbEntity
  8
0
  6
Continuous
 62
     7
370
    25
100
AcDbCircle
 10
0.0
 20
-0.156512978
 30
0.0
 40
48.36553279284488
100
AcDbArc
 50
58.8355513845
 51
63.0809033527
  0
ARC
  5
35C
330
1F
100
AcDbEntity
  8
0
  6
Continuous
 62
     7
370
    25
100
AcDbCircle
 10
0.0
 20
-0.1652368637
 30
0.0
 40
48.05147290573576
100
AcDbArc
 50
39.8881829635
 51
44.1335349316
  0
ARC
  5
35D
330
1F
100
AcDbEntity
  8
0
  6
Continuous
 62
     7
370
    25
100
AcDbCircle
 10
0.0
 20
-0.156512978
 30
0.0
 40
48.36553279283984
100
AcDbArc
 50
39.8881829635
 51
44.1335349316
  0
ARC
  5
35E
330
1F
100
AcDbEntity
  8
0
  6
Continuous
 62
     7
370
    25
100
AcDbCircle
 10
0.0
 20
-0.1652368637
 30
0.0
 40
48.05147290573971
100
AcDbArc
 50
20.9408145424
 51
25.1861665106
  0
ARC
  5
35F
330
1F
100
AcDbEntity
  8
0
  6
Continuous
 62
     7
370
    25
100
AcDbCircle
 10
0.0
 20
-0.156512978
 30
0.0
 40
48.36553279283343
100
AcDbArc
 50
20.9408145424
 51
25.1861665106
  0
ARC
  5
360
330
1F
100
AcDbEntity
  8
0
  6
Continuous
 62
     7
370
    25
100
AcDbCircle
 10
0.0
 20
-0.1652368637
 30
0.0
 40
48.0514729057365
100
AcDbArc
 50
1.9934461214
 51
6.2387980895
  0
ARC
  5
361
330
1F
100
AcDbEntity
  8
0
  6
Continuous
 62
     7
370
    25
100
AcDbCircle
 10
0.0
 20
-0.156512978
 30
0.0
 40
48.36553279283388
100
AcDbArc
 50
1.9934461214
 51
6.2387980895
  0
ARC
  5
362
330
1F
100
AcDbEntity
  8
0
  6
Continuous
 62
     7
370
    25
100
AcDbCircle
 10
0.0
 20
-0.1652368637
 30
0.0
 40
48.05147290574088
100
AcDbArc
 50
343.0460777003
 51
347.2914296685
  0
ARC
  5
363
330
1F
100
AcDbEntity
  8
0
  6
Continuous
 62
     7
370
    25
100
AcDbCircle
 10
0.0
 20
-0.156512978
 30
0.0
 40
48.36553279282399
100
AcDbArc
 50
343.0460777003
 51
347.2914296685
  0
ARC
  5
364
330
1F
100
AcDbEntity
  8
0
  6
Continuous
 62
     7
370
    25
100
AcDbCircle
 10
0.0
 20
-0.1652368637
 30
0.0
 40
48.05147290574031
100
AcDbArc
 50
324.0987092793
 51
328.3440612474
  0
ARC
  5
365
330
1F
100
AcDbEntity
  8
0
  6
Continuous
 62
     7
370
    25
100
AcDbCircle
 10
0.0
 20
-0.156512978
 30
0.0
 40
48.36553279282975
100
AcDbArc
 50
324.0987092793
 51
328.3440612474
  0
ARC
  5
366
330
1F
100
AcDbEntity
  8
0
  6
Continuous
 62
     7
370
    25
100
AcDbCircle
 10
0.0
 20
-0.1652368637
 30
0.0
 40
48.05147290573494
100
AcDbArc
 50
305.1513408582
 51
309.3966928263
  0
ARC
  5
367
330
1F
100
AcDbEntity
  8
0
  6
Continuous
 62
     7
370
    25
100
AcDbCircle
 10
0.0
 20
-0.156512978
 30
0.0
 40
48.36553279283595
100
AcDbArc
 50
305.1513408582
 51
309.3966928263
  0
ARC
  5
368
330
1F
100
AcDbEntity
  8
0
  6
Continuous
 62
     7
370
    25
100
AcDbCircle
 10
0.0
 20
-0.1652368637
 30
0.0
 40
48.05147290573561
100
AcDbArc
 50
286.2039724372
 51
290.4493244053
  0
ARC
  5
369
330
1F
100
AcDbEntity
  8
0
  6
Continuous
 62
     7
370
    25
100
AcDbCircle
 10
0.0
 20
-0.156512978
 30
0.0
 40
48.36553279283673
100
AcDbArc
 50
286.2039724372
 51
290.4493244053
  0
ARC
  5
36A
330
1F
100
AcDbEntity
  8
0
  6
Continuous
 62
     7
370
    25
100
AcDbCircle
 10
-29.5356636293
 20
44.72325013
 30
0.0
 40
3.628747371135138
100
AcDbArc
 50
28.7846448839
 51
214.5656876136
  0
ARC
  5
36B
330
1F
100
AcDbEntity
  8
0
  6
Continuous
 62
     7
370
    25
100
AcDbCircle
 10
29.5356636293
 20
44.72325013
 30
0.0
 40
3.628747371135142
100
AcDbArc
 50
323.6292376945
 51
149.0857510253
  0
ARC
  5
36C
330
1F
100
AcDbEntity
  8
0
  6
Continuous
 62
     7
370
    25
100
AcDbCircle
 10
-26.1766802394
 20
6.4264157546
 30
0.0
 40
28.91052666239802
100
AcDbArc
 50
177.5619764997
 51
182.9149612632
  0
ARC
  5
36D
330
1F
100
AcDbEntity
  8
0
  6
Continuous
 62
     7
370
    25
100
AcDbCircle
 10
26.1766802394
 20
6.4264157546
 30
0.0
 40
28.91052666239228
100
AcDbArc
 50
357.0850387368
 51
2.4380235003
  0
ARC
  5
36E
330
1F
100
AcDbEntity
  8
0
  6
Continuous
 62
     7
370
    25
100
AcDbCircle
 10
26.0626304416
 20
2.1546641829
 30
0.0
 40
28.80742348304995
100
AcDbArc
 50
350.4019311897
 51
357.0812471971
  0
ARC
  5
36F
330
1F
100
AcDbEntity
  8
0
  6
Continuous
 62
     7
370
    25
100
AcDbCircle
 10
-26.0419208934
 20
2.1566183015
 30
0.0
 40
28.82820568300304
100
AcDbArc
 50
182.9205356955
 51
191.3789147425
  0
ARC
  5
370
330
1F
100
AcDbEntity
  8
0
  6
Continuous
 62
     7
370
    25
100
AcDbCircle
 10
0.0
 20
-0.2331057626
 30
0.0
 40
43.91900022947068
100
AcDbArc
 50
288.1535825464
 51
291.4097039677
  0
ARC
  5
371
330
1F
100
AcDbEntity
  8
0
  6
Continuous
 62
     7
370
    25
100
AcDbCircle
 10
0.0
 20
-0.2709798061
 30
0.0
 40
42.6060333869853
100
AcDbArc
 50
288.1535825464
 51
291.4097039677
  0
ARC
  5
372
330
1F
100
AcDbEntity
  8
0
  6
Continuous
 62
     7
370
    25
100
AcDbCircle
 10
0.0
 20
-0.2331057626
 30
0.0
 40
43.91900022945555
100
AcDbArc
 50
248.5902960323
 51
251.8464174536
  0
ARC
  5
373
330
1F
100
AcDbEntity
  8
0
  6
Continuous
 62
     7
370
    25
100
AcDbCircle
 10
0.0
 20
-0.2709798061
 30
0.0
 40
42.60603338699803
100
AcDbArc
 50
248.5902960323
 51
251.8464174536
  0
ARC
  5
374
330
1F
100
AcDbEntity
  8
0
  6
HIDDEN
 62
     7
370
    18
100
AcDbCircle
 10
25.6498000368
 20
2.2416659654
 30
0.0
 40
29.22898614818244
100
AcDbArc
 50
327.7025470745
 51
350.3687043393
  0
ARC
  5
375
330
1F
100
AcDbEntity
  8
0
  6
HIDDEN
 62
     7
370
    18
100
AcDbCircle
 10
0.0
 20
2.0282664058
 30
0.0
 40
50.80615404133928
100
AcDbArc
 50
212.2139795851
 51
327.7860204149
  0
ARC
  5
376
330
1F
100
AcDbEntity
  8
0
  6
HIDDEN
 62
     7
370
    18
100
AcDbCircle
 10
-25.6086300132
 20
2.25939769
 30
0.0
 40
29.2732617373962
100
AcDbArc
 50
191.4088068751
 51
212.2837336504
  0
ARC
  5
377
330
1F
100
AcDbEntity
  8
0
  6
HIDDEN
 62
     7
370
    18
100
AcDbCircle
 10
0.0
 20
1.8062606828
 30
0.0
 40
48.22046058850323
100
AcDbArc
 50
212.102617489
 51
327.897382511
  0
ARC
  5
378
330
1F
100
AcDbEntity
  8
0
  6
HIDDEN
 62
     7
370
    18
100
AcDbCircle
 10
25.7907824421
 20
2.0059143787
 30
0.0
 40
26.48915452246511
100
AcDbArc
 50
327.7924412285
 51
357.1477439035
  0
ARC
  5
379
330
1F
100
AcDbEntity
  8
0
  6
HIDDEN
 62
     7
370
    18
100
AcDbCircle
 10
-25.7907824421
 20
2.0059143787
 30
0.0
 40
26.48915452246527
100
AcDbArc
 50
182.8522560965
 51
212.2075587715
  0
ARC
  5
37A
330
1F
100
AcDbEntity
  8
0
  6
HIDDEN
 62
     7
370
    18
100
AcDbCircle
 10
26.6333252879
 20
6.2521925922
 30
0.0
 40
25.85317824405264
100
AcDbArc
 50
357.1266357681
 51
27.4567472228
  0
ARC
  5
37B
330
1F
100
AcDbEntity
  8
0
  6
HIDDEN
 62
     7
370
    18
100
AcDbCircle
 10
-26.6333252879
 20
6.2521925922
 30
0.0
 40
25.85317824405232
100
AcDbArc
 50
152.5432527772
 51
182.8733642319
  0
ARC
  5
37C
330
1F
100
AcDbEntity
  8
0
  6
HIDDEN
 62
     7
370
    18
100
AcDbCircle
 10
0.0
 20
-0.274643034
 30
0.0
 40
48.19737399452404
100
AcDbArc
 50
210.0
 51
330.0
  0
ARC
  5
37D
330
1F
100
AcDbEntity
  8
0
  6
HIDDEN
 62
     7
370
    18
100
AcDbCircle
 10
25.0150728714
 20
0.5736926475
 30
0.0
 40
26.95785325117426
100
AcDbArc
 50
330.0
 51
0.0
  0
ARC
  5
37E
330
1F
100
AcDbEntity
  8
0
  6
HIDDEN
 62
     7
370
    18
100
AcDbCircle
 10
-25.0150728714
 20
0.5736926475
 30
0.0
 40
26.95785325117476
100
AcDbArc
 50
180.0
 51
210.0
  0
ARC
  5
37F
330
1F
100
AcDbEntity
  8
0
  6
HIDDEN
 62
     7
370
    18
100
AcDbCircle
 10
25.0150728714
 20
4.5953537922
 30
0.0
 40
26.95785325117527
100
AcDbArc
 50
0.0
 51
5.3800226713
  0
ARC
  5
380
330
1F
100
AcDbEntity
  8
0
  6
HIDDEN
 62
     7
370
    18
100
AcDbCircle
 10
-25.0150728714
 20
4.5953537922
 30
0.0
 40
26.95785325118792
100
AcDbArc
 50
174.6199773287
 51
180.0
  0
MTEXT
  5
382
330
1F
100
AcDbEntity
  8
0
  6
Continuous
 62
     7
100
AcDbMText
 10
-55.0872069018
 20
-51.6540666434
 30
0.0
 40
4.83362
 41
0.0
 71
     1
 72
     1
  1
SOLIDWORKS Educational Product.
  7
SLDTEXTSTYLE0
 73
     1
 44
1.0
  0
MTEXT
  5
383
330
1F
100
AcDbEntity
  8
0
  6
Continuous
 62
     7
100
AcDbMText
 10
-55.0872069018
 20
-58.9044966434
 30
0.0
 40
4.83362
 41
0.0
 71
     1
 72
     1
  1
For Instructional Use Only.
  7
SLDTEXTSTYLE0
 73
     1
 44
1.0
  0
ENDSEC
  0
SECTION
  2
OBJECTS
  0
DICTIONARY
  5
C
330
0
100
AcDbDictionary
281
     1
  3
ACAD_GROUP
350
D
  3
ACAD_LAYOUT
350
1A
  3
ACAD_MLINESTYLE
350
17
  3
ACAD_PLOTSETTINGS
350
19
  3
ACAD_PLOTSTYLENAME
350
E
  3
ACAD_SCALELIST
350
47
  0
DICTIONARY
  5
D
102
{ACAD_REACTORS
330
C
102
}
330
C
100
AcDbDictionary
281
     1
  0
DICTIONARY
  5
1A
102
{ACAD_REACTORS
330
C
102
}
330
C
100
AcDbDictionary
281
     1
  3
Layout1
350
1E
  3
Layout2
350
26
  3
Model
350
22
  0
DICTIONARY
  5
17
102
{ACAD_REACTORS
330
C
102
}
330
C
100
AcDbDictionary
281
     1
  3
Standard
350
18
  0
DICTIONARY
  5
19
102
{ACAD_REACTORS
330
C
102
}
330
C
100
AcDbDictionary
281
     1
  0
ACDBDICTIONARYWDFLT
  5
E
102
{ACAD_REACTORS
330
C
102
}
330
C
100
AcDbDictionary
281
     1
  3
Normal
350
F
100
AcDbDictionaryWithDefault
340
F
  0
DICTIONARY
  5
47
102
{ACAD_REACTORS
330
C
102
}
330
C
100
AcDbDictionary
281
     1
  3
A0
350
48
  3
A1
350
49
  3
A2
350
4A
  3
A3
350
4B
  3
A4
350
4C
  3
A5
350
4D
  3
A6
350
4E
  3
A7
350
4F
  3
A8
350
50
  3
A9
350
51
  3
B0
350
52
  3
B1
350
53
  3
B2
350
54
  3
B3
350
55
  3
B4
350
56
  3
B5
350
57
  3
B6
350
58
  3
B7
350
59
  3
B8
350
5A
  3
B9
350
5B
  3
C0
350
5C
  3
C1
350
5D
  3
C2
350
5E
  3
C3
350
5F
  3
C4
350
60
  3
C5
350
61
  3
C6
350
62
  3
C7
350
63
  3
C8
350
64
  3
C9
350
65
  3
D0
350
66
  3
D1
350
67
  3
D2
350
68
  0
LAYOUT
  5
1E
102
{ACAD_REACTORS
330
1A
102
}
330
1A
100
AcDbPlotSettings
  1

  2
none_device
  4

  6

 40
0.0
 41
0.0
 42
0.0
 43
0.0
 44
0.0
 45
0.0
 46
0.0
 47
0.0
 48
0.0
 49
0.0
140
0.0
141
0.0
142
1.0
143
1.0
 70
   688
 72
     1
 73
     0
 74
     5
  7

 75
    16
147
1.0
148
0.0
149
0.0
100
AcDbLayout
  1
Layout1
 70
     1
 71
     1
 10
0.0
 20
0.0
 11
420.0
 21
297.0
 12
0.0
 22
0.0
 32
0.0
 14
1.0000000000E+20
 24
1.0000000000E+20
 34
1.0000000000E+20
 15
-1.0000000000E+20
 25
-1.0000000000E+20
 35
-1.0000000000E+20
146
0.0
 13
0.0
 23
0.0
 33
0.0
 16
1.0
 26
0.0
 36
0.0
 17
0.0
 27
1.0
 37
0.0
 76
     0
330
1B
  0
LAYOUT
  5
26
102
{ACAD_REACTORS
330
1A
102
}
330
1A
100
AcDbPlotSettings
  1

  2
none_device
  4

  6

 40
0.0
 41
0.0
 42
0.0
 43
0.0
 44
0.0
 45
0.0
 46
0.0
 47
0.0
 48
0.0
 49
0.0
140
0.0
141
0.0
142
1.0
143
1.0
 70
   688
 72
     1
 73
     0
 74
     5
  7

 75
    16
147
1.0
148
0.0
149
0.0
100
AcDbLayout
  1
Layout2
 70
     1
 71
     2
 10
0.0
 20
0.0
 11
0.0
 21
0.0
 12
0.0
 22
0.0
 32
0.0
 14
0.0
 24
0.0
 34
0.0
 15
0.0
 25
0.0
 35
0.0
146
0.0
 13
0.0
 23
0.0
 33
0.0
 16
1.0
 26
0.0
 36
0.0
 17
0.0
 27
1.0
 37
0.0
 76
     0
330
23
  0
LAYOUT
  5
22
102
{ACAD_REACTORS
330
1A
102
}
330
1A
100
AcDbPlotSettings
  1

  2
none_device
  4
ANSI_A_(11.00_x_8.50_Inches)
  6

 40
6.35
 41
19.05
 42
6.35000508
 43
19.05000254
 44
279.4
 45
215.9
 46
133.34999746
 47
89.2125956603
 48
0.0
 49
0.0
140
0.0
141
0.0
142
0.0833385724
143
1.0
 70
  1696
 72
     0
 73
     0
 74
     0
  7

 75
     0
147
0.0179189148
148
-1300.4909072572
149
0.0
100
AcDbLayout
  1
Model
 70
     1
 71
     0
 10
0.0
 20
0.0
 11
420.0
 21
297.0
 12
0.0
 22
0.0
 32
0.0
 14
-55.0872069018
 24
-50.6345002517
 34
0.0
 15
55.0872069018
 25
50.3391516417
 35
0.0
146
0.0
 13
0.0
 23
0.0
 33
0.0
 16
1.0
 26
0.0
 36
0.0
 17
0.0
 27
1.0
 37
0.0
 76
     0
330
1F
331
29
  0
MLINESTYLE
  5
18
102
{ACAD_REACTORS
330
17
102
}
330
17
100
AcDbMlineStyle
  2
Standard
 70
     0
  3

 62
   256
 51
90.0
 52
90.0
 71
     2
 49
0.5
 62
   256
  6
BYLAYER
 49
-0.5
 62
   256
  6
BYLAYER
  0
ACDBPLACEHOLDER
  5
F
102
{ACAD_REACTORS
330
E
102
}
330
E
  0
SCALE
  5
48
102
{ACAD_REACTORS
330
47
102
}
330
47
100
AcDbScale
 70
     0
300
1:1
140
1.0
141
1.0
290
     1
  0
SCALE
  5
49
102
{ACAD_REACTORS
330
47
102
}
330
47
100
AcDbScale
 70
     0
300
1:2
140
1.0
141
2.0
290
     0
  0
SCALE
  5
4A
102
{ACAD_REACTORS
330
47
102
}
330
47
100
AcDbScale
 70
     0
300
1:4
140
1.0
141
4.0
290
     0
  0
SCALE
  5
4B
102
{ACAD_REACTORS
330
47
102
}
330
47
100
AcDbScale
 70
     0
300
1:5
140
1.0
141
5.0
290
     0
  0
SCALE
  5
4C
102
{ACAD_REACTORS
330
47
102
}
330
47
100
AcDbScale
 70
     0
300
1:8
140
1.0
141
8.0
290
     0
  0
SCALE
  5
4D
102
{ACAD_REACTORS
330
47
102
}
330
47
100
AcDbScale
 70
     0
300
1:10
140
1.0
141
10.0
290
     0
  0
SCALE
  5
4E
102
{ACAD_REACTORS
330
47
102
}
330
47
100
AcDbScale
 70
     0
300
1:16
140
1.0
141
16.0
290
     0
  0
SCALE
  5
4F
102
{ACAD_REACTORS
330
47
102
}
330
47
100
AcDbScale
 70
     0
300
1:20
140
1.0
141
20.0
290
     0
  0
SCALE
  5
50
102
{ACAD_REACTORS
330
47
102
}
330
47
100
AcDbScale
 70
     0
300
1:30
140
1.0
141
30.0
290
     0
  0
SCALE
  5
51
102
{ACAD_REACTORS
330
47
102
}
330
47
100
AcDbScale
 70
     0
300
1:40
140
1.0
141
40.0
290
     0
  0
SCALE
  5
52
102
{ACAD_REACTORS
330
47
102
}
330
47
100
AcDbScale
 70
     0
300
1:50
140
1.0
141
50.0
290
     0
  0
SCALE
  5
53
102
{ACAD_REACTORS
330
47
102
}
330
47
100
AcDbScale
 70
     0
300
1:100
140
1.0
141
100.0
290
     0
  0
SCALE
  5
54
102
{ACAD_REACTORS
330
47
102
}
330
47
100
AcDbScale
 70
     0
300
2:1
140
2.0
141
1.0
290
     0
  0
SCALE
  5
55
102
{ACAD_REACTORS
330
47
102
}
330
47
100
AcDbScale
 70
     0
300
4:1
140
4.0
141
1.0
290
     0
  0
SCALE
  5
56
102
{ACAD_REACTORS
330
47
102
}
330
47
100
AcDbScale
 70
     0
300
8:1
140
8.0
141
1.0
290
     0
  0
SCALE
  5
57
102
{ACAD_REACTORS
330
47
102
}
330
47
100
AcDbScale
 70
     0
300
10:1
140
10.0
141
1.0
290
     0
  0
SCALE
  5
58
102
{ACAD_REACTORS
330
47
102
}
330
47
100
AcDbScale
 70
     0
300
100:1
140
100.0
141
1.0
290
     0
  0
SCALE
  5
59
102
{ACAD_REACTORS
330
47
102
}
330
47
100
AcDbScale
 70
     0
300
1/128" = 1'-0"
140
0.0078125
141
12.0
290
     0
  0
SCALE
  5
5A
102
{ACAD_REACTORS
330
47
102
}
330
47
100
AcDbScale
 70
     0
300
1/64" = 1'-0"
140
0.015625
141
12.0
290
     0
  0
SCALE
  5
5B
102
{ACAD_REACTORS
330
47
102
}
330
47
100
AcDbScale
 70
     0
300
1/32" = 1'-0"
140
0.03125
141
12.0
290
     0
  0
SCALE
  5
5C
102
{ACAD_REACTORS
330
47
102
}
330
47
100
AcDbScale
 70
     0
300
1/16" = 1'-0"
140
0.0625
141
12.0
290
     0
  0
SCALE
  5
5D
102
{ACAD_REACTORS
330
47
102
}
330
47
100
AcDbScale
 70
     0
300
3/32" = 1'-0"
140
0.09375
141
12.0
290
     0
  0
SCALE
  5
5E
102
{ACAD_REACTORS
330
47
102
}
330
47
100
AcDbScale
 70
     0
300
1/8" = 1'-0"
140
0.125
141
12.0
290
     0
  0
SCALE
  5
5F
102
{ACAD_REACTORS
330
47
102
}
330
47
100
AcDbScale
 70
     0
300
3/16" = 1'-0"
140
0.1875
141
12.0
290
     0
  0
SCALE
  5
60
102
{ACAD_REACTORS
330
47
102
}
330
47
100
AcDbScale
 70
     0
300
1/4" = 1'-0"
140
0.25
141
12.0
290
     0
  0
SCALE
  5
61
102
{ACAD_REACTORS
330
47
102
}
330
47
100
AcDbScale
 70
     0
300
3/8" = 1'-0"
140
0.375
141
12.0
290
     0
  0
SCALE
  5
62
102
{ACAD_REACTORS
330
47
102
}
330
47
100
AcDbScale
 70
     0
300
1/2" = 1'-0"
140
0.5
141
12.0
290
     0
  0
SCALE
  5
63
102
{ACAD_REACTORS
330
47
102
}
330
47
100
AcDbScale
 70
     0
300
3/4" = 1'-0"
140
0.75
141
12.0
290
     0
  0
SCALE
  5
64
102
{ACAD_REACTORS
330
47
102
}
330
47
100
AcDbScale
 70
     0
300
1" = 1'-0"
140
1.0
141
12.0
290
     0
  0
SCALE
  5
65
102
{ACAD_REACTORS
330
47
102
}
330
47
100
AcDbScale
 70
     0
300
1-1/2" = 1'-0"
140
1.5
141
12.0
290
     0
  0
SCALE
  5
66
102
{ACAD_REACTORS
330
47
102
}
330
47
100
AcDbScale
 70
     0
300
3" = 1'-0"
140
3.0
141
12.0
290
     0
  0
SCALE
  5
67
102
{ACAD_REACTORS
330
47
102
}
330
47
100
AcDbScale
 70
     0
300
6" = 1'-0"
140
6.0
141
12.0
290
     0
  0
SCALE
  5
68
102
{ACAD_REACTORS
330
47
102
}
330
47
100
AcDbScale
 70
     0
300
1'-0" = 1'-0"
140
12.0
141
12.0
290
     0
  0
ENDSEC
  0
EOF
