  0
SECTION
  2
HEADER
  9
$ACADVER
  1
AC1015
  9
$ACADMAINTVER
 70
     6
  9
$DWGCODEPAGE
  3
ANSI_1252
  9
$INSBASE
 10
0.0
 20
0.0
 30
0.0
  9
$EXTMIN
 10
-64.0911639056
 20
-42.3371704023
 30
0.0
  9
$EXTMAX
 10
51.0459241336
 20
72.6555651374
 30
0.0
  9
$LIMMIN
 10
0.0
 20
0.0
  9
$LIMMAX
 10
420.0
 20
297.0
  9
$ORTHOMODE
 70
     0
  9
$REGENMODE
 70
     1
  9
$FILLMODE
 70
     1
  9
$QTEXTMODE
 70
     0
  9
$MIRRTEXT
 70
     1
  9
$LTSCALE
 40
1.0
  9
$ATTMODE
 70
     1
  9
$TEXTSIZE
 40
3.5
  9
$TRACEWID
 40
1.0
  9
$TEXTSTYLE
  7
Standard
  9
$CLAYER
  8
0
  9
$CELTYPE
  6
ByLayer
  9
$CECOLOR
 62
   256
  9
$CELTSCALE
 40
1.0
  9
$DISPSILH
 70
     0
  9
$DIMSCALE
 40
1.0
  9
$DIMASZ
 40
3.302
  9
$DIMEXO
 40
1.0
  9
$DIMDLI
 40
3.75
  9
$DIMRND
 40
0.0
  9
$DIMDLE
 40
0.0
  9
$DIMEXE
 40
1.0
  9
$DIMTP
 40
0.0
  9
$DIMTM
 40
0.0
  9
$DIMTXT
 40
3.5
  9
$DIMCEN
 40
2.5
  9
$DIMTSZ
 40
0.0
  9
$DIMTOL
 70
     0
  9
$DIMLIM
 70
     0
  9
$DIMTIH
 70
     1
  9
$DIMTOH
 70
     1
  9
$DIMSE1
 70
     0
  9
$DIMSE2
 70
     0
  9
$DIMTAD
 70
     1
  9
$DIMZIN
 70
     0
  9
$DIMBLK
  1

  9
$DIMASO
 70
     1
  9
$DIMSHO
 70
     1
  9
$DIMPOST
  1

  9
$DIMAPOST
  1

  9
$DIMALT
 70
     0
  9
$DIMALTD
 70
     3
  9
$DIMALTF
 40
0.0393700787
  9
$DIMLFAC
 40
1.0
  9
$DIMTOFL
 70
     1
  9
$DIMTVP
 40
0.0
  9
$DIMTIX
 70
     0
  9
$DIMSOXD
 70
     0
  9
$DIMSAH
 70
     0
  9
$DIMBLK1
  1

  9
$DIMBLK2
  1

  9
$DIMSTYLE
  2
ISO-25
  9
$DIMCLRD
 70
     0
  9
$DIMCLRE
 70
     0
  9
$DIMCLRT
 70
     0
  9
$DIMTFAC
 40
1.0
  9
$DIMGAP
 40
1.524
  9
$DIMJUST
 70
     0
  9
$DIMSD1
 70
     0
  9
$DIMSD2
 70
     0
  9
$DIMTOLJ
 70
     0
  9
$DIMTZIN
 70
     0
  9
$DIMALTZ
 70
     0
  9
$DIMALTTZ
 70
     0
  9
$DIMUPT
 70
     0
  9
$DIMDEC
 70
     2
  9
$DIMTDEC
 70
     2
  9
$DIMALTU
 70
     2
  9
$DIMALTTD
 70
     3
  9
$DIMTXSTY
  7
Standard
  9
$DIMAUNIT
 70
     0
  9
$DIMADEC
 70
     2
  9
$DIMALTRND
 40
0.0
  9
$DIMAZIN
 70
     0
  9
$DIMDSEP
 70
    44
  9
$DIMATFIT
 70
     3
  9
$DIMFRAC
 70
     0
  9
$DIMLDRBLK
  1

  9
$DIMLUNIT
 70
     2
  9
$DIMLWD
 70
    -2
  9
$DIMLWE
 70
    -2
  9
$DIMTMOVE
 70
     0
  9
$LUNITS
 70
     2
  9
$LUPREC
 70
     2
  9
$SKETCHINC
 40
1.0
  9
$FILLETRAD
 40
10.0
  9
$AUNITS
 70
     0
  9
$AUPREC
 70
     2
  9
$MENU
  1
.
  9
$ELEVATION
 40
0.0
  9
$PELEVATION
 40
0.0
  9
$THICKNESS
 40
0.0
  9
$LIMCHECK
 70
     0
  9
$CHAMFERA
 40
0.0
  9
$CHAMFERB
 40
0.0
  9
$CHAMFERC
 40
0.0
  9
$CHAMFERD
 40
0.0
  9
$SKPOLY
 70
     0
  9
$TDCREATE
 40
2458917.614546921
  9
$TDUCREATE
 40
2458917.822880255
  9
$TDUPDATE
 40
2458917.614783345
  9
$TDUUPDATE
 40
2458917.823116678
  9
$TDINDWG
 40
0.0000000116
  9
$TDUSRTIMER
 40
0.0000000116
  9
$USRTIMER
 70
     1
  9
$ANGBASE
 50
0.0
  9
$ANGDIR
 70
     0
  9
$PDMODE
 70
     0
  9
$PDSIZE
 40
-1.0
  9
$PLINEWID
 40
0.0
  9
$SPLFRAME
 70
     0
  9
$SPLINETYPE
 70
     6
  9
$SPLINESEGS
 70
     8
  9
$HANDSEED
  5
371
  9
$SURFTAB1
 70
     6
  9
$SURFTAB2
 70
     6
  9
$SURFTYPE
 70
     6
  9
$SURFU
 70
     6
  9
$SURFV
 70
     6
  9
$UCSBASE
  2

  9
$UCSNAME
  2

  9
$UCSORG
 10
0.0
 20
0.0
 30
0.0
  9
$UCSXDIR
 10
1.0
 20
0.0
 30
0.0
  9
$UCSYDIR
 10
0.0
 20
1.0
 30
0.0
  9
$UCSORTHOREF
  2

  9
$UCSORTHOVIEW
 70
     0
  9
$UCSORGTOP
 10
0.0
 20
0.0
 30
0.0
  9
$UCSORGBOTTOM
 10
0.0
 20
0.0
 30
0.0
  9
$UCSORGLEFT
 10
0.0
 20
0.0
 30
0.0
  9
$UCSORGRIGHT
 10
0.0
 20
0.0
 30
0.0
  9
$UCSORGFRONT
 10
0.0
 20
0.0
 30
0.0
  9
$UCSORGBACK
 10
0.0
 20
0.0
 30
0.0
  9
$PUCSBASE
  2

  9
$PUCSNAME
  2

  9
$PUCSORG
 10
0.0
 20
0.0
 30
0.0
  9
$PUCSXDIR
 10
1.0
 20
0.0
 30
0.0
  9
$PUCSYDIR
 10
0.0
 20
1.0
 30
0.0
  9
$PUCSORTHOREF
  2

  9
$PUCSORTHOVIEW
 70
     0
  9
$PUCSORGTOP
 10
0.0
 20
0.0
 30
0.0
  9
$PUCSORGBOTTOM
 10
0.0
 20
0.0
 30
0.0
  9
$PUCSORGLEFT
 10
0.0
 20
0.0
 30
0.0
  9
$PUCSORGRIGHT
 10
0.0
 20
0.0
 30
0.0
  9
$PUCSORGFRONT
 10
0.0
 20
0.0
 30
0.0
  9
$PUCSORGBACK
 10
0.0
 20
0.0
 30
0.0
  9
$USERI1
 70
     0
  9
$USERI2
 70
     0
  9
$USERI3
 70
     0
  9
$USERI4
 70
     0
  9
$USERI5
 70
     0
  9
$USERR1
 40
0.0
  9
$USERR2
 40
0.0
  9
$USERR3
 40
0.0
  9
$USERR4
 40
0.0
  9
$USERR5
 40
0.0
  9
$WORLDVIEW
 70
     1
  9
$SHADEDGE
 70
     3
  9
$SHADEDIF
 70
    70
  9
$TILEMODE
 70
     1
  9
$MAXACTVP
 70
    64
  9
$PINSBASE
 10
0.0
 20
0.0
 30
0.0
  9
$PLIMCHECK
 70
     0
  9
$PEXTMIN
 10
1.0000000000E+20
 20
1.0000000000E+20
 30
1.0000000000E+20
  9
$PEXTMAX
 10
-1.0000000000E+20
 20
-1.0000000000E+20
 30
-1.0000000000E+20
  9
$PLIMMIN
 10
0.0
 20
0.0
  9
$PLIMMAX
 10
420.0
 20
297.0
  9
$UNITMODE
 70
     0
  9
$VISRETAIN
 70
     1
  9
$PLINEGEN
 70
     0
  9
$PSLTSCALE
 70
     1
  9
$TREEDEPTH
 70
  3020
  9
$CMLSTYLE
  2
Standard
  9
$CMLJUST
 70
     0
  9
$CMLSCALE
 40
20.0
  9
$PROXYGRAPHICS
 70
     1
  9
$MEASUREMENT
 70
     1
  9
$CELWEIGHT
370
    -1
  9
$ENDCAPS
280
     0
  9
$JOINSTYLE
280
     0
  9
$LWDISPLAY
290
     1
  9
$INSUNITS
 70
     4
  9
$HYPERLINKBASE
  1

  9
$STYLESHEET
  1

  9
$XEDIT
290
     1
  9
$CEPSNTYPE
380
     0
  9
$PSTYLEMODE
290
     1
  9
$FINGERPRINTGUID
  2
{6B9F9D63-1122-41FC-A1A5-FD51623FB32D}
  9
$VERSIONGUID
  2
{FAEB1C32-E019-11D5-929B-00C0DF256EC4}
  9
$EXTNAMES
290
     1
  9
$PSVPSCALE
 40
0.0
  9
$OLESTARTUP
290
     0
  0
ENDSEC
  0
SECTION
  2
CLASSES
  0
CLASS
  1
ACDBDICTIONARYWDFLT
  2
AcDbDictionaryWithDefault
  3
ObjectDBX Classes
 90
        0
280
     0
281
     0
  0
CLASS
  1
VISUALSTYLE
  2
AcDbVisualStyle
  3
ObjectDBX Classes
 90
     4095
280
     0
281
     0
  0
CLASS
  1
MATERIAL
  2
AcDbMaterial
  3
ObjectDBX Classes
 90
     1153
280
     0
281
     0
  0
CLASS
  1
SCALE
  2
AcDbScale
  3
ObjectDBX Classes
 90
     1153
280
     0
281
     0
  0
CLASS
  1
TABLESTYLE
  2
AcDbTableStyle
  3
ObjectDBX Classes
 90
     4095
280
     0
281
     0
  0
CLASS
  1
MLEADERSTYLE
  2
AcDbMLeaderStyle
  3
ACDB_MLEADERSTYLE_CLASS
 90
     4095
280
     0
281
     0
  0
CLASS
  1
SUN
  2
AcDbSun
  3
SCENEOE
 90
     1153
280
     0
281
     0
  0
CLASS
  1
ACDBPLACEHOLDER
  2
AcDbPlaceHolder
  3
ObjectDBX Classes
 90
        0
280
     0
281
     0
  0
CLASS
  1
LAYOUT
  2
AcDbLayout
  3
ObjectDBX Classes
 90
        0
280
     0
281
     0
  0
ENDSEC
  0
SECTION
  2
TABLES
  0
TABLE
  2
VPORT
  5
8
330
0
100
AcDbSymbolTable
 70
     1
  0
VPORT
  5
29
330
8
100
AcDbSymbolTableRecord
100
AcDbViewportTableRecord
  2
*Active
 70
     0
 10
0.0
 20
0.0
 11
1.0
 21
1.0
 12
-6.522619886
 22
15.1591973675
 13
0.0
 23
0.0
 14
10.0
 24
10.0
 15
10.0
 25
10.0
 16
0.0
 26
0.0
 36
1.0
 17
0.0
 27
0.0
 37
0.0
 40
117.2925902505
 41
1.0012553184
 42
50.0
 43
0.0
 44
0.0
 50
0.0
 51
0.0
 71
     0
 72
   100
 73
     1
 74
     3
 75
     0
 76
     0
 77
     0
 78
     0
281
     0
 65
     1
110
0.0
120
0.0
130
0.0
111
1.0
121
0.0
131
0.0
112
0.0
122
1.0
132
0.0
 79
     0
146
0.0
  0
ENDTAB
  0
TABLE
  2
LTYPE
  5
5
330
0
100
AcDbSymbolTable
 70
     6
  0
LTYPE
  5
14
330
5
100
AcDbSymbolTableRecord
100
AcDbLinetypeTableRecord
  2
ByBlock
 70
     0
  3

 72
    65
 73
     0
 40
0.0
  0
LTYPE
  5
15
330
5
100
AcDbSymbolTableRecord
100
AcDbLinetypeTableRecord
  2
ByLayer
 70
     0
  3

 72
    65
 73
     0
 40
0.0
  0
LTYPE
  5
16
330
5
100
AcDbSymbolTableRecord
100
AcDbLinetypeTableRecord
  2
Continuous
 70
     0
  3
Solid line
 72
    65
 73
     0
 40
0.0
  0
LTYPE
  5
6E
330
5
100
AcDbSymbolTableRecord
100
AcDbLinetypeTableRecord
  2
HIDDEN
 70
     0
  3
Hidden __ __ __ __ __ __ __ __ __ __ __ __ __ __
 72
    65
 73
     2
 40
1.905
 49
1.27
 74
     0
 49
-0.635
 74
     0
  0
LTYPE
  5
6F
330
5
100
AcDbSymbolTableRecord
100
AcDbLinetypeTableRecord
  2
PHANTOM
 70
     0
  3
Phantom ______  __  __  ______  __  __  ______
 72
    65
 73
     6
 40
12.7
 49
6.35
 74
     0
 49
-1.27
 74
     0
 49
1.27
 74
     0
 49
-1.27
 74
     0
 49
1.27
 74
     0
 49
-1.27
 74
     0
  0
LTYPE
  5
70
330
5
100
AcDbSymbolTableRecord
100
AcDbLinetypeTableRecord
  2
CENTER
 70
     0
  3
Center ____ _ ____ _ ____ _ ____ _ ____ _ ____
 72
    65
 73
     4
 40
10.16
 49
6.35
 74
     0
 49
-1.27
 74
     0
 49
1.27
 74
     0
 49
-1.27
 74
     0
  0
LTYPE
  5
71
330
5
100
AcDbSymbolTableRecord
100
AcDbLinetypeTableRecord
  2
CENTERX2
 70
     0
  3
Center (2x) ________  __  ________  __  _____
 72
    65
 73
     4
 40
20.32
 49
12.7
 74
     0
 49
-2.54
 74
     0
 49
2.54
 74
     0
 49
-2.54
 74
     0
  0
LTYPE
  5
72
330
5
100
AcDbSymbolTableRecord
100
AcDbLinetypeTableRecord
  2
DOT2
 70
     0
  3
Dot (.5x) ........................................
 72
    65
 73
     2
 40
0.635
 49
0.0
 74
     0
 49
-0.635
 74
     0
  0
ENDTAB
  0
TABLE
  2
LAYER
  5
2
330
0
100
AcDbSymbolTable
 70
     1
  0
LAYER
  5
10
330
2
100
AcDbSymbolTableRecord
100
AcDbLayerTableRecord
  2
0
 70
     0
 62
     7
  6
Continuous
370
    -3
390
F
  0
ENDTAB
  0
TABLE
  2
STYLE
  5
3
330
0
100
AcDbSymbolTable
 70
     2
  0
STYLE
  5
11
330
3
100
AcDbSymbolTableRecord
100
AcDbTextStyleTableRecord
  2
Standard
 70
     0
 40
0.0
 41
1.0
 50
0.0
 71
     0
 42
3.5
  3
txt
  4

  0
STYLE
  5
36E
330
3
100
AcDbSymbolTableRecord
100
AcDbTextStyleTableRecord
  2
SLDTEXTSTYLE0
 70
     0
 40
0.0
 41
0.7
 50
0.0
 71
     0
 42
3.5
  3
TXT
  4

  0
ENDTAB
  0
TABLE
  2
VIEW
  5
6
330
0
100
AcDbSymbolTable
 70
     0
  0
ENDTAB
  0
TABLE
  2
UCS
  5
7
330
0
100
AcDbSymbolTable
 70
     0
  0
ENDTAB
  0
TABLE
  2
APPID
  5
9
330
0
100
AcDbSymbolTable
 70
     1
  0
APPID
  5
12
330
9
100
AcDbSymbolTableRecord
100
AcDbRegAppTableRecord
  2
ACAD
 70
     0
  0
ENDTAB
  0
TABLE
  2
DIMSTYLE
  5
A
330
0
100
AcDbSymbolTable
 70
     1
100
AcDbDimStyleTable
  0
DIMSTYLE
105
27
330
A
100
AcDbSymbolTableRecord
100
AcDbDimStyleTableRecord
  2
ISO-25
 70
     0
 41
2.5
 42
0.625
 43
3.75
 44
1.25
 73
     0
 74
     0
 77
     1
 78
     8
140
2.5
141
2.5
143
0.0393700787
147
0.625
171
     3
172
     1
178
     0
271
     2
272
     2
274
     3
278
    44
283
     0
284
     8
340
11
  0
ENDTAB
  0
TABLE
  2
BLOCK_RECORD
  5
1
330
0
100
AcDbSymbolTable
 70
     1
  0
BLOCK_RECORD
  5
1F
330
1
100
AcDbSymbolTableRecord
100
AcDbBlockTableRecord
  2
*Model_Space
340
22
  0
BLOCK_RECORD
  5
1B
330
1
100
AcDbSymbolTableRecord
100
AcDbBlockTableRecord
  2
*Paper_Space
340
1E
  0
BLOCK_RECORD
  5
23
330
1
100
AcDbSymbolTableRecord
100
AcDbBlockTableRecord
  2
*Paper_Space0
340
26
  0
ENDTAB
  0
ENDSEC
  0
SECTION
  2
BLOCKS
  0
BLOCK
  5
20
330
1F
100
AcDbEntity
  8
0
100
AcDbBlockBegin
  2
*Model_Space
 70
     0
 10
0.0
 20
0.0
 30
0.0
  3
*Model_Space
  1

  0
ENDBLK
  5
21
330
1F
100
AcDbEntity
  8
0
100
AcDbBlockEnd
  0
BLOCK
  5
1C
330
1B
100
AcDbEntity
 67
     1
  8
0
100
AcDbBlockBegin
  2
*Paper_Space
 70
     0
 10
0.0
 20
0.0
 30
0.0
  3
*Paper_Space
  1

  0
ENDBLK
  5
1D
330
1B
100
AcDbEntity
 67
     1
  8
0
100
AcDbBlockEnd
  0
BLOCK
  5
24
330
23
100
AcDbEntity
  8
0
100
AcDbBlockBegin
  2
*Paper_Space0
 70
     0
 10
0.0
 20
0.0
 30
0.0
  3
*Paper_Space0
  1

  0
ENDBLK
  5
25
330
23
100
AcDbEntity
  8
0
100
AcDbBlockEnd
  0
ENDSEC
  0
SECTION
  2
ENTITIES
  0
LWPOLYLINE
  5
73
330
1F
100
AcDbEntity
  8
0
  6
CENTERX2
 62
     7
100
AcDbPolyline
 90
       23
 70
   128
 43
0.0
 10
-36.4074534997
 20
22.1949365591
 10
-33.6181515819
 20
16.8062806224
 10
-29.1431570776
 20
12.5183793165
 10
-23.3450074277
 20
9.678612904
 10
-16.6934342339
 20
8.5170423708
 10
-9.7273083981
 20
9.1277712534
 10
-3.0109840062
 20
11.46132193
 10
2.9114222831
 20
15.3286440029
 10
7.560112334
 20
20.4164300375
 10
10.5584769256
 20
26.3124978676
 10
11.6636063905
 20
32.5391831428
 10
10.7859697119
 20
38.5920368537
 10
7.9966677941
 20
43.9806927904
 10
3.5216732898
 20
48.2685940963
 10
-2.2764763601
 20
51.1083605089
 10
-8.9280495538
 20
52.269931042
 10
-15.8941753897
 20
51.6592021594
 10
-22.6104997816
 20
49.3256514828
 10
-28.5329060709
 20
45.4583294099
 10
-33.1815961218
 20
40.3705433753
 10
-36.1799607134
 20
34.4744755452
 10
-37.2850901783
 20
28.24779027
 10
-36.4074534997
 20
22.1949365591
  0
LWPOLYLINE
  5
74
330
1F
100
AcDbEntity
  8
0
  6
CENTERX2
 62
     7
100
AcDbPolyline
 90
       29
 70
   128
 43
0.0
 10
-52.9251516237
 20
16.4559514559
 10
-49.457579024
 20
9.1240703852
 10
-44.1523809868
 20
2.8587266621
 10
-37.2755822941
 20
-2.0259092172
 10
-29.1720143475
 20
-5.2849012133
 10
-20.2480238813
 20
-6.7548298591
 10
-10.9510970409
 20
-6.3619867944
 10
-1.7474205587
 20
-4.126070811
 10
6.9014947954
 20
-0.1592000725
 10
14.5619562908
 20
5.339709958
 10
20.8498364008
 20
12.0949209702
 10
25.4498345607
 20
19.7676984765
 10
28.131287655
 20
27.9732973741
 10
28.7597364286
 20
36.3002546706
 10
27.3036678359
 20
44.3310219569
 10
23.8360952363
 20
51.6629030276
 10
18.530897199
 20
57.9282467507
 10
11.6540985063
 20
62.81288263
 10
3.5505305597
 20
66.0718746261
 10
-5.3734599065
 20
67.5418032719
 10
-14.6703867469
 20
67.1489602073
 10
-23.8740632291
 20
64.9130442238
 10
-32.5229785832
 20
60.9461734853
 10
-40.1834400786
 20
55.4472634548
 10
-46.4713201886
 20
48.6920524426
 10
-51.0713183485
 20
41.0192749363
 10
-53.7527714428
 20
32.8136760388
 10
-54.3812202164
 20
24.4867187422
 10
-52.9251516237
 20
16.4559514559
  0
LWPOLYLINE
  5
75
330
1F
100
AcDbEntity
  8
0
  6
CENTERX2
 62
     7
100
AcDbPolyline
 90
       17
 70
   128
 43
0.0
 10
-19.8897553756
 20
27.9339216622
 10
-18.6037652456
 20
25.7899573583
 10
-16.4358398241
 20
24.3468386665
 10
-13.7160261044
 20
23.8242673258
 10
-10.85839107
 20
24.3018000857
 10
-8.2979837505
 20
25.7067369123
 10
-6.42460295
 20
27.8251889096
 10
-5.5234539133
 20
30.3346409647
 10
-5.7317284122
 20
32.8530517506
 10
-7.0177185422
 20
34.9970160545
 10
-9.1856439637
 20
36.4401347463
 10
-11.9054576834
 20
36.962706087
 10
-14.7630927178
 20
36.4851733271
 10
-17.3235000373
 20
35.0802365005
 10
-19.1968808378
 20
32.9617845033
 10
-20.0980298745
 20
30.4523324481
 10
-19.8897553756
 20
27.9339216622
  0
LINE
  5
76
330
1F
100
AcDbEntity
  8
0
  6
Continuous
 62
     7
100
AcDbLine
 10
-13.486278098
 20
8.5780996662
 30
0.0
 11
-13.0134027551
 21
23.8488705943
 31
0.0
  0
LINE
  5
77
330
1F
100
AcDbEntity
  8
0
  6
Continuous
 62
     7
100
AcDbLine
 10
11.6576127684
 20
32.2970098645
 30
0.0
 11
-5.4702354952
 21
30.9645436538
 31
0.0
  0
LINE
  5
78
330
1F
100
AcDbEntity
  8
0
  6
Continuous
 62
     7
100
AcDbLine
 10
17.4142648592
 20
58.9055505206
 30
0.0
 11
4.9686738432
 21
47.16528895
 31
0.0
  0
LINE
  5
79
330
1F
100
AcDbEntity
  8
0
  6
Continuous
 62
     7
100
AcDbLine
 10
-41.411649462
 20
54.3291704675
 30
0.0
 11
-29.6348051692
 21
44.4733006835
 31
0.0
  0
LINE
  5
7A
330
1F
100
AcDbEntity
  8
0
  6
Continuous
 62
     7
100
AcDbLine
 10
4.0133213814
 20
16.3136727293
 30
0.0
 11
15.7901656742
 21
6.4578029453
 31
0.0
  0
LINE
  5
7B
330
1F
100
AcDbEntity
  8
0
  6
Continuous
 62
     7
100
AcDbLine
 10
-30.590157631
 20
13.6216844628
 30
0.0
 11
-43.035748647
 21
1.8814228922
 31
0.0
  0
LINE
  5
7C
330
1F
100
AcDbEntity
  8
0
  6
Continuous
 62
     7
100
AcDbLine
 10
-12.6080810327
 20
36.9381028185
 30
0.0
 11
-12.1352056898
 21
52.2088737467
 31
0.0
  0
LINE
  5
7D
330
1F
100
AcDbEntity
  8
0
  6
Continuous
 62
     7
100
AcDbLine
 10
-20.1512482926
 20
29.822429759
 30
0.0
 11
-37.2790965562
 21
28.4899635483
 31
0.0
  0
LWPOLYLINE
  5
7E
330
1F
100
AcDbEntity
  8
0
  6
Continuous
 62
     7
100
AcDbPolyline
 90
       56
 70
   128
 43
0.0
 10
-14.6493127068
 20
43.7824727882
 10
-13.9591812197
 20
43.836161779
 10
-13.9591812197
 20
43.836161779
 10
-13.9802375966
 20
43.1561789618
 10
-13.9802375966
 20
43.1561789618
 10
-12.4182488637
 20
43.0684363401
 10
-12.4182488637
 20
43.0684363401
 10
-12.4357326934
 20
42.5038233582
 10
-12.4357326934
 20
42.5038233582
 10
-13.9977214262
 20
42.5915659799
 10
-13.9977214262
 20
42.5915659799
 10
-14.0150428673
 20
42.0321970814
 10
-14.0150428673
 20
42.0321970814
 10
-12.4530541345
 20
41.9444544598
 10
-12.4530541345
 20
41.9444544598
 10
-12.4705379642
 20
41.3798414779
 10
-12.4705379642
 20
41.3798414779
 10
-14.032526697
 20
41.4675840995
 10
-14.032526697
 20
41.4675840995
 10
-14.0544491459
 20
40.7596328374
 10
-14.0544491459
 20
40.7596328374
 10
-14.7445822261
 20
40.7059437227
 10
-14.7445822261
 20
40.7059437227
 10
-14.7197909135
 20
41.5065404586
 10
-14.7197909135
 20
41.5065404586
 10
-15.2819552947
 20
41.5430222803
 10
-15.2819552947
 20
41.5430222803
 10
-15.3040401321
 20
40.8298269347
 10
-15.3040401321
 20
40.8298269347
 10
-15.9941732124
 20
40.77613782
 10
-15.9941732124
 20
40.77613782
 10
-15.9693818997
 20
41.576734556
 10
-15.9693818997
 20
41.576734556
 10
-17.4689019091
 20
41.6606178672
 10
-17.4689019091
 20
41.6606178672
 10
-17.4514180795
 20
42.2252308491
 10
-17.4514180795
 20
42.2252308491
 10
-15.9519251349
 20
42.140473524
 10
-15.9519251349
 20
42.140473524
 10
-15.934576629
 20
42.7007164363
 10
-15.934576629
 20
42.7007164363
 10
-17.4340966384
 20
42.7845997476
 10
-17.4340966384
 20
42.7845997476
 10
-17.4166398735
 20
43.3483387155
 10
-17.4166398735
 20
43.3483387155
 10
-15.9171198641
 20
43.2644554043
 10
-15.9171198641
 20
43.2644554043
 10
-15.8989052861
 20
43.8526667616
 10
-15.8989052861
 20
43.8526667616
 10
-15.2087722059
 20
43.9063558763
 10
-15.2087722059
 20
43.9063558763
 10
-15.2298556475
 20
43.2254990452
 10
-15.2298556475
 20
43.2254990452
 10
-14.6676100721
 20
43.1916392653
 10
-14.6676100721
 20
43.1916392653
 10
-14.6493142999
 20
43.7824726643
  0
LWPOLYLINE
  5
7F
330
1F
100
AcDbEntity
  8
0
  6
Continuous
 62
     7
100
AcDbPolyline
 90
        8
 70
   128
 43
0.0
 10
-15.2473122442
 20
42.6617600903
 10
-15.2646338536
 20
42.1023911788
 10
-15.2646338536
 20
42.1023911788
 10
-14.7023070839
 20
42.0711534405
 10
-14.7023070839
 20
42.0711534405
 10
-14.6849856427
 20
42.630522339
 10
-14.6849856427
 20
42.630522339
 10
-15.2473124124
 20
42.6617600772
  0
LWPOLYLINE
  5
80
330
1F
100
AcDbEntity
  8
0
  6
Continuous
 62
     7
100
AcDbPolyline
 90
       12
 70
   128
 43
0.0
 10
-17.24217291
 20
44.9400656182
 10
-17.2046892497
 20
46.1505747956
 10
-17.2046892497
 20
46.1505747956
 10
-12.3110183172
 20
46.5312794272
 10
-12.3110183172
 20
46.5312794272
 10
-12.3352683348
 20
45.7481629694
 10
-12.3352683348
 20
45.7481629694
 10
-16.4133274452
 20
45.4309091097
 10
-16.4133274452
 20
45.4309091097
 10
-16.441041751
 20
44.5359188721
 10
-16.441041751
 20
44.5359188721
 10
-17.2421739309
 20
44.9400655387
  0
LWPOLYLINE
  5
81
330
1F
100
AcDbEntity
  8
0
  6
Continuous
 62
     7
100
AcDbPolyline
 90
      122
 70
   128
 43
0.0
 10
-26.9184488808
 20
33.6485400118
 10
-24.690224186
 20
33.8218854355
 10
-24.690224186
 20
33.8218854355
 10
-24.7127420595
 20
33.0947058675
 10
-24.7127420595
 20
33.0947058675
 10
-26.2449551339
 20
32.9755068813
 10
-26.2449551339
 20
32.9755068813
 10
-26.4616632803
 20
32.1355664814
 10
-26.4616632803
 20
32.1355664814
 10
-26.3826707069
 20
32.1600218091
 10
-26.3038405219
 20
32.1792330535
 10
-26.2290939362
 20
32.1928951626
 10
-26.157450647
 20
32.2010843994
 10
-26.157450647
 20
32.2010843994
 10
-26.0017719756
 20
32.2070921107
 10
-25.8523810915
 20
32.1995320357
 10
-25.7112115353
 20
32.1791256625
 10
-25.5763297664
 20
32.145151503
 10
-25.4487160875
 20
32.0975332944
 10
-25.3283434338
 20
32.0371450504
 10
-25.2152118053
 20
31.9639867712
 10
-25.1093482668
 20
31.8771844428
 10
-25.0135854673
 20
31.780005332
 10
-24.9308101852
 20
31.6739686777
 10
-24.8619485938
 20
31.5607462449
 10
-24.8070548226
 20
31.4385900057
 10
-24.7651215041
 20
31.3084502369
 10
-24.7361486383
 20
31.1703269386
 10
-24.7211165279
 20
31.0241438478
 10
-24.7190448703
 20
30.8699772274
 10
-24.7190448703
 20
30.8699772274
 10
-24.7317318822
 20
30.712918635
 10
-24.757980743
 20
30.5600364448
 10
-24.7996979286
 20
30.4129261587
 10
-24.8569105036
 20
30.2707137628
 10
-24.9276307979
 20
30.1344257968
 10
-25.0128932439
 20
30.00223797
 10
-25.1136240145
 20
29.8758220473
 10
-25.228869872
 20
29.7543802778
 10
-25.3546013465
 20
29.6417137687
 10
-25.4857816011
 20
29.5425739045
 10
-25.623418003
 20
29.4560104082
 10
-25.7674564229
 20
29.3837713076
 10
-25.9169706876
 20
29.3241848379
 10
-26.0729410996
 20
29.2771747361
 10
-26.2343332269
 20
29.244565293
 10
-26.4021815016
 20
29.2245322178
 10
-26.4021815016
 20
29.2245322178
 10
-26.5520054217
 20
29.2181080703
 10
-26.696657181
 20
29.2208053766
 10
-26.8350752824
 20
29.2353224414
 10
-26.968321223
 20
29.2589609599
 10
-27.0953605705
 20
29.2935452229
 10
-27.2172277572
 20
29.3372509397
 10
-27.3328612861
 20
29.3927764149
 10
-27.443322654
 20
29.457423344
 10
-27.5456709532
 20
29.5314205156
 10
-27.6389800102
 20
29.613096165
 10
-27.7222424578
 20
29.703400569
 10
-27.7955124254
 20
29.8005856997
 10
-27.8587087188
 20
29.907273599
 10
-27.9128928349
 20
30.0207659622
 10
-27.9570303415
 20
30.1428870799
 10
-27.992128606
 20
30.2726866754
 10
-27.992128606
 20
30.2726866754
 10
-26.9882986712
 20
30.3507799332
 10
-26.9882986712
 20
30.3507799332
 10
-26.9332755478
 20
30.2643820011
 10
-26.8690507938
 20
30.1909066301
 10
-26.7956514741
 20
30.1294798065
 10
-26.7130505237
 20
30.080975544
 10
-26.6242159156
 20
30.0442910399
 10
-26.5310811903
 20
30.0201477823
 10
-26.4316586777
 20
30.0095723109
 10
-26.3279360478
 20
30.0115380859
 10
-26.3279360478
 20
30.0115380859
 10
-26.2552853912
 20
30.0206775996
 10
-26.185413254
 20
30.0348324079
 10
-26.1182655069
 20
30.0557505386
 10
-26.0538692145
 20
30.0825579777
 10
-25.9912440742
 20
30.1153309883
 10
-25.9313703886
 20
30.1539933074
 10
-25.8742481578
 20
30.198544935
 10
-25.8198773817
 20
30.248985871
 10
-25.7702457305
 20
30.3042895757
 10
-25.7263876363
 20
30.3626317584
 10
-25.6893104666
 20
30.4230621422
 10
-25.6589600917
 20
30.4873287548
 10
-25.6343832739
 20
30.5546338454
 10
-25.6155800131
 20
30.6249774139
 10
-25.603530612
 20
30.6982831974
 10
-25.5982350706
 20
30.7745511958
 10
-25.5982350706
 20
30.7745511958
 10
-25.5988754747
 20
30.8486135888
 10
-25.6065133213
 20
30.9177720717
 10
-25.6191338755
 20
30.9839271981
 10
-25.6387248073
 20
31.0460524282
 10
-25.6643058142
 20
31.104224025
 10
-25.6968571989
 20
31.1583657257
 10
-25.7343912911
 20
31.2095040698
 10
-25.7789228258
 20
31.2557385038
 10
-25.8275108949
 20
31.2972978165
 10
-25.8792293253
 20
31.3325102431
 10
-25.9340781169
 20
31.3613757834
 10
-25.9910769672
 20
31.3839707006
 10
-26.051179114
 20
31.4010927454
 10
-26.1144386868
 20
31.4109938902
 10
-26.1798212535
 20
31.4154984257
 10
-26.2483612462
 20
31.4127820612
 10
-26.2483612462
 20
31.4127820612
 10
-26.3229995729
 20
31.4026160077
 10
-26.3969282445
 20
31.3837860781
 10
-26.4701201962
 20
31.3571662863
 10
-26.5436098601
 20
31.3209323416
 10
-26.6163898689
 20
31.2760345208
 10
-26.6894405252
 20
31.2223965609
 10
-26.7617815264
 20
31.160094725
 10
-26.8343931751
 20
31.08905275
 10
-26.8343931751
 20
31.08905275
 10
-27.5688591868
 20
31.1827548933
 10
-27.5688591868
 20
31.1827548933
 10
-26.9184521566
 20
33.6485397569
  0
LWPOLYLINE
  5
82
330
1F
100
AcDbEntity
  8
0
  6
Continuous
 62
     7
100
AcDbPolyline
 90
       56
 70
   128
 43
0.0
 10
-28.5273315433
 20
31.1796867305
 10
-28.5463900797
 20
30.564380557
 10
-28.5463900797
 20
30.564380557
 10
-29.3090655576
 20
30.5050479842
 10
-29.3090655576
 20
30.5050479842
 10
-29.5876418014
 20
29.0883226308
 10
-29.5876418014
 20
29.0883226308
 10
-30.2209173267
 20
29.039056767
 10
-30.2209173267
 20
29.039056767
 10
-29.9423410829
 20
30.4557821204
 10
-29.9423410829
 20
30.4557821204
 10
-30.5697347922
 20
30.4069738343
 10
-30.5697347922
 20
30.4069738343
 10
-30.848311036
 20
28.9902484809
 10
-30.848311036
 20
28.9902484809
 10
-31.4815865613
 20
28.9409826171
 10
-31.4815865613
 20
28.9409826171
 10
-31.2030103175
 20
30.3577079705
 10
-31.2030103175
 20
30.3577079705
 10
-31.9970554808
 20
30.2959349834
 10
-31.9970554808
 20
30.2959349834
 10
-31.9780018956
 20
30.9112407718
 10
-31.9780018956
 20
30.9112407718
 10
-31.0800446492
 20
30.9810976312
 10
-31.0800446492
 20
30.9810976312
 10
-30.9742675064
 20
31.491545831
 10
-30.9742675064
 20
31.491545831
 10
-31.7741944858
 20
31.4293152662
 10
-31.7741944858
 20
31.4293152662
 10
-31.7551409005
 20
32.0446210545
 10
-31.7551409005
 20
32.0446210545
 10
-30.8571836541
 20
32.114477914
 10
-30.8571836541
 20
32.114477914
 10
-30.5901425811
 20
33.4745037482
 10
-30.5901425811
 20
33.4745037482
 10
-29.9568670558
 20
33.5237696119
 10
-29.9568670558
 20
33.5237696119
 10
-30.2248884315
 20
32.1636675149
 10
-30.2248884315
 20
32.1636675149
 10
-29.5965144195
 20
32.2125520639
 10
-29.5965144195
 20
32.2125520639
 10
-29.3294733465
 20
33.572577898
 10
-29.3294733465
 20
33.572577898
 10
-28.6971781239
 20
33.6217674989
 10
-28.6971781239
 20
33.6217674989
 10
-28.9642191969
 20
32.2617416647
 10
-28.9642191969
 20
32.2617416647
 10
-28.3044754994
 20
32.3130666281
 10
-28.3044754994
 20
32.3130666281
 10
-28.3235290847
 20
31.6977608398
 10
-28.3235290847
 20
31.6977608398
 10
-29.0871848652
 20
31.638352004
 10
-29.0871848652
 20
31.638352004
 10
-29.1900210999
 20
31.1281325931
 10
-29.1900210999
 20
31.1281325931
 10
-28.5273364945
 20
31.1796863453
  0
LWPOLYLINE
  5
83
330
1F
100
AcDbEntity
  8
0
  6
Continuous
 62
     7
100
AcDbPolyline
 90
        8
 70
   128
 43
0.0
 10
-29.7194661318
 20
31.5891634889
 10
-30.3468737971
 20
31.5403541171
 10
-30.3468737971
 20
31.5403541171
 10
-30.4467691238
 20
31.030363495
 10
-30.4467691238
 20
31.030363495
 10
-29.8193754146
 20
31.0791717811
 10
-29.8193754146
 20
31.0791717811
 10
-29.7194800878
 20
31.5891624032
  0
LWPOLYLINE
  5
84
330
1F
100
AcDbEntity
  8
0
  6
Continuous
 62
     7
100
AcDbPolyline
 90
       56
 70
   128
 43
0.0
 10
-15.5794740956
 20
13.7443629405
 10
-14.8893426085
 20
13.7980519313
 10
-14.8893426085
 20
13.7980519313
 10
-14.9103989853
 20
13.1180691141
 10
-14.9103989853
 20
13.1180691141
 10
-13.3484102525
 20
13.0303264924
 10
-13.3484102525
 20
13.0303264924
 10
-13.3658940822
 20
12.4657135105
 10
-13.3658940822
 20
12.4657135105
 10
-14.927882815
 20
12.5534561322
 10
-14.927882815
 20
12.5534561322
 10
-14.9452042561
 20
11.9940872337
 10
-14.9452042561
 20
11.9940872337
 10
-13.3832155233
 20
11.906344612
 10
-13.3832155233
 20
11.906344612
 10
-13.4006993529
 20
11.3417316301
 10
-13.4006993529
 20
11.3417316301
 10
-14.9626880857
 20
11.4294742518
 10
-14.9626880857
 20
11.4294742518
 10
-14.9846105347
 20
10.7215229897
 10
-14.9846105347
 20
10.7215229897
 10
-15.6747436149
 20
10.667833875
 10
-15.6747436149
 20
10.667833875
 10
-15.6499523023
 20
11.4684306109
 10
-15.6499523023
 20
11.4684306109
 10
-16.2121166835
 20
11.5049124326
 10
-16.2121166835
 20
11.5049124326
 10
-16.2342015209
 20
10.791717087
 10
-16.2342015209
 20
10.791717087
 10
-16.9243346011
 20
10.7380279723
 10
-16.9243346011
 20
10.7380279723
 10
-16.8995432885
 20
11.5386247082
 10
-16.8995432885
 20
11.5386247082
 10
-18.3990632979
 20
11.6225080195
 10
-18.3990632979
 20
11.6225080195
 10
-18.3815794683
 20
12.1871210014
 10
-18.3815794683
 20
12.1871210014
 10
-16.8820865236
 20
12.1023636762
 10
-16.8820865236
 20
12.1023636762
 10
-16.8647380177
 20
12.6626065886
 10
-16.8647380177
 20
12.6626065886
 10
-18.3642580271
 20
12.7464898998
 10
-18.3642580271
 20
12.7464898998
 10
-18.3468012622
 20
13.3102288678
 10
-18.3468012622
 20
13.3102288678
 10
-16.8472812529
 20
13.2263455566
 10
-16.8472812529
 20
13.2263455566
 10
-16.8290666749
 20
13.8145569139
 10
-16.8290666749
 20
13.8145569139
 10
-16.1389335947
 20
13.8682460286
 10
-16.1389335947
 20
13.8682460286
 10
-16.1600170363
 20
13.1873891975
 10
-16.1600170363
 20
13.1873891975
 10
-15.5977714609
 20
13.1535294175
 10
-15.5977714609
 20
13.1535294175
 10
-15.5794756887
 20
13.7443628165
  0
LWPOLYLINE
  5
85
330
1F
100
AcDbEntity
  8
0
  6
Continuous
 62
     7
100
AcDbPolyline
 90
        8
 70
   128
 43
0.0
 10
-16.1774736329
 20
12.6236502426
 10
-16.1947952423
 20
12.064281331
 10
-16.1947952423
 20
12.064281331
 10
-15.6324684726
 20
12.0330435928
 10
-15.6324684726
 20
12.0330435928
 10
-15.6151470315
 20
12.5924124913
 10
-15.6151470315
 20
12.5924124913
 10
-16.1774738012
 20
12.6236502295
  0
LWPOLYLINE
  5
86
330
1F
100
AcDbEntity
  8
0
  6
Continuous
 62
     7
100
AcDbPolyline
 90
       12
 70
   128
 43
0.0
 10
-18.1723342988
 20
14.9019557704
 10
-18.1348506385
 20
16.1124649479
 10
-18.1348506385
 20
16.1124649479
 10
-13.241179706
 20
16.4931695795
 10
-13.241179706
 20
16.4931695795
 10
-13.2654297236
 20
15.7100531216
 10
-13.2654297236
 20
15.7100531216
 10
-17.343488834
 20
15.3927992619
 10
-17.343488834
 20
15.3927992619
 10
-17.3712031398
 20
14.4978090244
 10
-17.3712031398
 20
14.4978090244
 10
-18.1723353197
 20
14.901955691
  0
LWPOLYLINE
  5
87
330
1F
100
AcDbEntity
  8
0
  6
Continuous
 62
     7
100
AcDbPolyline
 90
       93
 70
   128
 43
0.0
 10
-18.1715296306
 20
18.9703429325
 10
-18.1640903014
 20
19.0842697685
 10
-18.1479632727
 20
19.1945129248
 10
-18.1241020816
 20
19.301870129
 10
-18.092533793
 20
19.4054673673
 10
-18.0522510393
 20
19.5062549166
 10
-18.004261188
 20
19.6032824998
 10
-17.9475568717
 20
19.697500394
 10
-17.8831454577
 20
19.7879583223
 10
-17.8110269462
 20
19.8746562846
 10
-17.7292677965
 20
19.9568727929
 10
-17.6398015491
 20
20.0353293353
 10
-17.5416479015
 20
20.1101021747
 10
-17.4348339184
 20
20.1803172972
 10
-17.3193325349
 20
20.2468487167
 10
-17.1961511187
 20
20.3087461564
 10
-17.0633019994
 20
20.367036156
 10
-16.9198319393
 20
20.4209209646
 10
-16.7638073978
 20
20.4696790942
 10
-16.5942210073
 20
20.5142608216
 10
-16.4120801354
 20
20.5537158701
 10
-16.2163774147
 20
20.5889945163
 10
-16.0071399098
 20
20.6192227465
 10
-15.7853208587
 20
20.6451983116
 10
-15.5509473261
 20
20.6660471976
 10
-15.5509473261
 20
20.6660471976
 10
-15.313795274
 20
20.6818807891
 10
-15.0905569126
 20
20.690528602
 10
-14.8812322418
 20
20.6919906363
 10
-14.6848138943
 20
20.6872171688
 10
-14.5032895401
 20
20.6751816599
 10
-14.3346715091
 20
20.6569106492
 10
-14.1789868661
 20
20.6315301228
 10
-14.0381962164
 20
20.598887555
 10
-13.9083242199
 20
20.5610360251
 10
-13.7883905738
 20
20.5180517964
 10
-13.6764076081
 20
20.4709614084
 10
-13.5743629929
 20
20.4187383214
 10
-13.4812764255
 20
20.3614587984
 10
-13.3971208411
 20
20.2999968532
 10
-13.3228765424
 20
20.234276223
 10
-13.2566099889
 20
20.1635754196
 10
-13.1993014831
 20
20.0878181802
 10
-13.150024852
 20
20.0053327399
 10
-13.1097062687
 20
19.9177908636
 10
-13.0764121925
 20
19.8244710632
 10
-13.052103229
 20
19.7252208129
 10
-13.0348187726
 20
19.6201926385
 10
-13.026492364
 20
19.5101080281
 10
-13.0261978301
 20
19.3932952168
 10
-13.0261978301
 20
19.3932952168
 10
-13.0337457175
 20
19.2758723018
 10
-13.0489736378
 20
19.1630833668
 10
-13.0728618936
 20
19.0548521486
 10
-13.1035040091
 20
18.9495831455
 10
-13.1427793953
 20
18.8497458731
 10
-13.1897889439
 20
18.7527945528
 10
-13.2444785254
 20
18.6604772123
 10
-13.3068481398
 20
18.5727938516
 10
-13.3779051544
 20
18.488794194
 10
-13.4566692666
 20
18.4085545023
 10
-13.5441478438
 20
18.3311244997
 10
-13.6393064539
 20
18.2583284769
 10
-13.7421721617
 20
18.1892924201
 10
-13.8537252696
 20
18.1239400663
 10
-13.9739657779
 20
18.0622714155
 10
-14.1019133838
 20
18.0043627306
 10
-14.2414622332
 20
17.9507829738
 10
-14.3935926288
 20
17.9014558821
 10
-14.5602381113
 20
17.8571029435
 10
-14.7404454426
 20
17.8169264071
 10
-14.9341604932
 20
17.7826743006
 10
-15.1414644576
 20
17.7517245824
 10
-15.362303206
 20
17.7258252803
 10
-15.5966767386
 20
17.7049763942
 10
-15.5966767386
 20
17.7049763942
 10
-15.9219748367
 20
17.6849011792
 10
-16.2233667643
 20
17.6788924696
 10
-16.5018869534
 20
17.6851259747
 10
-16.7565551014
 20
17.7036779572
 10
-16.9873170788
 20
17.7362964452
 10
-17.1951802529
 20
17.7820311617
 10
-17.379191386
 20
17.8400843558
 10
-17.5403037158
 20
17.9112537784
 10
-17.5403037158
 20
17.9112537784
 10
-17.6929240703
 20
18.0040096383
 10
-17.8246603564
 20
18.107981173
 10
-17.9355125741
 20
18.2231683826
 10
-18.0245004208
 20
18.3496475299
 10
-18.0935574371
 20
18.488140103
 10
-18.1407771471
 20
18.6370506
 10
-18.1661054213
 20
18.7981270486
 10
-18.1715299298
 20
18.9703429092
  0
LWPOLYLINE
  5
88
330
1F
100
AcDbEntity
  8
0
  6
Continuous
 62
     7
100
AcDbPolyline
 90
       73
 70
   128
 43
0.0
 10
-17.292581607
 20
19.0579029483
 10
-17.2859468615
 20
18.9564058183
 10
-17.260468142
 20
18.8633499283
 10
-17.2162012832
 20
18.7769871176
 10
-17.1521389178
 20
18.6982676633
 10
-17.1121841194
 20
18.6621400814
 10
-17.0653130729
 20
18.6282943679
 10
-17.0114716487
 20
18.5984785507
 10
-16.9507139762
 20
18.5709446019
 10
-16.8830129908
 20
18.5465665355
 10
-16.8093760599
 20
18.5243940745
 10
-16.7277884486
 20
18.5063277728
 10
-16.6392845891
 20
18.4905433395
 10
-16.542857114
 20
18.4779910514
 10
-16.4345848126
 20
18.4689759605
 10
-16.3164282902
 20
18.4633455407
 10
-16.1874072442
 20
18.461176055
 10
-16.0474946098
 20
18.4633415174
 10
-15.8967445165
 20
18.4680939
 10
-15.7351028348
 20
18.4771812307
 10
-15.5626236943
 20
18.4888554816
 10
-15.5626236943
 20
18.4888554816
 10
-15.3390064263
 20
18.5097394891
 10
-15.1338525206
 20
18.5344185841
 10
-14.946127545
 20
18.5647170572
 10
-14.7768659316
 20
18.5988106178
 10
-14.6240529455
 20
18.6385998195
 10
-14.489676257
 20
18.6830581226
 10
-14.372782628
 20
18.731387776
 10
-14.2742982318
 20
18.7852605447
 10
-14.1894027491
 20
18.8424357016
 10
-14.1161626396
 20
18.9021917588
 10
-14.0535705356
 20
18.965478993
 10
-14.0016805668
 20
19.0305493766
 10
-13.9614189062
 20
19.0990746743
 10
-13.9318323161
 20
19.1702571352
 10
-13.9128937315
 20
19.2449707733
 10
-13.9046572821
 20
19.3214675606
 10
-13.9046572821
 20
19.3214675606
 10
-13.9072853563
 20
19.3945034138
 10
-13.9208320836
 20
19.462330305
 10
-13.9452703994
 20
19.5258222482
 10
-13.9806003035
 20
19.5849792434
 10
-14.025868558
 20
19.6390035396
 10
-14.082028401
 20
19.6886928878
 10
-14.1491068971
 20
19.733173274
 10
-14.2260966789
 20
19.7733949752
 10
-14.2260966789
 20
19.7733949752
 10
-14.3343208225
 20
19.8155463315
 10
-14.4594266294
 20
19.8494091065
 10
-14.6023944024
 20
19.8749070373
 10
-14.7622438389
 20
19.8921163867
 10
-14.9399281767
 20
19.9018349057
 10
-15.1344671131
 20
19.9041388574
 10
-15.3459147777
 20
19.8972802137
 10
-15.5751973437
 20
19.8829307398
 10
-15.5751973437
 20
19.8829307398
 10
-15.8066299682
 20
19.8623106425
 10
-16.0206336627
 20
19.8360711671
 10
-16.2151936923
 20
19.8061128673
 10
-16.3913174244
 20
19.7714854661
 10
-16.5490048591
 20
19.7321889635
 10
-16.6882559962
 20
19.6882233596
 10
-16.8090708359
 20
19.6395886544
 10
-16.911449378
 20
19.5862848479
 10
-16.9982784012
 20
19.529831179
 10
-17.0744594188
 20
19.4698463329
 10
-17.1389579986
 20
19.4081546006
 10
-17.1928085728
 20
19.3429316911
 10
-17.2349767092
 20
19.2760018953
 10
-17.2655165373
 20
19.2056171853
 10
-17.2843739276
 20
19.133525589
 10
-17.2925833122
 20
19.0579028156
  0
LWPOLYLINE
  5
89
330
1F
100
AcDbEntity
  8
0
  6
Continuous
 62
     7
100
AcDbPolyline
 90
      122
 70
   128
 43
0.0
 10
6.7725847371
 20
36.2695443088
 10
9.0008180029
 20
36.4428903994
 10
9.0008180029
 20
36.4428903994
 10
8.9783001295
 20
35.7157108314
 10
8.9783001295
 20
35.7157108314
 10
7.446087055
 20
35.5965118452
 10
7.446087055
 20
35.5965118452
 10
7.2293789086
 20
34.7565714453
 10
7.2293789086
 20
34.7565714453
 10
7.308371482
 20
34.781026773
 10
7.387201667
 20
34.8002380173
 10
7.4619482527
 20
34.8139001264
 10
7.5335915419
 20
34.8220893633
 10
7.5335915419
 20
34.8220893633
 10
7.6892702133
 20
34.8280970745
 10
7.8386610974
 20
34.8205369995
 10
7.9798306536
 20
34.8001306263
 10
8.1147124225
 20
34.7661564669
 10
8.2423261014
 20
34.7185382582
 10
8.3626987551
 20
34.6581500143
 10
8.4758303836
 20
34.5849917351
 10
8.5816939221
 20
34.4981894067
 10
8.6774567217
 20
34.4010102959
 10
8.7602320037
 20
34.2949736416
 10
8.8290935951
 20
34.1817512088
 10
8.8839873663
 20
34.0595949695
 10
8.9259206849
 20
33.9294552008
 10
8.9548935506
 20
33.7913319024
 10
8.969925661
 20
33.6451488116
 10
8.9719973186
 20
33.4909821913
 10
8.9719973186
 20
33.4909821913
 10
8.9593103067
 20
33.3339235989
 10
8.9330614459
 20
33.1810414087
 10
8.8913442603
 20
33.0339311226
 10
8.8341316853
 20
32.8917187266
 10
8.763411391
 20
32.7554307607
 10
8.678148945
 20
32.6232429339
 10
8.5774181744
 20
32.4968270112
 10
8.4621723169
 20
32.3753852417
 10
8.3364408424
 20
32.2627187326
 10
8.2052605878
 20
32.1635788684
 10
8.0676241859
 20
32.077015372
 10
7.923585766
 20
32.0047762714
 10
7.7740715014
 20
31.9451898017
 10
7.6181010893
 20
31.8981796999
 10
7.456708962
 20
31.8655702568
 10
7.2888606873
 20
31.8455371817
 10
7.2888606873
 20
31.8455371817
 10
7.1390367672
 20
31.8391130342
 10
6.9943850079
 20
31.8418103405
 10
6.8559669065
 20
31.8563274052
 10
6.7227209659
 20
31.8799659237
 10
6.5956816184
 20
31.9145501868
 10
6.4738144317
 20
31.9582559036
 10
6.3581809029
 20
32.0137813788
 10
6.2477195349
 20
32.0784283078
 10
6.1453712358
 20
32.1524254795
 10
6.0520621787
 20
32.2341011288
 10
5.9687997311
 20
32.3244055328
 10
5.8955297635
 20
32.4215906636
 10
5.8323334701
 20
32.5282785629
 10
5.778149354
 20
32.6417709261
 10
5.7340118474
 20
32.7638920438
 10
5.6989135829
 20
32.8936916393
 10
5.6989135829
 20
32.8936916393
 10
6.7027435177
 20
32.9717848971
 10
6.7027435177
 20
32.9717848971
 10
6.7577666411
 20
32.885386965
 10
6.8219913951
 20
32.811911594
 10
6.8953907148
 20
32.7504847703
 10
6.9779916652
 20
32.7019805078
 10
7.0668262733
 20
32.6652960038
 10
7.1599609986
 20
32.6411527461
 10
7.2593835112
 20
32.6305772748
 10
7.3631061411
 20
32.6325430498
 10
7.3631061411
 20
32.6325430498
 10
7.4357567977
 20
32.6416825635
 10
7.5056289349
 20
32.6558373718
 10
7.572776682
 20
32.6767555025
 10
7.6371729744
 20
32.7035629416
 10
7.6997981147
 20
32.7363359522
 10
7.7596718003
 20
32.7749982713
 10
7.8167940311
 20
32.8195498988
 10
7.8711648072
 20
32.8699908349
 10
7.9207964584
 20
32.9252945396
 10
7.9646545526
 20
32.9836367223
 10
8.0017317224
 20
33.044067106
 10
8.0320820972
 20
33.1083337187
 10
8.056658915
 20
33.1756388092
 10
8.0754621758
 20
33.2459823777
 10
8.0875115769
 20
33.3192881612
 10
8.0928071183
 20
33.3955561597
 10
8.0928071183
 20
33.3955561597
 10
8.0921667142
 20
33.4696185527
 10
8.0845288676
 20
33.5387770355
 10
8.0719083135
 20
33.6049321619
 10
8.0523173816
 20
33.6670573921
 10
8.0267363747
 20
33.7252289889
 10
7.9941849901
 20
33.7793706895
 10
7.9566508978
 20
33.8305090337
 10
7.9121193632
 20
33.8767434677
 10
7.863531294
 20
33.9183027804
 10
7.8118128637
 20
33.9535152069
 10
7.756964072
 20
33.9823807473
 10
7.6999652217
 20
34.0049756644
 10
7.6398630749
 20
34.0220977093
 10
7.5766035021
 20
34.0319988541
 10
7.5112209354
 20
34.0365033896
 10
7.4426809427
 20
34.033787025
 10
7.4426809427
 20
34.033787025
 10
7.368042616
 20
34.0236209715
 10
7.2941139444
 20
34.0047910419
 10
7.2209219927
 20
33.9781712502
 10
7.1474323288
 20
33.9419373055
 10
7.07465232
 20
33.8970394847
 10
7.0016016637
 20
33.8434015248
 10
6.9292606625
 20
33.7810996889
 10
6.8566490138
 20
33.7100577139
 10
6.8566490138
 20
33.7100577139
 10
6.1221830021
 20
33.8037598572
 10
6.1221830021
 20
33.8037598572
 10
6.7725900323
 20
36.2695447208
  0
LWPOLYLINE
  5
8A
330
1F
100
AcDbEntity
  8
0
  6
Continuous
 62
     7
100
AcDbPolyline
 90
       12
 70
   128
 43
0.0
 10
3.0003763653
 20
35.9760842012
 10
4.3581045542
 20
36.0817090822
 10
4.3581045542
 20
36.0817090822
 10
4.2229973133
 20
31.7186316742
 10
4.2229973133
 20
31.7186316742
 10
3.3446461203
 20
31.6503000736
 10
3.3446461203
 20
31.6503000736
 10
3.4572354877
 20
35.2861979137
 10
3.4572354877
 20
35.2861979137
 10
2.4534055528
 20
35.2081046559
 10
2.4534055528
 20
35.2081046559
 10
3.0003853552
 20
35.9760849006
  0
LWPOLYLINE
  5
8B
330
1F
100
AcDbEntity
  8
0
  6
Continuous
 62
     7
100
AcDbPolyline
 90
       56
 70
   128
 43
0.0
 10
1.3993400432
 20
33.5078413284
 10
1.3802898534
 20
32.8925358043
 10
1.3802898534
 20
32.8925358043
 10
0.6176143756
 20
32.8332032315
 10
0.6176143756
 20
32.8332032315
 10
0.3390381318
 20
31.416477878
 10
0.3390381318
 20
31.416477878
 10
-0.2942373935
 20
31.3672120142
 10
-0.2942373935
 20
31.3672120142
 10
-0.0156611497
 20
32.7839373677
 10
-0.0156611497
 20
32.7839373677
 10
-0.643054859
 20
32.7351290816
 10
-0.643054859
 20
32.7351290816
 10
-0.9216311028
 20
31.3184037281
 10
-0.9216311028
 20
31.3184037281
 10
-1.5549066282
 20
31.2691378643
 10
-1.5549066282
 20
31.2691378643
 10
-1.2763303843
 20
32.6858632178
 10
-1.2763303843
 20
32.6858632178
 10
-2.0703755477
 20
32.6240902307
 10
-2.0703755477
 20
32.6240902307
 10
-2.0513219624
 20
33.239396019
 10
-2.0513219624
 20
33.239396019
 10
-1.153364716
 20
33.3092528785
 10
-1.153364716
 20
33.3092528785
 10
-1.0475875733
 20
33.8197010782
 10
-1.0475875733
 20
33.8197010782
 10
-1.8475145526
 20
33.7574705134
 10
-1.8475145526
 20
33.7574705134
 10
-1.8284609674
 20
34.3727763018
 10
-1.8284609674
 20
34.3727763018
 10
-0.9305037209
 20
34.4426331613
 10
-0.9305037209
 20
34.4426331613
 10
-0.6634626479
 20
35.8026589954
 10
-0.6634626479
 20
35.8026589954
 10
-0.0301871226
 20
35.8519248592
 10
-0.0301871226
 20
35.8519248592
 10
-0.2982084983
 20
34.4918227621
 10
-0.2982084983
 20
34.4918227621
 10
0.3301655137
 20
34.5407073111
 10
0.3301655137
 20
34.5407073111
 10
0.5972065867
 20
35.9007331453
 10
0.5972065867
 20
35.9007331453
 10
1.2295018093
 20
35.9499227461
 10
1.2295018093
 20
35.9499227461
 10
0.9624607363
 20
34.589896912
 10
0.9624607363
 20
34.589896912
 10
1.6222044337
 20
34.6412218753
 10
1.6222044337
 20
34.6412218753
 10
1.6031508485
 20
34.025916087
 10
1.6031508485
 20
34.025916087
 10
0.839495068
 20
33.9665072513
 10
0.839495068
 20
33.9665072513
 10
0.7366588332
 20
33.4562878404
 10
0.7366588332
 20
33.4562878404
 10
1.3993434387
 20
33.5078415926
  0
LWPOLYLINE
  5
8C
330
1F
100
AcDbEntity
  8
0
  6
Continuous
 62
     7
100
AcDbPolyline
 90
        8
 70
   128
 43
0.0
 10
0.2071981625
 20
33.9173175195
 10
-0.420193864
 20
33.8685093643
 10
-0.420193864
 20
33.8685093643
 10
-0.5200891907
 20
33.3585187423
 10
-0.5200891907
 20
33.3585187423
 10
0.1073045186
 20
33.4073270284
 10
0.1073045186
 20
33.4073270284
 10
0.2071998453
 20
33.9173176504
  0
LWPOLYLINE
  5
8D
330
1F
100
AcDbEntity
  8
0
  6
Continuous
 62
     7
100
AcDbPolyline
 90
       56
 70
   128
 43
0.0
 10
-34.3651925727
 20
51.3193540342
 10
-34.8406730753
 20
50.870823121
 10
-34.8406730753
 20
50.870823121
 10
-35.3630474549
 20
51.3079906453
 10
-35.3630474549
 20
51.3079906453
 10
-36.6705287901
 20
50.3613955007
 10
-36.6705287901
 20
50.3613955007
 10
-37.1252232774
 20
50.7419227071
 10
-37.1252232774
 20
50.7419227071
 10
-35.820601656
 20
51.6909111046
 10
-35.820601656
 20
51.6909111046
 10
-36.2533716712
 20
52.053090039
 10
-36.2533716712
 20
52.053090039
 10
-37.5579932926
 20
51.1041016415
 10
-37.5579932926
 20
51.1041016415
 10
-38.0107813042
 20
51.483033346
 10
-38.0107813042
 20
51.483033346
 10
-36.7061596828
 20
52.4320217435
 10
-36.7061596828
 20
52.4320217435
 10
-37.2151887315
 20
52.8580207544
 10
-37.2151887315
 20
52.8580207544
 10
-36.7397113081
 20
53.3065514281
 10
-36.7397113081
 20
53.3065514281
 10
-36.1601426533
 20
52.8215188463
 10
-36.1601426533
 20
52.8215188463
 10
-35.6421695232
 20
53.1896522807
 10
-35.6421695232
 20
53.1896522807
 10
-36.1464323824
 20
53.6116625369
 10
-36.1464323824
 20
53.6116625369
 10
-35.6709549589
 20
54.0601932105
 10
-35.6709549589
 20
54.0601932105
 10
-35.1028251592
 20
53.5847336403
 10
-35.1028251592
 20
53.5847336403
 10
-33.8952686237
 20
54.4625215169
 10
-33.8952686237
 20
54.4625215169
 10
-33.4539194672
 20
54.0931628239
 10
-33.4539194672
 20
54.0931628239
 10
-34.6548033373
 20
53.2097906905
 10
-34.6548033373
 20
53.2097906905
 10
-34.222033322
 20
52.8476117562
 10
-34.222033322
 20
52.8476117562
 10
-33.0144767866
 20
53.7253996328
 10
-33.0144767866
 20
53.7253996328
 10
-32.5597822992
 20
53.3448724264
 10
-32.5597822992
 20
53.3448724264
 10
-33.7673388347
 20
52.4670845498
 10
-33.7673388347
 20
52.4670845498
 10
-33.3097846336
 20
52.0841640905
 10
-33.3097846336
 20
52.0841640905
 10
-33.785262057
 20
51.6356334169
 10
-33.785262057
 20
51.6356334169
 10
-34.3085896745
 20
52.0735986921
 10
-34.3085896745
 20
52.0735986921
 10
-34.8179836634
 20
51.6982854991
 10
-34.8179836634
 20
51.6982854991
 10
-34.3651956519
 20
51.3193537946
  0
LWPOLYLINE
  5
8E
330
1F
100
AcDbEntity
  8
0
  6
Continuous
 62
     7
100
AcDbPolyline
 90
        8
 70
   128
 43
0.0
 10
-34.7613682347
 20
52.4525311319
 10
-35.2008203667
 20
52.8202935877
 10
-35.2008203667
 20
52.8202935877
 10
-35.7092611176
 20
52.4441826437
 10
-35.7092611176
 20
52.4441826437
 10
-35.2822105299
 20
52.0867902151
 10
-35.2822105299
 20
52.0867902151
 10
-34.7613776861
 20
52.4525303966
  0
LWPOLYLINE
  5
8F
330
1F
100
AcDbEntity
  8
0
  6
Continuous
 62
     7
100
AcDbPolyline
 90
      179
 70
   128
 43
0.0
 10
-32.1635967664
 20
51.3096508788
 10
-32.7727179477
 20
51.8194135729
 10
-32.7727179477
 20
51.8194135729
 10
-32.6627465385
 20
51.8968495955
 10
-32.5530457769
 20
51.965545479
 10
-32.4426624248
 20
52.0247034725
 10
-32.3315694176
 20
52.07519759
 10
-32.2197667552
 20
52.1170278314
 10
-32.1072544377
 20
52.1501941966
 10
-31.9940595298
 20
52.1738226719
 10
-31.8811352694
 20
52.1887110081
 10
-31.8811352694
 20
52.1887110081
 10
-31.7254024685
 20
52.1964667472
 10
-31.575004217
 20
52.1898569491
 10
-31.4308937528
 20
52.1696793647
 10
-31.2911104705
 20
52.13608652
 10
-31.1576420403
 20
52.0880518751
 10
-31.0285007921
 20
52.0266019699
 10
-30.9056473312
 20
51.9515842784
 10
-30.7881284196
 20
51.8622010498
 10
-30.7881284196
 20
51.8622010498
 10
-30.6920949726
 20
51.773762078
 10
-30.6088866545
 20
51.6817096462
 10
-30.5375772922
 20
51.5843719895
 10
-30.4801274911
 20
51.4815965821
 10
-30.4345225163
 20
51.3752839775
 10
-30.4027500379
 20
51.2644076361
 10
-30.3828765152
 20
51.1482460698
 10
-30.3758551864
 20
51.0275970296
 10
-30.3815507275
 20
50.906830585
 10
-30.3988745768
 20
50.7895190545
 10
-30.427772605
 20
50.677410466
 10
-30.4692792441
 20
50.5686805287
 10
-30.522360062
 20
50.4651535334
 10
-30.5870691882
 20
50.3650814522
 10
-30.6633524932
 20
50.270212313
 10
-30.7522444092
 20
50.178721825
 10
-30.7522444092
 20
50.178721825
 10
-30.8747101987
 20
50.0767722716
 10
-31.0073909578
 20
49.9923381178
 10
-31.1493063838
 20
49.9254956265
 10
-31.3014367795
 20
49.8761685348
 10
-31.4608141719
 20
49.8454596454
 10
-31.6254238263
 20
49.835269512
 10
-31.7933322022
 20
49.8448766467
 10
-31.96647284
 20
49.8750025373
 10
-31.96647284
 20
49.8750025373
 10
-31.9192650732
 20
49.7888685155
 10
-31.8799267925
 20
49.7012503762
 10
-31.8493841712
 20
49.6138198843
 10
-31.8276913386
 20
49.524829012
 10
-31.8147941653
 20
49.436025787
 10
-31.8097664781
 20
49.3457384446
 10
-31.8135615149
 20
49.2547647357
 10
-31.8261792758
 20
49.1631046602
 10
-31.8466123933
 20
49.071708495
 10
-31.8757599759
 20
48.983122019
 10
-31.9126958503
 20
48.8956734672
 10
-31.957365887
 20
48.8111108674
 10
-32.0098242157
 20
48.7276861918
 10
-32.0700167066
 20
48.6471474683
 10
-32.1389777921
 20
48.5676704061
 10
-32.21567304
 20
48.4910792959
 10
-32.21567304
 20
48.4910792959
 10
-32.3372667859
 20
48.3857099499
 10
-32.4643363765
 20
48.2929932348
 10
-32.5978350498
 20
48.2137269014
 10
-32.7368095678
 20
48.147113199
 10
-32.8812599305
 20
48.0931521275
 10
-33.0311590733
 20
48.0527177007
 10
-33.1875143635
 20
48.0248596418
 10
-33.3493184337
 20
48.0105282278
 10
-33.5116968352
 20
48.0092307593
 10
-33.6697209901
 20
48.0222225651
 10
-33.8233638335
 20
48.050377659
 10
-33.972679495
 20
48.0919480133
 10
-34.1166335423
 20
48.1487579187
 10
-34.2562333429
 20
48.2198570984
 10
-34.3914788967
 20
48.3052455523
 10
-34.5213899012
 20
48.4049995433
 10
-34.5213899012
 20
48.4049995433
 10
-34.6345545661
 20
48.5086720462
 10
-34.7329334966
 20
48.6161105351
 10
-34.8154922606
 20
48.7291393005
 10
-34.8832652904
 20
48.845934052
 10
-34.936225521
 20
48.9673688032
 10
-34.9734197147
 20
49.0926458033
 10
-34.9947937418
 20
49.22351308
 10
-35.0013820347
 20
49.3581463427
 10
-34.9922584201
 20
49.4948738265
 10
-34.9684843949
 20
49.6309972266
 10
-34.9280993538
 20
49.766669069
 10
-34.8721106642
 20
49.9009390769
 10
-34.8004641967
 20
50.035555278
 10
-34.7141943833
 20
50.1686933816
 10
-34.6112864893
 20
50.3022539414
 10
-34.4927749469
 20
50.4344126667
 10
-34.4927749469
 20
50.4344126667
 10
-33.8655443962
 20
49.9094925371
 10
-33.8655443962
 20
49.9094925371
 10
-33.9196114883
 20
49.8372775164
 10
-33.9667893971
 20
49.7664703502
 10
-34.006070755
 20
49.6980213154
 10
-34.0375096915
 20
49.6301823842
 10
-34.0620323798
 20
49.5646253215
 10
-34.078685582
 20
49.5005523762
 10
-34.0884496007
 20
49.4378872855
 10
-34.0903441333
 20
49.3767063122
 10
-34.0744188861
 20
49.2593656802
 10
-34.0327892515
 20
49.1509999961
 10
-33.9645290563
 20
49.0499374949
 10
-33.871571841
 20
48.9568996648
 10
-33.871571841
 20
48.9568996648
 10
-33.8152225448
 20
48.913328414
 10
-33.7557158225
 20
48.8769780632
 10
-33.6940590416
 20
48.8468983357
 10
-33.6312595696
 20
48.8221389545
 10
-33.5642953041
 20
48.8055507502
 10
-33.4961883474
 20
48.7942828923
 10
-33.4259313322
 20
48.7892856577
 10
-33.3525168909
 20
48.7915093231
 10
-33.2799203637
 20
48.798900809
 10
-33.2090679239
 20
48.8131318802
 10
-33.1419743063
 20
48.8323019831
 10
-33.0766518407
 20
48.8574376574
 10
-33.0131005272
 20
48.8885389031
 10
-32.9523006685
 20
48.9255294573
 10
-32.8942793293
 20
48.9675353061
 10
-32.83898238
 20
49.0163044773
 10
-32.83898238
 20
49.0163044773
 10
-32.7834147833
 20
49.0738137875
 10
-32.7365345868
 20
49.1350068007
 10
-32.6973885527
 20
49.199085766
 10
-32.667964351
 20
49.2650241435
 10
-32.6462201822
 20
49.3355965008
 10
-32.6322372405
 20
49.4081807963
 10
-32.6279490665
 20
49.4834985179
 10
-32.6313679902
 20
49.5625762055
 10
-32.644535811
 20
49.6426392914
 10
-32.6684598964
 20
49.7227374988
 10
-32.7021870086
 20
49.8020730767
 10
-32.747650688
 20
49.8813675132
 10
-32.8019100268
 20
49.960849597
 10
-32.8679059328
 20
50.0402905394
 10
-32.9436778008
 20
50.1198428662
 10
-33.0302329981
 20
50.1985563006
 10
-33.0302329981
 20
50.1985563006
 10
-32.4560335673
 20
50.7402141056
 10
-32.4560335673
 20
50.7402141056
 10
-32.3372095761
 20
50.6613953068
 10
-32.2276202517
 20
50.6001681704
 10
-32.1283000265
 20
50.5547084058
 10
-32.0391947709
 20
50.5267640408
 10
-31.95556536
 20
50.5114723067
 10
-31.8735988421
 20
50.5056421996
 10
-31.7912804826
 20
50.5111742732
 10
-31.710625016
 20
50.5261679739
 10
-31.6336201127
 20
50.5495967618
 10
-31.5631796158
 20
50.5821058621
 10
-31.4983773521
 20
50.6220235098
 10
-31.4401665596
 20
50.6701474559
 10
-31.4401665596
 20
50.6701474559
 10
-31.3773850024
 20
50.7395527875
 10
-31.3330397426
 20
50.8136272205
 10
-31.3061775425
 20
50.8915730038
 10
-31.2977516398
 20
50.9741878884
 10
-31.3079244231
 20
51.056227791
 10
-31.3368312161
 20
51.1333226419
 10
-31.3844990837
 20
51.2045984274
 10
-31.4518541989
 20
51.2717269121
 10
-31.4518541989
 20
51.2717269121
 10
-31.5236447551
 20
51.321944081
 10
-31.6036566392
 20
51.3593149516
 10
-31.6909095485
 20
51.3839157869
 10
-31.7863837857
 20
51.3956703239
 10
-31.8842245995
 20
51.3941621266
 10
-31.9795575413
 20
51.3788984956
 10
-32.0733358491
 20
51.3506771819
 10
-32.1635989175
 20
51.3096507115
  0
LWPOLYLINE
  5
90
330
1F
100
AcDbEntity
  8
0
  6
Continuous
 62
     7
100
AcDbPolyline
 90
       96
 70
   128
 43
0.0
 10
-36.1138231313
 20
11.6234135667
 10
-35.9228110809
 20
11.6653025679
 10
-35.7363911849
 20
11.6850366113
 10
-35.5516011457
 20
11.683718058
 10
-35.3713818712
 20
11.6611181192
 10
-35.1986472046
 20
11.6178820201
 10
-35.0372642273
 20
11.5554527365
 10
-34.8872600038
 20
11.4729562546
 10
-34.7485804048
 20
11.3721406022
 10
-34.7485804048
 20
11.3721406022
 10
-34.6165945643
 20
11.2446469551
 10
-34.5094410676
 20
11.1047585674
 10
-34.4261937416
 20
10.9508036743
 10
-34.3678058241
 20
10.7835800268
 10
-34.3360214025
 20
10.6099272102
 10
-34.3316313261
 20
10.4358870589
 10
-34.3555617682
 20
10.2631313377
 10
-34.4078397935
 20
10.0907860328
 10
-34.4447486031
 20
10.0042114949
 10
-34.4905072016
 20
9.9160765766
 10
-34.545088524
 20
9.8272552917
 10
-34.6075122679
 20
9.7378239033
 10
-34.6777784331
 20
9.6477824113
 10
-34.7559140844
 20
9.5562568018
 10
-34.8428724598
 20
9.4640448257
 10
-34.9386806239
 20
9.3702724693
 10
-34.9386806239
 20
9.3702724693
 10
-35.0443459443
 20
9.2739894556
 10
-35.1477800118
 20
9.1865991068
 10
-35.2500172586
 20
9.1062771321
 10
-35.3500232526
 20
9.0348478225
 10
-35.4487782963
 20
8.9722349148
 10
-35.545329152
 20
8.9176406581
 10
-35.6406561222
 20
8.8709887895
 10
-35.7337789043
 20
8.8323555719
 10
-35.9203552172
 20
8.7759892076
 10
-36.1100949277
 20
8.7437901807
 10
-36.3019906684
 20
8.7367087682
 10
-36.496069504
 20
8.7538709562
 10
-36.6864496186
 20
8.7957343223
 10
-36.8653156556
 20
8.8620349563
 10
-37.0336479175
 20
8.9526965951
 10
-37.1914464044
 20
9.0677192388
 10
-37.1914464044
 20
9.0677192388
 10
-37.3121016489
 20
9.1821438189
 10
-37.4119269544
 20
9.306036046
 10
-37.4909223212
 20
9.4393959201
 10
-37.5490877491
 20
9.5822234412
 10
-37.5864232381
 20
9.7345186094
 10
-37.602955853
 20
9.8954074107
 10
-37.5986314643
 20
10.0666378729
 10
-37.5735042016
 20
10.2464619682
 10
-37.5735042016
 20
10.2464619682
 10
-37.7242542948
 20
10.2417095856
 10
-37.8678445572
 20
10.2471051966
 10
-38.004220859
 20
10.2643968289
 10
-38.1334102651
 20
10.2927104687
 10
-38.2554127756
 20
10.332046116
 10
-38.3692210228
 20
10.3833540476
 10
-38.4758423744
 20
10.4456839867
 10
-38.5742965276
 20
10.5191121962
 10
-38.5742965276
 20
10.5191121962
 10
-38.6929911667
 20
10.6336893022
 10
-38.7898484995
 20
10.758684332
 10
-38.8638882234
 20
10.8941735487
 10
-38.9160635762
 20
11.0409547031
 10
-38.9445763412
 20
11.1939362378
 10
-38.9475471073
 20
11.3506486369
 10
-38.9250300039
 20
11.5093438727
 10
-38.8769979663
 20
11.6708959589
 10
-38.8055198589
 20
11.8316563142
 10
-38.7087433352
 20
11.9882814088
 10
-38.5886019361
 20
12.1414927307
 10
-38.4441153586
 20
12.2913665428
 10
-38.4441153586
 20
12.2913665428
 10
-38.2863917093
 20
12.426575786
 10
-38.1234628628
 20
12.5403922592
 10
-37.9543485163
 20
12.6328922254
 10
-37.7800289726
 20
12.7039994218
 10
-37.6034722045
 20
12.7526110454
 10
-37.4256314498
 20
12.7795248474
 10
-37.2484673139
 20
12.7845883018
 10
-37.0700462562
 20
12.7670799206
 10
-36.8981295039
 20
12.7290116419
 10
-36.739525046
 20
12.6715976529
 10
-36.5932796447
 20
12.5940402026
 10
-36.4603194732
 20
12.498011056
 10
-36.4603194732
 20
12.498011056
 10
-36.3766781191
 20
12.4199428467
 10
-36.3059160235
 20
12.3365131495
 10
-36.246072581
 20
12.2478744904
 10
-36.1991354617
 20
12.1530003296
 10
-36.1633064489
 20
12.0467991094
 10
-36.1368143903
 20
11.9233052587
 10
-36.1206666535
 20
11.7815685003
 10
-36.1138288063
 20
11.6234131252
  0
LWPOLYLINE
  5
91
330
1F
100
AcDbEntity
  8
0
  6
Continuous
 62
     7
100
AcDbPolyline
 90
       36
 70
   128
 43
0.0
 10
-37.8532877047
 20
11.7592548968
 10
-37.9261736267
 20
11.6794725007
 10
-37.9776516526
 20
11.5961240881
 10
-38.0097130784
 20
11.5081828371
 10
-38.0213234719
 20
11.4174730385
 10
-38.0133548767
 20
11.3274144849
 10
-37.9846646017
 20
11.2433275227
 10
-37.9351985173
 20
11.1669601797
 10
-37.865010753
 20
11.0965644282
 10
-37.865010753
 20
11.0965644282
 10
-37.7807469096
 20
11.0385985386
 10
-37.6890525878
 20
10.9995207817
 10
-37.5889745495
 20
10.9785334064
 10
-37.4824192706
 20
10.9772319147
 10
-37.3753226968
 20
10.9934107011
 10
-37.2755001845
 20
11.0273336758
 10
-37.1829787985
 20
11.0781268251
 10
-37.0967241067
 20
11.1476144396
 10
-37.0967241067
 20
11.1476144396
 10
-37.0228073783
 20
11.2292208444
 10
-36.9692875528
 20
11.3153438246
 10
-36.9361916948
 20
11.4051093664
 10
-36.9244730423
 20
11.4993152206
 10
-36.9333407459
 20
11.5919195529
 10
-36.9648907347
 20
11.678399768
 10
-37.0171624034
 20
11.7589083916
 10
-37.0911360545
 20
11.8333691609
 10
-37.0911360545
 20
11.8333691609
 10
-37.1744195952
 20
11.8914113134
 10
-37.2651606792
 20
11.9296913194
 10
-37.3604183984
 20
11.9484379677
 10
-37.463106596
 20
11.9482964834
 10
-37.5663902182
 20
11.9289266932
 10
-37.6663480543
 20
11.8906336489
 10
-37.7619727368
 20
11.8343676274
 10
-37.8532913305
 20
11.7592546147
  0
LWPOLYLINE
  5
92
330
1F
100
AcDbEntity
  8
0
  6
Continuous
 62
     7
100
AcDbPolyline
 90
       60
 70
   128
 43
0.0
 10
-36.4916071647
 20
10.6663132115
 10
-36.5988815653
 20
10.5498511259
 10
-36.679952153
 20
10.4267084899
 10
-36.7327834166
 20
10.2996593821
 10
-36.7594171555
 20
10.1659292349
 10
-36.7624543793
 20
10.0994279152
 10
-36.7585212254
 20
10.0369564918
 10
-36.7486250612
 20
9.9775646878
 10
-36.7308052814
 20
9.9214050291
 10
-36.7069954266
 20
9.8691990037
 10
-36.6752619562
 20
9.8202251236
 10
-36.6375654754
 20
9.7743308628
 10
-36.592898617
 20
9.7324664983
 10
-36.592898617
 20
9.7324664983
 10
-36.5412884456
 20
9.6937580162
 10
-36.4865749777
 20
9.6605224063
 10
-36.4287040838
 20
9.6345076965
 10
-36.368710196
 20
9.613889596
 10
-36.3046056442
 20
9.5996946446
 10
-36.2383510339
 20
9.5917703165
 10
-36.1689660623
 20
9.5901928745
 10
-36.0964507294
 20
9.5949623187
 10
-36.0237459433
 20
9.6058498602
 10
-35.9518320065
 20
9.622779236
 10
-35.8816621571
 20
9.6465481973
 10
-35.8122560924
 20
9.6772330068
 10
-35.7446211797
 20
9.7138833877
 10
-35.6777500517
 20
9.7574496169
 10
-35.612623011
 20
9.8078554315
 10
-35.5482868197
 20
9.8643030804
 10
-35.5482868197
 20
9.8643030804
 10
-35.4350015676
 20
9.9855923241
 10
-35.3510171366
 20
10.108089735
 10
-35.2953261593
 20
10.2327455899
 10
-35.2699163058
 20
10.3585333491
 10
-35.2679947084
 20
10.4205883362
 10
-35.273016424
 20
10.4794874411
 10
-35.2859346904
 20
10.5360284145
 10
-35.3057692051
 20
10.5902875195
 10
-35.3315396653
 20
10.6423410191
 10
-35.3652066763
 20
10.6920363872
 10
-35.406797303
 20
10.73849961
 10
-35.4543238752
 20
10.7827572274
 10
-35.4543238752
 20
10.7827572274
 10
-35.5068872845
 20
10.8222634605
 10
-35.5625539903
 20
10.8562968213
 10
-35.6213781221
 20
10.8831092821
 10
-35.6833326153
 20
10.9035748567
 10
-35.747437167
 20
10.9177698081
 10
-35.81467208
 20
10.9256178733
 10
-35.8850373543
 20
10.9271190524
 10
-35.9575526872
 20
10.9223496082
 10
-36.031237776
 20
10.9113858037
 10
-36.1021984748
 20
10.8936586769
 10
-36.1723412595
 20
10.8707637296
 10
-36.2397325894
 20
10.8419794738
 10
-36.3053527672
 20
10.8072296465
 10
-36.3692288577
 20
10.765640234
 10
-36.4313067314
 20
10.7189592639
 10
-36.491613453
 20
10.6663127223
  0
LWPOLYLINE
  5
93
330
1F
100
AcDbEntity
  8
0
  6
Continuous
 62
     7
100
AcDbPolyline
 90
       56
 70
   128
 43
0.0
 10
-38.2451761096
 20
9.1326045923
 10
-37.7952591119
 20
8.7560652616
 10
-37.7952591119
 20
8.7560652616
 10
-38.3472964594
 20
8.2353135473
 10
-38.3472964594
 20
8.2353135473
 10
-37.432756802
 20
7.1668761707
 10
-37.432756802
 20
7.1668761707
 10
-37.9132710626
 20
6.7135941128
 10
-37.9132710626
 20
6.7135941128
 10
-38.8308328222
 20
7.7791806589
 10
-38.8308328222
 20
7.7791806589
 10
-39.2881776321
 20
7.3477549686
 10
-39.2881776321
 20
7.3477549686
 10
-38.3706158724
 20
6.2821684225
 10
-38.3706158724
 20
6.2821684225
 10
-38.8491153981
 20
5.8307869183
 10
-38.8491153981
 20
5.8307869183
 10
-39.7666771578
 20
6.8963734644
 10
-39.7666771578
 20
6.8963734644
 10
-40.3046113614
 20
6.3889256261
 10
-40.3046113614
 20
6.3889256261
 10
-40.7545396592
 20
6.7654640777
 10
-40.7545396592
 20
6.7654640777
 10
-40.1420602663
 20
7.343232403
 10
-40.1420602663
 20
7.343232403
 10
-40.4966345291
 20
7.7672967371
 10
-40.4966345291
 20
7.7672967371
 10
-41.0295318956
 20
7.264600283
 10
-41.0295318956
 20
7.264600283
 10
-41.4794601933
 20
7.6411387346
 10
-41.4794601933
 20
7.6411387346
 10
-40.8790692095
 20
8.2075037378
 10
-40.8790692095
 20
8.2075037378
 10
-41.7276941552
 20
9.1938781303
 10
-41.7276941552
 20
9.1938781303
 10
-41.2612830385
 20
9.6338563123
 10
-41.2612830385
 20
9.6338563123
 10
-40.4056065209
 20
8.6541338577
 10
-40.4056065209
 20
8.6541338577
 10
-39.9482617111
 20
9.085559548
 10
-39.9482617111
 20
9.085559548
 10
-40.7968866567
 20
10.0719339405
 10
-40.7968866567
 20
10.0719339405
 10
-40.3163723962
 20
10.5252159984
 10
-40.3163723962
 20
10.5252159984
 10
-39.4677474505
 20
9.5388416059
 10
-39.4677474505
 20
9.5388416059
 10
-38.9842110877
 20
9.9949744943
 10
-38.9842110877
 20
9.9949744943
 10
-38.53428279
 20
9.6184360427
 10
-38.53428279
 20
9.6184360427
 10
-39.0873275049
 20
9.0967340515
 10
-39.0873275049
 20
9.0967340515
 10
-38.7236869353
 20
8.6812222091
 10
-38.7236869353
 20
8.6812222091
 10
-38.2451874096
 20
9.1326037133
  0
LWPOLYLINE
  5
94
330
1F
100
AcDbEntity
  8
0
  6
Continuous
 62
     7
100
AcDbPolyline
 90
        8
 70
   128
 43
0.0
 10
-39.5658170768
 20
8.6453533217
 10
-40.0302234124
 20
8.2072749191
 10
-40.0302234124
 20
8.2072749191
 10
-39.6655754754
 20
7.7927133535
 10
-39.6655754754
 20
7.7927133535
 10
-39.2142748701
 20
8.2184373827
 10
-39.2142748701
 20
8.2184373827
 10
-39.5658270306
 20
8.6453525474
  0
LWPOLYLINE
  5
95
330
1F
100
AcDbEntity
  8
0
  6
Continuous
 62
     7
100
AcDbPolyline
 90
       56
 70
   128
 43
0.0
 10
9.7656131375
 20
14.3869184102
 10
9.2901390546
 20
13.9383879964
 10
9.2901390546
 20
13.9383879964
 10
8.767764675
 20
14.3755555207
 10
8.767764675
 20
14.3755555207
 10
7.4602833399
 20
13.4289603761
 10
7.4602833399
 20
13.4289603761
 10
7.0055888525
 20
13.8094875825
 10
7.0055888525
 20
13.8094875825
 10
8.3102104739
 20
14.75847598
 10
8.3102104739
 20
14.75847598
 10
7.8774404587
 20
15.1206549144
 10
7.8774404587
 20
15.1206549144
 10
6.5728188373
 20
14.1716665169
 10
6.5728188373
 20
14.1716665169
 10
6.1200308257
 20
14.5505982214
 10
6.1200308257
 20
14.5505982214
 10
7.4246524471
 20
15.4995866189
 10
7.4246524471
 20
15.4995866189
 10
6.9156233984
 20
15.9255856298
 10
6.9156233984
 20
15.9255856298
 10
7.3911008218
 20
16.3741163035
 10
7.3911008218
 20
16.3741163035
 10
7.9706694766
 20
15.8890837217
 10
7.9706694766
 20
15.8890837217
 10
8.4886426067
 20
16.2572171561
 10
8.4886426067
 20
16.2572171561
 10
7.9843797476
 20
16.6792274123
 10
7.9843797476
 20
16.6792274123
 10
8.459857171
 20
17.1277580859
 10
8.459857171
 20
17.1277580859
 10
9.0279869707
 20
16.6522985156
 10
9.0279869707
 20
16.6522985156
 10
10.2355435062
 20
17.5300863923
 10
10.2355435062
 20
17.5300863923
 10
10.6768926627
 20
17.1607276993
 10
10.6768926627
 20
17.1607276993
 10
9.4760087926
 20
16.2773555659
 10
9.4760087926
 20
16.2773555659
 10
9.9087788079
 20
15.9151766316
 10
9.9087788079
 20
15.9151766316
 10
11.1163353433
 20
16.7929645082
 10
11.1163353433
 20
16.7929645082
 10
11.5710298307
 20
16.4124373018
 10
11.5710298307
 20
16.4124373018
 10
10.3634732952
 20
15.5346494251
 10
10.3634732952
 20
15.5346494251
 10
10.8210274963
 20
15.1517289659
 10
10.8210274963
 20
15.1517289659
 10
10.3455500729
 20
14.7031982923
 10
10.3455500729
 20
14.7031982923
 10
9.8222224554
 20
15.1411635675
 10
9.8222224554
 20
15.1411635675
 10
9.3128284665
 20
14.7658503745
 10
9.3128284665
 20
14.7658503745
 10
9.7656164781
 20
14.38691867
  0
LWPOLYLINE
  5
96
330
1F
100
AcDbEntity
  8
0
  6
Continuous
 62
     7
100
AcDbPolyline
 90
        8
 70
   128
 43
0.0
 10
9.3694228913
 20
15.5200943733
 10
8.9299917632
 20
15.8878584631
 10
8.9299917632
 20
15.8878584631
 10
8.4215510123
 20
15.5117475191
 10
8.4215510123
 20
15.5117475191
 10
8.8486016
 20
15.1543550905
 10
8.8486016
 20
15.1543550905
 10
9.3694344439
 20
15.520095272
  0
LWPOLYLINE
  5
97
330
1F
100
AcDbEntity
  8
0
  6
Continuous
 62
     7
100
AcDbPolyline
 90
       12
 70
   128
 43
0.0
 10
12.7173623783
 20
15.2952753471
 10
13.666787396
 20
14.500715398
 10
13.666787396
 20
14.500715398
 10
10.1470456217
 20
11.180448081
 10
10.1470456217
 20
11.180448081
 10
9.5169553572
 20
11.7077614634
 10
9.5169553572
 20
11.7077614634
 10
12.4070924925
 20
14.4341057486
 10
12.4070924925
 20
14.4341057486
 10
11.7217144287
 20
15.0076886866
 10
11.7217144287
 20
15.0076886866
 10
12.7173624287
 20
15.295275351
  0
LWPOLYLINE
  5
98
330
1F
100
AcDbEntity
  8
0
  6
Continuous
 62
     7
100
AcDbPolyline
 90
      179
 70
   128
 43
0.0
 10
14.5555256521
 20
12.2110899716
 10
13.9464116092
 20
12.720853221
 10
13.9464116092
 20
12.720853221
 10
14.0563830184
 20
12.7982892436
 10
14.16608378
 20
12.8669851271
 10
14.2764671321
 20
12.9261431207
 10
14.3875601393
 20
12.9766372381
 10
14.4993628016
 20
13.0184674795
 10
14.6118751192
 20
13.0516338448
 10
14.7250700271
 20
13.07526232
 10
14.8379942875
 20
13.0901506563
 10
14.8379942875
 20
13.0901506563
 10
14.9937270884
 20
13.0979063953
 10
15.1441253399
 20
13.0912965972
 10
15.2882358041
 20
13.0711190128
 10
15.4280190863
 20
13.0375261681
 10
15.5614875165
 20
12.9894915232
 10
15.6906287648
 20
12.928041618
 10
15.8134822257
 20
12.8530239266
 10
15.9310011373
 20
12.7636406979
 10
15.9310011373
 20
12.7636406979
 10
16.0270345843
 20
12.6752017261
 10
16.1102429024
 20
12.5831492944
 10
16.1815522647
 20
12.4858116377
 10
16.2390020658
 20
12.3830362302
 10
16.2846070406
 20
12.2767236257
 10
16.316379519
 20
12.1658472843
 10
16.3362530416
 20
12.049685718
 10
16.3432743705
 20
11.9290366778
 10
16.3375788294
 20
11.8082702331
 10
16.3202549801
 20
11.6909587027
 10
16.2913569519
 20
11.5788501142
 10
16.2498503128
 20
11.4701201769
 10
16.1967694949
 20
11.3665931815
 10
16.1320603687
 20
11.2665211003
 10
16.0557770637
 20
11.1716519611
 10
15.9668851477
 20
11.0801614731
 10
15.9668851477
 20
11.0801614731
 10
15.8444193582
 20
10.9782119198
 10
15.7117385991
 20
10.893777766
 10
15.5698231731
 20
10.8269352747
 10
15.4176927774
 20
10.777608183
 10
15.258315385
 20
10.7468992936
 10
15.0937057305
 20
10.7367091602
 10
14.9257973547
 20
10.7463162948
 10
14.7526567169
 20
10.7764421854
 10
14.7526567169
 20
10.7764421854
 10
14.7998644837
 20
10.6903081636
 10
14.8392027643
 20
10.6026900243
 10
14.8697453857
 20
10.5152595324
 10
14.8914382183
 20
10.4262686601
 10
14.9043353916
 20
10.3374654352
 10
14.9093630788
 20
10.2471780928
 10
14.9055680419
 20
10.1562043838
 10
14.892950281
 20
10.0645443083
 10
14.8725171635
 20
9.9731481432
 10
14.843369581
 20
9.8845616671
 10
14.8064337066
 20
9.7971131153
 10
14.7617636698
 20
9.7125505155
 10
14.7093053412
 20
9.62912584
 10
14.6491128502
 20
9.5485871165
 10
14.5801517647
 20
9.4691100542
 10
14.5034565169
 20
9.3925189441
 10
14.5034565169
 20
9.3925189441
 10
14.381862771
 20
9.287149598
 10
14.2547931804
 20
9.1944328829
 10
14.1212945071
 20
9.1151665496
 10
13.9823199891
 20
9.0485528472
 10
13.8378696263
 20
8.9945917756
 10
13.6879704836
 20
8.9541573488
 10
13.5316151934
 20
8.92629929
 10
13.3698111232
 20
8.9119678759
 10
13.2074327216
 20
8.9106704075
 10
13.0494085668
 20
8.9236622132
 10
12.8957657234
 20
8.9518173072
 10
12.7464500619
 20
8.9933876615
 10
12.6024960146
 20
9.0501975669
 10
12.462896214
 20
9.1212967465
 10
12.3276506601
 20
9.2066852004
 10
12.1977396556
 20
9.3064391915
 10
12.1977396556
 20
9.3064391915
 10
12.0845749908
 20
9.4101116944
 10
11.9861960603
 20
9.5175501832
 10
11.9036372962
 20
9.6305789487
 10
11.8358642665
 20
9.7473737001
 10
11.7829040359
 20
9.8688084513
 10
11.7457098422
 20
9.9940854514
 10
11.724335815
 20
10.1249527282
 10
11.7177475222
 20
10.2595859909
 10
11.7268711368
 20
10.3963134746
 10
11.750645162
 20
10.5324368747
 10
11.7910302031
 20
10.6681087172
 10
11.8470188927
 20
10.802378725
 10
11.9186653602
 20
10.9369949261
 10
12.0049351735
 20
11.0701330298
 10
12.1078430676
 20
11.2036935896
 10
12.22635461
 20
11.3358523148
 10
12.22635461
 20
11.3358523148
 10
12.8535851607
 20
10.8109321852
 10
12.8535851607
 20
10.8109321852
 10
12.7995180685
 20
10.7387171645
 10
12.7523401598
 20
10.6679099984
 10
12.7130588019
 20
10.5994609636
 10
12.6816198654
 20
10.5316220324
 10
12.6570971771
 20
10.4660649696
 10
12.6404439749
 20
10.4019920243
 10
12.6306799562
 20
10.3393269336
 10
12.6287854236
 20
10.2781459603
 10
12.6447106707
 20
10.1608053283
 10
12.6863403054
 20
10.0524396442
 10
12.7546005006
 20
9.9513771431
 10
12.8475577159
 20
9.8583393129
 10
12.8475577159
 20
9.8583393129
 10
12.9039070121
 20
9.8147680621
 10
12.9634137344
 20
9.7784177113
 10
13.0250705152
 20
9.7483379838
 10
13.0878699873
 20
9.7235786026
 10
13.1548342528
 20
9.7069903984
 10
13.2229412094
 20
9.6957225405
 10
13.2931982247
 20
9.6907253058
 10
13.366612666
 20
9.6929489712
 10
13.4392091932
 20
9.7003404571
 10
13.510061633
 20
9.7145715284
 10
13.5771552506
 20
9.7337416312
 10
13.6424777162
 20
9.7588773055
 10
13.7060290296
 20
9.7899785512
 10
13.7668288884
 20
9.8269691055
 10
13.8248502276
 20
9.8689749542
 10
13.8801471768
 20
9.9177441254
 10
13.8801471768
 20
9.9177441254
 10
13.9357147736
 20
9.9752534357
 10
13.9825949701
 20
10.0364464489
 10
14.0217410042
 20
10.1005254141
 10
14.0511652058
 20
10.1664637916
 10
14.0729093746
 20
10.237036149
 10
14.0868923163
 20
10.3096204445
 10
14.0911804903
 20
10.3849381661
 10
14.0877615667
 20
10.4640158536
 10
14.0745937459
 20
10.5440789396
 10
14.0506696605
 20
10.6241771469
 10
14.0169425483
 20
10.7035127249
 10
13.9714788689
 20
10.7828071613
 10
13.9172195301
 20
10.8622892452
 10
13.8512236241
 20
10.9417301876
 10
13.7754517561
 20
11.0212825144
 10
13.6888965587
 20
11.0999959488
 10
13.6888965587
 20
11.0999959488
 10
14.2630959896
 20
11.6416537538
 10
14.2630959896
 20
11.6416537538
 10
14.3819199808
 20
11.5628349549
 10
14.4915093052
 20
11.5016078186
 10
14.5908295304
 20
11.456148054
 10
14.679934786
 20
11.428203689
 10
14.7635641969
 20
11.4129119548
 10
14.8455307147
 20
11.4070818477
 10
14.9278490743
 20
11.4126139214
 10
15.0085045408
 20
11.427607622
 10
15.0855094442
 20
11.45103641
 10
15.1559499411
 20
11.4835455103
 10
15.2207522048
 20
11.523463158
 10
15.2789629973
 20
11.5715871041
 10
15.2789629973
 20
11.5715871041
 10
15.3417445545
 20
11.6409924357
 10
15.3860898142
 20
11.7150668686
 10
15.4129520144
 20
11.7930126519
 10
15.4213779171
 20
11.8756275366
 10
15.4112051338
 20
11.9576674391
 10
15.3822983408
 20
12.0347622901
 10
15.3346304732
 20
12.1060380755
 10
15.267275358
 20
12.1731665603
 10
15.267275358
 20
12.1731665603
 10
15.1954848018
 20
12.2233837291
 10
15.1154729177
 20
12.2607545997
 10
15.0282200084
 20
12.285355435
 10
14.9327457712
 20
12.2971099721
 10
14.8349049574
 20
12.2956017747
 10
14.7395720155
 20
12.2803381437
 10
14.6457937078
 20
12.25211683
 10
14.5555306394
 20
12.2110903596
  0
LWPOLYLINE
  5
99
330
1F
100
AcDbEntity
  8
0
  6
Continuous
 62
     7
100
AcDbPolyline
 90
       96
 70
   128
 43
0.0
 10
13.2582395849
 20
58.1974177032
 10
13.4492587737
 20
58.2393072598
 10
13.6356786697
 20
58.2590413032
 10
13.8204687089
 20
58.2577227499
 10
14.0006879834
 20
58.2351228111
 10
14.1734226499
 20
58.191886712
 10
14.3348056273
 20
58.1294574284
 10
14.4848098508
 20
58.0469609465
 10
14.6234894498
 20
57.9461452941
 10
14.6234894498
 20
57.9461452941
 10
14.7554752903
 20
57.818651647
 10
14.8626287869
 20
57.6787632593
 10
14.945876113
 20
57.5248083662
 10
15.0042640305
 20
57.3575847187
 10
15.0360484521
 20
57.1839319021
 10
15.0404385285
 20
57.0098917508
 10
15.0165080864
 20
56.8371360297
 10
14.9642300611
 20
56.6647907248
 10
14.9273212514
 20
56.5782161868
 10
14.881562653
 20
56.4900812685
 10
14.8269813305
 20
56.4012599836
 10
14.7645575867
 20
56.3118285952
 10
14.6942914215
 20
56.2217871032
 10
14.6161557702
 20
56.1302614937
 10
14.5291973948
 20
56.0380495176
 10
14.4333892306
 20
55.9442771612
 10
14.4333892306
 20
55.9442771612
 10
14.3277239103
 20
55.8479941475
 10
14.2242898428
 20
55.7606037987
 10
14.122052596
 20
55.680281824
 10
14.022046602
 20
55.6088525144
 10
13.9232915583
 20
55.5462396067
 10
13.8267407026
 20
55.49164535
 10
13.7314137324
 20
55.4449934814
 10
13.6382909503
 20
55.4063602638
 10
13.4517146374
 20
55.3499938995
 10
13.2619749269
 20
55.3177948726
 10
13.0700791862
 20
55.3107134601
 10
12.8760003505
 20
55.3278756481
 10
12.6856202359
 20
55.3697390142
 10
12.506754199
 20
55.4360396482
 10
12.3384219371
 20
55.526701287
 10
12.1806234502
 20
55.6417239307
 10
12.1806234502
 20
55.6417239307
 10
12.0599682057
 20
55.7561485108
 10
11.9601429001
 20
55.8800407379
 10
11.8811475334
 20
56.013400612
 10
11.8229821055
 20
56.1562281331
 10
11.7856466165
 20
56.3085233013
 10
11.7691140016
 20
56.4694121026
 10
11.7734383902
 20
56.6406425648
 10
11.798565653
 20
56.8204666601
 10
11.798565653
 20
56.8204666601
 10
11.6478155597
 20
56.8157142775
 10
11.5042252974
 20
56.8211098885
 10
11.3678489956
 20
56.8384015208
 10
11.2386595894
 20
56.8667151606
 10
11.116657079
 20
56.9060508079
 10
11.0028488317
 20
56.9573587395
 10
10.8962274802
 20
57.0196886786
 10
10.797773327
 20
57.0931168881
 10
10.797773327
 20
57.0931168881
 10
10.6790786879
 20
57.2076939941
 10
10.5822213551
 20
57.3326890239
 10
10.5081816312
 20
57.4681782406
 10
10.4560062784
 20
57.614959395
 10
10.4274935134
 20
57.7679409297
 10
10.4245227473
 20
57.9246533288
 10
10.4470398507
 20
58.0833485646
 10
10.4950718883
 20
58.2449006509
 10
10.5665499957
 20
58.4056610061
 10
10.6633265193
 20
58.5622861007
 10
10.7834679185
 20
58.7154974226
 10
10.927954496
 20
58.8653712347
 10
10.927954496
 20
58.8653712347
 10
11.0856781453
 20
59.0005804779
 10
11.2486069918
 20
59.1143969511
 10
11.4177213383
 20
59.2068969173
 10
11.5920408819
 20
59.2780041137
 10
11.7685976501
 20
59.3266157373
 10
11.9464384048
 20
59.3535295393
 10
12.1236025406
 20
59.3585929937
 10
12.3020235983
 20
59.3410846125
 10
12.4739403507
 20
59.3030163338
 10
12.6325448086
 20
59.2456023448
 10
12.7787902098
 20
59.1680448945
 10
12.9117503814
 20
59.0720157479
 10
12.9117503814
 20
59.0720157479
 10
12.9953917355
 20
58.9939475386
 10
13.0661538311
 20
58.9105178414
 10
13.1259972736
 20
58.8218791823
 10
13.1729343928
 20
58.7270050215
 10
13.2087634057
 20
58.6208038014
 10
13.2352554642
 20
58.4973099506
 10
13.251403201
 20
58.3555731922
 10
13.2582410483
 20
58.1974178171
  0
LWPOLYLINE
  5
9A
330
1F
100
AcDbEntity
  8
0
  6
Continuous
 62
     7
100
AcDbPolyline
 90
       36
 70
   128
 43
0.0
 10
11.5187750115
 20
58.3332590333
 10
11.4458962279
 20
58.2534771926
 10
11.3944182019
 20
58.17012878
 10
11.3623567761
 20
58.082187529
 10
11.3507463827
 20
57.9914777304
 10
11.3587149779
 20
57.9014191768
 10
11.3874052529
 20
57.8173322146
 10
11.4368713373
 20
57.7409648717
 10
11.5070591015
 20
57.6705691201
 10
11.5070591015
 20
57.6705691201
 10
11.5913229449
 20
57.6126032306
 10
11.6830172668
 20
57.5735254736
 10
11.7830953051
 20
57.5525380983
 10
11.8896505839
 20
57.5512366066
 10
11.9967471578
 20
57.567415393
 10
12.0965696701
 20
57.6013383678
 10
12.1890910561
 20
57.652131517
 10
12.2753457479
 20
57.7216191315
 10
12.2753457479
 20
57.7216191315
 10
12.3492624763
 20
57.8032255363
 10
12.4027823018
 20
57.8893485165
 10
12.4358781598
 20
57.9791140583
 10
12.4475968123
 20
58.0733199125
 10
12.4387291087
 20
58.1659242448
 10
12.4071791199
 20
58.2524044599
 10
12.3549074512
 20
58.3329130835
 10
12.2809338001
 20
58.4073738528
 10
12.2809338001
 20
58.4073738528
 10
12.1976502593
 20
58.4654160053
 10
12.1069091754
 20
58.5036960113
 10
12.0116514562
 20
58.5224426596
 10
11.9089632585
 20
58.5223011753
 10
11.8056796363
 20
58.5029313851
 10
11.7057218003
 20
58.4646383408
 10
11.6100971178
 20
58.4083723193
 10
11.5187785241
 20
58.3332593066
  0
LWPOLYLINE
  5
9B
330
1F
100
AcDbEntity
  8
0
  6
Continuous
 62
     7
100
AcDbPolyline
 90
       60
 70
   128
 43
0.0
 10
12.8804555515
 20
57.2403173481
 10
12.7731882893
 20
57.1238558178
 10
12.6921177015
 20
57.0007131818
 10
12.639286438
 20
56.873664074
 10
12.6126526991
 20
56.7399339268
 10
12.6096154753
 20
56.6734326071
 10
12.6135486292
 20
56.6109611837
 10
12.6234447933
 20
56.5515693797
 10
12.6412645731
 20
56.495409721
 10
12.665074428
 20
56.4432036956
 10
12.6968078984
 20
56.3942298155
 10
12.7345043791
 20
56.3483355547
 10
12.7791712376
 20
56.3064711903
 10
12.7791712376
 20
56.3064711903
 10
12.830781409
 20
56.2677627081
 10
12.8854948769
 20
56.2345270982
 10
12.9433657708
 20
56.2085123884
 10
13.0033596586
 20
56.1878942879
 10
13.0674642103
 20
56.1736993365
 10
13.1337188207
 20
56.1657750084
 10
13.2031037923
 20
56.1641975664
 10
13.2756191252
 20
56.1689670106
 10
13.3483239113
 20
56.1798545521
 10
13.420237848
 20
56.1967839279
 10
13.4904076975
 20
56.2205528892
 10
13.5598137622
 20
56.2512376987
 10
13.6274486749
 20
56.2878880796
 10
13.6943198029
 20
56.3314543088
 10
13.7594468436
 20
56.3818601234
 10
13.8237830349
 20
56.4383077723
 10
13.8237830349
 20
56.4383077723
 10
13.937068287
 20
56.559597016
 10
14.021052718
 20
56.6820944269
 10
14.0767436953
 20
56.8067502818
 10
14.1021535488
 20
56.932538041
 10
14.1040751461
 20
56.9945930281
 10
14.0990534306
 20
57.053492133
 10
14.0861351641
 20
57.1100331064
 10
14.0663006495
 20
57.1642922114
 10
14.0405301893
 20
57.216345711
 10
14.0068631783
 20
57.2660410791
 10
13.9652725516
 20
57.3125043019
 10
13.9177459794
 20
57.3567619193
 10
13.9177459794
 20
57.3567619193
 10
13.8651825701
 20
57.3962681524
 10
13.8095158643
 20
57.4303015133
 10
13.7506917324
 20
57.457113974
 10
13.6887372393
 20
57.4775795486
 10
13.6246326876
 20
57.4917745
 10
13.5573977746
 20
57.4996225652
 10
13.4870325003
 20
57.5011237443
 10
13.4145171674
 20
57.4963543001
 10
13.3408320786
 20
57.4853904956
 10
13.2698713798
 20
57.4676633688
 10
13.1997285951
 20
57.4447684215
 10
13.1323372652
 20
57.4159841657
 10
13.0667170874
 20
57.3812343384
 10
13.0028409969
 20
57.3396449259
 10
12.9407631232
 20
57.2929639558
 10
12.8804564016
 20
57.2403174142
  0
LWPOLYLINE
  5
9C
330
1F
100
AcDbEntity
  8
0
  6
Continuous
 62
     7
100
AcDbPolyline
 90
       12
 70
   128
 43
0.0
 10
7.7093967587
 20
55.6798860085
 10
8.712734798
 20
56.6263617587
 10
8.712734798
 20
56.6263617587
 10
12.043348087
 20
53.8390199156
 10
12.043348087
 20
53.8390199156
 10
11.3774782207
 20
53.2108869172
 10
11.3774782207
 20
53.2108869172
 10
8.6426386311
 20
55.4996344123
 10
8.6426386311
 20
55.4996344123
 10
7.9183414543
 20
54.8163853565
 10
7.9183414543
 20
54.8163853565
 10
7.7093968452
 20
55.6798860152
  0
LWPOLYLINE
  5
9D
330
1F
100
AcDbEntity
  8
0
  6
Continuous
 62
     7
100
AcDbPolyline
 90
       56
 70
   128
 43
0.0
 10
8.3915780122
 20
53.126330382
 10
8.8415160139
 20
52.7497926853
 10
8.8415160139
 20
52.7497926853
 10
8.2894786664
 20
52.229040971
 10
8.2894786664
 20
52.229040971
 10
9.2040183238
 20
51.1606035943
 10
9.2040183238
 20
51.1606035943
 10
8.7235040632
 20
50.7073215365
 10
8.7235040632
 20
50.7073215365
 10
7.8059423036
 20
51.7729080826
 10
7.8059423036
 20
51.7729080826
 10
7.3485974937
 20
51.3414823923
 10
7.3485974937
 20
51.3414823923
 10
8.2661592534
 20
50.2758958462
 10
8.2661592534
 20
50.2758958462
 10
7.7876597277
 20
49.824514342
 10
7.7876597277
 20
49.824514342
 10
6.870097968
 20
50.8901008881
 10
6.870097968
 20
50.8901008881
 10
6.3321637644
 20
50.3826530497
 10
6.3321637644
 20
50.3826530497
 10
5.8822354666
 20
50.7591915013
 10
5.8822354666
 20
50.7591915013
 10
6.4947148595
 20
51.3369598267
 10
6.4947148595
 20
51.3369598267
 10
6.1401405967
 20
51.7610241608
 10
6.1401405967
 20
51.7610241608
 10
5.6072432302
 20
51.2583277067
 10
5.6072432302
 20
51.2583277067
 10
5.1573149324
 20
51.6348661583
 10
5.1573149324
 20
51.6348661583
 10
5.7577059163
 20
52.2012311614
 10
5.7577059163
 20
52.2012311614
 10
4.9090809706
 20
53.187605554
 10
4.9090809706
 20
53.187605554
 10
5.3754920873
 20
53.6275837359
 10
5.3754920873
 20
53.6275837359
 10
6.2311686049
 20
52.6478612813
 10
6.2311686049
 20
52.6478612813
 10
6.6885134147
 20
53.0792869716
 10
6.6885134147
 20
53.0792869716
 10
5.8398884691
 20
54.0656613642
 10
5.8398884691
 20
54.0656613642
 10
6.3204027296
 20
54.5189434221
 10
6.3204027296
 20
54.5189434221
 10
7.1690276752
 20
53.5325690295
 10
7.1690276752
 20
53.5325690295
 10
7.6525640381
 20
53.9887019179
 10
7.6525640381
 20
53.9887019179
 10
8.1024923358
 20
53.6121634663
 10
8.1024923358
 20
53.6121634663
 10
7.5494476209
 20
53.0904614752
 10
7.5494476209
 20
53.0904614752
 10
7.9130881904
 20
52.6749496327
 10
7.9130881904
 20
52.6749496327
 10
8.3915877161
 20
53.1263311369
  0
LWPOLYLINE
  5
9E
330
1F
100
AcDbEntity
  8
0
  6
Continuous
 62
     7
100
AcDbPolyline
 90
        8
 70
   128
 43
0.0
 10
7.070937045
 20
52.6390791114
 10
6.6065517134
 20
52.2010023427
 10
6.6065517134
 20
52.2010023427
 10
6.9711996504
 20
51.7864407771
 10
6.9711996504
 20
51.7864407771
 10
7.4225002557
 20
52.2121648063
 10
7.4225002557
 20
52.2121648063
 10
7.0709480951
 20
52.639079971
  0
LWPOLYLINE
  5
A2
330
1F
100
AcDbEntity
  8
0
  6
Continuous
 62
     7
370
    25
100
AcDbPolyline
 90
      131
 70
   128
 43
0.0
 10
-10.6492796074
 20
68.4058064345
 10
-12.8339718164
 20
68.1489081974
 10
-15.0141315829
 20
67.8039971684
 10
-17.1853234344
 20
67.3719425473
 10
-19.3431436648
 20
66.8537620231
 10
-21.4832250315
 20
66.2506194708
 10
-23.6012413479
 20
65.5638227366
 10
-25.6929119988
 20
64.7948215114
 10
-27.7540064079
 20
63.9452052881
 10
-29.7803484858
 20
63.0167013982
 10
-31.767821085
 20
62.0111731187
 10
-33.71237049
 20
60.9306178384
 10
-35.6100109672
 20
59.7771652715
 10
-37.4568293995
 20
58.5530757021
 10
-39.2489900285
 20
57.2607382432
 10
-40.9827393246
 20
55.9026690902
 10
-42.6544110071
 20
54.4815097475
 10
-44.2604312283
 20
53.0000252057
 10
-45.79732394
 20
51.4611020428
 10
-47.2617164531
 20
49.8677464254
 10
-48.6503452016
 20
48.2230819794
 10
-49.9600617173
 20
46.5303475033
 10
-51.1878388209
 20
44.7928944919
 10
-52.3307770292
 20
43.014184441
 10
-53.3861111761
 20
41.1977859
 10
-54.3512172423
 20
39.3473712407
 10
-55.2236193826
 20
37.4667131106
 10
-56.0009971369
 20
35.5596805373
 10
-56.6811928075
 20
33.6302346527
 10
-57.2622189794
 20
31.6824240067
 10
-57.7422661572
 20
29.7203794392
 10
-58.1197104861
 20
27.7483084833
 10
-58.3931215219
 20
25.7704892719
 10
-58.5612700095
 20
23.7912639252
 10
-58.6231356225
 20
21.8150313963
 10
-58.5779146166
 20
19.8462397572
 10
-58.4250273408
 20
17.8893779116
 10
-58.1641255488
 20
15.9489667226
 10
-57.7950994469
 20
14.0295495513
 10
-57.3180844143
 20
12.1356822044
 10
-56.733467325
 20
10.2719222969
 10
-56.0418923988
 20
8.4428180388
 10
-55.2442665094
 20
6.6528964659
 10
-54.3417638705
 20
4.9066511356
 10
-53.3358300267
 20
3.2085293201
 10
-52.2281850685
 20
1.5629187344
 10
-51.0208259989
 20
-0.0258661563
 10
-49.7160281745
 20
-1.5535981955
 10
-48.3163457502
 20
-3.0161519035
 10
-46.8246110594
 20
-4.4095180851
 10
-45.2439328658
 20
-5.7298186042
 10
-43.5776934282
 20
-6.9733212442
 10
-41.8295443292
 20
-8.1364545678
 10
-40.003401021
 20
-9.2158226828
 10
-38.1034360579
 20
-10.2082198182
 10
-36.1340709867
 20
-11.1106446073
 10
-34.0999668836
 20
-11.920313975
 10
-32.0060135336
 20
-12.6346765216
 10
-29.8573172615
 20
-13.251425296
 10
-27.6591874373
 20
-13.7685098514
 10
-25.4171216902
 20
-14.1841474764
 10
-23.1367898783
 20
-14.4968334998
 10
-20.8240168781
 20
-14.7053505698
 10
-18.4847642638
 20
-14.808776814
 10
-16.1251109678
 20
-14.8064927942
 10
-13.7512330176
 20
-14.6981871771
 10
-11.3693824617
 20
-14.483861052
 10
-8.9858656046
 20
-14.1638308371
 10
-6.6070206805
 20
-13.7387297259
 10
-4.2391951034
 20
-13.2095076404
 10
-1.8887224386
 20
-12.5774296668
 10
0.4381007563
 20
-11.8440729668
 10
2.7350380676
 20
-11.0113221676
 10
4.9959361866
 20
-10.0813632508
 10
7.2147475412
 20
-9.0566759721
 10
9.3855524481
 20
-7.9400248572
 10
11.502580638
 20
-6.734448834
 10
13.5602320126
 20
-5.4432495711
 10
15.5530965007
 20
-4.0699786058
 10
17.4759728877
 20
-2.6184233548
 10
19.3238865048
 20
-1.0925921086
 10
21.0921056745
 20
0.5033018792
 10
22.7761568229
 20
2.1648570912
 10
24.3718381822
 20
3.8875011141
 10
25.8752320196
 20
5.6665085481
 10
27.2827153466
 20
7.4970193322
 10
28.590969073
 20
9.3740573578
 10
29.7969855883
 20
11.2925492434
 10
30.8980747658
 20
13.2473431477
 10
31.8918683985
 20
15.2332274996
 10
32.7763230901
 20
17.2449495312
 10
33.5497216364
 20
19.2772335034
 10
34.2106729444
 20
21.3247985237
 10
34.7581105459
 20
23.3823758613
 10
35.1912897747
 20
25.4447256735
 10
35.5097836798
 20
27.5066530692
 10
35.7134777595
 20
29.5630234401
 10
35.8025636037
 20
31.6087770053
 10
35.7775315357
 20
33.6389425197
 10
35.6391623503
 20
35.648650111
 10
35.3885182463
 20
37.6331432153
 10
35.0269330491
 20
39.587789595
 10
34.5560018245
 20
41.5080914274
 10
33.9775699778
 20
43.3896944639
 10
33.2937219336
 20
45.2283962665
 10
32.5067694878
 20
47.0201535349
 10
31.6192399175
 20
48.7610885445
 10
30.6338639334
 20
50.4474947234
 10
29.5535635512
 20
52.0758413971
 10
28.3814399553
 20
53.6427777397
 10
27.1207614199
 20
55.1451359703
 10
25.7749513503
 20
56.5799338371
 10
24.3475764962
 20
57.9443764352
 10
22.8423353878
 20
59.2358574056
 10
21.2630470347
 20
60.4519595628
 10
19.6136399247
 20
61.5904550004
 10
17.8981413518
 20
62.649304724
 10
16.1206670981
 20
63.6266578601
 10
14.2854114878
 20
64.5208504872
 10
12.3966378264
 20
65.3304041389
 10
10.4586692333
 20
66.0540240206
 10
8.4758798723
 20
66.6905969851
 10
6.4526865777
 20
67.2391893082
 10
4.3935408716
 20
67.6990443016
 10
2.3029213642
 20
68.069579801
 10
0.1853265246
 20
68.3503855619
 10
-1.9547321934
 20
68.5412205945
 10
-4.112736887
 20
68.6420104661
 10
-6.2841694231
 20
68.6528445947
 10
-8.4645173616
 20
68.5739735578
 10
-10.6492796074
 20
68.4058064345
  0
LWPOLYLINE
  5
A7
330
1F
100
AcDbEntity
  8
0
  6
Continuous
 62
     7
370
    25
100
AcDbPolyline
 90
       45
 70
   128
 43
0.0
 10
-55.5803830373
 20
3.4284201036
 10
-54.5221219868
 20
1.7084283876
 10
-53.3619303471
 20
0.0423999936
 10
-52.1018419901
 20
-1.5653932605
 10
-50.7441646699
 20
-3.1107665556
 10
-49.2914804652
 20
-4.589636152
 10
-47.7466451789
 20
-5.9980337056
 10
-46.1127866354
 20
-7.3321207483
 10
-44.3933018186
 20
-8.5882032534
 10
-42.5918528004
 20
-9.7627462017
 10
-40.7123614181
 20
-10.852388058
 10
-38.7590026669
 20
-11.8539550643
 10
-36.736196784
 20
-12.7644752498
 10
-34.6486000087
 20
-13.5811920572
 10
-32.5010940176
 20
-14.3015774815
 10
-30.2987740422
 20
-14.9233446156
 10
-28.0469356907
 20
-15.4444595011
 10
-25.751060507
 20
-15.8631521774
 10
-23.4168003126
 20
-16.1779268329
 10
-21.0499603919
 20
-16.3875709595
 10
-18.6564815904
 20
-16.4911634198
 10
-16.2424214112
 20
-16.4880813436
 10
-13.8139342044
 20
-16.3780057757
 10
-11.3772505561
 20
-16.1609260085
 10
-8.9386559938
 20
-15.8371425402
 10
-6.504469133
 20
-15.4072686128
 10
-4.0810193998
 20
-14.8722302944
 10
-1.6746244667
 20
-14.2332650832
 10
0.7084324512
 20
-13.4919190233
 10
3.0619252945
 20
-12.6500423356
 10
5.379707701
 20
-11.7097835809
 10
7.6557352436
 20
-10.673582386
 10
9.884087216
 20
-9.5441607739
 10
12.0589878237
 20
-8.3245131562
 10
14.1748266429
 20
-7.0178950541
 10
16.2261782157
 20
-5.6278106272
 10
18.2078206597
 20
-4.1579990989
 10
20.1147531795
 20
-2.6124201767
 10
21.9422123784
 20
-0.9952385729
 10
23.6856872816
 20
0.6891922613
 10
25.3409329927
 20
2.4363470718
 10
26.9039829233
 20
4.2415462866
 10
28.3711595434
 20
6.0999739252
 10
29.7390836204
 20
8.0066958111
 10
31.0046819243
 20
9.9566779622
  0
LWPOLYLINE
  5
B1
330
1F
100
AcDbEntity
  8
0
  6
Continuous
 62
     7
370
    25
100
AcDbPolyline
 90
       40
 70
   128
 43
0.0
 10
17.1983698804
 20
71.8752998949
 10
17.8888096478
 20
71.8963050572
 10
18.5612175377
 20
71.8239659024
 10
19.1983237771
 20
71.6600307525
 10
19.7837125885
 20
71.4085828531
 10
20.3022385217
 20
71.0759511672
 10
20.7404169108
 20
70.6705651929
 10
21.0867785684
 20
70.2027556697
 10
21.3321790206
 20
69.6845043916
 10
21.4700530709
 20
69.1291478135
 10
21.4966063144
 20
68.5510406672
 10
21.4109364507
 20
67.9651873326
 10
21.2150788745
 20
67.3868501396
 10
20.9139730458
 20
66.8311450273
 10
20.5153484987
 20
66.3126359361
 10
20.0295319527
 20
65.8449398879
 10
19.4691797221
 20
65.4403548212
 10
18.8489423394
 20
65.1095218624
 10
18.1850708529
 20
64.8611328008
 10
17.4949764822
 20
64.7016921319
 10
16.7967570825
 20
64.6353411849
 10
16.108705058
 20
64.6637496695
 10
15.4488119269
 20
64.7860775649
 10
14.8342846402
 20
64.9990077843
 10
14.2810880202
 20
65.2968476034
 10
13.8035263873
 20
65.6716945857
 10
13.4138756825
 20
66.1136607621
 10
13.122075296
 20
66.6111472299
 10
12.9354865259
 20
67.1511601485
 10
12.858722241
 20
67.7196583623
 10
12.8935500405
 20
68.3019225399
 10
13.0388690852
 20
68.8829357503
 10
13.2907588937
 20
69.4477657266
 10
13.6425967944
 20
69.9819396366
 10
14.0852394024
 20
70.4718028975
 10
14.6072624497
 20
70.9048543866
 10
15.1952524813
 20
71.270051234
 10
15.8341433128
 20
71.5580772208
 10
16.5075896511
 20
71.7615695964
 10
17.1983698804
 20
71.8752998949
  0
LWPOLYLINE
  5
B2
330
1F
100
AcDbEntity
  8
0
  6
Continuous
 62
     7
370
    25
100
AcDbPolyline
 90
       40
 70
   128
 43
0.0
 10
-37.900849939
 20
66.4995736117
 10
-37.2396653962
 20
66.5186240869
 10
-36.6012080136
 20
66.4456507577
 10
-36.001884598
 20
66.2824221391
 10
-35.457147084
 20
66.033008321
 10
-34.9810996542
 20
65.7036915834
 10
-34.5861340526
 20
65.3028218138
 10
-34.282602436
 20
64.8406186365
 10
-34.0785368282
 20
64.3289235001
 10
-33.9794236735
 20
63.7809064139
 10
-33.9880410904
 20
63.2107335206
 10
-34.1043651473
 20
62.6332031866
 10
-34.3255498398
 20
62.063359685
 10
-34.6459834431
 20
61.5160947521
 10
-35.05742161
 20
61.0057482196
 10
-35.5491950796
 20
60.5457194691
 10
-36.1084872566
 20
60.148101554
 10
-36.7206743699
 20
59.8233494356
 10
-37.3697185567
 20
59.5799928788
 10
-38.0386021966
 20
59.424403166
 10
-38.7097902524
 20
59.360620975
 10
-39.3657063734
 20
59.3902506251
 10
-39.9892081221
 20
59.5124235372
 10
-40.564046922
 20
59.7238313124
 10
-41.075299157
 20
60.0188264449
 10
-41.5097562113
 20
60.3895864703
 10
-41.856263016
 20
60.8263354209
 10
-42.1059967466
 20
61.3176148888
 10
-42.2526795526
 20
61.8505958337
 10
-42.292721476
 20
62.4114215291
 10
-42.2252919058
 20
62.9855716976
 10
-42.0523199336
 20
63.5582379066
 10
-41.7784257579
 20
64.1147006092
 10
-41.4107867925
 20
64.6406987658
 10
-40.9589433613
 20
65.1227836786
 10
-40.4345498349
 20
65.5486494674
 10
-39.8510778015
 20
65.9074334365
 10
-39.2234784322
 20
66.1899804067
 10
-38.5678116338
 20
66.3890658733
 10
-37.900849939
 20
66.4995736117
  0
LWPOLYLINE
  5
B3
330
1F
100
AcDbEntity
  8
0
  6
Continuous
 62
     7
370
    25
100
AcDbPolyline
 90
       59
 70
   128
 43
0.0
 10
-44.2704587659
 20
-6.4341620221
 10
-44.3642023284
 20
-5.5378178438
 10
-44.4836350262
 20
-3.6779581508
 10
-44.5034695201
 20
-1.8094010393
 10
-44.4242381873
 20
0.0636126387
 10
-44.2466811608
 20
1.9368816231
 10
-43.9717398487
 20
3.8062520275
 10
-43.6005503
 20
5.6676246198
 10
-43.1344364627
 20
7.5169616109
 10
-42.5749033776
 20
9.3502929682
 10
-41.9236303463
 20
11.1637222708
 10
-41.1824641102
 20
12.9534321284
 10
-40.3534120704
 20
14.715689184
 10
-39.438635577
 20
16.4468487267
 10
-38.4404433122
 20
18.1433589394
 10
-37.361284785
 20
19.8017648066
 10
-36.2037439573
 20
21.4187117119
 10
-34.9705330101
 20
22.9909487504
 10
-33.664486263
 20
24.5153317858
 10
-32.2885542494
 20
25.9888262774
 10
-30.8457979535
 20
27.4085099065
 10
-29.3393832055
 20
28.771575028
 10
-27.772575235
 20
30.0753309715
 10
-26.1487333746
 20
31.3172062198
 10
-24.4713059062
 20
32.4947504855
 10
-22.7438250403
 20
33.6056367101
 10
-20.9699020134
 20
34.6476630054
 10
-19.1532222913
 20
35.6187545573
 10
-17.2975408596
 20
36.5169655095
 10
-15.4066775852
 20
37.3404808429
 10
-13.4845126279
 20
38.0876182647
 10
-11.5349818816
 20
38.756830119
 10
-9.5620724247
 20
39.3467053301
 10
-7.5698179543
 20
39.855971384
 10
-5.5622941843
 20
40.2834963559
 10
-3.5436141801
 20
40.6282909855
 10
-1.5179236085
 20
40.8895108016
 10
0.5106041228
 20
41.0664582941
 10
2.5377728597
 20
41.1585851298
 10
4.5593688547
 20
41.165494405
 10
6.5711661
 20
41.086942926
 10
8.5689318647
 20
40.9228435061
 10
10.5484324573
 20
40.6732672644
 10
12.5054392325
 20
40.3384459093
 10
14.4357348616
 20
39.9187739886
 10
16.3351198841
 20
39.4148110825
 10
18.1994195538
 20
38.827283916
 10
20.0244909922
 20
38.1570883636
 10
21.8062306602
 20
37.4052913168
 10
23.5405821529
 20
36.5731323829
 10
25.223544323
 20
35.6620253818
 10
26.8511797316
 20
34.6735596046
 10
28.4196234243
 20
33.6095007974
 10
29.9250920232
 20
32.4717918303
 10
31.3638931248
 20
31.2625530136
 10
32.7324349859
 20
29.9840820182
 10
34.0272364782
 20
28.6388533598
 10
35.244937283
 20
27.2295174047
 10
35.4237550023
 20
27.0090123982
  0
LWPOLYLINE
  5
DD
330
1F
100
AcDbEntity
  8
0
  6
Continuous
 62
     7
370
    25
100
AcDbPolyline
 90
       48
 70
   128
 43
0.0
 10
-45.0329839451
 20
-14.1597378749
 10
-44.218871671
 20
-15.4745518667
 10
-42.949918278
 20
-17.3727657657
 10
-41.6086769863
 20
-19.2071774145
 10
-40.1975976339
 20
-20.9741411847
 10
-38.719269736
 20
-22.6701239106
 10
-37.1764189906
 20
-24.2917120309
 10
-35.5719035017
 20
-25.8356186571
 10
-33.9087097143
 20
-27.2986905538
 10
-32.1899480573
 20
-28.6779150144
 10
-30.4188482901
 20
-29.9704266159
 10
-28.5987545513
 20
-31.1735138334
 10
-26.7331201059
 20
-32.2846254966
 10
-24.8255017914
 20
-33.3013770678
 10
-22.8795541631
 20
-34.2215567203
 10
-20.8990233385
 20
-35.0431311971
 10
-18.8877405458
 20
-35.7642514261
 10
-16.849615378
 20
-36.3832578704
 10
-14.7886287607
 20
-36.8986855905
 10
-12.7088256383
 20
-37.3092689949
 10
-10.6143073894
 20
-37.6139462554
 10
-8.5092239793
 20
-37.8118633645
 10
-6.3977658636
 20
-37.902377811
 10
-4.2841556555
 20
-37.8850618502
 10
-2.1726395716
 20
-37.7597053475
 10
-0.0674786747
 20
-37.5263181732
 10
2.0270600689
 20
-37.1851321257
 10
4.1067128972
 20
-36.7366023666
 10
6.1672285025
 20
-36.1814083444
 10
8.2043774001
 20
-35.5204541938
 10
10.213961392
 20
-34.7548685911
 10
12.1918230967
 20
-33.8860040538
 10
14.133855519
 20
-32.9154356702
 10
16.0360116299
 20
-31.8449592511
 10
17.8943139265
 20
-30.676588893
 10
19.7048639405
 20
-29.4125539486
 10
21.4638516643
 20
-28.0552954012
 10
23.1675648604
 20
-26.6074616419
 10
24.8123982236
 20
-25.0719036515
 10
26.39486236
 20
-23.4516695922
 10
27.9115925516
 20
-21.7499988168
 10
29.3593572733
 20
-19.9703153048
 10
30.735066428
 20
-18.1162205394
 10
32.0357792694
 20
-16.1914858416
 10
33.2587119805
 20
-14.2000441791
 10
34.4012448775
 20
-12.1459814732
 10
35.4609292102
 20
-10.0335274261
 10
36.4354935309
 20
-7.8670458968
  0
LWPOLYLINE
  5
E7
330
1F
100
AcDbEntity
  8
0
  6
Continuous
 62
     7
370
    25
100
AcDbPolyline
 90
       49
 70
   128
 43
0.0
 10
-47.4488292987
 20
-15.0904142377
 10
-46.2194409416
 20
-17.1109042716
 10
-44.9146724757
 20
-19.0710086419
 10
-43.5367865382
 20
-20.9670157933
 10
-42.0881841997
 20
-22.7953143798
 10
-40.5714020354
 20
-24.5524000872
 10
-38.989108939
 20
-26.2348824123
 10
-37.3441026746
 20
-27.8394913853
 10
-35.6393061609
 20
-29.3630842218
 10
-33.8777634825
 20
-30.8026518914
 10
-32.0626356249
 20
-32.1553255851
 10
-30.1971959296
 20
-33.418383067
 10
-28.2848252656
 20
-34.5892548917
 10
-26.3290069174
 20
-35.6655304697
 10
-24.3333211868
 20
-36.6449639615
 10
-22.3014397103
 20
-37.5254799811
 10
-20.2371194925
 20
-38.3051790871
 10
-18.1441966592
 20
-38.9823430426
 10
-16.0265799334
 20
-39.5554398196
 10
-13.8882438391
 20
-40.0231283286
 10
-11.7332216421
 20
-40.3842628495
 10
-9.5655980326
 20
-40.6378971426
 10
-7.3895015629
 20
-40.7832882172
 10
-5.2090968488
 20
-40.819899735
 10
-3.0285765501
 20
-40.7474050283
 10
-0.8521531425
 20
-40.5656897099
 10
1.3159495006
 20
-40.2748538551
 10
3.4715047006
 20
-39.8752137366
 10
5.610291719
 20
-39.3673030911
 10
7.7281046369
 20
-38.7518739035
 10
9.8207613441
 20
-38.0298966882
 10
11.8841126157
 20
-37.2025602569
 10
13.9140512498
 20
-36.2712709554
 10
15.9065212401
 20
-35.2376513613
 10
17.8575269572
 20
-34.1035384309
 10
19.763142308
 20
-32.8709810888
 10
21.6195198454
 20
-31.542237255
 10
23.4228997972
 20
-30.1197703051
 10
25.1696189846
 20
-28.606244965
 10
26.8561195979
 20
-27.004522641
 10
28.4789577996
 20
-25.3176561891
 10
30.0348121217
 20
-23.548884132
 10
31.5204916286
 20
-21.7016243329
 10
32.9329438121
 20
-19.779467138
 10
34.2692621904
 20
-17.7861680036
 10
35.5266935805
 20
-15.7256396248
 10
36.7026450155
 20
-13.6019435868
 10
37.7946902801
 20
-11.4192815604
 10
38.8005760375
 20
-9.181986068
  0
LWPOLYLINE
  5
EE
330
1F
100
AcDbEntity
  8
0
  6
Continuous
 62
     7
370
    25
100
AcDbPolyline
 90
       46
 70
   128
 43
0.0
 10
41.0046219898
 20
-16.5816290081
 10
39.8219280284
 20
-18.4629338008
 10
38.5438129423
 20
-20.3020206436
 10
37.1730140558
 20
-22.0942638046
 10
35.7125390216
 20
-23.8351312593
 10
34.1656593495
 20
-25.5202006834
 10
32.5359026636
 20
-27.1451752762
 10
30.8270437049
 20
-28.705899313
 10
29.0430941041
 20
-30.1983733267
 10
27.1882909647
 20
-31.6187688158
 10
25.2670843027
 20
-32.9634423818
 10
23.2841234034
 20
-34.2289491991
 10
21.2442421645
 20
-35.4120557254
 10
19.1524435038
 20
-36.5097515661
 10
17.0138829196
 20
-37.5192604117
 10
14.8338512995
 20
-38.4380499741
 10
12.6177570802
 20
-39.2638408569
 10
10.3711078658
 20
-39.9946143019
 10
8.0994916193
 20
-40.6286187645
 10
5.8085575428
 20
-41.1643752798
 10
3.5039967649
 20
-41.6006815925
 10
1.1915229565
 20
-41.9366150336
 10
-1.1231470087
 20
-42.1715341367
 10
-3.4343122286
 20
-42.3050789992
 10
-5.73630667
 20
-42.3371704023
 10
-8.0235176773
 20
-42.2680077148
 10
-10.290403989
 20
-42.0980656149
 10
-12.5315131626
 20
-41.8280896731
 10
-14.7414983168
 20
-41.4590908485
 10
-16.9151341089
 20
-40.9923389558
 10
-19.0473318712
 20
-40.4293551719
 10
-21.1331538428
 20
-39.7719036504
 10
-23.1678264396
 20
-39.0219823228
 10
-25.146752518
 20
-38.1818129659
 10
-27.0655225948
 20
-37.2538306176
 10
-28.9199249984
 20
-36.2406724281
 10
-30.7059549337
 20
-35.1451660302
 10
-32.4198224544
 20
-33.9703175156
 10
-34.0579593448
 20
-32.7192991017
 10
-35.6170249207
 20
-31.3954365726
 10
-37.0939107688
 20
-30.0021965737
 10
-38.4857444501
 20
-28.5431738379
 10
-39.7898922
 20
-27.0220784173
 10
-41.0039606635
 20
-25.4427229891
 10
-42.1257977093
 20
-23.8090102997
 10
-42.6452698568
 20
-22.9832545837
  0
LWPOLYLINE
  5
FC
330
1F
100
AcDbEntity
  8
0
  6
Continuous
 62
     7
370
    25
100
AcDbPolyline
 90
       36
 70
   128
 43
0.0
 10
17.3371530394
 20
70.6710776316
 10
16.7209249624
 20
70.5650811134
 10
16.1239191451
 20
70.3701684673
 10
15.5651302673
 20
70.0925585441
 10
15.0623479563
 20
69.7410755554
 10
14.6316065682
 20
69.3268778957
 10
14.2866857479
 20
68.8631170126
 10
14.0386758155
 20
68.3645351036
 10
13.895620887
 20
67.8470120127
 10
13.8622512212
 20
67.327073284
 10
13.9398145039
 20
66.8213728424
 10
14.1260135653
 20
66.346165156
 10
14.4150553153
 20
65.916782861
 10
14.7978124797
 20
65.5471365868
 10
15.2620960672
 20
65.2492539508
 10
15.793032513
 20
65.0328742811
 10
16.3735352947
 20
64.9051144686
 10
16.9848567402
 20
64.8702193977
 10
17.6072019969
 20
64.9294076701
 10
18.2203839905
 20
65.0808199041
 10
18.8044959175
 20
65.3195729145
 10
19.3405765957
 20
65.6379187723
 10
19.8112439776
 20
66.0255033673
 10
20.2012733364
 20
66.4697149267
 10
20.4980990166
 20
66.9561092401
 10
20.6922220285
 20
67.4688953415
 10
20.7775099351
 20
67.9914632618
 10
20.7513801264
 20
68.5069342866
 10
20.6148624149
 20
68.9987139426
 10
20.3725415925
 20
69.4510286265
 10
20.0323849349
 20
69.8494282543
 10
19.6054634044
 20
70.1812393765
 10
19.1055783853
 20
70.4359556777
 10
18.5488081232
 20
70.6055554782
 10
17.9529896611
 20
70.6847386003
 10
17.3371530394
 20
70.6710776316
  0
LWPOLYLINE
  5
108
330
1F
100
AcDbEntity
  8
0
  6
Continuous
 62
     7
370
    25
100
AcDbPolyline
 90
       36
 70
   128
 43
0.0
 10
-37.7337245932
 20
65.3217276771
 10
-38.3289947363
 20
65.2186613587
 10
-38.9111035931
 20
65.0278498659
 10
-39.4615257947
 20
64.7553821933
 10
-39.9627356155
 20
64.4099209063
 10
-40.3987493416
 20
64.0024357014
 10
-40.7556230724
 20
63.5458677324
 10
-41.0218919609
 20
63.0547333788
 10
-41.1889379164
 20
62.5446777227
 10
-41.2512740805
 20
62.0319895616
 10
-41.2067360257
 20
61.5330912797
 10
-41.0565716895
 20
61.0640182544
 10
-40.8054245999
 20
60.6399035735
 10
-40.461207975
 20
60.2744845686
 10
-40.0348707608
 20
59.9796478834
 10
-39.5400604955
 20
59.7650293772
 10
-38.9926919016
 20
59.6376840165
 10
-38.410434098
 20
59.6018389811
 10
-37.8121330352
 20
59.6587405255
 10
-37.2171889319
 20
59.8066017644
 10
-36.6449108836
 20
60.0406546549
 10
-36.1138722093
 20
60.3533052274
 10
-35.6412903743
 20
60.7343868263
 10
-35.242454419
 20
61.1715020343
 10
-34.9302207795
 20
61.6504403172
 10
-34.7145953469
 20
62.155655475
 10
-34.6024157811
 20
62.6707848693
 10
-34.5971437532
 20
63.1791912231
 10
-34.6987722066
 20
63.6645075517
 10
-34.9038482084
 20
64.1111664335
 10
-35.2056077369
 20
64.5048962402
 10
-35.5942150332
 20
64.833168947
 10
-36.057096044
 20
65.085586557
 10
-36.5793530766
 20
65.2541958096
 10
-37.1442460468
 20
65.3337235392
 10
-37.7337245932
 20
65.3217276771
  0
LWPOLYLINE
  5
11F
330
1F
100
AcDbEntity
  8
0
  6
HIDDEN
 62
     7
370
    18
100
AcDbPolyline
 90
       36
 70
   128
 43
0.0
 10
35.4237550023
 20
27.0090123982
 10
36.3823082983
 20
25.7588988566
 10
37.4362622191
 20
24.2299946823
 10
38.4038642523
 20
22.6459714376
 10
39.2823429172
 20
21.0101619549
 10
40.0691008821
 20
19.3260613576
 10
40.7617257793
 20
17.5973223667
 10
41.3580009374
 20
15.8277498718
 10
41.8559159649
 20
14.0212947399
 10
42.2536771151
 20
12.1820468401
 10
42.549717359
 20
10.3142272704
 10
42.742706088
 20
8.4221797733
 10
42.831558368
 20
6.5103613389
 10
42.8154436628
 20
4.5833319956
 10
42.6937939437
 20
2.6457438004
 10
42.4663111033
 20
0.7023290437
 10
42.1329735895
 20
-1.2421123044
 10
41.69404218
 20
-3.1827258734
 10
41.1500648176
 20
-5.1146168573
 10
40.5018804325
 20
-7.0328646131
 10
39.7506216792
 20
-8.932537837
 10
38.8977165257
 20
-10.8087102507
 10
37.9448886342
 20
-12.6564767257
 10
36.8941564838
 20
-14.470969763
 10
35.7478311937
 20
-16.2473762422
 10
34.5085130132
 20
-17.9809543447
 10
33.179086456
 20
-19.6670505535
 10
31.7627140681
 20
-21.3011166256
 10
30.2628288291
 20
-22.8787264297
 10
28.6831251968
 20
-24.3955925427
 10
27.0275488222
 20
-25.8475824921
 10
25.3002849669
 20
-27.2307345367
 10
23.5057456743
 20
-28.5412728766
 10
21.6485557523
 20
-29.7756221864
 10
19.7335376403
 20
-30.9304213709
 10
17.7656952404
 20
-32.0025364447
  0
LWPOLYLINE
  5
150
330
1F
100
AcDbEntity
  8
0
  6
HIDDEN
 62
     7
370
    18
100
AcDbPolyline
 90
        3
 70
   128
 43
0.0
 10
-59.5085386328
 20
13.0927347639
 10
-59.3477276843
 20
11.285796431
 10
-59.1048762502
 20
9.5396704234
  0
LWPOLYLINE
  5
1D3
330
1F
100
AcDbEntity
  8
0
  6
HIDDEN
 62
     7
370
    18
100
AcDbPolyline
 90
       21
 70
   128
 43
0.0
 10
14.165745469
 20
66.2735963756
 10
14.23941765
 20
65.8357575663
 10
14.4252903829
 20
65.3612506159
 10
14.713725073
 20
64.9324487644
 10
15.0956130598
 20
64.5632434355
 10
15.5587926404
 20
64.265647384
 10
16.0884254201
 20
64.0493899845
 10
16.6674668394
 20
63.9215834986
 10
17.2772166263
 20
63.8864737444
 10
17.8979311882
 20
63.9452858637
 10
18.509476827
 20
64.0961724584
 10
19.0920003921
 20
64.3342673993
 10
19.6265927701
 20
64.6518443168
 10
20.0959205931
 20
65.0385744184
 10
20.4848027512
 20
65.4818741149
 10
20.7807106691
 20
65.9673292469
 10
20.9741746836
 20
66.4791797053
 10
21.0590830098
 20
67.0008461057
 10
21.0328644217
 20
67.5154789982
 10
20.8965505866
 20
68.0065108767
 10
20.7728510693
 20
68.2667784842
  0
LWPOLYLINE
  5
1F6
330
1F
100
AcDbEntity
  8
0
  6
HIDDEN
 62
     7
370
    18
100
AcDbPolyline
 90
       22
 70
   128
 43
0.0
 10
-34.6049394148
 20
63.3370445656
 10
-34.4800808465
 20
63.1517862257
 10
-34.2753020329
 20
62.7057532548
 10
-34.1736981693
 20
62.2211724119
 10
-34.1787204291
 20
61.7135876971
 10
-34.2903830041
 20
61.1993396549
 10
-34.505240139
 20
60.6950369558
 10
-34.816478449
 20
60.2170124203
 10
-35.2141239526
 20
59.7807822399
 10
-35.6853587432
 20
59.4005277959
 10
-36.2149376579
 20
59.0886192367
 10
-36.7856909718
 20
58.855198798
 10
-37.3790953291
 20
58.707839737
 10
-37.9758920909
 20
58.6512938067
 10
-38.5567302416
 20
58.6873365682
 10
-39.1028100894
 20
58.8147157583
 10
-39.5965042623
 20
59.0292036513
 10
-40.0219338898
 20
59.3237501458
 10
-40.3654802428
 20
59.6887294157
 10
-40.6162152625
 20
60.112269606
 10
-40.7662381102
 20
60.5806523699
 10
-40.768228425
 20
60.5906532499
  0
LINE
  5
217
330
1F
100
AcDbEntity
  8
0
  6
Continuous
 62
     7
370
    25
100
AcDbLine
 10
-55.2689738593
 20
2.8991058513
 30
0.0
 11
-45.0329839451
 21
-14.1597378749
 31
0.0
  0
LINE
  5
218
330
1F
100
AcDbEntity
  8
0
  6
Continuous
 62
     7
370
    25
100
AcDbLine
 10
43.7175845474
 20
31.5897326627
 30
0.0
 11
41.1564141722
 21
42.0071003258
 31
0.0
  0
LINE
  5
219
330
1F
100
AcDbEntity
  8
0
  6
Continuous
 62
     7
370
    25
100
AcDbLine
 10
-46.7946737049
 20
-16.1883900119
 30
0.0
 11
-42.6452698568
 21
-22.9832545837
 31
0.0
  0
LINE
  5
21A
330
1F
100
AcDbEntity
  8
0
  6
Continuous
 62
     7
370
    25
100
AcDbLine
 10
41.7095721321
 20
37.7472579593
 30
0.0
 11
41.7804464317
 21
33.9330464173
 31
0.0
  0
LINE
  5
21B
330
1F
100
AcDbEntity
  8
0
  6
Continuous
 62
     7
370
    25
100
AcDbLine
 10
31.0046819243
 20
9.9566779622
 30
0.0
 11
38.3185816112
 21
21.8296728939
 31
0.0
  0
LINE
  5
21C
330
1F
100
AcDbEntity
  8
0
  6
Continuous
 62
     7
370
    25
100
AcDbLine
 10
-61.6191325839
 20
13.8992333152
 30
0.0
 11
-55.5803830373
 21
3.4284201036
 31
0.0
  0
LINE
  5
21D
330
1F
100
AcDbEntity
  8
0
  6
Continuous
 62
     7
370
    25
100
AcDbLine
 10
-63.6624497947
 20
28.8099869634
 30
0.0
 11
-63.9986594791
 21
25.1023065939
 31
0.0
  0
LINE
  5
21E
330
1F
100
AcDbEntity
  8
0
  6
Continuous
 62
     7
370
    25
100
AcDbLine
 10
-59.3226337919
 20
40.2299425898
 30
0.0
 11
-41.5865603246
 21
65.5821135032
 31
0.0
  0
LINE
  5
21F
330
1F
100
AcDbEntity
  8
0
  6
Continuous
 62
     7
370
    25
100
AcDbLine
 10
-39.0454792608
 20
67.0337258681
 30
0.0
 11
-41.5865603246
 21
65.5821135032
 31
0.0
  0
LINE
  5
220
330
1F
100
AcDbEntity
  8
0
  6
Continuous
 62
     7
370
    25
100
AcDbLine
 10
18.4396234739
 20
72.6555651374
 30
0.0
 11
-39.0454792608
 21
67.0337258681
 31
0.0
  0
LINE
  5
221
330
1F
100
AcDbEntity
  8
0
  6
Continuous
 62
     7
370
    25
100
AcDbLine
 10
20.9984095347
 20
71.6756303567
 30
0.0
 11
18.4396234739
 21
72.6555651374
 31
0.0
  0
LINE
  5
222
330
1F
100
AcDbEntity
  8
0
  6
Continuous
 62
     7
370
    25
100
AcDbLine
 10
37.9186477952
 20
48.866460992
 30
0.0
 11
20.9984095347
 21
71.6756303567
 31
0.0
  0
LINE
  5
223
330
1F
100
AcDbEntity
  8
0
  6
Continuous
 62
     7
370
    25
100
AcDbLine
 10
-56.2785407115
 20
13.2289368729
 30
0.0
 11
-57.2689382973
 21
14.926895551
 31
0.0
  0
LINE
  5
224
330
1F
100
AcDbEntity
  8
0
  6
Continuous
 62
     7
370
    25
100
AcDbLine
 10
-56.7182298599
 20
11.9919171841
 30
0.0
 11
-55.7275458605
 21
10.3043582351
 31
0.0
  0
LINE
  5
225
330
1F
100
AcDbEntity
  8
0
  6
Continuous
 62
     7
370
    25
100
AcDbLine
 10
-55.6963850755
 20
26.6038720912
 30
0.0
 11
-56.6698403896
 21
28.3504824759
 31
0.0
  0
LINE
  5
226
330
1F
100
AcDbEntity
  8
0
  6
Continuous
 62
     7
370
    25
100
AcDbLine
 10
-57.2319921352
 20
25.337942133
 30
0.0
 11
-56.2526231827
 21
23.6024061738
 31
0.0
  0
LINE
  5
227
330
1F
100
AcDbEntity
  8
0
  6
Continuous
 62
     7
370
    25
100
AcDbLine
 10
-50.4049867
 20
39.4818741751
 30
0.0
 11
-51.3390153137
 21
41.2772977187
 31
0.0
  0
LINE
  5
228
330
1F
100
AcDbEntity
  8
0
  6
Continuous
 62
     7
370
    25
100
AcDbLine
 10
-52.9154560886
 20
38.491665976
 30
0.0
 11
-51.9708907156
 21
36.7069736031
 31
0.0
  0
LINE
  5
229
330
1F
100
AcDbEntity
  8
0
  6
Continuous
 62
     7
370
    25
100
AcDbLine
 10
-41.0779776561
 20
50.6143694475
 30
0.0
 11
-41.9552355996
 21
52.4547498973
 31
0.0
  0
LINE
  5
22A
330
1F
100
AcDbEntity
  8
0
  6
Continuous
 62
     7
370
    25
100
AcDbLine
 10
-44.3631685865
 20
50.159365045
 30
0.0
 11
-43.4719715453
 21
48.3285442921
 31
0.0
  0
LINE
  5
22B
330
1F
100
AcDbEntity
  8
0
  6
Continuous
 62
     7
370
    25
100
AcDbLine
 10
-28.6996783842
 20
58.9738896977
 30
0.0
 11
-29.5085095642
 21
60.8520985743
 31
0.0
  0
LINE
  5
22C
330
1F
100
AcDbEntity
  8
0
  6
Continuous
 62
     7
370
    25
100
AcDbLine
 10
-32.5041240301
 20
59.2561507341
 30
0.0
 11
-31.6792479357
 21
57.3856499068
 31
0.0
  0
LINE
  5
22D
330
1F
100
AcDbEntity
  8
0
  6
Continuous
 62
     7
370
    25
100
AcDbLine
 10
-14.4728996983
 20
63.7961012414
 30
0.0
 11
-15.2075079529
 21
65.702249512
 31
0.0
  0
LINE
  5
22E
330
1F
100
AcDbEntity
  8
0
  6
Continuous
 62
     7
370
    25
100
AcDbLine
 10
-18.5050837471
 20
64.9531351882
 30
0.0
 11
-17.7536464386
 21
63.0522580567
 31
0.0
  0
LINE
  5
22F
330
1F
100
AcDbEntity
  8
0
  6
Continuous
 62
     7
370
    25
100
AcDbLine
 10
0.2570235368
 20
64.6094305604
 30
0.0
 11
-0.4035484182
 21
66.5312097367
 31
0.0
  0
LINE
  5
230
330
1F
100
AcDbEntity
  8
0
  6
Continuous
 62
     7
370
    25
100
AcDbLine
 10
-3.6914903726
 20
66.7081515686
 30
0.0
 11
-3.0146608885
 21
64.7886917939
 31
0.0
  0
LINE
  5
231
330
1F
100
AcDbEntity
  8
0
  6
Continuous
 62
     7
370
    25
100
AcDbLine
 10
14.0731477053
 20
61.266108301
 30
0.0
 11
13.4802249615
 21
63.1891643644
 31
0.0
  0
LINE
  5
232
330
1F
100
AcDbEntity
  8
0
  6
Continuous
 62
     7
370
    25
100
AcDbLine
 10
10.5231085112
 20
64.2957206401
 30
0.0
 11
11.1303049178
 21
62.3716177083
 31
0.0
  0
LINE
  5
233
330
1F
100
AcDbEntity
  8
0
  6
Continuous
 62
     7
370
    25
100
AcDbLine
 10
25.5700317345
 20
53.9784749738
 30
0.0
 11
25.0319354965
 21
55.887088702
 31
0.0
  0
LINE
  5
234
330
1F
100
AcDbEntity
  8
0
  6
Continuous
 62
     7
370
    25
100
AcDbLine
 10
22.7158176145
 20
57.8427017667
 30
0.0
 11
23.2647493089
 21
55.929453777
 31
0.0
  0
LINE
  5
235
330
1F
100
AcDbEntity
  8
0
  6
Continuous
 62
     7
370
    25
100
AcDbLine
 10
33.4652171926
 20
43.3520063029
 30
0.0
 11
32.9627378286
 21
45.2303335492
 31
0.0
  0
LINE
  5
236
330
1F
100
AcDbEntity
  8
0
  6
Continuous
 62
     7
370
    25
100
AcDbLine
 10
31.5586559681
 20
47.8639766261
 30
0.0
 11
32.0671362809
 21
45.9775423044
 31
0.0
  0
LINE
  5
237
330
1F
100
AcDbEntity
  8
0
  6
Continuous
 62
     7
370
    25
100
AcDbLine
 10
31.0046819243
 20
9.9566779622
 30
0.0
 11
36.4354935309
 21
-7.8670458968
 31
0.0
  0
LINE
  5
238
330
1F
100
AcDbEntity
  8
0
  6
Continuous
 62
     7
370
    25
100
AcDbLine
 10
36.4354935309
 20
-7.8670458968
 30
0.0
 11
42.4927479459
 21
6.3900797036
 31
0.0
  0
LINE
  5
239
330
1F
100
AcDbEntity
  8
0
  6
Continuous
 62
     7
370
    25
100
AcDbLine
 10
44.9275581345
 20
21.3433298885
 30
0.0
 11
44.5760406757
 21
26.1578045798
 31
0.0
  0
LINE
  5
23A
330
1F
100
AcDbEntity
  8
0
  6
Continuous
 62
     7
370
    25
100
AcDbLine
 10
46.8454332615
 20
29.3851858886
 30
0.0
 11
40.0126362433
 21
40.5021433915
 31
0.0
  0
LINE
  5
23B
330
1F
100
AcDbEntity
  8
0
  6
Continuous
 62
     7
370
    25
100
AcDbLine
 10
47.5469750478
 20
21.5502674234
 30
0.0
 11
47.1940335146
 21
26.3690504269
 31
0.0
  0
LINE
  5
23C
330
1F
100
AcDbEntity
  8
0
  6
Continuous
 62
     7
370
    25
100
AcDbLine
 10
38.8005760375
 20
-9.181986068
 30
0.0
 11
44.8663944287
 21
5.0865827509
 31
0.0
  0
LINE
  5
23D
330
1F
100
AcDbEntity
  8
0
  6
Continuous
 62
     7
370
    25
100
AcDbLine
 10
-54.9216282427
 20
-2.2313164486
 30
0.0
 11
-47.4488292987
 21
-15.0904142377
 31
0.0
  0
LINE
  5
23E
330
1F
100
AcDbEntity
  8
0
  6
Continuous
 62
     7
370
    25
100
AcDbLine
 10
42.4927479459
 20
6.3900797036
 30
0.0
 11
38.3185816112
 21
21.8296728939
 31
0.0
  0
LINE
  5
23F
330
1F
100
AcDbEntity
  8
0
  6
Continuous
 62
     7
370
    25
100
AcDbLine
 10
41.7804464317
 20
33.9330464173
 30
0.0
 11
44.9275581345
 21
21.3433298885
 31
0.0
  0
LINE
  5
240
330
1F
100
AcDbEntity
  8
0
  6
Continuous
 62
     7
370
    25
100
AcDbLine
 10
44.5760406757
 20
26.1578045798
 30
0.0
 11
41.7095721321
 21
37.7472579593
 31
0.0
  0
LINE
  5
241
330
1F
100
AcDbEntity
  8
0
  6
Continuous
 62
     7
370
    25
100
AcDbLine
 10
38.8005760375
 20
-9.181986068
 30
0.0
 11
41.0046219898
 21
-16.5816290081
 31
0.0
  0
LINE
  5
242
330
1F
100
AcDbEntity
  8
0
  6
Continuous
 62
     7
370
    25
100
AcDbLine
 10
47.5469750478
 20
21.5502674234
 30
0.0
 11
51.0419928157
 21
7.0827045542
 31
0.0
  0
LINE
  5
243
330
1F
100
AcDbEntity
  8
0
  6
Continuous
 62
     7
370
    25
100
AcDbLine
 10
44.8663944287
 20
5.0865827509
 30
0.0
 11
47.6449723971
 21
-5.4522047773
 31
0.0
  0
LINE
  5
244
330
1F
100
AcDbEntity
  8
0
  6
Continuous
 62
     7
370
    25
100
AcDbLine
 10
32.8798814037
 20
46.3535592719
 30
0.0
 11
32.0671362809
 21
45.9775423044
 31
0.0
  0
LINE
  5
245
330
1F
100
AcDbEntity
  8
0
  6
Continuous
 62
     7
370
    25
100
AcDbLine
 10
47.6449723971
 20
-5.4522047773
 30
0.0
 11
41.0046219898
 21
-16.5816290081
 31
0.0
  0
LINE
  5
246
330
1F
100
AcDbEntity
  8
0
  6
Continuous
 62
     7
370
    25
100
AcDbLine
 10
-57.1626556357
 20
12.960822546
 30
0.0
 11
-56.2785407115
 21
13.2289368729
 31
0.0
  0
LINE
  5
247
330
1F
100
AcDbEntity
  8
0
  6
Continuous
 62
     7
370
    25
100
AcDbLine
 10
47.1940335146
 20
26.3690504269
 30
0.0
 11
50.9430410304
 21
10.6870077348
 31
0.0
  0
LINE
  5
248
330
1F
100
AcDbEntity
  8
0
  6
Continuous
 62
     7
370
    25
100
AcDbLine
 10
50.9430410304
 20
10.6870077348
 30
0.0
 11
51.0419928157
 21
7.0827045542
 31
0.0
  0
LINE
  5
249
330
1F
100
AcDbEntity
  8
0
  6
Continuous
 62
     7
370
    25
100
AcDbLine
 10
46.8454332615
 20
29.3851858886
 30
0.0
 11
50.7605343792
 21
12.9297066464
 31
0.0
  0
LINE
  5
24A
330
1F
100
AcDbEntity
  8
0
  6
Continuous
 62
     7
370
    25
100
AcDbLine
 10
23.9085874414
 20
56.4887244642
 30
0.0
 11
26.2426043816
 21
54.5639741775
 31
0.0
  0
LINE
  5
24B
330
1F
100
AcDbEntity
  8
0
  6
Continuous
 62
     7
370
    25
100
AcDbLine
 10
23.3633192585
 20
58.4044176276
 30
0.0
 11
23.9085874414
 21
56.4887244642
 31
0.0
  0
LINE
  5
24C
330
1F
100
AcDbEntity
  8
0
  6
Continuous
 62
     7
370
    25
100
AcDbLine
 10
23.9085874414
 20
56.4887244642
 30
0.0
 11
23.2647493089
 21
55.929453777
 31
0.0
  0
LINE
  5
24D
330
1F
100
AcDbEntity
  8
0
  6
Continuous
 62
     7
370
    25
100
AcDbLine
 10
-56.570738522
 20
26.5954646456
 30
0.0
 11
-57.5485414673
 21
28.3413529208
 31
0.0
  0
LINE
  5
24E
330
1F
100
AcDbEntity
  8
0
  6
Continuous
 62
     7
370
    25
100
AcDbLine
 10
-57.0935830777
 20
23.5954305333
 30
0.0
 11
-56.570738522
 21
26.5954646456
 31
0.0
  0
LINE
  5
24F
330
1F
100
AcDbEntity
  8
0
  6
Continuous
 62
     7
370
    25
100
AcDbLine
 10
-56.570738522
 20
26.5954646456
 30
0.0
 11
-55.6963850755
 21
26.6038720912
 31
0.0
  0
LINE
  5
250
330
1F
100
AcDbEntity
  8
0
  6
Continuous
 62
     7
370
    25
100
AcDbLine
 10
11.5483514132
 20
63.047279097
 30
0.0
 11
14.5084158399
 21
61.9729049187
 31
0.0
  0
LINE
  5
251
330
1F
100
AcDbEntity
  8
0
  6
Continuous
 62
     7
370
    25
100
AcDbLine
 10
10.9437241143
 20
64.9739604398
 30
0.0
 11
11.5483514132
 21
63.047279097
 31
0.0
  0
LINE
  5
252
330
1F
100
AcDbEntity
  8
0
  6
Continuous
 62
     7
370
    25
100
AcDbLine
 10
11.5483514132
 20
63.047279097
 30
0.0
 11
11.1303049178
 21
62.3716177083
 31
0.0
  0
LINE
  5
253
330
1F
100
AcDbEntity
  8
0
  6
Continuous
 62
     7
370
    25
100
AcDbLine
 10
-51.1814089399
 20
39.7209549747
 30
0.0
 11
-52.1190085338
 21
41.5165489348
 31
0.0
  0
LINE
  5
254
330
1F
100
AcDbEntity
  8
0
  6
Continuous
 62
     7
370
    25
100
AcDbLine
 10
-52.7164264094
 20
36.9384630754
 30
0.0
 11
-51.1814089399
 21
39.7209549747
 31
0.0
  0
LINE
  5
255
330
1F
100
AcDbEntity
  8
0
  6
Continuous
 62
     7
370
    25
100
AcDbLine
 10
-51.1814089399
 20
39.7209549747
 30
0.0
 11
-50.4049867
 21
39.4818741751
 31
0.0
  0
LINE
  5
256
330
1F
100
AcDbEntity
  8
0
  6
Continuous
 62
     7
370
    25
100
AcDbLine
 10
-2.8546625718
 20
65.5080742336
 30
0.0
 11
0.4216821693
 21
65.3608018816
 31
0.0
  0
LINE
  5
257
330
1F
100
AcDbEntity
  8
0
  6
Continuous
 62
     7
370
    25
100
AcDbLine
 10
-3.530159697
 20
67.429983779
 30
0.0
 11
-2.8546625718
 21
65.5080742336
 31
0.0
  0
LINE
  5
258
330
1F
100
AcDbEntity
  8
0
  6
Continuous
 62
     7
370
    25
100
AcDbLine
 10
-2.8546625718
 20
65.5080742336
 30
0.0
 11
-3.0146608885
 21
64.7886917939
 31
0.0
  0
LINE
  5
259
330
1F
100
AcDbEntity
  8
0
  6
Continuous
 62
     7
370
    25
100
AcDbLine
 10
-41.6828878583
 20
51.0675364111
 30
0.0
 11
-42.5626693274
 21
52.908888546
 31
0.0
  0
LINE
  5
25A
330
1F
100
AcDbEntity
  8
0
  6
Continuous
 62
     7
370
    25
100
AcDbLine
 10
-44.0512446088
 20
48.7655320515
 30
0.0
 11
-41.6828878583
 21
51.0675364111
 31
0.0
  0
LINE
  5
25B
330
1F
100
AcDbEntity
  8
0
  6
Continuous
 62
     7
370
    25
100
AcDbLine
 10
-41.6828878583
 20
51.0675364111
 30
0.0
 11
-41.0779776561
 21
50.6143694475
 31
0.0
  0
LINE
  5
25C
330
1F
100
AcDbEntity
  8
0
  6
Continuous
 62
     7
370
    25
100
AcDbLine
 10
-17.8602845311
 20
63.7428742675
 30
0.0
 11
-14.5869028074
 21
64.5159547093
 31
0.0
  0
LINE
  5
25D
330
1F
100
AcDbEntity
  8
0
  6
Continuous
 62
     7
370
    25
100
AcDbLine
 10
-18.6116773119
 20
65.6458619876
 30
0.0
 11
-17.8602845311
 21
63.7428742675
 31
0.0
  0
LINE
  5
25E
330
1F
100
AcDbEntity
  8
0
  6
Continuous
 62
     7
370
    25
100
AcDbLine
 10
-17.8602845311
 20
63.7428742675
 30
0.0
 11
-17.7536464386
 21
63.0522580567
 31
0.0
  0
LINE
  5
25F
330
1F
100
AcDbEntity
  8
0
  6
Continuous
 62
     7
370
    25
100
AcDbLine
 10
-29.0772599778
 20
59.5914024129
 30
0.0
 11
-29.8873932648
 21
61.4712661447
 31
0.0
  0
LINE
  5
260
330
1F
100
AcDbEntity
  8
0
  6
Continuous
 62
     7
370
    25
100
AcDbLine
 10
-32.0391338771
 20
57.9794931588
 30
0.0
 11
-29.0772599778
 21
59.5914024129
 31
0.0
  0
LINE
  5
261
330
1F
100
AcDbEntity
  8
0
  6
Continuous
 62
     7
370
    25
100
AcDbLine
 10
-29.0772599778
 20
59.5914024129
 30
0.0
 11
-28.6996783842
 21
58.9738896977
 31
0.0
  0
LINE
  5
262
330
1F
100
AcDbEntity
  8
0
  6
HIDDEN
 62
     7
370
    18
100
AcDbLine
 10
-26.2628509867
 20
-27.349184021
 30
0.0
 11
-22.2912162454
 21
-34.4451251191
 31
0.0
  0
LINE
  5
263
330
1F
100
AcDbEntity
  8
0
  6
HIDDEN
 62
     7
370
    18
100
AcDbLine
 10
-21.3275925275
 20
-29.0166680935
 30
0.0
 11
-17.4720719844
 21
-36.0943516186
 31
0.0
  0
LINE
  5
264
330
1F
100
AcDbEntity
  8
0
  6
HIDDEN
 62
     7
370
    18
100
AcDbLine
 10
9.6551559569
 20
-27.0680213796
 30
0.0
 11
12.7235188118
 21
-34.2739994971
 31
0.0
  0
LINE
  5
265
330
1F
100
AcDbEntity
  8
0
  6
HIDDEN
 62
     7
370
    18
100
AcDbLine
 10
14.8363244113
 20
-24.7352029991
 30
0.0
 11
17.7656952404
 21
-32.0025364447
 31
0.0
  0
LINE
  5
266
330
1F
100
AcDbEntity
  8
0
  6
HIDDEN
 62
     7
370
    18
100
AcDbLine
 10
-14.4921151346
 20
-18.0360880433
 30
0.0
 11
-15.2929231671
 21
-16.4303436329
 31
0.0
  0
LINE
  5
267
330
1F
100
AcDbEntity
  8
0
  6
HIDDEN
 62
     7
370
    18
100
AcDbLine
 10
-11.6698332071
 20
-16.2228308828
 30
0.0
 11
-10.8887692079
 21
-17.8318847824
 31
0.0
  0
LINE
  5
268
330
1F
100
AcDbEntity
  8
0
  6
HIDDEN
 62
     7
370
    18
100
AcDbLine
 10
-29.8765336654
 20
-15.9705045594
 30
0.0
 11
-30.758381685
 21
-14.3668066931
 31
0.0
  0
LINE
  5
269
330
1F
100
AcDbEntity
  8
0
  6
HIDDEN
 62
     7
370
    18
100
AcDbLine
 10
-27.4479232876
 20
-15.2449339421
 30
0.0
 11
-26.5829144467
 21
-16.8473052809
 31
0.0
  0
LINE
  5
26A
330
1F
100
AcDbEntity
  8
0
  6
HIDDEN
 62
     7
370
    18
100
AcDbLine
 10
-42.8124850018
 20
-9.40344298
 30
0.0
 11
-43.7565922308
 21
-7.7822811619
 31
0.0
  0
LINE
  5
26B
330
1F
100
AcDbEntity
  8
0
  6
HIDDEN
 62
     7
370
    18
100
AcDbLine
 10
-41.1395244354
 20
-9.6106229053
 30
0.0
 11
-40.2073309547
 21
-11.226339309
 31
0.0
  0
LINE
  5
26C
330
1F
100
AcDbEntity
  8
0
  6
HIDDEN
 62
     7
370
    18
100
AcDbLine
 10
-51.895604745
 20
0.7529790822
 30
0.0
 11
-52.8766610301
 21
2.4073081451
 31
0.0
  0
LINE
  5
26D
330
1F
100
AcDbEntity
  8
0
  6
HIDDEN
 62
     7
370
    18
100
AcDbLine
 10
-51.2234681745
 20
-0.1273288508
 30
0.0
 11
-50.2483083112
 21
-1.7731204463
 31
0.0
  0
LINE
  5
26E
330
1F
100
AcDbEntity
  8
0
  6
HIDDEN
 62
     7
370
    18
100
AcDbLine
 10
36.7456636825
 20
30.3940560015
 30
0.0
 11
36.2540044718
 21
32.2280355702
 31
0.0
  0
LINE
  5
26F
330
1F
100
AcDbEntity
  8
0
  6
HIDDEN
 62
     7
370
    18
100
AcDbLine
 10
35.958058721
 20
35.2796598743
 30
0.0
 11
36.449758827
 21
33.4346968199
 31
0.0
  0
LINE
  5
270
330
1F
100
AcDbEntity
  8
0
  6
HIDDEN
 62
     7
370
    18
100
AcDbLine
 10
34.8369081763
 20
16.4693389122
 30
0.0
 11
34.3277046009
 21
18.2490858992
 31
0.0
  0
LINE
  5
271
330
1F
100
AcDbEntity
  8
0
  6
HIDDEN
 62
     7
370
    18
100
AcDbLine
 10
35.2223773108
 20
21.38565698
 30
0.0
 11
35.7251115639
 21
19.5932022411
 31
0.0
  0
LINE
  5
272
330
1F
100
AcDbEntity
  8
0
  6
HIDDEN
 62
     7
370
    18
100
AcDbLine
 10
27.7582176766
 20
3.1767494081
 30
0.0
 11
27.2029630938
 21
4.8988816536
 31
0.0
  0
LINE
  5
273
330
1F
100
AcDbEntity
  8
0
  6
HIDDEN
 62
     7
370
    18
100
AcDbLine
 10
29.2259767066
 20
7.7496166732
 30
0.0
 11
29.7685822677
 21
6.014679804
 31
0.0
  0
LINE
  5
274
330
1F
100
AcDbEntity
  8
0
  6
HIDDEN
 62
     7
370
    18
100
AcDbLine
 10
16.2078657413
 20
-7.8569079295
 30
0.0
 11
15.582353042
 21
-6.1878271126
 31
0.0
  0
LINE
  5
275
330
1F
100
AcDbEntity
  8
0
  6
HIDDEN
 62
     7
370
    18
100
AcDbLine
 10
18.516540759
 20
-3.9787324076
 30
0.0
 11
19.124593752
 21
-5.6588840478
 31
0.0
  0
LINE
  5
276
330
1F
100
AcDbEntity
  8
0
  6
HIDDEN
 62
     7
370
    18
100
AcDbLine
 10
1.5249764665
 20
-15.2350499419
 30
0.0
 11
0.8137076816
 21
-13.6066873031
 31
0.0
  0
LINE
  5
277
330
1F
100
AcDbEntity
  8
0
  6
HIDDEN
 62
     7
370
    18
100
AcDbLine
 10
4.3082358618
 20
-12.3202759547
 30
0.0
 11
4.9995177093
 21
-13.9563472361
 31
0.0
  0
LINE
  5
278
330
1F
100
AcDbEntity
  8
0
  6
HIDDEN
 62
     7
370
    18
100
AcDbLine
 10
-55.5803830373
 20
3.4284201036
 30
0.0
 11
-45.413230221
 21
-13.5162866073
 31
0.0
  0
LINE
  5
279
330
1F
100
AcDbEntity
  8
0
  6
HIDDEN
 62
     7
370
    18
100
AcDbLine
 10
-45.413230221
 20
-13.5162866073
 30
0.0
 11
-45.0329839451
 21
-14.1597378749
 31
0.0
  0
LINE
  5
27A
330
1F
100
AcDbEntity
  8
0
  6
HIDDEN
 62
     7
370
    18
100
AcDbLine
 10
1.109809236
 20
-14.4250701788
 30
0.0
 11
4.5954619205
 21
-13.1042111605
 31
0.0
  0
LINE
  5
27B
330
1F
100
AcDbEntity
  8
0
  6
HIDDEN
 62
     7
370
    18
100
AcDbLine
 10
-59.5085386328
 20
13.0927347639
 30
0.0
 11
-59.8049177208
 21
17.7353048485
 31
0.0
  0
LINE
  5
27C
330
1F
100
AcDbEntity
  8
0
  6
HIDDEN
 62
     7
370
    18
100
AcDbLine
 10
-59.8734130351
 20
20.6608365885
 30
0.0
 11
-55.0212314755
 21
32.3454942628
 31
0.0
  0
LINE
  5
27D
330
1F
100
AcDbEntity
  8
0
  6
HIDDEN
 62
     7
370
    18
100
AcDbLine
 10
-57.3741298214
 20
17.9314451287
 30
0.0
 11
-57.0765030866
 21
13.2848689133
 31
0.0
  0
LINE
  5
27E
330
1F
100
AcDbEntity
  8
0
  6
HIDDEN
 62
     7
370
    18
100
AcDbLine
 10
-52.8980257477
 20
-0.6545373743
 30
0.0
 11
-45.413230221
 21
-13.5162866073
 31
0.0
  0
LINE
  5
27F
330
1F
100
AcDbEntity
  8
0
  6
HIDDEN
 62
     7
370
    18
100
AcDbLine
 10
4.5954619205
 20
-13.1042111605
 30
0.0
 11
4.3082358618
 21
-12.3202759547
 31
0.0
  0
LINE
  5
280
330
1F
100
AcDbEntity
  8
0
  6
HIDDEN
 62
     7
370
    18
100
AcDbLine
 10
4.5954619205
 20
-13.1042111605
 30
0.0
 11
5.285711393
 21
-14.7372389291
 31
0.0
  0
LINE
  5
281
330
1F
100
AcDbEntity
  8
0
  6
HIDDEN
 62
     7
370
    18
100
AcDbLine
 10
1.8200399226
 20
-16.0502467403
 30
0.0
 11
1.5249764665
 21
-15.2350499419
 31
0.0
  0
LINE
  5
282
330
1F
100
AcDbEntity
  8
0
  6
HIDDEN
 62
     7
370
    18
100
AcDbLine
 10
1.109809236
 20
-14.4250701788
 30
0.0
 11
0.8137076816
 21
-13.6066873031
 31
0.0
  0
LINE
  5
283
330
1F
100
AcDbEntity
  8
0
  6
HIDDEN
 62
     7
370
    18
100
AcDbLine
 10
1.8200399226
 20
-16.0502467403
 30
0.0
 11
1.109809236
 21
-14.4250701788
 31
0.0
  0
LINE
  5
284
330
1F
100
AcDbEntity
  8
0
  6
HIDDEN
 62
     7
370
    18
100
AcDbLine
 10
16.1754701044
 20
-6.8404884118
 30
0.0
 11
19.0874208811
 21
-4.6022086977
 31
0.0
  0
LINE
  5
285
330
1F
100
AcDbEntity
  8
0
  6
HIDDEN
 62
     7
370
    18
100
AcDbLine
 10
16.7981325127
 20
-8.5073152854
 30
0.0
 11
16.1754701044
 21
-6.8404884118
 31
0.0
  0
LINE
  5
286
330
1F
100
AcDbEntity
  8
0
  6
HIDDEN
 62
     7
370
    18
100
AcDbLine
 10
16.1754701044
 20
-6.8404884118
 30
0.0
 11
15.582353042
 21
-6.1878271126
 31
0.0
  0
LINE
  5
287
330
1F
100
AcDbEntity
  8
0
  6
HIDDEN
 62
     7
370
    18
100
AcDbLine
 10
19.6927162873
 20
-6.2802247581
 30
0.0
 11
19.124593752
 21
-5.6588840478
 31
0.0
  0
LINE
  5
288
330
1F
100
AcDbEntity
  8
0
  6
HIDDEN
 62
     7
370
    18
100
AcDbLine
 10
19.0874208811
 20
-4.6022086977
 30
0.0
 11
19.6927162873
 21
-6.2802247581
 31
0.0
  0
LINE
  5
289
330
1F
100
AcDbEntity
  8
0
  6
HIDDEN
 62
     7
370
    18
100
AcDbLine
 10
19.0874208811
 20
-4.6022086977
 30
0.0
 11
18.516540759
 21
-3.9787324076
 31
0.0
  0
LINE
  5
28A
330
1F
100
AcDbEntity
  8
0
  6
HIDDEN
 62
     7
370
    18
100
AcDbLine
 10
-15.3273186638
 20
-17.3171251903
 30
0.0
 11
-11.6998159635
 21
-17.0743466982
 31
0.0
  0
LINE
  5
28B
330
1F
100
AcDbEntity
  8
0
  6
HIDDEN
 62
     7
370
    18
100
AcDbLine
 10
-11.6998159635
 20
-17.0743466982
 30
0.0
 11
-11.6698332071
 21
-16.2228308828
 31
0.0
  0
LINE
  5
28C
330
1F
100
AcDbEntity
  8
0
  6
HIDDEN
 62
     7
370
    18
100
AcDbLine
 10
-11.6998159635
 20
-17.0743466982
 30
0.0
 11
-10.9179255896
 21
-18.6798553923
 31
0.0
  0
LINE
  5
28D
330
1F
100
AcDbEntity
  8
0
  6
HIDDEN
 62
     7
370
    18
100
AcDbLine
 10
-14.5256149844
 20
-18.9191809434
 30
0.0
 11
-14.4921151346
 21
-18.0360880433
 31
0.0
  0
LINE
  5
28E
330
1F
100
AcDbEntity
  8
0
  6
HIDDEN
 62
     7
370
    18
100
AcDbLine
 10
-15.3273186638
 20
-17.3171251903
 30
0.0
 11
-15.2929231671
 21
-16.4303436329
 31
0.0
  0
LINE
  5
28F
330
1F
100
AcDbEntity
  8
0
  6
HIDDEN
 62
     7
370
    18
100
AcDbLine
 10
-14.5256149844
 20
-18.9191809434
 30
0.0
 11
-15.3273186638
 21
-17.3171251903
 31
0.0
  0
LINE
  5
290
330
1F
100
AcDbEntity
  8
0
  6
HIDDEN
 62
     7
370
    18
100
AcDbLine
 10
5.285711393
 20
-14.7372389291
 30
0.0
 11
4.9995177093
 21
-13.9563472361
 31
0.0
  0
LINE
  5
291
330
1F
100
AcDbEntity
  8
0
  6
HIDDEN
 62
     7
370
    18
100
AcDbLine
 10
5.285711393
 20
-14.7372389291
 30
0.0
 11
1.8200399226
 21
-16.0502467403
 31
0.0
  0
LINE
  5
292
330
1F
100
AcDbEntity
  8
0
  6
HIDDEN
 62
     7
370
    18
100
AcDbLine
 10
16.7981325127
 20
-8.5073152854
 30
0.0
 11
16.2078657413
 21
-7.8569079295
 31
0.0
  0
LINE
  5
293
330
1F
100
AcDbEntity
  8
0
  6
HIDDEN
 62
     7
370
    18
100
AcDbLine
 10
19.6927162873
 20
-6.2802247581
 30
0.0
 11
16.7981325127
 21
-8.5073152854
 31
0.0
  0
LINE
  5
294
330
1F
100
AcDbEntity
  8
0
  6
HIDDEN
 62
     7
370
    18
100
AcDbLine
 10
28.0189768599
 20
4.4858174758
 30
0.0
 11
30.0085642893
 21
7.356305401
 31
0.0
  0
LINE
  5
295
330
1F
100
AcDbEntity
  8
0
  6
HIDDEN
 62
     7
370
    18
100
AcDbLine
 10
28.5699869037
 20
2.7647395342
 30
0.0
 11
28.0189768599
 21
4.4858174758
 31
0.0
  0
LINE
  5
296
330
1F
100
AcDbEntity
  8
0
  6
HIDDEN
 62
     7
370
    18
100
AcDbLine
 10
28.0189768599
 20
4.4858174758
 30
0.0
 11
27.2029630938
 21
4.8988816536
 31
0.0
  0
LINE
  5
297
330
1F
100
AcDbEntity
  8
0
  6
HIDDEN
 62
     7
370
    18
100
AcDbLine
 10
-10.9179255896
 20
-18.6798553923
 30
0.0
 11
-10.8887692079
 21
-17.8318847824
 31
0.0
  0
LINE
  5
298
330
1F
100
AcDbEntity
  8
0
  6
HIDDEN
 62
     7
370
    18
100
AcDbLine
 10
-10.9179255896
 20
-18.6798553923
 30
0.0
 11
-14.5256149844
 21
-18.9191809434
 31
0.0
  0
LINE
  5
299
330
1F
100
AcDbEntity
  8
0
  6
HIDDEN
 62
     7
370
    18
100
AcDbLine
 10
30.5470983396
 20
5.6223519182
 30
0.0
 11
29.7685822677
 21
6.014679804
 31
0.0
  0
LINE
  5
29A
330
1F
100
AcDbEntity
  8
0
  6
HIDDEN
 62
     7
370
    18
100
AcDbLine
 10
30.0085642893
 20
7.356305401
 30
0.0
 11
30.5470983396
 21
5.6223519182
 31
0.0
  0
LINE
  5
29B
330
1F
100
AcDbEntity
  8
0
  6
HIDDEN
 62
     7
370
    18
100
AcDbLine
 10
30.0085642893
 20
7.356305401
 30
0.0
 11
29.2259767066
 21
7.7496166732
 31
0.0
  0
LINE
  5
29C
330
1F
100
AcDbEntity
  8
0
  6
HIDDEN
 62
     7
370
    18
100
AcDbLine
 10
-27.7848275051
 20
-16.0633805486
 30
0.0
 11
-27.4479232876
 21
-15.2449339421
 31
0.0
  0
LINE
  5
29D
330
1F
100
AcDbEntity
  8
0
  6
HIDDEN
 62
     7
370
    18
100
AcDbLine
 10
-31.1111785703
 20
-15.2175109917
 30
0.0
 11
-27.7848275051
 21
-16.0633805486
 31
0.0
  0
LINE
  5
29E
330
1F
100
AcDbEntity
  8
0
  6
HIDDEN
 62
     7
370
    18
100
AcDbLine
 10
-27.7848275051
 20
-16.0633805486
 30
0.0
 11
-26.9173092362
 21
-17.6621762063
 31
0.0
  0
LINE
  5
29F
330
1F
100
AcDbEntity
  8
0
  6
HIDDEN
 62
     7
370
    18
100
AcDbLine
 10
28.5699869037
 20
2.7647395342
 30
0.0
 11
27.7582176766
 21
3.1767494081
 31
0.0
  0
LINE
  5
2A0
330
1F
100
AcDbEntity
  8
0
  6
HIDDEN
 62
     7
370
    18
100
AcDbLine
 10
30.5470983396
 20
5.6223519182
 30
0.0
 11
28.5699869037
 21
2.7647395342
 31
0.0
  0
LINE
  5
2A1
330
1F
100
AcDbEntity
  8
0
  6
HIDDEN
 62
     7
370
    18
100
AcDbLine
 10
-30.226699482
 20
-16.8175049951
 30
0.0
 11
-29.8765336654
 21
-15.9705045594
 31
0.0
  0
LINE
  5
2A2
330
1F
100
AcDbEntity
  8
0
  6
HIDDEN
 62
     7
370
    18
100
AcDbLine
 10
-30.226699482
 20
-16.8175049951
 30
0.0
 11
-31.1111785703
 21
-15.2175109917
 31
0.0
  0
LINE
  5
2A3
330
1F
100
AcDbEntity
  8
0
  6
HIDDEN
 62
     7
370
    18
100
AcDbLine
 10
-31.1111785703
 20
-15.2175109917
 30
0.0
 11
-30.758381685
 21
-14.3668066931
 31
0.0
  0
LINE
  5
2A4
330
1F
100
AcDbEntity
  8
0
  6
HIDDEN
 62
     7
370
    18
100
AcDbLine
 10
-26.9173092362
 20
-17.6621762063
 30
0.0
 11
-30.226699482
 21
-16.8175049951
 31
0.0
  0
LINE
  5
2A5
330
1F
100
AcDbEntity
  8
0
  6
HIDDEN
 62
     7
370
    18
100
AcDbLine
 10
-26.9173092362
 20
-17.6621762063
 30
0.0
 11
-26.5829144467
 21
-16.8473052809
 31
0.0
  0
LINE
  5
2A6
330
1F
100
AcDbEntity
  8
0
  6
HIDDEN
 62
     7
370
    18
100
AcDbLine
 10
35.2652839234
 20
18.1149959669
 30
0.0
 11
36.1196042949
 21
21.259022972
 31
0.0
  0
LINE
  5
2A7
330
1F
100
AcDbEntity
  8
0
  6
HIDDEN
 62
     7
370
    18
100
AcDbLine
 10
35.7694562259
 20
16.3350526982
 30
0.0
 11
35.2652839234
 21
18.1149959669
 31
0.0
  0
LINE
  5
2A8
330
1F
100
AcDbEntity
  8
0
  6
HIDDEN
 62
     7
370
    18
100
AcDbLine
 10
35.2652839234
 20
18.1149959669
 30
0.0
 11
34.3277046009
 21
18.2490858992
 31
0.0
  0
LINE
  5
2A9
330
1F
100
AcDbEntity
  8
0
  6
HIDDEN
 62
     7
370
    18
100
AcDbLine
 10
36.6175346833
 20
19.4663627802
 30
0.0
 11
35.7251115639
 21
19.5932022411
 31
0.0
  0
LINE
  5
2AA
330
1F
100
AcDbEntity
  8
0
  6
HIDDEN
 62
     7
370
    18
100
AcDbLine
 10
36.1196042949
 20
21.259022972
 30
0.0
 11
36.6175346833
 21
19.4663627802
 31
0.0
  0
LINE
  5
2AB
330
1F
100
AcDbEntity
  8
0
  6
HIDDEN
 62
     7
370
    18
100
AcDbLine
 10
36.1196042949
 20
21.259022972
 30
0.0
 11
35.2223773108
 21
21.38565698
 31
0.0
  0
LINE
  5
2AC
330
1F
100
AcDbEntity
  8
0
  6
HIDDEN
 62
     7
370
    18
100
AcDbLine
 10
-41.7331057986
 20
-10.3039392066
 30
0.0
 11
-41.1395244354
 21
-9.6106229053
 31
0.0
  0
LINE
  5
2AD
330
1F
100
AcDbEntity
  8
0
  6
HIDDEN
 62
     7
370
    18
100
AcDbLine
 10
-44.374816563
 20
-8.5020777584
 30
0.0
 11
-41.7331057986
 21
-10.3039392066
 31
0.0
  0
LINE
  5
2AE
330
1F
100
AcDbEntity
  8
0
  6
HIDDEN
 62
     7
370
    18
100
AcDbLine
 10
-41.7331057986
 20
-10.3039392066
 30
0.0
 11
-40.7971473291
 21
-11.9164778633
 31
0.0
  0
LINE
  5
2AF
330
1F
100
AcDbEntity
  8
0
  6
HIDDEN
 62
     7
370
    18
100
AcDbLine
 10
35.7694562259
 20
16.3350526982
 30
0.0
 11
34.8369081763
 21
16.4693389122
 31
0.0
  0
LINE
  5
2B0
330
1F
100
AcDbEntity
  8
0
  6
HIDDEN
 62
     7
370
    18
100
AcDbLine
 10
36.6175346833
 20
19.4663627802
 30
0.0
 11
35.7694562259
 21
16.3350526982
 31
0.0
  0
LINE
  5
2B1
330
1F
100
AcDbEntity
  8
0
  6
HIDDEN
 62
     7
370
    18
100
AcDbLine
 10
-43.426793652
 20
-10.1199559611
 30
0.0
 11
-42.8124850018
 21
-9.40344298
 31
0.0
  0
LINE
  5
2B2
330
1F
100
AcDbEntity
  8
0
  6
HIDDEN
 62
     7
370
    18
100
AcDbLine
 10
-43.426793652
 20
-10.1199559611
 30
0.0
 11
-44.374816563
 21
-8.5020777584
 31
0.0
  0
LINE
  5
2B3
330
1F
100
AcDbEntity
  8
0
  6
HIDDEN
 62
     7
370
    18
100
AcDbLine
 10
-44.374816563
 20
-8.5020777584
 30
0.0
 11
-43.7565922308
 21
-7.7822811619
 31
0.0
  0
LINE
  5
2B4
330
1F
100
AcDbEntity
  8
0
  6
HIDDEN
 62
     7
370
    18
100
AcDbLine
 10
-40.7971473291
 20
-11.9164778633
 30
0.0
 11
-43.426793652
 21
-10.1199559611
 31
0.0
  0
LINE
  5
2B5
330
1F
100
AcDbEntity
  8
0
  6
HIDDEN
 62
     7
370
    18
100
AcDbLine
 10
-40.7971473291
 20
-11.9164778633
 30
0.0
 11
-40.2073309547
 21
-11.226339309
 31
0.0
  0
LINE
  5
2B6
330
1F
100
AcDbEntity
  8
0
  6
HIDDEN
 62
     7
370
    18
100
AcDbLine
 10
37.9186477952
 20
48.866460992
 30
0.0
 11
40.0126362433
 21
40.5021433915
 31
0.0
  0
LINE
  5
2B7
330
1F
100
AcDbEntity
  8
0
  6
HIDDEN
 62
     7
370
    18
100
AcDbLine
 10
37.2022057651
 20
32.3746305976
 30
0.0
 11
36.2540044718
 21
32.2280355702
 31
0.0
  0
LINE
  5
2B8
330
1F
100
AcDbEntity
  8
0
  6
HIDDEN
 62
     7
370
    18
100
AcDbLine
 10
37.6887013292
 20
30.5393560104
 30
0.0
 11
37.2022057651
 21
32.3746305976
 31
0.0
  0
LINE
  5
2B9
330
1F
100
AcDbEntity
  8
0
  6
HIDDEN
 62
     7
370
    18
100
AcDbLine
 10
37.2022057651
 20
32.3746305976
 30
0.0
 11
36.8644937835
 21
35.4205720971
 31
0.0
  0
LINE
  5
2BA
330
1F
100
AcDbEntity
  8
0
  6
HIDDEN
 62
     7
370
    18
100
AcDbLine
 10
37.3512742817
 20
33.5743665447
 30
0.0
 11
36.449758827
 21
33.4346968199
 31
0.0
  0
LINE
  5
2BB
330
1F
100
AcDbEntity
  8
0
  6
HIDDEN
 62
     7
370
    18
100
AcDbLine
 10
36.8644937835
 20
35.4205720971
 30
0.0
 11
37.3512742817
 21
33.5743665447
 31
0.0
  0
LINE
  5
2BC
330
1F
100
AcDbEntity
  8
0
  6
HIDDEN
 62
     7
370
    18
100
AcDbLine
 10
36.8644937835
 20
35.4205720971
 30
0.0
 11
35.958058721
 21
35.2796598743
 31
0.0
  0
LINE
  5
2BD
330
1F
100
AcDbEntity
  8
0
  6
HIDDEN
 62
     7
370
    18
100
AcDbLine
 10
-51.9947269814
 20
-0.6248702723
 30
0.0
 11
-51.2234681745
 21
-0.1273288508
 31
0.0
  0
LINE
  5
2BE
330
1F
100
AcDbEntity
  8
0
  6
HIDDEN
 62
     7
370
    18
100
AcDbLine
 10
-51.9947269814
 20
-0.6248702723
 30
0.0
 11
-51.0151097469
 21
-2.2681914565
 31
0.0
  0
LINE
  5
2BF
330
1F
100
AcDbEntity
  8
0
  6
HIDDEN
 62
     7
370
    18
100
AcDbLine
 10
-53.678349947
 20
1.8908061278
 30
0.0
 11
-51.9947269814
 21
-0.6248702723
 31
0.0
  0
LINE
  5
2C0
330
1F
100
AcDbEntity
  8
0
  6
HIDDEN
 62
     7
370
    18
100
AcDbLine
 10
37.3512742817
 20
33.5743665447
 30
0.0
 11
37.6887013292
 21
30.5393560104
 31
0.0
  0
LINE
  5
2C1
330
1F
100
AcDbEntity
  8
0
  6
HIDDEN
 62
     7
370
    18
100
AcDbLine
 10
37.6887013292
 20
30.5393560104
 30
0.0
 11
36.7456636825
 21
30.3940560015
 31
0.0
  0
LINE
  5
2C2
330
1F
100
AcDbEntity
  8
0
  6
HIDDEN
 62
     7
370
    18
100
AcDbLine
 10
-42.6452698568
 20
-22.9832545837
 30
0.0
 11
-43.1534923719
 21
-22.1249208083
 31
0.0
  0
LINE
  5
2C3
330
1F
100
AcDbEntity
  8
0
  6
HIDDEN
 62
     7
370
    18
100
AcDbLine
 10
-47.4488292987
 20
-15.0904142377
 30
0.0
 11
-43.1534923719
 21
-22.1249208083
 31
0.0
  0
LINE
  5
2C4
330
1F
100
AcDbEntity
  8
0
  6
HIDDEN
 62
     7
370
    18
100
AcDbLine
 10
-52.6926742248
 20
0.2390302057
 30
0.0
 11
-51.895604745
 21
0.7529790822
 31
0.0
  0
LINE
  5
2C5
330
1F
100
AcDbEntity
  8
0
  6
HIDDEN
 62
     7
370
    18
100
AcDbLine
 10
-52.6926742248
 20
0.2390302057
 30
0.0
 11
-53.678349947
 21
1.8908061278
 31
0.0
  0
LINE
  5
2C6
330
1F
100
AcDbEntity
  8
0
  6
HIDDEN
 62
     7
370
    18
100
AcDbLine
 10
-53.678349947
 20
1.8908061278
 30
0.0
 11
-52.8766610301
 21
2.4073081451
 31
0.0
  0
LINE
  5
2C7
330
1F
100
AcDbEntity
  8
0
  6
HIDDEN
 62
     7
370
    18
100
AcDbLine
 10
-51.0151097469
 20
-2.2681914565
 30
0.0
 11
-52.6926742248
 21
0.2390302057
 31
0.0
  0
LINE
  5
2C8
330
1F
100
AcDbEntity
  8
0
  6
HIDDEN
 62
     7
370
    18
100
AcDbLine
 10
-51.0151097469
 20
-2.2681914565
 30
0.0
 11
-50.2483083112
 21
-1.7731204463
 31
0.0
  0
LINE
  5
2C9
330
1F
100
AcDbEntity
  8
0
  6
HIDDEN
 62
     7
370
    18
100
AcDbLine
 10
33.8175877222
 20
45.6258732294
 30
0.0
 11
32.9627378286
 21
45.2303335492
 31
0.0
  0
LINE
  5
2CA
330
1F
100
AcDbEntity
  8
0
  6
HIDDEN
 62
     7
370
    18
100
AcDbLine
 10
32.8798814037
 20
46.3535592719
 30
0.0
 11
34.3153500134
 21
43.7454409533
 31
0.0
  0
LINE
  5
2CB
330
1F
100
AcDbEntity
  8
0
  6
HIDDEN
 62
     7
370
    18
100
AcDbLine
 10
32.3758957331
 20
48.2419981028
 30
0.0
 11
32.8798814037
 21
46.3535592719
 31
0.0
  0
LINE
  5
2CC
330
1F
100
AcDbEntity
  8
0
  6
HIDDEN
 62
     7
370
    18
100
AcDbLine
 10
34.3153500134
 20
43.7454409533
 30
0.0
 11
33.8175877222
 21
45.6258732294
 31
0.0
  0
LINE
  5
2CD
330
1F
100
AcDbEntity
  8
0
  6
HIDDEN
 62
     7
370
    18
100
AcDbLine
 10
33.8175877222
 20
45.6258732294
 30
0.0
 11
32.3758957331
 21
48.2419981028
 31
0.0
  0
LINE
  5
2CE
330
1F
100
AcDbEntity
  8
0
  6
HIDDEN
 62
     7
370
    18
100
AcDbLine
 10
-61.6191325839
 20
13.8992333152
 30
0.0
 11
-52.8980257477
 21
-0.6545373743
 31
0.0
  0
LINE
  5
2CF
330
1F
100
AcDbEntity
  8
0
  6
HIDDEN
 62
     7
370
    18
100
AcDbLine
 10
32.3758957331
 20
48.2419981028
 30
0.0
 11
31.5586559681
 21
47.8639766261
 31
0.0
  0
LINE
  5
2D0
330
1F
100
AcDbEntity
  8
0
  6
HIDDEN
 62
     7
370
    18
100
AcDbLine
 10
9.6719725156
 20
-25.86403555
 30
0.0
 11
9.6551559569
 21
-27.0680213796
 31
0.0
  0
LINE
  5
2D1
330
1F
100
AcDbEntity
  8
0
  6
HIDDEN
 62
     7
370
    18
100
AcDbLine
 10
8.1096108617
 20
-25.962963097
 30
0.0
 11
9.6719725156
 21
-25.86403555
 31
0.0
  0
LINE
  5
2D2
330
1F
100
AcDbEntity
  8
0
  6
HIDDEN
 62
     7
370
    18
100
AcDbLine
 10
14.8363244113
 20
-24.7352029991
 30
0.0
 11
10.5360563432
 21
-25.0087077352
 31
0.0
  0
LINE
  5
2D3
330
1F
100
AcDbEntity
  8
0
  6
HIDDEN
 62
     7
370
    18
100
AcDbLine
 10
-57.573724816
 20
11.7325998797
 30
0.0
 11
-56.7182298599
 21
11.9919171841
 31
0.0
  0
LINE
  5
2D4
330
1F
100
AcDbEntity
  8
0
  6
HIDDEN
 62
     7
370
    18
100
AcDbLine
 10
-57.1626556357
 20
12.960822546
 30
0.0
 11
-58.1577897215
 21
14.6571232134
 31
0.0
  0
LINE
  5
2D5
330
1F
100
AcDbEntity
  8
0
  6
HIDDEN
 62
     7
370
    18
100
AcDbLine
 10
-56.5784665324
 20
10.0466385104
 30
0.0
 11
-57.1626556357
 21
12.960822546
 31
0.0
  0
LINE
  5
2D6
330
1F
100
AcDbEntity
  8
0
  6
HIDDEN
 62
     7
370
    18
100
AcDbLine
 10
-57.573724816
 20
11.7325998797
 30
0.0
 11
-56.5784665324
 21
10.0466385104
 31
0.0
  0
LINE
  5
2D7
330
1F
100
AcDbEntity
  8
0
  6
HIDDEN
 62
     7
370
    18
100
AcDbLine
 10
-58.1577897215
 20
14.6571232134
 30
0.0
 11
-57.573724816
 21
11.7325998797
 31
0.0
  0
LINE
  5
2D8
330
1F
100
AcDbEntity
  8
0
  6
HIDDEN
 62
     7
370
    18
100
AcDbLine
 10
34.3153500134
 20
43.7454409533
 30
0.0
 11
33.4652171926
 21
43.3520063029
 31
0.0
  0
LINE
  5
2D9
330
1F
100
AcDbEntity
  8
0
  6
HIDDEN
 62
     7
370
    18
100
AcDbLine
 10
10.5360563432
 20
-25.0087077352
 30
0.0
 11
13.5759342468
 21
-32.2580195155
 31
0.0
  0
LINE
  5
2DA
330
1F
100
AcDbEntity
  8
0
  6
HIDDEN
 62
     7
370
    18
100
AcDbLine
 10
11.2140766565
 20
-33.1863191547
 30
0.0
 11
12.736367273
 21
-33.0939142287
 31
0.0
  0
LINE
  5
2DB
330
1F
100
AcDbEntity
  8
0
  6
HIDDEN
 62
     7
370
    18
100
AcDbLine
 10
11.2140766565
 20
-33.1863191547
 30
0.0
 11
8.1096108617
 21
-25.962963097
 31
0.0
  0
LINE
  5
2DC
330
1F
100
AcDbEntity
  8
0
  6
HIDDEN
 62
     7
370
    18
100
AcDbLine
 10
9.6719725156
 20
-25.86403555
 30
0.0
 11
12.736367273
 21
-33.0939142287
 31
0.0
  0
LINE
  5
2DD
330
1F
100
AcDbEntity
  8
0
  6
HIDDEN
 62
     7
370
    18
100
AcDbLine
 10
-58.1577897215
 20
14.6571232134
 30
0.0
 11
-57.2689382973
 21
14.926895551
 31
0.0
  0
LINE
  5
2DE
330
1F
100
AcDbEntity
  8
0
  6
HIDDEN
 62
     7
370
    18
100
AcDbLine
 10
-56.5784665324
 20
10.0466385104
 30
0.0
 11
-55.7275458605
 21
10.3043582351
 31
0.0
  0
LINE
  5
2DF
330
1F
100
AcDbEntity
  8
0
  6
HIDDEN
 62
     7
370
    18
100
AcDbLine
 10
-57.0765030866
 20
13.2848689133
 30
0.0
 11
-63.9986594791
 21
25.1023065939
 31
0.0
  0
LINE
  5
2E0
330
1F
100
AcDbEntity
  8
0
  6
HIDDEN
 62
     7
370
    18
100
AcDbLine
 10
25.7083432372
 20
56.4751598012
 30
0.0
 11
25.0319354965
 21
55.887088702
 31
0.0
  0
LINE
  5
2E1
330
1F
100
AcDbEntity
  8
0
  6
HIDDEN
 62
     7
370
    18
100
AcDbLine
 10
26.2426043816
 20
54.5639741775
 30
0.0
 11
25.7083432372
 21
56.4751598012
 31
0.0
  0
LINE
  5
2E2
330
1F
100
AcDbEntity
  8
0
  6
HIDDEN
 62
     7
370
    18
100
AcDbLine
 10
25.7083432372
 20
56.4751598012
 30
0.0
 11
23.3633192585
 21
58.4044176276
 31
0.0
  0
LINE
  5
2E3
330
1F
100
AcDbEntity
  8
0
  6
HIDDEN
 62
     7
370
    18
100
AcDbLine
 10
-50.8986025394
 20
5.2124294835
 30
0.0
 11
-28.8722385725
 21
37.8440971441
 31
0.0
  0
LINE
  5
2E4
330
1F
100
AcDbEntity
  8
0
  6
HIDDEN
 62
     7
370
    18
100
AcDbLine
 10
50.7605343792
 20
12.9297066464
 30
0.0
 11
29.082476201
 21
42.8857836504
 31
0.0
  0
LINE
  5
2E5
330
1F
100
AcDbEntity
  8
0
  6
HIDDEN
 62
     7
370
    18
100
AcDbLine
 10
-21.3275925275
 20
-29.0166680935
 30
0.0
 11
-21.274851782
 21
-27.8235648347
 31
0.0
  0
LINE
  5
2E6
330
1F
100
AcDbEntity
  8
0
  6
HIDDEN
 62
     7
370
    18
100
AcDbLine
 10
-22.0736352404
 20
-27.0827424111
 30
0.0
 11
-26.2628509867
 21
-27.349184021
 31
0.0
  0
LINE
  5
2E7
330
1F
100
AcDbEntity
  8
0
  6
HIDDEN
 62
     7
370
    18
100
AcDbLine
 10
-21.274851782
 20
-27.8235648347
 30
0.0
 11
-19.7447626657
 21
-27.7266807602
 31
0.0
  0
LINE
  5
2E8
330
1F
100
AcDbEntity
  8
0
  6
HIDDEN
 62
     7
370
    18
100
AcDbLine
 10
-21.274851782
 20
-27.8235648347
 30
0.0
 11
-17.4250997598
 21
-34.9247526381
 31
0.0
  0
LINE
  5
2E9
330
1F
100
AcDbEntity
  8
0
  6
HIDDEN
 62
     7
370
    18
100
AcDbLine
 10
-17.4720719844
 20
-36.0943516186
 30
0.0
 11
-17.4250997598
 21
-34.9247526381
 31
0.0
  0
LINE
  5
2EA
330
1F
100
AcDbEntity
  8
0
  6
HIDDEN
 62
     7
370
    18
100
AcDbLine
 10
-63.6624497947
 20
28.8099869634
 30
0.0
 11
-57.3741298214
 21
17.9314451287
 31
0.0
  0
LINE
  5
2EB
330
1F
100
AcDbEntity
  8
0
  6
HIDDEN
 62
     7
370
    18
100
AcDbLine
 10
-55.0212314755
 20
32.3454942628
 30
0.0
 11
-59.3226337919
 21
40.2299425898
 31
0.0
  0
LINE
  5
2EC
330
1F
100
AcDbEntity
  8
0
  6
HIDDEN
 62
     7
370
    18
100
AcDbLine
 10
-17.4250997598
 20
-34.9247526381
 30
0.0
 11
-15.9334268524
 21
-34.8342062449
 31
0.0
  0
LINE
  5
2ED
330
1F
100
AcDbEntity
  8
0
  6
HIDDEN
 62
     7
370
    18
100
AcDbLine
 10
-19.7447626657
 20
-27.7266807602
 30
0.0
 11
-15.9334268524
 21
-34.8342062449
 31
0.0
  0
LINE
  5
2EE
330
1F
100
AcDbEntity
  8
0
  6
HIDDEN
 62
     7
370
    18
100
AcDbLine
 10
23.3633192585
 20
58.4044176276
 30
0.0
 11
22.7158176145
 21
57.8427017667
 31
0.0
  0
LINE
  5
2EF
330
1F
100
AcDbEntity
  8
0
  6
HIDDEN
 62
     7
370
    18
100
AcDbLine
 10
-18.2068172506
 20
-34.1960668079
 30
0.0
 11
-22.0736352404
 21
-27.0827424111
 31
0.0
  0
LINE
  5
2F0
330
1F
100
AcDbEntity
  8
0
  6
HIDDEN
 62
     7
370
    18
100
AcDbLine
 10
-58.077144911
 20
25.330281809
 30
0.0
 11
-57.2319921352
 21
25.337942133
 31
0.0
  0
LINE
  5
2F1
330
1F
100
AcDbEntity
  8
0
  6
HIDDEN
 62
     7
370
    18
100
AcDbLine
 10
-58.077144911
 20
25.330281809
 30
0.0
 11
-57.0935830777
 21
23.5954305333
 31
0.0
  0
LINE
  5
2F2
330
1F
100
AcDbEntity
  8
0
  6
HIDDEN
 62
     7
370
    18
100
AcDbLine
 10
-57.5485414673
 20
28.3413529208
 30
0.0
 11
-58.077144911
 21
25.330281809
 31
0.0
  0
LINE
  5
2F3
330
1F
100
AcDbEntity
  8
0
  6
HIDDEN
 62
     7
370
    18
100
AcDbLine
 10
-18.2068172506
 20
-34.1960668079
 30
0.0
 11
-22.2912162454
 21
-34.4451251191
 31
0.0
  0
LINE
  5
2F4
330
1F
100
AcDbEntity
  8
0
  6
HIDDEN
 62
     7
370
    18
100
AcDbLine
 10
17.7656952404
 20
-32.0025364447
 30
0.0
 11
13.5759342468
 21
-32.2580195155
 31
0.0
  0
LINE
  5
2F5
330
1F
100
AcDbEntity
  8
0
  6
HIDDEN
 62
     7
370
    18
100
AcDbLine
 10
12.736367273
 20
-33.0939142287
 30
0.0
 11
12.7235188118
 21
-34.2739994971
 31
0.0
  0
LINE
  5
2F6
330
1F
100
AcDbEntity
  8
0
  6
HIDDEN
 62
     7
370
    18
100
AcDbLine
 10
26.2426043816
 20
54.5639741775
 30
0.0
 11
25.5700317345
 21
53.9784749738
 31
0.0
  0
LINE
  5
2F7
330
1F
100
AcDbEntity
  8
0
  6
HIDDEN
 62
     7
370
    18
100
AcDbLine
 10
-57.5485414673
 20
28.3413529208
 30
0.0
 11
-56.6698403896
 21
28.3504824759
 31
0.0
  0
LINE
  5
2F8
330
1F
100
AcDbEntity
  8
0
  6
HIDDEN
 62
     7
370
    18
100
AcDbLine
 10
-57.0935830777
 20
23.5954305333
 30
0.0
 11
-56.2526231827
 21
23.6024061738
 31
0.0
  0
LINE
  5
2F9
330
1F
100
AcDbEntity
  8
0
  6
HIDDEN
 62
     7
370
    18
100
AcDbLine
 10
26.7067250751
 20
43.8485193271
 30
0.0
 11
29.082476201
 21
42.8857836504
 31
0.0
  0
LINE
  5
2FA
330
1F
100
AcDbEntity
  8
0
  6
HIDDEN
 62
     7
370
    18
100
AcDbLine
 10
29.082476201
 20
42.8857836504
 30
0.0
 11
20.9984095347
 21
71.6756303567
 31
0.0
  0
LINE
  5
2FB
330
1F
100
AcDbEntity
  8
0
  6
HIDDEN
 62
     7
370
    18
100
AcDbLine
 10
13.9181671441
 20
63.8986692914
 30
0.0
 11
13.4802249615
 21
63.1891643644
 31
0.0
  0
LINE
  5
2FC
330
1F
100
AcDbEntity
  8
0
  6
HIDDEN
 62
     7
370
    18
100
AcDbLine
 10
18.4396234739
 20
72.6555651374
 30
0.0
 11
26.7067250751
 21
43.8485193271
 31
0.0
  0
LINE
  5
2FD
330
1F
100
AcDbEntity
  8
0
  6
HIDDEN
 62
     7
370
    18
100
AcDbLine
 10
26.7067250751
 20
43.8485193271
 30
0.0
 11
-26.5307053547
 21
39.1953594262
 31
0.0
  0
LINE
  5
2FE
330
1F
100
AcDbEntity
  8
0
  6
HIDDEN
 62
     7
370
    18
100
AcDbLine
 10
14.5084158399
 20
61.9729049187
 30
0.0
 11
13.9181671441
 21
63.8986692914
 31
0.0
  0
LINE
  5
2FF
330
1F
100
AcDbEntity
  8
0
  6
HIDDEN
 62
     7
370
    18
100
AcDbLine
 10
13.9181671441
 20
63.8986692914
 30
0.0
 11
10.9437241143
 21
64.9739604398
 31
0.0
  0
LINE
  5
300
330
1F
100
AcDbEntity
  8
0
  6
HIDDEN
 62
     7
370
    18
100
AcDbLine
 10
10.9437241143
 20
64.9739604398
 30
0.0
 11
10.5231085112
 21
64.2957206401
 31
0.0
  0
LINE
  5
301
330
1F
100
AcDbEntity
  8
0
  6
HIDDEN
 62
     7
370
    18
100
AcDbLine
 10
-53.6644230308
 20
38.7233372408
 30
0.0
 11
-52.9154560886
 21
38.491665976
 31
0.0
  0
LINE
  5
302
330
1F
100
AcDbEntity
  8
0
  6
HIDDEN
 62
     7
370
    18
100
AcDbLine
 10
-53.6644230308
 20
38.7233372408
 30
0.0
 11
-52.7164264094
 21
36.9384630754
 31
0.0
  0
LINE
  5
303
330
1F
100
AcDbEntity
  8
0
  6
HIDDEN
 62
     7
370
    18
100
AcDbLine
 10
-52.1190085338
 20
41.5165489348
 30
0.0
 11
-53.6644230308
 21
38.7233372408
 31
0.0
  0
LINE
  5
304
330
1F
100
AcDbEntity
  8
0
  6
HIDDEN
 62
     7
370
    18
100
AcDbLine
 10
14.5084158399
 20
61.9729049187
 30
0.0
 11
14.0731477053
 21
61.266108301
 31
0.0
  0
LINE
  5
305
330
1F
100
AcDbEntity
  8
0
  6
HIDDEN
 62
     7
370
    18
100
AcDbLine
 10
-52.1190085338
 20
41.5165489348
 30
0.0
 11
-51.3390153137
 21
41.2772977187
 31
0.0
  0
LINE
  5
306
330
1F
100
AcDbEntity
  8
0
  6
HIDDEN
 62
     7
370
    18
100
AcDbLine
 10
-52.7164264094
 20
36.9384630754
 30
0.0
 11
-51.9708907156
 21
36.7069736031
 31
0.0
  0
LINE
  5
307
330
1F
100
AcDbEntity
  8
0
  6
HIDDEN
 62
     7
370
    18
100
AcDbLine
 10
-43.1534923719
 20
-22.1249208083
 30
0.0
 11
-48.8665941062
 21
-12.1686586382
 31
0.0
  0
LINE
  5
308
330
1F
100
AcDbEntity
  8
0
  6
HIDDEN
 62
     7
370
    18
100
AcDbLine
 10
-0.2375219461
 20
67.2851449518
 30
0.0
 11
-0.4035484182
 21
66.5312097367
 31
0.0
  0
LINE
  5
309
330
1F
100
AcDbEntity
  8
0
  6
HIDDEN
 62
     7
370
    18
100
AcDbLine
 10
0.4216821693
 20
65.3608018816
 30
0.0
 11
-0.2375219461
 21
67.2851449518
 31
0.0
  0
LINE
  5
30A
330
1F
100
AcDbEntity
  8
0
  6
HIDDEN
 62
     7
370
    18
100
AcDbLine
 10
-0.2375219461
 20
67.2851449518
 30
0.0
 11
-3.530159697
 21
67.429983779
 31
0.0
  0
LINE
  5
30B
330
1F
100
AcDbEntity
  8
0
  6
HIDDEN
 62
     7
370
    18
100
AcDbLine
 10
-54.9216282427
 20
-2.2313164486
 30
0.0
 11
-48.8665941062
 21
-12.1686586382
 31
0.0
  0
LINE
  5
30C
330
1F
100
AcDbEntity
  8
0
  6
HIDDEN
 62
     7
370
    18
100
AcDbLine
 10
-3.530159697
 20
67.429983779
 30
0.0
 11
-3.6914903726
 21
66.7081515686
 31
0.0
  0
LINE
  5
30D
330
1F
100
AcDbEntity
  8
0
  6
HIDDEN
 62
     7
370
    18
100
AcDbLine
 10
-44.9448502124
 20
50.5973055799
 30
0.0
 11
-44.0512446088
 21
48.7655320515
 31
0.0
  0
LINE
  5
30E
330
1F
100
AcDbEntity
  8
0
  6
HIDDEN
 62
     7
370
    18
100
AcDbLine
 10
-42.5626693274
 20
52.908888546
 30
0.0
 11
-44.9448502124
 21
50.5973055799
 31
0.0
  0
LINE
  5
30F
330
1F
100
AcDbEntity
  8
0
  6
HIDDEN
 62
     7
370
    18
100
AcDbLine
 10
-44.9448502124
 20
50.5973055799
 30
0.0
 11
-44.3631685865
 21
50.159365045
 31
0.0
  0
LINE
  5
310
330
1F
100
AcDbEntity
  8
0
  6
HIDDEN
 62
     7
370
    18
100
AcDbLine
 10
-42.5626693274
 20
52.908888546
 30
0.0
 11
-41.9552355996
 21
52.4547498973
 31
0.0
  0
LINE
  5
311
330
1F
100
AcDbEntity
  8
0
  6
HIDDEN
 62
     7
370
    18
100
AcDbLine
 10
0.4216821693
 20
65.3608018816
 30
0.0
 11
0.2570235368
 21
64.6094305604
 31
0.0
  0
LINE
  5
312
330
1F
100
AcDbEntity
  8
0
  6
HIDDEN
 62
     7
370
    18
100
AcDbLine
 10
-15.3214937595
 20
66.424299615
 30
0.0
 11
-15.2075079529
 21
65.702249512
 31
0.0
  0
LINE
  5
313
330
1F
100
AcDbEntity
  8
0
  6
HIDDEN
 62
     7
370
    18
100
AcDbLine
 10
-14.5869028074
 20
64.5159547093
 30
0.0
 11
-15.3214937595
 21
66.424299615
 31
0.0
  0
LINE
  5
314
330
1F
100
AcDbEntity
  8
0
  6
HIDDEN
 62
     7
370
    18
100
AcDbLine
 10
-15.3214937595
 20
66.424299615
 30
0.0
 11
-18.6116773119
 21
65.6458619876
 31
0.0
  0
LINE
  5
315
330
1F
100
AcDbEntity
  8
0
  6
HIDDEN
 62
     7
370
    18
100
AcDbLine
 10
-18.6116773119
 20
65.6458619876
 30
0.0
 11
-18.5050837471
 21
64.9531351882
 31
0.0
  0
LINE
  5
316
330
1F
100
AcDbEntity
  8
0
  6
HIDDEN
 62
     7
370
    18
100
AcDbLine
 10
-32.8652342058
 20
59.8515963508
 30
0.0
 11
-32.0391338771
 21
57.9794931588
 31
0.0
  0
LINE
  5
317
330
1F
100
AcDbEntity
  8
0
  6
HIDDEN
 62
     7
370
    18
100
AcDbLine
 10
-29.8873932648
 20
61.4712661447
 30
0.0
 11
-32.8652342058
 21
59.8515963508
 31
0.0
  0
LINE
  5
318
330
1F
100
AcDbEntity
  8
0
  6
HIDDEN
 62
     7
370
    18
100
AcDbLine
 10
-32.8652342058
 20
59.8515963508
 30
0.0
 11
-32.5041240301
 21
59.2561507341
 31
0.0
  0
LINE
  5
319
330
1F
100
AcDbEntity
  8
0
  6
HIDDEN
 62
     7
370
    18
100
AcDbLine
 10
-44.0512446088
 20
48.7655320515
 30
0.0
 11
-43.4719715453
 21
48.3285442921
 31
0.0
  0
LINE
  5
31A
330
1F
100
AcDbEntity
  8
0
  6
HIDDEN
 62
     7
370
    18
100
AcDbLine
 10
-29.8873932648
 20
61.4712661447
 30
0.0
 11
-29.5085095642
 21
60.8520985743
 31
0.0
  0
LINE
  5
31B
330
1F
100
AcDbEntity
  8
0
  6
HIDDEN
 62
     7
370
    18
100
AcDbLine
 10
-26.5307053547
 20
39.1953594262
 30
0.0
 11
-39.0454792608
 21
67.0337258681
 31
0.0
  0
LINE
  5
31C
330
1F
100
AcDbEntity
  8
0
  6
HIDDEN
 62
     7
370
    18
100
AcDbLine
 10
-28.8722385725
 20
37.8440971441
 30
0.0
 11
-26.5307053547
 21
39.1953594262
 31
0.0
  0
LINE
  5
31D
330
1F
100
AcDbEntity
  8
0
  6
HIDDEN
 62
     7
370
    18
100
AcDbLine
 10
-41.5865603246
 20
65.5821135032
 30
0.0
 11
-28.8722385725
 21
37.8440971441
 31
0.0
  0
LINE
  5
31E
330
1F
100
AcDbEntity
  8
0
  6
HIDDEN
 62
     7
370
    18
100
AcDbLine
 10
-14.5869028074
 20
64.5159547093
 30
0.0
 11
-14.4728996983
 21
63.7961012414
 31
0.0
  0
LINE
  5
31F
330
1F
100
AcDbEntity
  8
0
  6
HIDDEN
 62
     7
370
    18
100
AcDbLine
 10
-32.0391338771
 20
57.9794931588
 30
0.0
 11
-31.6792479357
 21
57.3856499068
 31
0.0
  0
LINE
  5
320
330
1F
100
AcDbEntity
  8
0
  6
HIDDEN
 62
     7
370
    18
100
AcDbLine
 10
-59.5085386328
 20
13.0927347639
 30
0.0
 11
-51.4419365736
 21
-0.4879272321
 31
0.0
  0
LINE
  5
321
330
1F
100
AcDbEntity
  8
0
  6
HIDDEN
 62
     7
370
    18
100
AcDbLine
 10
-51.1766614
 20
3.0149499682
 30
0.0
 11
-51.4419365736
 21
-0.4879272321
 31
0.0
  0
LINE
  5
322
330
1F
100
AcDbEntity
  8
0
  6
HIDDEN
 62
     7
370
    18
100
AcDbLine
 10
-59.8049177208
 20
17.7353048485
 30
0.0
 11
-51.1766614
 21
3.0149499682
 31
0.0
  0
LINE
  5
323
330
1F
100
AcDbEntity
  8
0
  6
HIDDEN
 62
     7
370
    18
100
AcDbLine
 10
-59.8734130351
 20
20.6608365885
 30
0.0
 11
-50.8986025394
 21
5.2124294835
 31
0.0
  0
LINE
  5
324
330
1F
100
AcDbEntity
  8
0
  6
HIDDEN
 62
     7
370
    18
100
AcDbLine
 10
41.7000569911
 20
14.6308008731
 30
0.0
 11
34.6420586141
 21
41.1904243563
 31
0.0
  0
LINE
  5
325
330
1F
100
AcDbEntity
  8
0
  6
HIDDEN
 62
     7
370
    18
100
AcDbLine
 10
-51.8701230233
 20
0.7099380436
 30
0.0
 11
-39.8274174855
 21
-19.5973503879
 31
0.0
  0
LINE
  5
326
330
1F
100
AcDbEntity
  8
0
  6
HIDDEN
 62
     7
370
    18
100
AcDbLine
 10
-53.8430431537
 20
4.0368198656
 30
0.0
 11
-52.8510926324
 21
2.3641205471
 31
0.0
  0
LINE
  5
327
330
1F
100
AcDbEntity
  8
0
  6
HIDDEN
 62
     7
370
    18
100
AcDbLine
 10
13.9604120563
 20
66.7494335175
 30
0.0
 11
14.2599853981
 21
65.763927627
 31
0.0
  0
LINE
  5
328
330
1F
100
AcDbEntity
  8
0
  6
HIDDEN
 62
     7
370
    18
100
AcDbLine
 10
20.9746638886
 20
67.7777816353
 30
0.0
 11
20.6931085499
 21
68.7696431927
 31
0.0
  0
LINE
  5
329
330
1F
100
AcDbEntity
  8
0
  6
HIDDEN
 62
     7
370
    18
100
AcDbLine
 10
-41.0464660871
 20
61.0418537059
 30
0.0
 11
-40.606123755
 21
60.090136381
 31
0.0
  0
LINE
  5
32A
330
1F
100
AcDbEntity
  8
0
  6
HIDDEN
 62
     7
370
    18
100
AcDbLine
 10
-34.3521014219
 20
62.90556013
 30
0.0
 11
-34.7756679003
 21
63.8646016574
 31
0.0
  0
ARC
  5
32B
330
1F
100
AcDbEntity
  8
0
  6
Continuous
 62
     7
370
    25
100
AcDbCircle
 10
22.555732262
 20
37.4228762574
 30
0.0
 40
19.15658647199937
100
AcDbArc
 50
0.9702454452
 51
36.6818238005
  0
ARC
  5
32C
330
1F
100
AcDbEntity
  8
0
  6
Continuous
 62
     7
370
    25
100
AcDbCircle
 10
19.4429525709
 20
33.7753469823
 30
0.0
 40
22.33805052127524
100
AcDbArc
 50
327.6718224427
 51
0.4044930915
  0
ARC
  5
32D
330
1F
100
AcDbEntity
  8
0
  6
Continuous
 62
     7
370
    25
100
AcDbCircle
 10
-45.2221192959
 20
23.2361921196
 30
0.0
 40
18.86904460966122
100
AcDbArc
 50
174.3242727488
 51
209.6585041419
  0
ARC
  5
32E
330
1F
100
AcDbEntity
  8
0
  6
Continuous
 62
     7
370
    25
100
AcDbCircle
 10
-39.9891176759
 20
26.3482251349
 30
0.0
 40
23.80098579693111
100
AcDbArc
 50
144.321158465
 51
174.0632177191
  0
ARC
  5
32F
330
1F
100
AcDbEntity
  8
0
  6
Continuous
 62
     7
370
    25
100
AcDbCircle
 10
-22.1340395858
 20
18.1476169034
 30
0.0
 40
34.49696175563433
100
AcDbArc
 50
188.1973405676
 51
193.1417437873
  0
ARC
  5
330
330
1F
100
AcDbEntity
  8
0
  6
Continuous
 62
     7
370
    25
100
AcDbCircle
 10
-23.0689061005
 20
19.824906914
 30
0.0
 40
34.54899010933697
100
AcDbArc
 50
188.1502832181
 51
193.1041136828
  0
ARC
  5
331
330
1F
100
AcDbEntity
  8
0
  6
Continuous
 62
     7
370
    25
100
AcDbCircle
 10
-17.8171198186
 20
18.0317307582
 30
0.0
 40
38.83710009040431
100
AcDbArc
 50
167.2486493225
 51
171.7532227663
  0
ARC
  5
332
330
1F
100
AcDbEntity
  8
0
  6
Continuous
 62
     7
370
    25
100
AcDbCircle
 10
-18.6783899755
 20
19.7024100334
 30
0.0
 40
38.96330917076266
100
AcDbArc
 50
167.1761579554
 51
171.6837467838
  0
ARC
  5
333
330
1F
100
AcDbEntity
  8
0
  6
Continuous
 62
     7
370
    25
100
AcDbCircle
 10
-11.3665205259
 20
15.6228012057
 30
0.0
 40
45.75212786509558
100
AcDbArc
 50
148.5680487663
 51
152.5590116698
  0
ARC
  5
334
330
1F
100
AcDbEntity
  8
0
  6
Continuous
 62
     7
370
    25
100
AcDbCircle
 10
-12.1201279293
 20
17.2437160171
 30
0.0
 40
45.99711052963699
100
AcDbArc
 50
148.4997699506
 51
152.4875740164
  0
ARC
  5
335
330
1F
100
AcDbEntity
  8
0
  6
Continuous
 62
     7
370
    25
100
AcDbCircle
 10
-5.9825076007
 20
11.4615749599
 30
0.0
 40
52.5797806632964
100
AcDbArc
 50
131.8721613979
 51
135.4796556166
  0
ARC
  5
336
330
1F
100
AcDbEntity
  8
0
  6
Continuous
 62
     7
370
    25
100
AcDbCircle
 10
-6.646249926
 20
13.0037891162
 30
0.0
 40
52.9443365794655
100
AcDbArc
 50
131.8288458032
 51
135.4295565009
  0
ARC
  5
337
330
1F
100
AcDbEntity
  8
0
  6
Continuous
 62
     7
370
    25
100
AcDbCircle
 10
-3.6372120076
 20
8.3672166163
 30
0.0
 40
56.47267110071223
100
AcDbArc
 50
116.3464696992
 51
119.7726318949
  0
ARC
  5
338
330
1F
100
AcDbEntity
  8
0
  6
Continuous
 62
     7
370
    25
100
AcDbCircle
 10
-4.261157449
 20
9.8531191954
 30
0.0
 40
56.90627985133
100
AcDbArc
 50
116.3379882993
 51
119.7559509773
  0
ARC
  5
339
330
1F
100
AcDbEntity
  8
0
  6
Continuous
 62
     7
370
    25
100
AcDbCircle
 10
-3.7969412509
 20
9.1025614696
 30
0.0
 40
55.72575151160678
100
AcDbArc
 50
101.0450254427
 51
104.5043450073
  0
ARC
  5
33A
330
1F
100
AcDbEntity
  8
0
  6
Continuous
 62
     7
370
    25
100
AcDbCircle
 10
-4.424099077
 20
10.6015846728
 30
0.0
 40
56.14592748108426
100
AcDbArc
 50
101.0730508352
 51
104.5244207374
  0
ARC
  5
33B
330
1F
100
AcDbEntity
  8
0
  6
Continuous
 62
     7
370
    25
100
AcDbCircle
 10
-4.1495028428
 20
14.1314952736
 30
0.0
 40
50.66990650826838
100
AcDbArc
 50
85.0109500228
 51
88.7166526233
  0
ARC
  5
33C
330
1F
100
AcDbEntity
  8
0
  6
Continuous
 62
     7
370
    25
100
AcDbCircle
 10
-4.7867354226
 20
15.719431659
 30
0.0
 40
51.00048156376486
100
AcDbArc
 50
85.0696874341
 51
88.7694676322
  0
ARC
  5
33D
330
1F
100
AcDbEntity
  8
0
  6
Continuous
 62
     7
370
    25
100
AcDbCircle
 10
-2.6839168271
 20
21.1288025082
 30
0.0
 40
43.49485634012535
100
AcDbArc
 50
67.3397805297
 51
71.4818002436
  0
ARC
  5
33E
330
1F
100
AcDbEntity
  8
0
  6
Continuous
 62
     7
370
    25
100
AcDbCircle
 10
-3.3039225679
 20
22.8404017219
 30
0.0
 40
43.70046058187073
100
AcDbArc
 50
67.4138246232
 51
71.5543649642
  0
ARC
  5
33F
330
1F
100
AcDbEntity
  8
0
  6
Continuous
 62
     7
370
    25
100
AcDbCircle
 10
0.4524050427
 20
26.6368654079
 30
0.0
 40
37.1276013806598
100
AcDbArc
 50
47.4275720306
 51
52.0894223729
  0
ARC
  5
340
330
1F
100
AcDbEntity
  8
0
  6
Continuous
 62
     7
370
    25
100
AcDbCircle
 10
-0.1211617509
 20
28.4465243912
 30
0.0
 40
37.22449288881428
100
AcDbArc
 50
47.4904077149
 51
52.1574731743
  0
ARC
  5
341
330
1F
100
AcDbEntity
  8
0
  6
Continuous
 62
     7
370
    25
100
AcDbCircle
 10
2.8202113789
 20
28.7187417498
 30
0.0
 40
33.95951726401666
100
AcDbArc
 50
25.5248929464
 51
30.5451311039
  0
ARC
  5
342
330
1F
100
AcDbEntity
  8
0
  6
Continuous
 62
     7
370
    25
100
AcDbCircle
 10
2.285594187
 20
30.566440634
 30
0.0
 40
34.00171903654108
100
AcDbArc
 50
25.5481314203
 51
30.5789623558
  0
ARC
  5
343
330
1F
100
AcDbEntity
  8
0
  6
Continuous
 62
     7
370
    25
100
AcDbCircle
 10
12.701928281
 20
18.9157169265
 30
0.0
 40
32.3169386568189
100
AcDbArc
 50
337.195538497
 51
4.3080541848
  0
ARC
  5
344
330
1F
100
AcDbEntity
  8
0
  6
Continuous
 62
     7
370
    25
100
AcDbCircle
 10
11.9173635754
 20
23.7802608249
 30
0.0
 40
32.74510504263757
100
AcDbArc
 50
4.1637734607
 51
13.7976013529
  0
ARC
  5
345
330
1F
100
AcDbEntity
  8
0
  6
Continuous
 62
     7
370
    25
100
AcDbCircle
 10
11.1259969048
 20
23.7285758327
 30
0.0
 40
36.16455959872079
100
AcDbArc
 50
4.1870491809
 51
8.9987592996
  0
ARC
  5
346
330
1F
100
AcDbEntity
  8
0
  6
Continuous
 62
     7
370
    25
100
AcDbCircle
 10
12.0880122109
 20
18.873551667
 30
0.0
 40
35.55984888477573
100
AcDbArc
 50
337.1878115312
 51
4.3169394998
  0
ARC
  5
347
330
1F
100
AcDbEntity
  8
0
  6
Continuous
 62
     7
370
    25
100
AcDbCircle
 10
-24.8796473466
 20
15.0740214009
 30
0.0
 40
34.66980435835998
100
AcDbArc
 50
189.1854376796
 51
209.9435991924
  0
ARC
  5
348
330
1F
100
AcDbEntity
  8
0
  6
Continuous
 62
     7
370
    25
100
AcDbCircle
 10
27.7944153629
 20
6.6551502413
 30
0.0
 40
23.25150877071606
100
AcDbArc
 50
328.6199324218
 51
1.0536279007
  0
ARC
  5
349
330
1F
100
AcDbEntity
  8
0
  6
Continuous
 62
     7
370
    25
100
AcDbCircle
 10
30.0770080579
 20
10.1177444011
 30
0.0
 40
20.87379679769969
100
AcDbArc
 50
1.5627454443
 51
7.7419979681
  0
ARC
  5
34A
330
1F
100
AcDbEntity
  8
0
  6
Continuous
 62
     7
370
    25
100
AcDbCircle
 10
17.6868768659
 20
66.1550034072
 30
0.0
 40
3.523127957710206
100
AcDbArc
 50
90.9773597803
 51
178.070986778
  0
ARC
  5
34B
330
1F
100
AcDbEntity
  8
0
  6
Continuous
 62
     7
370
    25
100
AcDbCircle
 10
18.1034764546
 20
66.5274418069
 30
0.0
 40
3.186040318373506
100
AcDbArc
 50
33.0878464213
 51
98.6048938905
  0
ARC
  5
34C
330
1F
100
AcDbEntity
  8
0
  6
Continuous
 62
     7
370
    25
100
AcDbCircle
 10
-36.8630957994
 20
61.4556875548
 30
0.0
 40
2.939179215218342
100
AcDbArc
 50
39.7989822037
 51
98.6189810855
  0
ARC
  5
34D
330
1F
100
AcDbEntity
  8
0
  6
Continuous
 62
     7
370
    25
100
AcDbCircle
 10
-37.2090711921
 20
60.7977493307
 30
0.0
 40
3.565177274043149
100
AcDbArc
 50
91.5188585031
 51
183.3301049791
  0
ARC
  5
34E
330
1F
100
AcDbEntity
  8
0
  6
HIDDEN
 62
     7
370
    18
100
AcDbCircle
 10
-10.1405226015
 20
12.2309349361
 30
0.0
 40
42.73775016562242
100
AcDbArc
 50
247.8372612173
 51
254.8254293992
  0
ARC
  5
34F
330
1F
100
AcDbEntity
  8
0
  6
HIDDEN
 62
     7
370
    18
100
AcDbCircle
 10
-5.142113465
 20
10.7280788846
 30
0.0
 40
48.41867279595017
100
AcDbArc
 50
255.2469774082
 51
291.6528655369
  0
ARC
  5
350
330
1F
100
AcDbEntity
  8
0
  6
HIDDEN
 62
     7
370
    18
100
AcDbCircle
 10
-9.6302357713
 20
22.6847318984
 30
0.0
 40
53.35974880800601
100
AcDbArc
 50
291.1875569103
 51
297.2917051595
  0
ARC
  5
351
330
1F
100
AcDbEntity
  8
0
  6
HIDDEN
 62
     7
370
    18
100
AcDbCircle
 10
-9.8074235558
 20
-2.0208603177
 30
0.0
 40
34.74446758591763
100
AcDbArc
 50
187.2975220434
 51
248.9426007429
  0
ARC
  5
352
330
1F
100
AcDbEntity
  8
0
  6
HIDDEN
 62
     7
370
    18
100
AcDbCircle
 10
-15.6907238455
 20
35.0086194131
 30
0.0
 40
53.05824772811937
100
AcDbArc
 50
271.2944464969
 51
275.1925710342
  0
ARC
  5
353
330
1F
100
AcDbEntity
  8
0
  6
HIDDEN
 62
     7
370
    18
100
AcDbCircle
 10
-16.5346733694
 20
36.9827304432
 30
0.0
 40
53.42750626614607
100
AcDbArc
 50
271.3317756658
 51
275.2243018327
  0
ARC
  5
354
330
1F
100
AcDbEntity
  8
0
  6
HIDDEN
 62
     7
370
    18
100
AcDbCircle
 10
-16.4576903678
 20
27.8116293992
 30
0.0
 40
45.79236409503389
100
AcDbArc
 50
252.9601533673
 51
257.2256674864
  0
ARC
  5
355
330
1F
100
AcDbEntity
  8
0
  6
HIDDEN
 62
     7
370
    18
100
AcDbCircle
 10
-17.3096962863
 20
29.6543672559
 30
0.0
 40
46.0296740679103
100
AcDbArc
 50
253.0118300045
 51
257.2760387824
  0
ARC
  5
356
330
1F
100
AcDbEntity
  8
0
  6
HIDDEN
 62
     7
370
    18
100
AcDbCircle
 10
-19.4380423872
 20
21.2286525311
 30
0.0
 40
38.53167324346377
100
AcDbArc
 50
232.6538223544
 51
237.383144342
  0
ARC
  5
357
330
1F
100
AcDbEntity
  8
0
  6
HIDDEN
 62
     7
370
    18
100
AcDbCircle
 10
-20.3352536269
 20
22.9555677662
 30
0.0
 40
38.64420342980743
100
AcDbArc
 50
232.6936633877
 51
237.4283249707
  0
ARC
  5
358
330
1F
100
AcDbEntity
  8
0
  6
HIDDEN
 62
     7
370
    18
100
AcDbCircle
 10
-22.3549895763
 20
18.2165696253
 30
0.0
 40
34.31654031518686
100
AcDbArc
 50
210.5903992433
 51
215.6271993079
  0
ARC
  5
359
330
1F
100
AcDbEntity
  8
0
  6
HIDDEN
 62
     7
370
    18
100
AcDbCircle
 10
-23.2968135724
 20
19.8940239534
 30
0.0
 40
34.36208092328183
100
AcDbArc
 50
210.5903019641
 51
215.6377336895
  0
ARC
  5
35A
330
1F
100
AcDbEntity
  8
0
  6
HIDDEN
 62
     7
370
    18
100
AcDbCircle
 10
1.6209883866
 20
28.510560325
 30
0.0
 40
35.17513853002428
100
AcDbArc
 50
3.0694403417
 51
8.0472163505
  0
ARC
  5
35B
330
1F
100
AcDbEntity
  8
0
  6
HIDDEN
 62
     7
370
    18
100
AcDbCircle
 10
1.0699473426
 20
30.3560571601
 30
0.0
 40
35.23382152474596
100
AcDbArc
 50
3.0455676572
 51
8.0328482478
  0
ARC
  5
35C
330
1F
100
AcDbEntity
  8
0
  6
HIDDEN
 62
     7
370
    18
100
AcDbCircle
 10
-3.6981228375
 20
29.114149074
 30
0.0
 40
40.55662509703048
100
AcDbArc
 50
341.833368135
 51
346.4227077898
  0
ARC
  5
35D
330
1F
100
AcDbEntity
  8
0
  6
HIDDEN
 62
     7
370
    18
100
AcDbCircle
 10
-4.3357412434
 20
30.9732957254
 30
0.0
 40
40.70340968828354
100
AcDbArc
 50
341.7835312989
 51
346.376025961
  0
ARC
  5
35E
330
1F
100
AcDbEntity
  8
0
  6
HIDDEN
 62
     7
370
    18
100
AcDbCircle
 10
-10.5488810925
 20
32.4441840256
 30
0.0
 40
48.20805477514422
100
AcDbArc
 50
322.6194063762
 51
326.7537600971
  0
ARC
  5
35F
330
1F
100
AcDbEntity
  8
0
  6
HIDDEN
 62
     7
370
    18
100
AcDbCircle
 10
-11.3034849632
 20
34.3680203622
 30
0.0
 40
48.48893356423166
100
AcDbArc
 50
322.5730253452
 51
326.7044210612
  0
ARC
  5
360
330
1F
100
AcDbEntity
  8
0
  6
HIDDEN
 62
     7
370
    18
100
AcDbCircle
 10
-15.243803402
 20
36.912974157
 30
0.0
 40
54.71334237583055
100
AcDbArc
 50
305.0887498205
 51
308.9140485601
  0
ARC
  5
361
330
1F
100
AcDbEntity
  8
0
  6
HIDDEN
 62
     7
370
    18
100
AcDbCircle
 10
-16.0814862936
 20
38.9222474867
 30
0.0
 40
55.11367844577897
100
AcDbArc
 50
305.0659339895
 51
308.8848708022
  0
ARC
  5
362
330
1F
100
AcDbEntity
  8
0
  6
HIDDEN
 62
     7
370
    18
100
AcDbCircle
 10
-16.3088929956
 20
38.583772355
 30
0.0
 40
56.69667127277802
100
AcDbArc
 50
288.3335769382
 51
292.0757310512
  0
ARC
  5
363
330
1F
100
AcDbEntity
  8
0
  6
HIDDEN
 62
     7
370
    18
100
AcDbCircle
 10
-17.1659847582
 20
40.6246693036
 30
0.0
 40
57.13413497758081
100
AcDbArc
 50
288.3422604614
 51
292.0772430101
  0
ARC
  5
364
330
1F
100
AcDbEntity
  8
0
  6
HIDDEN
 62
     7
370
    18
100
AcDbCircle
 10
-23.5968748559
 20
20.04660948
 30
0.0
 40
36.28173779193047
100
AcDbArc
 50
179.0299719806
 51
183.6524638416
  0
ARC
  5
365
330
1F
100
AcDbEntity
  8
0
  6
HIDDEN
 62
     7
370
    18
100
AcDbCircle
 10
-25.1400014588
 20
20.0687241085
 30
0.0
 40
32.30490663558884
100
AcDbArc
 50
157.664580847
 51
183.7934353827
  0
ARC
  5
366
330
1F
100
AcDbEntity
  8
0
  6
HIDDEN
 62
     7
370
    18
100
AcDbCircle
 10
-25.3254330459
 20
15.2065982782
 30
0.0
 40
31.8091730870566
100
AcDbArc
 50
183.4635943425
 51
209.9096681559
  0
ARC
  5
367
330
1F
100
AcDbEntity
  8
0
  6
HIDDEN
 62
     7
370
    18
100
AcDbCircle
 10
13.2584570617
 20
24.1539623341
 30
0.0
 40
31.35361426639959
100
AcDbArc
 50
13.7188822834
 51
31.4270783736
  0
ARC
  5
368
330
1F
100
AcDbEntity
  8
0
  6
HIDDEN
 62
     7
370
    18
100
AcDbCircle
 10
-9.4825879458
 20
22.3318997185
 30
0.0
 40
51.39921432518248
100
AcDbArc
 50
290.0149857517
 51
292.9217579972
  0
ARC
  5
369
330
1F
100
AcDbEntity
  8
0
  6
HIDDEN
 62
     7
370
    18
100
AcDbCircle
 10
-9.6548924304
 20
13.2977032437
 30
0.0
 40
42.24695923093161
100
AcDbArc
 50
252.9050610299
 51
256.1824632404
  0
ARC
  5
36A
330
1F
100
AcDbEntity
  8
0
  6
HIDDEN
 62
     7
370
    18
100
AcDbCircle
 10
-5.9300607879
 20
5.1716573702
 30
0.0
 40
41.23756123015499
100
AcDbArc
 50
252.6800011512
 51
255.961195261
  0
ARC
  5
36B
330
1F
100
AcDbEntity
  8
0
  6
HIDDEN
 62
     7
370
    18
100
AcDbCircle
 10
-5.7464559641
 20
13.4348542497
 30
0.0
 40
49.61041701474841
100
AcDbArc
 50
289.9911151732
 51
292.9223040866
  0
ARC
  5
36C
330
1F
100
AcDbEntity
  8
0
  6
HIDDEN
 62
     7
370
    18
100
AcDbCircle
 10
-31.24068829
 20
-2.15826826
 30
0.0
 40
20.27018676197198
100
AcDbArc
 50
175.2732485711
 51
209.5938121614
  0
ARC
  5
36D
330
1F
100
AcDbEntity
  8
0
  6
HIDDEN
 62
     7
370
    18
100
AcDbCircle
 10
-29.0535795312
 20
1.3319297457
 30
0.0
 40
22.187007649578
100
AcDbArc
 50
169.9271819404
 51
175.6495857332
  0
MTEXT
  5
36F
330
1F
100
AcDbEntity
  8
0
  6
Continuous
 62
     7
100
AcDbMText
 10
-64.0911639056
 20
-43.356736794
 30
0.0
 40
4.83362
 41
0.0
 71
     1
 72
     1
  1
SOLIDWORKS Educational Product.
  7
SLDTEXTSTYLE0
 73
     1
 44
1.0
  0
MTEXT
  5
370
330
1F
100
AcDbEntity
  8
0
  6
Continuous
 62
     7
100
AcDbMText
 10
-64.0911639056
 20
-50.607166794
 30
0.0
 40
4.83362
 41
0.0
 71
     1
 72
     1
  1
For Instructional Use Only.
  7
SLDTEXTSTYLE0
 73
     1
 44
1.0
  0
ENDSEC
  0
SECTION
  2
OBJECTS
  0
DICTIONARY
  5
C
330
0
100
AcDbDictionary
281
     1
  3
ACAD_GROUP
350
D
  3
ACAD_LAYOUT
350
1A
  3
ACAD_MLINESTYLE
350
17
  3
ACAD_PLOTSETTINGS
350
19
  3
ACAD_PLOTSTYLENAME
350
E
  3
ACAD_SCALELIST
350
47
  0
DICTIONARY
  5
D
102
{ACAD_REACTORS
330
C
102
}
330
C
100
AcDbDictionary
281
     1
  0
DICTIONARY
  5
1A
102
{ACAD_REACTORS
330
C
102
}
330
C
100
AcDbDictionary
281
     1
  3
Layout1
350
1E
  3
Layout2
350
26
  3
Model
350
22
  0
DICTIONARY
  5
17
102
{ACAD_REACTORS
330
C
102
}
330
C
100
AcDbDictionary
281
     1
  3
Standard
350
18
  0
DICTIONARY
  5
19
102
{ACAD_REACTORS
330
C
102
}
330
C
100
AcDbDictionary
281
     1
  0
ACDBDICTIONARYWDFLT
  5
E
102
{ACAD_REACTORS
330
C
102
}
330
C
100
AcDbDictionary
281
     1
  3
Normal
350
F
100
AcDbDictionaryWithDefault
340
F
  0
DICTIONARY
  5
47
102
{ACAD_REACTORS
330
C
102
}
330
C
100
AcDbDictionary
281
     1
  3
A0
350
48
  3
A1
350
49
  3
A2
350
4A
  3
A3
350
4B
  3
A4
350
4C
  3
A5
350
4D
  3
A6
350
4E
  3
A7
350
4F
  3
A8
350
50
  3
A9
350
51
  3
B0
350
52
  3
B1
350
53
  3
B2
350
54
  3
B3
350
55
  3
B4
350
56
  3
B5
350
57
  3
B6
350
58
  3
B7
350
59
  3
B8
350
5A
  3
B9
350
5B
  3
C0
350
5C
  3
C1
350
5D
  3
C2
350
5E
  3
C3
350
5F
  3
C4
350
60
  3
C5
350
61
  3
C6
350
62
  3
C7
350
63
  3
C8
350
64
  3
C9
350
65
  3
D0
350
66
  3
D1
350
67
  3
D2
350
68
  0
LAYOUT
  5
1E
102
{ACAD_REACTORS
330
1A
102
}
330
1A
100
AcDbPlotSettings
  1

  2
none_device
  4

  6

 40
0.0
 41
0.0
 42
0.0
 43
0.0
 44
0.0
 45
0.0
 46
0.0
 47
0.0
 48
0.0
 49
0.0
140
0.0
141
0.0
142
1.0
143
1.0
 70
   688
 72
     1
 73
     0
 74
     5
  7

 75
    16
147
1.0
148
0.0
149
0.0
100
AcDbLayout
  1
Layout1
 70
     1
 71
     1
 10
0.0
 20
0.0
 11
420.0
 21
297.0
 12
0.0
 22
0.0
 32
0.0
 14
1.0000000000E+20
 24
1.0000000000E+20
 34
1.0000000000E+20
 15
-1.0000000000E+20
 25
-1.0000000000E+20
 35
-1.0000000000E+20
146
0.0
 13
0.0
 23
0.0
 33
0.0
 16
1.0
 26
0.0
 36
0.0
 17
0.0
 27
1.0
 37
0.0
 76
     0
330
1B
  0
LAYOUT
  5
26
102
{ACAD_REACTORS
330
1A
102
}
330
1A
100
AcDbPlotSettings
  1

  2
none_device
  4

  6

 40
0.0
 41
0.0
 42
0.0
 43
0.0
 44
0.0
 45
0.0
 46
0.0
 47
0.0
 48
0.0
 49
0.0
140
0.0
141
0.0
142
1.0
143
1.0
 70
   688
 72
     1
 73
     0
 74
     5
  7

 75
    16
147
1.0
148
0.0
149
0.0
100
AcDbLayout
  1
Layout2
 70
     1
 71
     2
 10
0.0
 20
0.0
 11
0.0
 21
0.0
 12
0.0
 22
0.0
 32
0.0
 14
0.0
 24
0.0
 34
0.0
 15
0.0
 25
0.0
 35
0.0
146
0.0
 13
0.0
 23
0.0
 33
0.0
 16
1.0
 26
0.0
 36
0.0
 17
0.0
 27
1.0
 37
0.0
 76
     0
330
23
  0
LAYOUT
  5
22
102
{ACAD_REACTORS
330
1A
102
}
330
1A
100
AcDbPlotSettings
  1

  2
none_device
  4
ANSI_A_(11.00_x_8.50_Inches)
  6

 40
6.35
 41
19.05
 42
6.35000508
 43
19.05000254
 44
279.4
 45
215.9
 46
145.4738180693
 47
60.72307095
 48
0.0
 49
0.0
140
0.0
141
0.0
142
0.0731785357
143
1.0
 70
  1696
 72
     0
 73
     0
 74
     0
  7

 75
     0
147
0.0179189148
148
-1300.4909072572
149
0.0
100
AcDbLayout
  1
Model
 70
     1
 71
     0
 10
0.0
 20
0.0
 11
420.0
 21
297.0
 12
0.0
 22
0.0
 32
0.0
 14
-64.0911639056
 24
-42.3371704023
 34
0.0
 15
51.0459241336
 25
72.6555651374
 35
0.0
146
0.0
 13
0.0
 23
0.0
 33
0.0
 16
1.0
 26
0.0
 36
0.0
 17
0.0
 27
1.0
 37
0.0
 76
     0
330
1F
331
29
  0
MLINESTYLE
  5
18
102
{ACAD_REACTORS
330
17
102
}
330
17
100
AcDbMlineStyle
  2
Standard
 70
     0
  3

 62
   256
 51
90.0
 52
90.0
 71
     2
 49
0.5
 62
   256
  6
BYLAYER
 49
-0.5
 62
   256
  6
BYLAYER
  0
ACDBPLACEHOLDER
  5
F
102
{ACAD_REACTORS
330
E
102
}
330
E
  0
SCALE
  5
48
102
{ACAD_REACTORS
330
47
102
}
330
47
100
AcDbScale
 70
     0
300
1:1
140
1.0
141
1.0
290
     1
  0
SCALE
  5
49
102
{ACAD_REACTORS
330
47
102
}
330
47
100
AcDbScale
 70
     0
300
1:2
140
1.0
141
2.0
290
     0
  0
SCALE
  5
4A
102
{ACAD_REACTORS
330
47
102
}
330
47
100
AcDbScale
 70
     0
300
1:4
140
1.0
141
4.0
290
     0
  0
SCALE
  5
4B
102
{ACAD_REACTORS
330
47
102
}
330
47
100
AcDbScale
 70
     0
300
1:5
140
1.0
141
5.0
290
     0
  0
SCALE
  5
4C
102
{ACAD_REACTORS
330
47
102
}
330
47
100
AcDbScale
 70
     0
300
1:8
140
1.0
141
8.0
290
     0
  0
SCALE
  5
4D
102
{ACAD_REACTORS
330
47
102
}
330
47
100
AcDbScale
 70
     0
300
1:10
140
1.0
141
10.0
290
     0
  0
SCALE
  5
4E
102
{ACAD_REACTORS
330
47
102
}
330
47
100
AcDbScale
 70
     0
300
1:16
140
1.0
141
16.0
290
     0
  0
SCALE
  5
4F
102
{ACAD_REACTORS
330
47
102
}
330
47
100
AcDbScale
 70
     0
300
1:20
140
1.0
141
20.0
290
     0
  0
SCALE
  5
50
102
{ACAD_REACTORS
330
47
102
}
330
47
100
AcDbScale
 70
     0
300
1:30
140
1.0
141
30.0
290
     0
  0
SCALE
  5
51
102
{ACAD_REACTORS
330
47
102
}
330
47
100
AcDbScale
 70
     0
300
1:40
140
1.0
141
40.0
290
     0
  0
SCALE
  5
52
102
{ACAD_REACTORS
330
47
102
}
330
47
100
AcDbScale
 70
     0
300
1:50
140
1.0
141
50.0
290
     0
  0
SCALE
  5
53
102
{ACAD_REACTORS
330
47
102
}
330
47
100
AcDbScale
 70
     0
300
1:100
140
1.0
141
100.0
290
     0
  0
SCALE
  5
54
102
{ACAD_REACTORS
330
47
102
}
330
47
100
AcDbScale
 70
     0
300
2:1
140
2.0
141
1.0
290
     0
  0
SCALE
  5
55
102
{ACAD_REACTORS
330
47
102
}
330
47
100
AcDbScale
 70
     0
300
4:1
140
4.0
141
1.0
290
     0
  0
SCALE
  5
56
102
{ACAD_REACTORS
330
47
102
}
330
47
100
AcDbScale
 70
     0
300
8:1
140
8.0
141
1.0
290
     0
  0
SCALE
  5
57
102
{ACAD_REACTORS
330
47
102
}
330
47
100
AcDbScale
 70
     0
300
10:1
140
10.0
141
1.0
290
     0
  0
SCALE
  5
58
102
{ACAD_REACTORS
330
47
102
}
330
47
100
AcDbScale
 70
     0
300
100:1
140
100.0
141
1.0
290
     0
  0
SCALE
  5
59
102
{ACAD_REACTORS
330
47
102
}
330
47
100
AcDbScale
 70
     0
300
1/128" = 1'-0"
140
0.0078125
141
12.0
290
     0
  0
SCALE
  5
5A
102
{ACAD_REACTORS
330
47
102
}
330
47
100
AcDbScale
 70
     0
300
1/64" = 1'-0"
140
0.015625
141
12.0
290
     0
  0
SCALE
  5
5B
102
{ACAD_REACTORS
330
47
102
}
330
47
100
AcDbScale
 70
     0
300
1/32" = 1'-0"
140
0.03125
141
12.0
290
     0
  0
SCALE
  5
5C
102
{ACAD_REACTORS
330
47
102
}
330
47
100
AcDbScale
 70
     0
300
1/16" = 1'-0"
140
0.0625
141
12.0
290
     0
  0
SCALE
  5
5D
102
{ACAD_REACTORS
330
47
102
}
330
47
100
AcDbScale
 70
     0
300
3/32" = 1'-0"
140
0.09375
141
12.0
290
     0
  0
SCALE
  5
5E
102
{ACAD_REACTORS
330
47
102
}
330
47
100
AcDbScale
 70
     0
300
1/8" = 1'-0"
140
0.125
141
12.0
290
     0
  0
SCALE
  5
5F
102
{ACAD_REACTORS
330
47
102
}
330
47
100
AcDbScale
 70
     0
300
3/16" = 1'-0"
140
0.1875
141
12.0
290
     0
  0
SCALE
  5
60
102
{ACAD_REACTORS
330
47
102
}
330
47
100
AcDbScale
 70
     0
300
1/4" = 1'-0"
140
0.25
141
12.0
290
     0
  0
SCALE
  5
61
102
{ACAD_REACTORS
330
47
102
}
330
47
100
AcDbScale
 70
     0
300
3/8" = 1'-0"
140
0.375
141
12.0
290
     0
  0
SCALE
  5
62
102
{ACAD_REACTORS
330
47
102
}
330
47
100
AcDbScale
 70
     0
300
1/2" = 1'-0"
140
0.5
141
12.0
290
     0
  0
SCALE
  5
63
102
{ACAD_REACTORS
330
47
102
}
330
47
100
AcDbScale
 70
     0
300
3/4" = 1'-0"
140
0.75
141
12.0
290
     0
  0
SCALE
  5
64
102
{ACAD_REACTORS
330
47
102
}
330
47
100
AcDbScale
 70
     0
300
1" = 1'-0"
140
1.0
141
12.0
290
     0
  0
SCALE
  5
65
102
{ACAD_REACTORS
330
47
102
}
330
47
100
AcDbScale
 70
     0
300
1-1/2" = 1'-0"
140
1.5
141
12.0
290
     0
  0
SCALE
  5
66
102
{ACAD_REACTORS
330
47
102
}
330
47
100
AcDbScale
 70
     0
300
3" = 1'-0"
140
3.0
141
12.0
290
     0
  0
SCALE
  5
67
102
{ACAD_REACTORS
330
47
102
}
330
47
100
AcDbScale
 70
     0
300
6" = 1'-0"
140
6.0
141
12.0
290
     0
  0
SCALE
  5
68
102
{ACAD_REACTORS
330
47
102
}
330
47
100
AcDbScale
 70
     0
300
1'-0" = 1'-0"
140
12.0
141
12.0
290
     0
  0
ENDSEC
  0
EOF
